<?xml version="1.0" encoding="UTF-8" standalone="no"?>
<!-- Created with Inkscape (http://www.inkscape.org/) -->

<svg
   xmlns:dc="http://purl.org/dc/elements/1.1/"
   xmlns:cc="http://creativecommons.org/ns#"
   xmlns:rdf="http://www.w3.org/1999/02/22-rdf-syntax-ns#"
   xmlns:svg="http://www.w3.org/2000/svg"
   xmlns="http://www.w3.org/2000/svg"
   version="1.1"
   width="1200.0004"
   height="258.67215"
   id="svg2985">
  <metadata
     id="metadata2991">
    <rdf:RDF>
      <cc:Work
         rdf:about="">
        <dc:format>image/svg+xml</dc:format>
        <dc:type
           rdf:resource="http://purl.org/dc/dcmitype/StillImage" />
        <dc:title></dc:title>
      </cc:Work>
    </rdf:RDF>
  </metadata>
  <defs
     id="defs2989" />
  <path
     d="M 1.25,258.09874 C 0.2732478,257.70461 0,246.59675 0,207.28468 c 0,-44.95336 0.1684082,-50.37431 1.5817875,-50.91667 2.7374291,-1.05045 5.8903586,-0.66501 8.2859675,1.01294 1.970876,1.38045 3.137131,1.45436 7.889288,0.5 3.067086,-0.61596 12.242895,-1.11993 20.390686,-1.11993 16.431413,0 15.229841,0.52332 16.072316,-7 0.243332,-2.17296 0.835925,-2.54023 4.529955,-2.8075 l 4.25,-0.3075 0,-4.87107 c 0,-7.47953 1.000264,-8.01393 15,-8.01393 9.445887,0 12.176707,0.31956 13.428571,1.57143 1.272543,1.27254 1.571429,4.12554 1.571429,15 l 0,13.42857 8.56104,0 c 7.85633,0 9.23757,-0.31843 16.77952,-3.86839 11.99335,-5.6452 12.12807,-6.14594 8.15944,-30.32865 -2.76782,-16.86565 -3.15283,-25.04199 -1.25,-26.54624 0.6875,-0.5435 2.6,-1.42338 4.25,-1.95529 l 3,-0.96711 1.18224,-14.917162 c 0.65023,-8.20444 1.21273,-15.25466 1.25,-15.66716 0.0373,-0.4125 0.46534,-0.75 0.95126,-0.75 0.91515,0 1.5994,5.61772 2.6983,22.1532 l 0.64152,9.653202 4.63834,0.65376 c 6.97289,0.98281 8.13834,1.49665 8.13834,3.58818 0,1.18638 -0.85503,2.08206 -2.25,2.35697 -1.2375,0.24388 -4.26743,0.81537 -6.73319,1.26998 -4.20811,0.77585 -4.52069,1.05728 -5.09437,4.58668 -1.04907,6.45398 -3.25216,6.3312 -4.30291,-0.23981 -0.64407,-4.02781 -2.20083,-5.27684 -3.23099,-2.5923 -0.30177,0.78642 0.61235,8.55634 2.03139,17.2665 1.41904,8.71015 2.58007,18.61695 2.58007,22.01511 l 0,6.17846 5.66279,4.05503 c 5.29617,3.79251 6.10545,4.05504 12.5,4.05504 l 6.83721,0 0,-15.9349 c 0,-8.7642 0.40489,-16.99985 0.89976,-18.30146 1.23863,-3.25782 6.98386,-4.989 11.36008,-3.42306 1.78209,0.63768 3.57077,1.60942 3.97485,2.15942 0.40408,0.55 0.74158,8.3125 0.75,17.25 0.013,13.77097 0.24414,16.25 1.51531,16.25 1.24186,0 1.5,-1.8814 1.5,-10.93261 0,-9.79792 0.19393,-10.99417 1.86852,-11.52566 1.02768,-0.32617 11.26518,-0.67959 22.75,-0.78537 24.52532,-0.22589 25.12359,-0.0622 25.57693,6.99963 l 0.30455,4.74401 9.73409,0.28602 c 8.54856,0.25119 9.86457,0.52982 10.8054,2.28777 1.35189,2.52603 0.40448,5.65053 -1.93889,6.39428 -0.9884,0.31371 -2.26662,1.60089 -2.84049,2.8604 -1.25804,2.76109 -6.96682,4.67153 -13.95946,4.67153 -5.62415,0 -6.80864,0.63486 -4.84611,2.5974 1.01603,1.01603 1.2229,3.34939 0.81918,9.23961 -0.36529,5.32947 -0.17332,8.10701 0.59307,8.58066 0.67757,0.41877 1.13321,3.64863 1.13321,8.03294 0,7.09437 0.0859,7.35414 2.64464,7.99634 4.56299,1.14523 4.84804,-0.38555 2.53181,-13.59636 -2.02451,-11.54696 -2.04883,-12.33413 -0.43607,-14.1162 0.93939,-1.03803 2.16961,-3.31541 2.73381,-5.06085 l 1.02581,-3.17354 10.82743,-0.28462 c 8.18305,-0.2151 11.57872,0.0902 13.90363,1.25 3.38875,1.69053 17.76894,2.181 17.76894,0.60605 0,-0.51072 0.70714,-1.63572 1.57143,-2.5 1.20543,-1.20543 3.75836,-1.57143 10.96104,-1.57143 7.95749,0 9.66248,0.2918 11.17857,1.91316 1.45932,1.56062 4.0174,2.08036 13.88263,2.82058 9.8878,0.74192 12.65193,1.30496 15.15437,3.08685 1.88818,1.3445 4.55647,2.17941 6.9652,2.17941 2.14748,0 4.72434,0.59948 5.72637,1.33218 1.75768,1.28525 1.7468,1.6828 -0.30887,11.28402 C 344.95883,192.85073 344,197.65124 344,198.04504 c 0,0.39379 1.125,0.71598 2.5,0.71598 2.49863,0 2.5,-0.005 2.5,-9.91821 0,-5.45502 0.27314,-10.63002 0.60699,-11.5 0.42436,-1.10588 1.91164,-1.58179 4.94329,-1.58179 3.19845,0 4.70283,-0.52327 5.73307,-1.99415 0.76821,-1.09678 3.51754,-3.12178 6.10961,-4.5 4.00905,-2.13162 6.03682,-2.50585 13.57817,-2.50585 4.87591,0 9.5771,0.27314 10.44708,0.60699 1.35037,0.51818 1.58179,2.92704 1.58179,16.46482 0,14.65471 0.14675,15.93636 1.93426,16.89301 1.06384,0.56935 2.43943,1.03518 3.05687,1.03518 0.81609,0 1.06356,-11.73719 0.90634,-42.98694 l -0.21626,-42.98694 5.11703,-5.49793 c 3.39443,-3.6471 5.63626,-5.29869 6.6594,-4.90607 0.8483,0.32552 1.5443,0.88121 1.54666,1.23487 0.002,0.35365 1.75212,2.94825 3.88834,5.76576 3.60561,4.75553 3.92558,5.72328 4.46362,13.5 0.31877,4.60749 0.54555,8.82725 0.50396,9.37725 -0.64673,8.5521 -0.73221,46.03596 -0.11173,49 l 0.83733,4 10.9181,0.28597 c 7.35096,0.19254 11.42091,0.7249 12.45709,1.62941 0.84644,0.73889 2.99133,2.07901 4.76642,2.97804 3.15073,1.59575 3.23834,1.58079 3.68647,-0.62941 0.25246,-1.24521 0.71425,-6.76401 1.02619,-12.26401 0.65475,-11.54426 1.64613,-16 3.55991,-16 2.20142,0 3.07722,5.0932 3.61104,21 0.68108,20.2945 0.50083,19.68098 5.67204,19.30588 l 4.21692,-0.30588 0.18682,-43.74384 0.18681,-43.74385 4.62163,-6.00615 c 2.5419,-3.30339 5.24537,-6.00616 6.00771,-6.00616 0.76234,0 3.32353,2.24503 5.69155,4.98895 4.27737,4.95637 4.30874,5.04941 4.80548,14.25 0.275,5.09358 0.26069,18.93605 -0.0318,30.76105 -0.29249,11.825 -0.35399,22.28183 -0.13666,23.23739 0.3625,1.5939 0.6401,1.56297 3.36094,-0.37444 1.6312,-1.16152 3.11194,-2.61834 3.29053,-3.2374 0.1786,-0.61905 1.35192,-4.83805 2.60737,-9.37555 1.25546,-4.5375 2.65836,-8.25 3.11758,-8.25 1.01499,0 2.03334,2.52294 4.38116,10.85425 0.98487,3.49484 2.33961,6.5649 3.01053,6.82236 1.92303,0.73794 7.40286,-2.54652 8.29953,-4.97451 0.44728,-1.21115 1.08023,-7.08392 1.40655,-13.05058 0.39481,-7.21889 1.10817,-11.63425 2.13217,-13.19707 0.84638,-1.29173 3.60559,-9.68492 6.13158,-18.65153 2.526,-8.9666 5.02497,-16.74916 5.55327,-17.29456 1.5,-1.54856 2.30059,0.46124 6.81041,17.09669 2.29039,8.44861 5.08731,17.44762 6.21537,19.99781 1.53515,3.47046 2.188,7.6094 2.59556,16.45538 0.54153,11.75352 0.55975,11.82497 3.30528,12.96221 5.70804,2.36434 7.1635,1.23588 9.92397,-7.69438 1.38967,-4.49567 2.82771,-8.47171 3.19565,-8.83565 1.02253,-1.01142 2.36002,2.25856 4.29863,10.50958 0.96919,4.125 2.26807,8.625 2.88641,10 1.03558,2.30281 1.14573,2.10562 1.39643,-2.5 0.45474,-8.35386 0.91543,-9.34669 4.66321,-10.04978 l 3.39755,-0.63738 1.65095,-11.65642 c 0.90802,-6.41103 2.28981,-15.70642 3.07064,-20.65642 0.78083,-4.95 1.86331,-13.95 2.4055,-20 0.54219,-6.05 1.44435,-15.500002 2.0048,-21.000002 2.06148,-20.23051 3.18542,-44.77148 2.10017,-45.85673 -2.24134,-2.24134 -0.44758,-9.64327 2.33692,-9.64327 3.48594,0 6.10438,7.11542 3.55617,9.66363 -1.01146,1.01146 0.0365,28.6363 1.63671,43.14514 0.55558,5.03736 0.72145,5.29298 3.24438,5 2.24427,-0.26062 2.76534,-0.93248 3.34175,-4.30877 1.84519,-10.80804 3.74662,-53.08437 2.84994,-63.3657 -0.28984,-3.32336 2.48571,-5.94609 4.75961,-4.49756 1.66181,1.05862 1.82651,2.85028 1.09047,11.86326 -0.23642,2.89513 1.06703,27.09221 2.18167,40.5 0.52582,6.325 1.24202,15.55 1.59156,20.5 0.80788,11.440902 1.73256,13.315362 3.31484,6.719662 0.66721,-2.781222 1.81245,-5.876422 2.54499,-6.878222 1.25788,-1.72027 1.39042,-1.68313 2.38565,0.66855 0.57957,1.36951 1.54871,4.44793 2.15364,6.840952 0.60493,2.39302 1.25342,4.19302 1.44108,4 0.69782,-0.71771 3.50816,-33.028852 4.58298,-52.691612 0.82425,-15.07867 0.81984,-21.04573 -0.017,-23.06613 -0.7953,-1.92002 -0.82449,-3.52618 -0.0988,-5.43495 2.3432,-6.16306 7.76623,-3.40512 6.571,3.34175 -1.09623,6.18804 -0.71493,17.66193 1.55983,46.93805 1.30386,16.7807 1.93345,19.06195 5.26081,19.06195 2.25939,0 2.41648,-0.4213 3.07618,-8.25 1.84405,-21.88346 2.18768,-35.67102 1.04712,-42.01377 -0.43855,-2.43886 -0.2426,-4.28696 0.55666,-5.25 3.47167,-4.18311 8.22585,1.11251 5.94412,6.62107 -1.18641,2.86425 0.15026,35.22148 2.09516,50.7184 0.50566,4.02913 1.40342,13.479132 1.995,21.000002 1.21339,15.42596 5.32849,42.13646 6.96186,45.18844 0.75737,1.41517 0.76958,3.12697 0.041,5.75043 -1.60376,5.77474 -1.32444,13.76158 0.53526,15.305 2.1575,1.79056 4.76622,0.0595 5.41618,-3.59401 0.61435,-3.45332 2.93279,-4.44859 3.6827,-1.58092 0.6922,2.64699 2.37593,2.68568 4.58527,0.10536 1.52884,-1.78555 2.94994,-2 13.25363,-2 10.0898,0 11.61879,0.22007 12.15836,1.75 0.99243,2.81396 5.55564,6.36034 7.77523,6.04266 1.37825,-0.19726 2.14565,-1.16524 2.35417,-2.96948 0.36525,-3.16043 2.95161,-5.86309 3.52719,-3.6858 0.19813,0.74944 0.91963,2.93762 1.60335,4.86262 0.68372,1.925 1.71277,5.21147 2.28677,7.30328 0.95345,3.47455 1.31288,3.77706 4.15849,3.5 L 737.5,192.26102 738,169.43917 c 0.44656,-20.38245 0.68706,-22.92637 2.25,-23.79969 0.9625,-0.53781 1.75,-1.80733 1.75,-2.82116 0,-1.01383 0.7118,-2.11647 1.58179,-2.45031 2.06021,-0.79058 11.79276,-0.78423 13.85998,0.009 1.67729,0.64364 8.55823,10.35922 8.55823,12.08384 0,0.54607 0.74134,2.47891 1.64742,4.29519 1.43446,2.87544 1.57589,6.12703 1.09402,25.15273 -0.365,14.41163 -0.20501,22.06571 0.46995,22.48286 0.56285,0.34785 3.4792,0.0433 6.48078,-0.67675 l 5.45742,-1.30922 -0.26654,-9.92528 c -0.22231,-8.27789 10e-4,-10.07516 1.34705,-10.8283 0.88749,-0.49666 1.9027,-2.21924 2.25603,-3.82796 1.37642,-6.26678 5.95097,-6.58058 7.0942,-0.48664 0.44657,2.38042 1.34964,3.85393 2.55517,4.16919 1.66718,0.43597 1.8645,1.57823 1.8645,10.79339 l 0,10.30582 3.54124,1.16871 c 7.07605,2.33531 6.58853,7.62795 6.47134,-70.25492 -0.0581,-38.642282 0.30679,-75.520282 0.81097,-81.951102 0.77811,-9.92473 1.65164,-13.85547 5.778,-26 4.57107,-13.45337 5.17789,-14.62041 10.16381,-19.5470499 6.27156,-6.19700996 9.25922,-7.24065 13.77154,-4.8106 7.67826,4.13501 11.35926,9.4863199 16.63889,24.1889699 4.9322,13.73515 4.98944,14.03373 6.29968,32.86109 0.72724,10.45 1.62332,46.900002 1.99129,81.000002 0.36797,34.1 0.89381,62.7875 1.16853,63.75 0.36686,1.28533 1.5437,1.75 4.4321,1.75 l 3.93261,0 0,-66.11539 0,-66.115402 16.75,0.39155 c 9.2125,0.21535 17.3125,0.74384 18,1.17441 0.97665,0.61167 1.25,13.47713 1.25,58.833252 l 0,58.05039 3.25,-0.51099 c 1.7875,-0.28104 5.5,-1.14642 8.25,-1.92306 l 5,-1.41206 0.56061,-28.43635 c 0.35558,-18.03608 0.96893,-29.16783 1.67701,-30.43635 0.61401,-1.1 1.36011,-2.7875 1.658,-3.75 0.45244,-1.46187 1.76984,-1.75 8.00157,-1.75 7.24118,0 10.60281,1.29085 10.60281,4.07143 0,0.51071 1.54571,0.92857 3.4349,0.92857 4.57334,0 8.118,1.436 9.06751,3.6734 0.42634,1.00463 1.05021,4.9766 1.38638,8.8266 l 0.61121,7 6.13843,0.5 c 8.91701,0.72633 10.28476,2.6688 10.3283,14.66821 0.0183,5.04252 0.30641,9.88002 0.64026,10.75 0.8876,2.31305 6.66723,2.04125 8.89301,-0.41821 1.41671,-1.56544 3.07997,-2 7.65499,-2 l 5.84501,0 0.014,-28.25 c 0.01,-15.5375 0.2645,-29.18442 0.5712,-30.32648 0.889,-3.31046 5.5559,-5.41989 12.0694,-5.45532 8.3952,-0.0457 9.7291,-1.36842 10.3457,-10.258892 l 0.5,-7.20931 14.2241,-0.2773 c 14.0993,-0.27486 14.2282,-0.25731 14.6887,2 0.2556,1.25252 0.6891,26.976692 0.9635,57.164842 0.3056,33.63218 0.8765,55.26524 1.4741,55.86287 2.9458,2.94576 3.1496,-1.10676 3.1496,-62.6183 0,-48.243852 0.2812,-62.625042 1.25,-63.917402 0.7183,-0.95824 4.4069,-2.32512 8.6716,-3.21347 7.05,-1.46853 7.8212,-1.44235 15.4024,0.52278 6.7171,1.74115 10.9312,3.25298 11.8777,4.26116 0.1109,0.11815 0.4484,10.32202 0.75,22.675262 l 0.5483,22.46045 5.7845,1.15736 c 3.1814,0.63655 6.0965,1.46946 6.478,1.85091 0.3814,0.38146 0.9284,3.02844 1.2155,5.8822 l 0.522,5.18864 18.3471,0.0981 c 14.569,0.0779 18.5299,0.38679 19.2347,1.5 0.4882,0.77104 0.8945,5.56439 0.9029,10.65189 0.01,5.0875 0.3811,9.25 0.8282,9.25 0.4471,0 2.1346,-1.37928 3.75,-3.06507 l 2.9371,-3.06507 0.5,-22.68331 0.5,-22.6833 3.6782,0.3188 c 3.636,0.31516 3.6855,0.26933 4.3233,-4.00162 0.3548,-2.37624 0.1964,-5.497262 -0.3522,-6.935622 -0.5985,-1.56947 -0.6634,-4.16858 -0.1624,-6.5 0.4592,-2.13664 1.1513,-11.19731 1.5379,-20.13481 0.3867,-8.9375 1.0342,-16.25 1.439,-16.25 0.4048,0 1.0229,7.9875 1.3736,17.75 0.4665,12.98464 1.2197,20.16624 2.8055,26.75 1.7468,7.252042 2.2943,13.467012 2.819,32.000002 l 0.6511,23 4.0829,10 c 5.3426,13.0856 16.8992,37.51967 18.8059,39.76143 1.247,1.46606 1.4982,6.1015 1.4982,27.64301 0,22.67813 -0.1958,25.95671 -1.5818,26.48857 C 1196.5249,258.88057 3.0509869,258.82545 1.25,258.09878 z M 1189,191.76102 c -0.5887,-1.1 -1.2954,-2 -1.5704,-2 -0.275,0 -0.018,0.9 0.5704,2 0.5887,1.1 1.2954,2 1.5704,2 0.275,0 0.018,-0.9 -0.5704,-2 z m -52.8287,-15.65499 c 2.689,-2.43357 2.2497,-3.34501 -1.6123,-3.34501 -3.6734,0 -5.0817,1.19559 -4.179,3.54789 0.7436,1.93776 3.5339,1.84001 5.7913,-0.20288 z m 10.0018,0.56235 c 1.4765,-0.79019 2.3441,-0.79019 3.1343,0 0.6009,0.60095 4.3776,1.09264 8.3926,1.09264 7.1447,0 7.3,-0.0539 7.3,-2.53212 0,-3.19829 -2.576,-9.46788 -3.8901,-9.46788 -0.5457,0 -1.3704,-1.9125 -1.8327,-4.25 -0.4622,-2.3375 -1.3702,-4.25 -2.0177,-4.25 -1.7831,0 -6.2595,6.57521 -6.2595,9.19428 0,1.26815 -0.8437,3.03697 -1.875,3.93072 -5.288,4.58295 -6.125,5.45409 -6.125,6.375 0,1.27868 0.646,1.25981 3.1731,-0.0926 z M 1173,176.32004 c 0,-1.59263 -1.8144,-3.07799 -2.6901,-2.20228 -0.8226,0.82264 0.4615,3.64326 1.6587,3.64326 0.5673,0 1.0314,-0.64844 1.0314,-1.44098 z m 5,-1.17369 c 0,-2.06105 -5.044,-11.38533 -6.1589,-11.38533 -1.1102,0 -1.0822,3.33951 0.038,4.55 0.4836,0.5225 1.4185,2.6375 2.0775,4.7 1.1897,3.7228 4.0433,5.22984 4.0433,2.13533 z m -13.2292,-19.19783 c 0.2211,-0.66333 -0.5237,-1.1875 -1.6875,-1.1875 -2.0773,0 -2.6999,1.05007 -1.3958,2.35417 0.9265,0.92647 2.5962,0.29467 3.0833,-1.16667 z"
     id="path2995"
     style="fill:#000000" />
</svg>
