<?xml version="1.0" encoding="UTF-8" standalone="no"?>
<!-- Created with Inkscape (http://www.inkscape.org/) -->

<svg
   xmlns:dc="http://purl.org/dc/elements/1.1/"
   xmlns:cc="http://creativecommons.org/ns#"
   xmlns:rdf="http://www.w3.org/1999/02/22-rdf-syntax-ns#"
   xmlns:svg="http://www.w3.org/2000/svg"
   xmlns="http://www.w3.org/2000/svg"
   xmlns:sodipodi="http://sodipodi.sourceforge.net/DTD/sodipodi-0.dtd"
   xmlns:inkscape="http://www.inkscape.org/namespaces/inkscape"
   version="1.1"
   width="3178.0999"
   height="613"
   id="svg3032"
   inkscape:version="0.48.4 r9939"
   sodipodi:docname="encostadodouro.svg">
  <sodipodi:namedview
     pagecolor="#ffffff"
     bordercolor="#666666"
     borderopacity="1"
     objecttolerance="10"
     gridtolerance="10"
     guidetolerance="10"
     inkscape:pageopacity="0"
     inkscape:pageshadow="2"
     inkscape:window-width="1366"
     inkscape:window-height="706"
     id="namedview3031"
     showgrid="false"
     fit-margin-top="0"
     fit-margin-left="0"
     fit-margin-right="0"
     fit-margin-bottom="0"
     inkscape:zoom="0.087703159"
     inkscape:cx="1626.9687"
     inkscape:cy="359.10674"
     inkscape:window-x="-8"
     inkscape:window-y="-8"
     inkscape:window-maximized="1"
     inkscape:current-layer="svg3032" />
  <metadata
     id="metadata3038">
    <rdf:RDF>
      <cc:Work
         rdf:about="">
        <dc:format>image/svg+xml</dc:format>
        <dc:type
           rdf:resource="http://purl.org/dc/dcmitype/StillImage" />
        <dc:title />
      </cc:Work>
    </rdf:RDF>
  </metadata>
  <defs
     id="defs3036" />
  <path
     d="M 0,483.383 C 0,380.34717 0.24987789,353.7631 1.2182034,353.75122 c 0.7544089,-0.009 0.8471874,-0.28749 0.2436405,-0.73092 -1.34265487,-0.98644 -1.67741715,-3.15236 -0.48728123,-3.15236 1.40259043,0 1.20290273,-2.66867 -0.24364067,-3.25558 -0.91725837,-0.37219 -0.85703042,-0.75339 0.24364067,-1.54306 1.29938423,-0.93225 1.29938423,-1.15538 0,-2.00839 -0.8935765,-0.58664 -1.00808762,-0.96549 -0.29451285,-0.97457 0.71844778,-0.009 1.28047808,-1.98196 1.46184408,-5.13141 0.1726924,-2.99975 0.6976894,-4.91486 1.2690753,-4.62914 0.5360096,0.26798 0.865704,2.01943 0.7325788,3.89203 -0.4184772,5.8877 4.3473291,12.81045 5.874764,8.53363 0.239253,-0.67002 0.807423,-0.86935 1.262544,-0.44297 0.45502,0.42638 0.265468,1.67513 -0.421405,2.77497 -1.2420768,1.98888 -0.649252,4.07521 0.644675,2.26895 0.372866,-0.52047 1.555016,-1.44304 2.627034,-2.05015 1.072019,-0.60715 1.820288,-1.81314 1.662796,-2.68008 -0.368673,-2.02911 3.014033,-2.11188 4.671859,-0.11435 1.273171,1.53409 3.659775,1.86618 6.25494,0.8703 1.955557,-0.75044 2.009644,-2.33215 0.07993,-2.33215 -1.98694,0 -1.858688,-2.83255 0.163334,-3.6085 1.115972,-0.42822 2.566607,0.46241 4.629175,2.84215 3.817164,4.404 7.765313,5.29211 9.230568,2.07638 1.090146,-2.39275 3.431824,-3.02802 4.541754,-1.23213 0.357764,0.57881 -0.330278,1.73937 -1.528989,2.57901 l -2.179514,1.52658 2.286128,1.22351 c 2.649058,1.41771 8.458914,0.79206 10.709372,-1.15331 1.986257,-1.71702 3.291392,-1.68115 4.79602,0.13182 1.650419,1.98867 6.11538,1.84586 7.618839,-0.24364 0.674885,-0.93798 1.682191,-2.36329 2.238473,-3.16732 0.755089,-1.09146 1.135852,-1.15516 1.502969,-0.25142 0.369846,0.91035 0.986163,0.94585 2.486208,0.14304 1.52558,-0.81649 2.190912,-0.7574 2.830129,0.25143 0.58269,0.91962 0.84017,0.50752 0.850597,-1.36124 0.01561,-2.88673 1.617774,-3.70526 2.136243,-1.09167 0.398206,2.00709 6.542728,2.64564 8.598859,0.89356 2.66153,-2.26781 6.891035,-2.72147 8.849417,-0.94921 2.134092,1.93132 4.774283,1.19159 5.487983,-1.53763 0.60735,-2.3227 2.75792,-2.56537 3.58696,-0.40478 0.43338,1.12931 1.33698,1.37557 3.39168,0.92426 2.03924,-0.44787 2.95864,-0.20397 3.38115,0.89698 0.74795,1.94902 2.59055,1.96308 2.59055,0.0199 0,-1.04201 0.95588,-1.48059 3.16736,-1.45328 1.74202,0.0215 4.79003,-0.22945 6.77339,-0.5577 2.76493,-0.45759 4.27608,-0.11968 6.47878,1.4488 2.99556,2.13307 7.86306,2.02349 10.73363,-0.24152 0.72996,-0.57596 2.81395,-0.91915 4.63106,-0.76256 2.29916,0.19807 3.48318,-0.18265 3.89345,-1.25207 0.67829,-1.76754 3.3953,-2.03096 4.94673,-0.47953 1.01283,1.01279 5.07512,1.24103 16.98618,0.95441 3.00927,-0.0725 7.39483,0.30073 9.74565,0.8292 3.26683,0.73445 4.75091,0.64871 6.29685,-0.36368 2.37169,-1.55312 17.64729,-1.22636 19.28609,0.41252 0.55482,0.55477 3.55824,1.00868 6.67439,1.00868 3.11617,0 6.56115,0.54819 7.65569,1.2182 1.68923,1.03411 2.14325,0.94807 3.00476,-0.56927 0.99738,-1.75686 2.12156,-1.76395 7.89176,-0.0498 1.11709,0.33188 1.70547,-0.0232 1.70547,-1.02911 0,-1.22887 0.34682,-1.31918 1.73567,-0.45183 1.30035,0.81209 2.95038,0.73732 6.5783,-0.29804 2.70637,-0.77233 6.13235,-1.09985 7.76627,-0.74239 1.60805,0.35176 4.12867,0.43503 5.60132,0.18497 1.47276,-0.25006 3.31743,0.0763 4.0992,0.72515 0.78188,0.64891 1.83891,0.92192 2.34882,0.60672 1.69933,-1.0502 13.73948,-1.41791 14.34496,-0.43806 0.32549,0.52661 1.75606,0.70938 3.17904,0.40619 1.46739,-0.31265 3.79562,0.0845 5.37869,0.9175 3.70023,1.94693 9.27755,1.92284 10.03208,-0.0434 0.41652,-1.08551 1.3441,-1.34436 3.28756,-0.9175 1.51262,0.33221 2.9887,0.13936 3.34488,-0.43698 0.35078,-0.56741 2.48126,-1.03162 4.73453,-1.03162 3.29199,0 4.28593,-0.42467 5.05899,-2.16109 1.53026,-3.43758 7.54493,-4.20496 14.1407,-1.80405 3.30209,1.20198 7.31137,1.87597 10.37384,1.74394 3.49215,-0.15059 5.53488,0.26653 6.79991,1.38851 1.3741,1.21881 3.02335,1.48269 6.87135,1.09933 4.58852,-0.4571 5.09101,-0.74451 5.36007,-3.0656 0.25953,-2.23869 0.78071,-2.58784 4.14045,-2.77306 2.114,-0.11655 4.35909,-0.40972 4.98924,-0.6515 2.41918,-0.92834 7.12338,3.10926 7.79524,6.6907 0.36566,1.94896 1.48291,3.92772 2.53603,4.4913 1.03526,0.55407 2.29107,2.0825 2.79065,3.3965 0.49956,1.31404 2.03625,2.90304 3.41466,3.53113 2.20719,1.00562 2.77751,0.8495 4.77847,-1.30841 1.2496,-1.34768 3.74866,-3.00206 5.55337,-3.67638 1.80468,-0.67435 5.32627,-2.12155 7.82572,-3.21609 5.2501,-2.29893 9.27142,-1.78362 10.42547,1.33598 1.13726,3.07428 7.27912,3.15976 11.69554,0.16271 3.94221,-2.67524 8.311,-2.38103 11.01142,0.74157 0.88994,1.02905 1.86763,1.87097 2.17265,1.87097 0.30505,0 2.32718,-1.92285 4.49344,-4.27307 3.68581,-3.99858 4.26624,-4.27338 9.0348,-4.27813 2.80283,-0.003 6.28025,0.60443 7.7277,1.3494 1.44741,0.74495 4.92464,1.35446 7.72727,1.35446 5.06023,0 8.73688,0.86069 15.66875,3.66799 3.03419,1.22881 4.2828,1.26591 7.79651,0.23179 2.301,-0.67725 5.71861,-1.2942 7.59466,-1.37104 1.87602,-0.0769 4.94589,-1.11409 6.82192,-2.30513 1.87605,-1.19098 4.86512,-2.16714 6.64242,-2.16914 1.77721,-0.002 4.08225,-0.45898 5.12224,-1.01556 1.32596,-0.70962 3.0034,-0.67863 5.61512,0.10385 3.01551,0.9035 5.19392,0.79395 11.44534,-0.57537 4.24658,-0.9302 8.15953,-2.02922 8.69554,-2.44227 0.53604,-0.41311 5.70344,-0.99741 11.48309,-1.29853 5.77965,-0.30114 11.04227,-0.89347 11.69476,-1.31626 1.08729,-0.70459 3.22492,-0.91374 14.97717,-1.46522 4.87904,-0.22894 7.51348,1.60054 6.74037,4.68094 -0.47978,1.91171 -0.0771,2.25932 3.27533,2.82569 2.28103,0.38535 4.66734,0.19366 5.91752,-0.47547 1.20679,-0.64583 3.62996,-0.86188 5.71523,-0.50958 1.99102,0.33637 5.57627,0.12123 7.96716,-0.47814 17.35891,-4.35172 21.48645,-5.03663 32.60934,-5.41108 5.89611,-0.19852 12.32208,0.0692 14.27988,0.59453 2.31253,0.62073 4.43365,0.62314 6.05456,0.007 1.67918,-0.63848 3.50755,-0.59556 5.59224,0.13119 2.49118,0.86843 4.02309,0.74689 7.82708,-0.62104 3.98558,-1.43323 6.83883,-1.61072 18.13584,-1.12829 7.37336,0.31488 14.50249,0.536 15.84251,0.4913 8.61093,-0.28697 40.30712,0.84812 41.94285,1.50204 0.82416,0.32949 3.01692,0.78146 4.87279,1.00442 5.05663,0.60746 10.85506,2.04693 13.73031,3.40862 2.14862,1.01757 2.95938,0.95009 5.05109,-0.42045 1.75897,-1.15251 3.01238,-1.36468 4.26252,-0.72149 0.97387,0.50107 4.34733,1.16409 7.49654,1.47329 3.14909,0.30914 8.52303,1.75104 11.94199,3.20413 5.8968,2.50615 6.31117,2.55616 8.06151,0.97215 2.10757,-1.90736 7.63822,-1.58331 14.2278,0.8336 5.31548,1.94954 7.58836,1.85563 10.49888,-0.4338 2.92621,-2.3018 7.76725,-2.55066 9.47965,-0.4873 1.39209,1.67725 14.53258,2.09797 17.41115,0.55739 1.92574,-1.03062 20.61776,0.32852 24.48736,1.78057 1.34431,0.50435 5.07543,1.63131 8.2915,2.50428 3.21604,0.87297 7.0534,2.00442 8.52742,2.51439 7.63062,2.63982 9.21905,3.25105 11.558,4.44755 1.3988,0.71559 2.78426,1.06019 3.07856,0.76581 0.52938,-0.52936 3.32141,-0.53231 18.9838,-0.0201 6.75439,0.2209 8.40705,0.60965 10.34936,2.43435 1.67742,1.57586 2.9855,2.00233 4.76862,1.55477 1.41927,-0.3562 2.74264,-0.15492 3.13284,0.47645 0.3716,0.60123 1.53962,0.81895 2.59565,0.48376 1.09687,-0.34811 3.77281,0.26159 6.24198,1.42222 2.37715,1.11739 4.72897,2.03159 5.22638,2.03159 0.49743,0 2.86648,0.84105 5.26469,1.86899 l 4.36022,1.86905 2.04878,-2.35632 c 1.12685,-1.29593 2.94426,-2.35627 4.0385,-2.35627 2.75228,0 6.79205,2.81525 6.80412,4.74126 0.0166,2.64217 6.63343,4.80283 12.43139,4.05904 2.75694,-0.35369 5.58114,-0.32738 6.27534,0.0585 3.5417,1.96888 33.3393,2.7568 36.6785,0.96989 1.1647,-0.62336 4.9776,-0.71641 10.286,-0.25093 4.6391,0.40675 8.972,0.39839 9.6285,-0.0186 1.9688,-1.25072 9.9283,-0.88632 14.2953,0.65444 2.3957,0.84527 5.9405,1.2551 8.5621,0.98983 2.8056,-0.2839 6.2093,0.16372 9.129,1.20078 4.4677,1.58675 4.7375,1.57885 6.6988,-0.19598 1.9899,-1.80065 2.1738,-1.80272 6.9694,-0.0783 4.1409,1.48908 5.531,1.58977 8.7274,0.63216 2.4878,-0.7455 6.8204,-0.91114 12.5395,-0.4794 6.0733,0.45847 9.6208,0.29383 11.6339,-0.54001 2.0032,-0.82963 3.4345,-0.89818 4.6422,-0.22232 1.3722,0.76785 2.4392,0.36922 4.9785,-1.86061 1.7776,-1.56079 4.4229,-2.89229 5.8785,-2.95876 13.6961,-0.62603 16.3372,-0.4894 17.3535,0.89776 0.9216,1.25774 2.3295,1.29257 10.5298,0.26036 8.6217,-1.08524 9.7003,-1.03814 12.0904,0.52772 2.0997,1.37601 5.1536,1.77352 15.2961,1.99111 13.745,0.29488 23.986,1.04497 26.279,1.92477 1.2159,0.4666 1.4198,-0.67596 1.2676,-7.09145 -0.1957,-8.22215 0.6887,-12.37034 2.5067,-11.7581 0.7354,0.2478 1.1668,3.30717 1.2244,8.69303 0.049,4.57084 0.3638,9.02774 0.6999,9.90415 0.8686,2.26313 4.5712,2.07173 4.5712,-0.23629 0,-2.50246 1.789,-3.78569 7.7434,-5.55397 4.1997,-1.2471 5.3353,-1.28633 6.6107,-0.22837 0.9961,0.82643 3.4605,1.15442 6.9785,0.92889 4.206,-0.26955 5.9287,-0.87693 7.5997,-2.68003 2.2618,-2.44066 4.6423,-3.01092 5.6648,-1.35691 1.4706,2.37973 2.4361,0.5432 2.4333,-4.62915 0,-3.08207 0.4912,-12.55928 1.0951,-21.06053 0.8782,-12.36568 0.8458,-16.22071 -0.1628,-19.27686 -0.9624,-2.91674 -0.991,-4.08977 -0.1206,-4.9603 0.6271,-0.62713 1.1401,-2.31449 1.1401,-3.74967 0,-2.65496 2.1944,-5.36317 3.6275,-4.47732 0.4343,0.26826 0.9079,12.81889 1.0529,27.89028 0.2621,27.28128 0.9992,33.96553 3.8471,34.89937 0.7583,0.24861 1.2181,-0.52928 1.2181,-2.06069 0,-1.35305 0.5148,-2.77803 1.1435,-3.16655 2.3058,-1.4252 9.3535,-2.35587 20.0335,-2.64539 6.0191,-0.16316 11.1295,-0.48839 11.356,-0.72268 0.6999,-0.72315 1.5512,-29.18039 1.8136,-60.64022 0.2706,-32.39431 0.3566,-31.83153 -4.866,-31.86706 -2.574,-0.0175 -2.8772,-2.13261 -0.5785,-4.03748 1.4548,-1.20546 1.3345,-1.38611 -1.2183,-1.82907 -2.3439,-0.40682 -2.8841,-1.02682 -3.1333,-3.59572 -0.2918,-3.01099 2.5731,-13.89162 4.709,-17.88205 0.9904,-1.8507 1.7036,-1.93351 11.9663,-1.39014 13.5109,0.71533 13.6899,0.77164 13.091,4.12302 -0.9773,5.4686 -5.751,17.34335 -7.6069,18.92234 -1.1508,0.9792 -1.5224,1.88179 -0.9262,2.25027 1.8218,1.12582 1.0309,2.40838 -2.3572,3.82414 -2.6118,1.09125 -3.4893,2.12612 -3.9685,4.68121 -0.7645,4.07401 -0.206,87.12298 0.591,87.91924 0.3188,0.3182 3.8271,0.78845 7.7965,1.04508 8.9839,0.5807 14.4377,1.3695 16.9632,2.45322 1.8844,0.80867 7.1514,1.76186 12.182,2.20467 2.1351,0.18795 2.4106,-0.13972 2.2274,-2.65125 -0.2183,-2.99762 1.1298,-5.41807 3.0182,-5.41807 0.6098,0 2.3159,1.11898 3.7907,2.48669 3.2524,3.01568 4.6078,2.40451 4.6078,-2.07782 0,-2.65511 0.5201,-3.61137 2.4404,-4.48634 2.4092,-1.09767 2.4393,-1.25731 2.3404,-12.4048 -0.055,-6.211 -0.5533,-12.50996 -1.1072,-13.99768 -0.7819,-2.09984 -0.6803,-3.08089 0.4538,-4.38555 1.2182,-1.40127 1.5642,-7.83618 2.0835,-38.71397 0.3419,-20.36838 0.9016,-48.76472 1.2435,-63.10297 0.6087,-25.52787 0.5819,-26.06953 -1.3047,-26.06953 -2.8706,0 -3.4014,-1.04941 -1.7814,-3.52146 1.4239,-2.17363 1.3737,-2.22082 -2.6769,-2.51419 -3.8706,-0.28035 -4.1279,-0.48136 -4.1279,-3.2227 l 0,-2.92371 12.3047,-0.27182 c 11.3641,-0.25108 12.341,-0.13134 12.7853,1.56705 0.8321,3.18241 -1.0138,5.11396 -4.6531,4.86887 -1.8224,-0.12274 -3.6566,0.12001 -4.0758,0.53943 -0.6139,0.61386 -1.0932,9.93592 -1.4343,27.89347 -0.016,0.80402 0.2269,24.64873 0.538,52.98824 0.5132,46.68859 0.7194,51.63855 2.2003,52.72124 1.1487,0.84006 1.3009,1.40086 0.5118,1.88847 -1.7586,1.08693 -1.3157,2.52761 0.7774,2.52761 1.8727,0 6.8714,5.51444 6.8714,7.58015 0,0.58378 -1.2061,1.20023 -2.6799,1.36981 -2.3505,0.27048 -2.6388,0.66803 -2.3441,3.23211 0.1845,1.60799 0.7327,3.06986 1.2182,3.24854 0.4852,0.17867 0.882,0.92026 0.882,1.64797 0,2.52528 2.1216,2.61268 4.7088,0.19403 3.5208,-3.29194 8.6204,-5.7615 11.1362,-5.39331 3.1763,0.46473 4.3473,6.17386 1.9432,9.4731 -2.5845,3.54672 -3.2635,5.76225 -2.0047,6.54007 1.1845,0.73215 6.1563,-4.61904 7.6529,-8.23675 1.2045,-2.91219 3.3351,-2.23397 3.462,1.10221 0.054,1.41239 0.6325,3.21207 1.2859,3.99934 0.8692,1.04707 0.9083,1.95414 0.1458,3.37868 -1.4271,2.66638 -1.3545,2.87018 1.1506,3.22595 1.4392,0.20437 2.193,0.98121 2.193,2.26054 0,1.47426 -0.8123,2.06782 -3.3338,2.43639 -3.7715,0.55131 -4.7513,2.0412 -2.5462,3.87133 0.8218,0.68209 1.4944,2.07441 1.4944,3.09408 0,1.07519 1.0117,2.23866 2.4091,2.76986 1.3252,0.50381 3.8024,2.2472 5.5046,3.87414 3.4677,3.31399 4.455,3.5375 7.2185,1.63457 1.0573,-0.72795 3.5433,-1.62047 5.5244,-1.98339 3.0164,-0.55259 3.7745,-0.3375 4.6634,1.32357 0.5839,1.09086 1.9231,1.98341 2.9767,1.98341 1.0529,0 1.9693,0.43857 2.0362,0.97457 0.068,0.536 0.1769,1.40466 0.244,1.93037 0.3023,2.37365 4.9461,4.25195 9.94,4.02061 5.6332,-0.26096 12.7009,2.5807 13.7886,5.54414 0.3358,0.91383 1.2133,2.02443 1.9506,2.46807 0.7372,0.44364 2.5447,2.46905 4.0164,4.50092 4.9734,6.86543 20.7718,23.12599 19.7199,20.29713 -1.3268,-3.56945 -21.5119,-35.49961 -27.021,-42.74353 -5.1389,-6.75753 -6.2677,-7.47944 -11.7961,-7.54282 -4.7624,-0.0547 -5.2931,1.26155 -2.208,5.47356 2.2228,3.03424 1.7092,7.02611 -0.9031,7.02611 -1.8146,0 -5.2557,-3.37228 -6.2152,-6.09105 -0.3312,-0.93797 -1.3954,-1.70547 -2.3647,-1.70547 -2.5313,0 -6.1,-2.75049 -5.5224,-4.25604 0.2698,-0.70348 -0.1872,-1.84155 -1.0157,-2.52907 -2.1127,-1.7536 -1.8749,-6.22284 0.4434,-8.32058 1.3035,-1.18004 1.9487,-3.00162 1.9487,-5.50292 0,-2.68348 0.5507,-4.08254 1.9492,-4.95618 1.1533,-0.72024 1.9492,-2.27272 1.9492,-3.80226 0,-3.44393 2.2355,-4.12119 6.219,-1.88391 3.2006,1.79759 3.3219,1.79723 6.0763,-0.0185 1.5456,-1.01902 4.001,-1.85566 5.4561,-1.8592 3.0681,-0.008 5.2344,-2.94428 3.4713,-4.7069 -0.8178,-0.81809 -0.6695,-1.57698 0.5767,-2.95434 1.6009,-1.769 1.5421,-1.98885 -1.2897,-4.82093 -1.6323,-1.63203 -2.9678,-3.24274 -2.9678,-3.5793 0,-1.29868 7.1526,-3.51855 9.6033,-2.98051 3.0899,0.67837 12.8938,-2.45362 13.8556,-4.42636 0.3729,-0.76421 1.0576,-2.65968 1.5227,-4.2122 0.4645,-1.55247 1.7217,-3.30671 2.7935,-3.89823 1.072,-0.59152 2.2999,-1.62372 2.7289,-2.29373 1.0836,-1.69416 3.55,-1.52349 4.2475,0.29397 0.4263,1.11127 1.3405,1.3452 3.4474,0.88235 2.2831,-0.5015 2.9629,-0.26359 3.3376,1.16824 0.5061,1.9354 4.9782,4.51245 6.3541,3.66185 1.6449,-1.01638 0.8049,-5.06004 -1.3548,-6.52476 -2.1929,-1.48695 -2.1926,-1.48751 3.7986,-7.18448 5.964,-5.67073 5.9822,-5.70487 3.8984,-7.29882 l -2.0936,-1.60143 2.6801,-2.49393 c 1.4744,-1.37166 2.6803,-2.87931 2.6803,-3.35033 0,-0.84623 -2.78,-2.445 -6.091,-3.50323 -2.5602,-0.8182 -2.1019,-4.36577 0.7306,-5.65638 1.34,-0.61056 2.4364,-1.93227 2.4364,-2.93708 0,-1.50758 -0.3312,-1.64967 -1.8947,-0.8129 -1.0423,0.55775 -2.1644,1.45026 -2.4937,1.98342 -0.94,1.52041 -4.3823,1.13348 -4.3823,-0.49251 0,-1.59151 -3.4342,-2.02722 -4.346,-0.55145 -0.6604,1.06843 -7.3929,0.22567 -8.8109,-1.10293 -0.6392,-0.59904 -0.3875,-1.34678 0.731,-2.1733 0.9379,-0.69301 1.7054,-1.95327 1.7054,-2.80055 0,-2.17 1.8449,-3.06081 2.5477,-1.23006 0.8449,2.20114 2.3251,1.87207 2.3251,-0.51677 0,-1.22075 0.7831,-2.24509 1.9491,-2.55005 1.2614,-0.32987 1.9493,-1.32931 1.9493,-2.83246 0,-2.48698 1.8006,-3.05599 3.6906,-1.16617 0.892,0.8924 1.6601,0.69329 3.3619,-0.87172 1.213,-1.1155 4.0697,-2.33235 6.3477,-2.70404 3.5077,-0.57236 4.1418,-1.02687 4.1418,-2.96904 0,-1.26127 -0.4385,-2.56426 -0.9744,-2.89555 -0.5359,-0.33125 -0.9748,-1.71388 -0.9748,-3.07246 0,-1.65051 -0.6467,-2.63926 -1.9488,-2.97981 -2.0567,-0.53779 -2.6208,-2.67597 -0.9748,-3.69336 0.536,-0.33126 0.9748,-1.34805 0.9748,-2.25949 0,-0.91145 0.8768,-2.20495 1.9488,-2.87443 2.0461,-1.27774 2.7455,-6.44098 1.0174,-7.50907 -0.5125,-0.31679 -0.6979,-1.18617 -0.4119,-1.9319 0.291,-0.75795 -0.3726,-1.83379 -1.5043,-2.43948 -3.8051,-2.03641 -1.3465,-5.88784 3.7587,-5.88784 1.1756,0 2.013,-0.63356 2.013,-1.52309 0,-0.94135 0.6873,-1.40665 1.8,-1.21821 0.9896,0.16769 1.9451,-0.13365 2.1232,-0.66965 0.1782,-0.53604 -0.5221,-1.13142 -1.5559,-1.32311 -1.0341,-0.19167 -2.4675,-0.82641 -3.1861,-1.41056 -1.0722,-0.87199 -0.9956,-1.28926 0.4297,-2.33154 2.3104,-1.68937 6.6866,-1.61375 8.143,0.14077 0.6437,0.77563 1.0397,2.42019 0.8801,3.6546 -0.1592,1.2344 0.092,2.85912 0.5596,3.61042 0.571,0.91728 0.2715,1.7889 -0.9104,2.65323 -1.5533,1.13596 -1.5791,1.35665 -0.2199,1.87833 2.759,1.05868 6.0321,0.0365 6.4023,-1.99935 0.1949,-1.072 1.0763,-2.78068 1.9591,-3.79699 1.1946,-1.37547 1.2936,-1.9568 0.3865,-2.27399 -0.67,-0.23435 -1.2182,-1.05335 -1.2182,-1.81994 0,-0.76664 -0.5315,-2.2451 -1.1812,-3.28547 -1.7958,-2.87546 -0.3726,-3.33731 4.5225,-1.46788 4.6522,1.77682 7.3792,1.00325 7.3792,-2.09351 0,-0.73836 0.5116,-1.34252 1.137,-1.34252 0.6252,0 0.8434,0.29335 0.4851,0.65187 -0.3585,0.3585 0.067,1.44664 0.9462,2.41809 1.15,1.27059 1.3111,2.11334 0.5746,3.00278 -0.6623,0.80005 -0.7327,2.78443 -0.1991,5.62204 0.4535,2.41203 0.5871,5.37227 0.2964,6.57828 -0.2902,1.20605 -0.2541,3.28369 0.08,4.61698 0.4775,1.90303 1.1811,2.38931 3.273,2.26185 1.4654,-0.0893 3.3958,-0.77684 4.2896,-1.52795 1.84,-1.54602 5.8298,-1.29557 6.3879,0.40095 0.2033,0.61748 -1.0781,2.52393 -2.8471,4.23658 l -3.2168,3.11395 3.6673,-0.62852 c 2.7167,-0.46562 3.8059,-0.26736 4.202,0.76476 0.5808,1.51362 -3.4953,6.49628 -5.3143,6.49628 -0.6158,0 -1.8811,0.43838 -2.8117,0.97414 -0.931,0.53581 -2.993,1.4381 -4.5831,2.00512 -2.2927,0.81767 -2.5953,1.21784 -1.4616,1.9346 1.9323,1.22227 5.5537,1.1694 6.3331,-0.0926 0.3492,-0.56431 1.142,-0.84084 1.763,-0.61444 0.6209,0.22634 1.8687,-0.23205 2.7732,-1.01863 2.0557,-1.78838 3.9918,-0.72046 3.2029,1.76651 -0.4043,1.27253 -0.128,1.86712 0.8668,1.86712 0.8029,0 1.6002,-0.98675 1.7711,-2.19276 0.1714,-1.20605 0.9696,-2.19276 1.7733,-2.19276 1.0482,0 1.4619,1.06941 1.4619,3.77746 0,6.21355 6.3027,8.6497 7.7241,2.98562 0.4309,-1.71563 2.3052,-3.15551 6.9098,-5.30854 3.4755,-1.62494 6.3193,-3.24021 6.3193,-3.58961 0,-0.34934 -0.7328,-1.44471 -1.6283,-2.43418 -1.5329,-1.69388 -1.4758,-1.95773 0.9748,-4.51557 1.4315,-1.49415 2.6028,-3.71746 2.6028,-4.94071 0,-1.56415 0.8464,-2.54369 2.8535,-3.30129 2.367,-0.89344 2.6077,-1.25724 1.4103,-2.13292 -1.2627,-0.92326 -1.2735,-1.88424 -0.085,-7.65833 1.2402,-6.03096 1.2159,-6.6785 -0.2806,-7.47927 -2.4623,-1.3179 -2.0407,-8.16573 0.5281,-8.58 1.0501,-0.1693 3.554,-0.93578 5.5636,-1.70322 3.7938,-1.44852 4.7181,-0.66442 2.1931,1.86055 -0.8042,0.80402 -1.4621,2.00819 -1.4621,2.67594 0,1.78089 4.2742,-2.52421 7.3724,-7.42561 1.467,-2.32036 3.554,-4.45088 4.6386,-4.73441 3.9918,-1.04397 5.0081,1.82011 1.1645,3.28159 -4.2238,1.60589 -1.976,3.47504 4.3916,3.65153 l 5.8225,0.16137 0,-2.98173 c 0,-2.44292 -0.3079,-2.8618 -1.7054,-2.318 -2.8541,1.11076 -3.3127,1.06222 -4.2996,-0.45523 -0.6533,-1.00422 -0.461,-2.62285 0.6137,-5.17076 1.207,-2.86111 1.973,-3.57944 3.3494,-3.14244 1.3304,0.42225 2.0958,-0.1842 3.0061,-2.38209 1.3139,-3.17248 4.2803,-3.97614 5.2593,-1.42499 0.7059,1.83918 -1.87,7.13403 -3.8381,7.88915 -1.8035,0.6921 -1.8035,2.25329 0,3.63642 2.0957,1.60717 2.2283,14.66609 0.1962,19.2884 -0.8677,1.97339 -2.0228,3.86312 -2.5668,4.19944 -0.5441,0.33626 -0.9892,1.51634 -0.9892,2.62234 0,1.57178 0.2854,1.7739 1.3077,0.92552 0.7191,-0.59698 1.5965,-0.79687 1.949,-0.4442 0.353,0.35269 0.6412,-0.0897 0.6412,-0.98301 0,-2.33387 3.9565,-2.10037 4.5765,0.27011 0.272,1.0419 1.4327,2.02863 2.5789,2.19275 2.4409,0.34958 3.5279,3.70935 1.2003,3.70935 -0.8436,0 -1.5337,0.65786 -1.5337,1.46188 0,1.70624 1.1263,1.89484 2.5881,0.43333 1.3736,-1.37353 5.6326,-0.22076 7.7241,2.0907 2.3897,2.64055 3.1545,2.33541 3.8835,-1.54947 0.6892,-3.67366 1.9066,-4.19162 4.8289,-2.05459 1.5114,1.10498 1.6314,1.62576 0.6488,2.80984 -0.9743,1.1742 -0.9203,1.56316 0.2807,2.02401 0.8172,0.31378 1.4864,1.28965 1.4864,2.1686 0,1.21798 -0.5795,1.45262 -2.4364,0.98659 -1.7171,-0.43096 -2.4364,-0.21452 -2.4364,0.73317 0,1.27967 -6.8577,2.82816 -12.4258,2.80572 -1.2061,-0.005 -2.1926,0.38335 -2.1926,0.86265 0,0.47929 0.3743,0.87147 0.8325,0.87147 0.4576,0 2.0148,1.09639 3.4609,2.43639 1.4462,1.34002 3.2132,2.43639 3.9273,2.43639 1.2946,0 2.7295,4.68675 1.8632,6.08813 -0.251,0.40649 -1.1975,0.36113 -2.1029,-0.10079 -4.97,-2.5356 -10.8172,-1.72646 -6.0317,0.83462 1.1738,0.62827 1.9491,2.04059 1.9491,3.55091 0,2.17154 0.3184,2.4278 2.3767,1.91127 1.3117,-0.32921 2.6691,-0.12279 3.03,0.46062 0.359,0.58139 1.6487,0.80718 2.8656,0.50175 1.3878,-0.34823 3.0845,0.1305 4.5511,1.28391 1.9362,1.52338 2.626,1.62859 4.0154,0.61255 0.923,-0.67467 1.6774,-1.75865 1.6774,-2.40886 0,-0.65026 0.7677,-1.01442 1.7061,-0.80925 0.9376,0.20513 1.6131,0.84275 1.5002,1.41694 -0.2674,1.3646 5.3318,0.9252 6.7898,-0.53284 1.3742,-1.37396 4.2976,-1.45386 5.11,-0.13959 0.3311,0.53599 1.4532,0.97456 2.4941,0.97456 2.1455,0 2.4901,1.92707 0.6734,3.76891 -0.9768,0.99002 -0.8317,1.52413 0.7305,2.69183 1.0724,0.80122 3.1197,1.69654 4.5503,1.98955 3.3711,0.69055 4.2394,4.06694 2.1644,8.41777 -1.4682,3.07939 -1.4632,3.50015 0.068,5.8384 1.0901,1.66293 2.7029,2.62185 4.7436,2.81964 1.7004,0.1649 3.092,0.73833 3.092,1.27436 0,1.36213 -4.3941,1.84317 -5.6218,0.6154 -0.6991,-0.6989 -1.6249,-0.68337 -2.9953,0.0504 -1.0916,0.58391 -5.519,1.12249 -9.84,1.19686 -4.321,0.0745 -8.7331,0.64145 -9.8047,1.26022 -1.5486,0.89397 -2.2942,0.81253 -3.6297,-0.39658 -1.5457,-1.39854 -1.7629,-1.3078 -2.6869,1.12268 -1.336,3.51356 -3.0367,2.75455 -4.3856,-1.95696 -0.8593,-3.00147 -1.5138,-3.76753 -2.9955,-3.50476 -3.5534,0.63021 -6.0259,4.04928 -2.928,4.04928 3.7675,0 2.142,5.40929 -1.9325,6.43198 -1.3316,0.33417 -3.0064,0.12163 -3.7222,-0.47234 -0.986,-0.81842 -1.7292,-0.60703 -3.0686,0.87285 -1.7392,1.92203 -1.7179,1.943 1.3563,1.32819 2.4635,-0.49272 3.629,-0.14953 5.5176,1.62456 2.941,2.76309 3.1745,5.80774 0.4448,5.80774 -1.0718,0 -1.9491,0.44692 -1.9491,0.99315 0,0.60389 1.0506,0.71798 2.6803,0.29104 1.4738,-0.38617 3.7765,-0.72345 5.1163,-0.7495 2.354,-0.0459 2.4335,0.15915 2.3423,6.04363 -0.052,3.35007 0.064,6.09102 0.2565,6.09102 0.1933,0 1.2046,-0.53301 2.2483,-1.18452 1.4942,-0.93331 2.6207,-0.92259 5.3121,0.0505 1.9972,0.72213 4.8474,0.96659 6.8626,0.58854 3.1831,-0.59716 3.5441,-0.41506 4.7189,2.37914 0.9297,2.21058 1.5626,2.73534 2.35,1.94783 1.3871,-1.38687 3.197,-0.27024 3.197,1.97223 0,0.9573 0.7849,2.45068 1.7437,3.3186 1.6349,1.47957 2.0089,1.2457 5.9928,-3.74721 2.3377,-2.92886 4.7568,-5.32523 5.3767,-5.32523 0.6198,0 2.6103,1.09476 4.4239,2.43279 2.9125,2.1485 3.5326,2.27795 5.3062,1.10762 1.2015,-0.79284 2.1364,-2.63019 2.3277,-4.57373 0.3367,-3.42261 2.4323,-5.70579 5.2839,-5.75762 1.1265,-0.0206 1.7082,0.71368 1.7124,2.16175 0,1.20605 0.776,3.3604 1.7176,4.78745 1.1482,1.74103 1.6921,4.40464 1.6535,8.09604 -0.054,5.10874 0.087,5.46482 1.9822,4.98943 2.63,-0.66013 7.557,0.6565 8.0561,2.15279 0.2122,0.63746 -0.7457,1.58947 -2.1295,2.11548 -2.9613,1.12592 -2.8996,0.8216 -1.0568,5.23224 1.1844,2.83466 1.9633,3.48091 4.1417,3.43738 1.4761,-0.0296 3.5603,0.0977 4.6328,0.2826 1.2629,0.21795 1.8478,-0.13941 1.6608,-1.0154 -0.3618,-1.69596 3.3011,-5.6825 6.9781,-7.59492 3.276,-1.70385 4.6838,-0.79479 5.1163,3.3039 0.6552,6.20621 1.6467,10.59694 2.684,11.88342 0.6065,0.75235 0.9652,2.17762 0.7974,3.1673 -0.209,1.23603 0.2876,1.79943 1.5866,1.79943 1.0398,0 2.3989,0.61197 3.0196,1.35989 0.6207,0.74793 2.6328,1.64206 4.4709,1.98687 3.7733,0.70796 5.1252,2.14986 3.5203,3.75501 -1.2464,1.24635 -1.4766,5.56754 -0.2965,5.56754 0.4338,0 1.6399,-0.64388 2.6802,-1.43088 1.0402,-0.78695 2.6998,-1.44477 3.6868,-1.46183 1.5474,-0.0267 1.749,0.62599 1.462,4.73645 -0.2518,3.60129 0.1069,5.25495 1.4674,6.76055 2.2409,2.47946 1.3701,4.06501 -2.2319,4.06501 -1.9273,0 -2.9042,0.58083 -3.2593,1.93741 -0.2782,1.06553 -1.7551,2.45024 -3.281,3.07707 -2.1635,0.88877 -2.399,1.22893 -1.0689,1.54502 0.9384,0.22297 1.7055,1.20341 1.7055,2.17877 0,0.97536 0.6936,2.03961 1.5417,2.36493 2.2206,0.85221 2.3566,0.78265 2.3566,-1.20651 0,-1.92884 2.865,-5.02387 4.6505,-5.02387 0.5979,0 1.6596,-0.8025 2.3601,-1.78336 0.7,-0.98085 2.5025,-2.58128 4.0043,-3.5565 2.6813,-1.74075 2.7874,-1.73179 5.7916,0.48944 1.999,1.47821 3.192,1.86653 3.441,1.12011 0.7832,-2.34918 4.2027,-1.18611 5.2372,1.7812 0.8759,2.51295 1.5085,2.92368 4.5017,2.92368 1.9493,0 4.312,0.75089 5.3664,1.70548 1.0842,0.98104 3.5081,1.73137 5.7069,1.76641 5.2931,0.0844 7.2802,2.21528 5.8615,6.28574 -0.72,2.0651 -0.7639,3.6987 -0.1312,4.8809 0.9042,1.69023 1.4621,1.63315 11.4338,-1.16973 5.7657,-1.62062 11.7987,-3.18154 13.4065,-3.46866 1.6084,-0.28712 3.7888,-1.11969 4.846,-1.85014 2.4597,-1.69937 4.3523,-1.6825 6.2849,0.0561 1.5727,1.41522 16.1716,6.96944 24.9279,9.48428 4.7456,1.36283 4.8805,1.50434 5.1682,5.40579 0.2464,3.34324 -0.219,4.59166 -2.8097,7.54261 -1.708,1.94493 -2.8292,3.8123 -2.4915,4.14958 0.3371,0.33731 3.7942,0.90921 7.6823,1.27067 3.8883,0.36156 8.1658,1.10673 9.5059,1.65598 1.5419,0.63198 4.7615,0.69981 8.7707,0.18488 7.4314,-0.95462 28.2053,0.52663 36.0588,2.57108 2.9484,0.76745 6.947,1.137 8.8864,0.82133 2.2122,-0.36019 4.3911,-0.0702 5.847,0.77705 1.2769,0.7432 4.7338,1.33934 7.6818,1.3249 l 5.3599,-0.0263 -0.3383,-7.43671 c -0.3594,-7.8886 0.9141,-10.67996 2.8919,-6.3393 0.6051,1.32781 1.6588,2.19973 2.342,1.9377 0.6831,-0.26217 1.5317,-0.01 1.8854,0.56434 1.3124,2.1233 2.6242,1.00381 2.0245,-1.72738 -0.4196,-1.90897 -0.1337,-3.16226 0.9203,-4.03715 2.0198,-1.67617 2.7436,-0.78524 2.8946,3.56384 0.1402,4.04631 2.1064,5.52512 2.7648,2.07964 l 0.4296,-2.24891 0.1328,2.19278 c 0.1246,2.05587 0.5651,2.1928 7.0605,2.1928 6.9142,0 6.9261,0 6.3119,2.452 -0.5037,2.00769 -0.1695,2.62138 1.8435,3.38677 1.3526,0.5142 2.4588,1.55503 2.4588,2.31296 0,0.75779 0.8432,2.41327 1.8735,3.67868 l 1.8734,2.30073 0.9796,-2.55656 c 1.2735,-3.3259 4.8577,-4.17571 10.658,-2.52725 2.7813,0.79027 8.4405,1.21635 14.34,1.0796 33.6465,-0.77973 38.7099,-0.5891 41.6261,1.56684 2.44,1.80408 3.169,1.91258 5.9918,0.8918 4.1007,-1.4829 11.3842,-0.44383 14.5953,2.08225 3.4502,2.71379 8.2917,2.38114 11.9355,-0.81996 1.653,-1.45224 3.2686,-3.36868 3.5906,-4.25886 0.4341,-1.20143 1.7311,-1.60103 5.0345,-1.55114 3.8381,0.0575 4.4513,0.34736 4.4642,2.10575 0.027,3.65878 1.3668,4.84436 3.7825,3.34643 1.4626,-0.90682 2.3249,-0.98766 2.8108,-0.26357 0.3855,0.57446 3.5518,1.14236 7.0357,1.26193 3.4844,0.11958 10.2815,0.34366 15.106,0.49791 5.8306,0.18644 9.7379,0.81378 11.6557,1.87148 2.538,1.40006 3.0737,1.4196 4.4618,0.16303 1.911,-1.72927 4.0427,-1.8308 5.6065,-0.26685 0.8617,0.86133 2.3578,0.90266 5.7989,0.16006 4.0681,-0.87811 9.3074,-1.03801 16.5064,-0.50396 1.1676,0.0868 2.8243,0.85888 3.6818,1.71611 1.2088,1.20884 1.8656,1.30377 2.9267,0.42314 0.9718,-0.80665 2.3654,-0.86014 4.8111,-0.18497 4.0359,1.11433 10.2978,0.55112 15.47,-1.39137 4.6399,-1.74274 7.984,-1.75122 10.7347,-0.0273 2.9075,1.82183 28.1677,3.66182 29.6685,2.16111 0.162,-0.16201 0.3828,-2.4441 0.4912,-5.07142 0.1599,-3.8816 0.7692,-5.37055 3.2512,-7.94427 5.0521,-5.23874 10.4818,-3.91578 9.4718,2.30779 -0.4893,3.01555 -0.3256,3.29597 1.9248,3.29597 2.7602,0 3.9156,1.98514 3.0839,5.29846 -0.4905,1.95458 -0.1119,2.29357 3.1682,2.8356 2.0491,0.33859 8.4243,0.62033 14.1676,0.62628 9.617,0.01 10.5291,-0.15109 11.5378,-2.03637 0.9054,-1.69113 1.631,-1.92508 4.176,-1.34577 1.6948,0.38566 6.3699,0.81124 10.3899,0.94593 12.8347,0.42968 16.933,1.67163 19.2335,5.82856 0.9365,1.69213 1.9679,1.89096 8.7004,1.67681 4.2008,-0.13362 8.24,0.15819 8.9763,0.64849 0.8114,0.54031 2.6399,0.53212 4.6426,-0.0206 1.817,-0.50173 3.8436,-0.57834 4.5041,-0.17016 0.6604,0.40814 2.9569,0.84192 5.1034,0.96403 2.1465,0.12201 5.2183,0.43251 6.8265,0.69 1.6079,0.25744 3.2524,0.50371 3.6545,0.54731 0.402,0.0439 1.608,0.95622 2.6799,2.02826 1.9491,1.94912 1.9491,1.94912 3.8983,0 1.5248,-1.52451 3.2761,-1.95585 8.0402,-1.98012 7.3798,-0.038 9.6195,-1.47481 11.0093,-7.06453 1.0423,-4.19244 2.8234,-5.39635 6.1024,-4.12472 1.4971,0.58044 1.4711,0.7701 -0.2812,2.05954 -1.8962,1.39537 -1.885,1.45803 0.6467,3.5849 1.4172,1.19065 2.8529,3.11757 3.1899,4.28208 0.5489,1.89571 1.3923,2.15065 8.0587,2.4364 7.6476,0.32781 8.8789,-0.12572 10.9748,-4.04268 0.6285,-1.17436 2.5195,-1.96873 5.5976,-2.35145 11.0122,-1.36927 15.4308,-1.60746 16.3677,-0.88215 0.5498,0.42541 1.6745,3.40482 2.499,6.62089 1.442,5.62224 1.6101,5.83428 4.3607,5.50656 1.5739,-0.1874 6.3697,-0.49693 10.6577,-0.68774 4.2882,-0.19083 8.096,-0.36644 8.4616,-0.39014 0.3659,-0.0234 0.9226,-0.85372 1.237,-1.84437 0.8225,-2.59075 4.9288,-4.14568 9.1614,-3.46884 2.6067,0.41682 3.9939,0.1681 4.8559,-0.87088 1.5248,-1.83695 4.7698,-1.0457 6.1293,1.49452 0.7427,1.38746 1.3317,1.63431 2.0904,0.87579 0.7582,-0.75847 0.5957,-1.56492 -0.5776,-2.86138 -2.0327,-2.24597 -2.0748,-3.74468 -0.1352,-4.82993 1.2562,-0.70318 1.138,-1.00421 -0.7311,-1.8626 -4.3672,-2.00545 -9.2459,-3.24393 -13.0189,-3.30484 -3.1692,-0.0516 -3.4659,-0.20814 -1.7219,-0.91141 1.1587,-0.46728 2.3906,-1.74375 2.7378,-2.83647 0.3465,-1.09277 1.7007,-2.82853 3.0086,-3.85742 2.005,-1.57732 2.1325,-1.96472 0.8135,-2.47086 -1.1136,-0.42735 -1.3887,-1.29998 -0.9552,-3.0277 0.4984,-1.98647 0.2519,-2.42732 -1.3586,-2.42732 -2.83,0 -2.4408,-2.79205 0.548,-3.92837 3.1843,-1.21073 2.6411,-2.94729 -1.3418,-4.28826 -4.3556,-1.46662 -4.2553,-2.83681 0.2879,-3.9218 2.1443,-0.51207 4.1958,-1.36423 4.5597,-1.89373 0.4264,-0.62116 1.5758,-0.54583 3.24,0.21242 2.8604,1.30307 4.7823,0.67479 4.0196,-1.31352 -0.2729,-0.71076 0,-2.59657 0.5981,-4.19077 0.8758,-2.32074 1.8358,-3.01713 4.815,-3.49351 3.6645,-0.58602 4.8866,-1.94749 2.5026,-2.78835 -0.9206,-0.32461 -0.8107,-1.13978 0.4495,-3.33498 1.2663,-2.20589 1.3955,-3.1778 0.5359,-4.03707 -0.8588,-0.85927 -0.834,-1.42503 0.1034,-2.34996 0.9898,-0.9762 1.4981,-0.8624 2.5579,0.57293 0.7277,0.9851 2.1232,1.63289 3.1018,1.43953 1.5029,-0.29702 1.779,-1.33077 1.779,-6.66392 l 0,-6.31237 2.9235,0.14815 c 1.6083,0.0815 4.8367,0.47478 7.1748,0.87389 l 4.251,0.72571 -0.4895,3.64854 -0.4893,3.64851 2.8182,-1.59873 c 1.5501,-0.87926 2.6453,-2.06021 2.4342,-2.6243 -0.56,-1.49329 2.052,-7.25817 3.2881,-7.25817 0.5787,0 1.3106,0.67343 1.6264,1.49648 0.8204,2.13787 12.7707,10.46053 13.9623,9.724 0.5475,-0.33843 0.9954,-1.19357 0.9954,-1.90031 0,-0.70676 0.665,-1.83696 1.4781,-2.51158 0.8127,-0.67461 1.3608,-2.37289 1.2182,-3.77394 -0.2268,-2.22242 0.102,-2.54735 2.5745,-2.54735 4.1774,0 4.1707,-2.13023 -0.012,-3.87784 -5.1024,-2.13186 -6.4846,-3.41638 -5.2616,-4.88998 0.6861,-0.8266 2.2294,-0.97439 4.9603,-0.47507 4.1053,0.75076 3.9649,0.85006 5.3855,-3.79364 0.226,-0.73794 -0.089,-1.94394 -0.7003,-2.68002 -0.7715,-0.93027 -0.8021,-1.70976 -0.1,-2.55651 1.0758,-1.29761 2.1075,-45.39855 1.2018,-51.36713 -0.3933,-2.58954 -1.076,-3.50152 -2.9481,-3.93822 -1.5403,-0.35928 -2.5506,-1.35999 -2.7477,-2.72111 -0.1946,-1.34286 -0.9977,-2.15282 -2.1355,-2.15282 -1.0029,0 -2.0563,-0.3766 -2.341,-0.83692 -0.7343,-1.18818 2.1787,-19.84565 3.2685,-20.93564 1.144,-1.14417 19.7303,-0.83011 20.9257,0.35359 0.5334,0.52809 -0.096,1.25548 -1.5726,1.81675 -3.4617,1.3163 -3.9147,4.21258 -1.1816,7.55449 2.5717,3.14399 2.9233,4.85379 1.1334,5.51006 -0.9744,0.35733 -0.9744,0.70494 0,1.73797 1.6784,1.77868 1.5321,4.7997 -0.2317,4.7997 -0.9175,0 -1.3652,0.79296 -1.2183,2.15667 0.1814,1.68693 -0.384,2.27067 -2.5948,2.68007 -3.6278,0.67172 -4.0175,1.96399 -3.8899,12.91268 0.1071,9.18845 2.0628,16.36029 4.4613,16.36029 0.6212,0 2.7811,-0.76744 4.7997,-1.70547 2.593,-1.20492 3.7593,-2.41923 3.9742,-4.13729 0.2268,-1.81995 1.039,-2.57832 3.227,-3.0142 2.8236,-0.56246 2.5577,-0.95155 -1.4616,-2.14162 -0.8043,-0.23804 -2.2635,-0.0199 -3.2436,0.48515 -0.9797,0.50482 -2.4709,0.65341 -3.313,0.33013 -2.5356,-0.97297 2.3188,-5.40971 5.9188,-5.40971 1.6062,0 3.69,-0.69622 4.6302,-1.54717 2.4398,-2.20808 14.7859,-0.98024 14.3011,1.42226 -0.244,1.20779 -1.4194,1.57215 -4.9215,1.52554 -3.8157,-0.0507 -4.6008,0.24037 -4.6008,1.70548 0,1.94464 1.1464,2.10658 8.1332,1.14891 4.1433,-0.56791 4.4608,-0.80405 3.9288,-2.92367 -0.5154,-2.0544 -0.2486,-2.30591 2.4506,-2.30591 2.1008,0 3.0294,0.46816 3.0294,1.52751 0,1.08531 0.5657,1.34797 1.9539,0.90739 1.2987,-0.41218 2.1505,-0.10736 2.5408,0.90889 0.3225,0.84096 1.3573,1.52904 2.2999,1.52904 0.9422,0 2.9276,0.95498 4.4117,2.12221 2.4922,1.96029 2.7889,1.9975 3.8931,0.48728 0.6576,-0.8992 1.608,-1.63493 2.1116,-1.63493 0.5037,0 1.4512,-0.53552 2.1055,-1.19009 0.6546,-0.65454 2.16,-1.20274 3.3447,-1.21821 1.3886,-0.0181 2.6276,-1.01209 3.4858,-2.79681 0.9352,-1.94372 1.8653,-2.62917 3.1224,-2.30047 1.021,0.26701 2.0251,-0.14258 2.3359,-0.9531 0.352,-0.9168 1.2388,-1.20123 2.4993,-0.80119 1.1226,0.35626 1.9541,0.17748 1.9541,-0.42008 0,-0.57215 0.6109,-1.04023 1.3577,-1.04023 0.7468,0 1.6097,-0.65783 1.9186,-1.46186 0.3082,-0.804 1.4669,-1.46186 2.575,-1.46186 1.1076,0 3.1183,-0.72384 4.4687,-1.60854 2.3496,-1.53952 2.4784,-1.51859 3.003,0.48729 0.7097,2.71363 2.7284,2.67178 4.6788,-0.0969 1.1486,-1.63083 1.7426,-1.87561 2.3174,-0.95518 0.4249,0.68066 1.8381,1.11923 3.1399,0.97455 1.5288,-0.16988 2.4134,0.25451 2.4983,1.19883 0.072,0.80402 0.1814,1.84119 0.2432,2.30487 0.062,0.46364 1.1933,0.13476 2.5146,-0.73091 1.3213,-0.86567 3.0535,-1.57396 3.85,-1.57396 0.7964,0 1.7984,-0.60895 2.2267,-1.35318 0.4292,-0.74427 1.6206,-1.51175 2.6481,-1.70551 2.3039,-0.43445 3.2637,-2.78866 1.1363,-2.78866 -0.8483,0 -1.5427,-0.4897 -1.5427,-1.08823 0,-0.59855 0.811,-0.87604 1.8031,-0.61666 0.9916,0.25931 2.8353,-0.30705 4.0969,-1.25868 l 2.2937,-1.73024 -4.8278,-0.71979 c -2.6556,-0.39588 -5.8145,-1.36374 -7.0205,-2.15074 -1.9596,-1.27868 -2.1931,-1.26346 -2.1931,0.14304 0,0.86592 -0.7892,1.5739 -1.754,1.5739 -0.9647,0 -2.2299,0.47571 -2.8113,1.05708 -1.7439,1.74368 -5.6674,0.67447 -5.6674,-1.54435 0,-1.63771 0.7496,-1.99697 4.6915,-2.24872 3.0996,-0.19792 4.5605,-0.69403 4.3044,-1.46182 -0.6282,-1.88446 -6.8186,-1.49196 -9.1676,0.58126 -2.0345,1.79561 -4.846,1.52929 -3.6851,-0.34902 0.3086,-0.49897 -0.097,-0.90722 -0.9009,-0.90722 -0.8042,0 -1.7333,0.43856 -2.0644,0.97456 -1.0432,1.6884 -4.2277,1.05783 -4.8696,-0.96433 -0.3533,-1.11453 0.038,-2.87139 0.9206,-4.13205 1.4685,-2.09639 1.3786,-2.32552 -2.0365,-5.19288 -2.9685,-2.49233 -3.4659,-3.42793 -2.9376,-5.53094 0.3855,-1.53721 1.7929,-3.04202 3.5834,-3.83207 2.5084,-1.1068 2.8623,-1.69204 2.3736,-3.92375 -0.3164,-1.44255 -0.088,-3.52983 0.5041,-4.63836 0.9244,-1.72679 0.7424,-2.14336 -1.269,-2.90804 -1.2913,-0.49092 -3.1826,-1.9538 -4.2025,-3.25077 -1.4199,-1.80477 -2.219,-2.12856 -3.4063,-1.37956 -4.1509,2.61802 -6.3732,-3.31801 -3.3427,-8.92676 0.7689,-1.42273 1.6541,-3.79279 1.9678,-5.26683 0.5872,-2.76047 3.6494,-3.75883 4.971,-1.62058 0.4661,0.75458 0.9733,0.7371 1.7629,-0.0608 0.8292,-0.83838 0.6792,-1.36221 -0.5974,-2.08245 -0.9382,-0.52924 -1.7052,-1.59833 -1.7052,-2.3757 0,-1.86339 2.8268,-1.82474 3.5456,0.0485 0.8395,2.18852 2.0889,1.76162 2.1392,-0.73092 0.1295,-6.42826 2.1443,-9.27694 8.3927,-11.8663 2.1143,-0.87632 4.5263,-2.20013 5.3599,-2.94173 8.3523,-7.43216 9.5437,-9.31242 5.9008,-9.31242 -1.2995,0 -1.9493,-0.64969 -1.9493,-1.94911 0,-2.35447 2.129,-2.5149 5.352,-0.40326 2.6082,1.70921 4.3765,1.16605 4.4262,-1.35973 0.037,-1.90262 3.2282,-6.03353 4.6604,-6.03353 1.0795,0 0.8499,10.8484 -0.3043,14.37482 -0.3945,1.20602 -1.3244,2.19277 -2.0655,2.19277 -0.7417,0 -1.3483,0.43855 -1.3483,0.97456 0,2.2453 3.9299,0.81616 5.36,-1.94913 0.8317,-1.60803 1.27,-2.92366 0.975,-2.92366 -0.9546,0 2.3569,-5.66145 4.9432,-8.45245 2.4848,-2.68113 2.49,-2.71971 0.4897,-3.6124 -1.1126,-0.49628 -2.0222,-1.49314 -2.0222,-2.21524 0,-1.82804 6.255,-1.70856 7.7962,0.14891 1.5671,1.88789 3.026,1.88789 2.3019,0 -0.3087,-0.80402 -0.2422,-2.2293 0.1473,-3.16732 2.4433,-5.88177 -0.7891,-12.48005 -5.2942,-10.80607 -3.1271,1.162 -4.5083,-0.26771 -2.9927,-3.09876 1.0051,-1.87874 0.8316,-2.50801 -1.2704,-4.61031 -1.3392,-1.33903 -2.9186,-2.13538 -3.5103,-1.76967 -1.6563,1.0234 -1.2809,2.21812 0.8729,2.78142 1.072,0.28035 1.9493,1.00307 1.9493,1.60609 0,1.73846 -2.8575,2.37267 -5.1825,1.15013 -1.1699,-0.61527 -3.8809,-1.00245 -6.0252,-0.86043 -3.5988,0.2384 -3.9215,0.0533 -4.2054,-2.40945 -0.2155,-1.87151 0.4389,-3.35919 2.1932,-4.9846 3.1149,-2.88718 3.1141,-3.36977 -0.01,-4.5567 -3.3987,-1.29211 -2.8373,-4.46533 0.7244,-4.09558 1.4693,0.15253 2.753,-0.30767 3.0549,-1.09515 0.2869,-0.747 2.2011,-1.66833 4.2537,-2.04739 2.0529,-0.37909 4.6096,-1.47666 5.6815,-2.43909 1.0719,-0.96238 3.5783,-2.04021 5.5696,-2.39522 1.9914,-0.35501 3.8735,-1.0546 4.1823,-1.55471 1.0224,-1.65371 -2.5551,-5.83716 -4.9911,-5.83716 -1.2782,0 -2.3244,-0.43857 -2.3244,-0.97457 0,-0.53599 -1.3157,-0.97455 -2.9235,-0.97455 -2.5535,0 -2.9165,-0.33946 -2.8674,-2.68004 0.031,-1.47403 0.3596,-4.37705 0.7306,-6.45114 0.5753,-3.21276 1.1785,-3.93421 4.0741,-4.87282 2.1169,-0.68625 3.5349,-1.83675 3.7595,-3.05086 0.5467,-2.95621 2.0846,-4.38551 4.7194,-4.38551 3.0803,0 6.1513,-1.66047 6.1513,-3.32593 0,-0.71952 0.653,-1.85017 1.4514,-2.51255 0.7977,-0.66238 1.2295,-1.5629 0.9584,-2.00111 -0.727,-1.17621 0.9754,-1.94603 4.608,-2.08352 3.1499,-0.11933 3.2179,-0.21585 3.36,-4.77966 0.1648,-5.296737 3.1895,-9.755267 5.4249,-7.996747 2.2678,1.78387 7.007,2.151 8.9914,0.69653 1.043,-0.76264 2.543,-1.386583 3.3366,-1.386583 0.7935,0 2.2352,-0.717536 3.2045,-1.594502 1.631,-1.476297 1.8071,-1.476297 2.3736,0 0.8636,2.250125 1.8626,1.983085 3.1498,-0.841899 1.0175,-2.233399 0.9133,-2.43641 -1.2479,-2.43641 -3.6861,0 -3.6441,-1.334921 0.1548,-4.917949 l 3.5072,-3.308318 1.4371,2.164006 c 0.7898,1.190205 2.1906,2.164009 3.1119,2.164009 1.3643,0 1.6558,-0.85983 1.5679,-4.629175 -0.06,-2.546042 -0.4296,-5.137787 -0.8232,-5.75943 -0.3931,-0.621645 -0.4345,-1.937304 -0.092,-2.923687 0.6674,-1.921468 6.7986,-8.128087 8.0292,-8.128087 0.4079,0 1.7648,1.821838 3.0163,4.048537 2.0656,3.674852 2.3907,3.890729 3.526,2.338815 1.6751,-2.291098 3.6395,-0.935553 2.902,2.002745 -0.4694,1.870585 -0.2038,2.330092 1.3487,2.330092 1.0632,0 2.4028,0.877106 2.9764,1.949125 0.5738,1.072018 1.6149,1.949125 2.314,1.949125 0.699,0 4.0207,-2.740957 7.381,-6.091015 8.5546,-8.528321 9.7962,-9.999678 9.7962,-11.60977 0,-2.441651 7.6822,-5.092967 14.9207,-5.149549 5.6607,-0.04424 6.9392,0.27047 8.6972,2.14088 1.1335,1.20602 3.0802,2.192764 4.3268,2.192764 1.2465,0 3.092,0.825337 4.101,1.834089 1.1087,1.108878 2.3262,1.529877 3.0789,1.064728 0.6846,-0.423145 1.8385,-0.541595 2.5639,-0.263219 1.7659,0.67767 4.3073,-1.536146 3.9868,-3.473412 -0.2589,-1.566754 0.053,-1.668936 5.9001,-1.937437 2.7655,-0.126968 3.1433,-0.431099 2.6128,-2.102365 -0.7722,-2.433154 1.8137,-3.675712 3.9539,-1.899748 1.129,0.937103 1.7644,0.963551 2.6186,0.109028 2.4768,-2.476724 10.8725,-0.04501 9.9545,2.883212 -0.3946,1.260141 0.047,1.477515 2.211,1.087427 3.7518,-0.676473 5.1405,-1.998213 5.1405,-4.893288 0,-1.363724 -0.2768,-2.20256 -0.6155,-1.864076 -1.2306,1.230613 -4.2573,-1.390944 -4.2573,-3.687401 0,-3.861735 2.6699,-4.515503 7.7361,-1.894376 10.3373,5.348341 13.5147,6.43568 15.5793,5.330867 2.4113,-1.290466 5.2787,0.21036 6.8059,3.562425 0.5624,1.234909 1.4819,2.245295 2.0426,2.245295 1.4341,0 2.9177,-4.34111 2.9354,-8.590866 0.01,-1.975147 0.3368,-4.077947 0.7309,-4.67289 1.1394,-1.721518 12.5573,-4.211104 16.4306,-3.582572 3.2158,0.52183 3.4589,0.399561 2.8738,-1.44392 -0.5307,-1.67246 -0.3017,-1.925814 1.35,-1.493861 1.1255,0.294318 1.9894,0.04765 1.9894,-0.568042 3e-4,-0.598525 0.6581,-1.088228 1.4619,-1.088228 0.8041,0 1.462,0.65783 1.462,1.461845 0,1.100245 1.1794,1.461847 4.7684,1.461847 3.3399,0 4.9367,-0.438039 5.3299,-1.461847 0.6642,-1.732068 4.6259,-1.940731 6.2379,-0.32859 0.8615,0.861305 1.3701,0.510502 2.1203,-1.461847 0.6121,-1.610239 1.7223,-2.595096 2.9254,-2.595096 1.0664,0 2.4225,-0.903759 3.0137,-2.008348 1.2851,-2.401087 3.339,-2.006792 3.4805,0.668131 0.1814,3.440382 2.2971,6.213031 4.7403,6.213031 1.4809,0 2.5632,0.714064 2.9555,1.950158 0.3402,1.072585 1.4665,2.403672 2.5021,2.957975 2.4352,1.30331 2.4051,3.515012 -0.067,4.837496 -2.975,1.59221 -2.3242,3.102218 1.2182,2.826525 1.7419,-0.135572 4.1097,0.06569 5.2619,0.447178 1.5595,0.516329 2.8912,-0.03346 5.2087,-2.15021 1.9786,-1.807141 2.7189,-3.087784 2.0313,-3.512881 -0.5953,-0.367944 -0.8412,-1.059396 -0.5461,-1.536571 0.2947,-0.477166 -0.011,-1.743948 -0.6802,-2.815074 -1.0422,-1.66835 -0.8828,-2.302627 1.1113,-4.425177 1.2806,-1.362718 2.8412,-2.47767 3.4688,-2.47767 1.4234,0 4.3668,-3.172112 4.3668,-4.705918 0,-0.627802 -0.8512,-1.141457 -1.8917,-1.141457 -2.6685,0 -3.5788,-1.975289 -1.1975,-2.598039 1.0888,-0.284745 2.2155,-1.132333 2.5038,-1.883537 0.8446,-2.200319 3.479,-1.571169 4.4838,1.070608 1.1754,3.091944 2.2813,3.072983 4.7629,-0.08169 1.2886,-1.638248 2.42,-2.242662 3.2381,-1.729808 0.6911,0.433555 2.0244,0.662028 2.9628,0.50771 1.3483,-0.221802 1.7053,0.421965 1.7053,3.073417 0,2.839731 0.4683,3.547982 3.0545,4.619156 2.7191,1.126281 3.2004,1.065323 4.3854,-0.555317 1.8769,-2.566676 1.6791,-3.313015 -1.1638,-4.393923 -3.1179,-1.185449 -2.2188,-2.901382 1.5204,-2.901382 2.8681,0 5.1719,2.011888 3.0963,2.703739 -1.6497,0.549921 -1.4146,2.169075 0.3149,2.169075 1.8913,0 1.8954,1.843905 0.01,2.569112 -3.5269,1.353308 0.222,2.21874 7.1071,1.64072 5.112,-0.429159 7.8902,-1.123254 8.7118,-2.176337 1.0751,-1.378537 1.4135,-1.282007 3.1185,0.890193 1.8664,2.377576 1.9462,2.390797 3.3003,0.547657 1.3665,-1.859632 1.4076,-1.857411 2.6576,0.144257 0.9965,1.595911 1.6229,1.812333 2.913,1.006603 1.2807,-0.799754 2.3927,-0.455001 5.0362,1.561232 4.0963,3.124466 5.7352,3.231676 8.1741,0.534799 1.021,-1.129058 3.501,-2.892191 5.5111,-3.91806 3.9453,-2.013723 4.8015,-4.631896 1.7729,-5.423863 -1.0348,-0.270634 -2.1179,-1.106685 -2.4058,-1.857889 -0.2927,-0.75119 -1.1999,-1.36581 -2.0208,-1.36581 -0.821,0 -1.4923,-0.657827 -1.4923,-1.461842 0,-1.806887 1.5804,-1.911068 2.6314,-0.173454 0.5199,0.859467 1.5906,1.05057 3.2159,0.574045 l 2.4364,-0.714342 -2.2802,-0.710592 c -1.7553,-0.547033 -2.1782,-1.245619 -1.8359,-3.035033 0.2735,-1.432303 -0.1192,-2.639787 -1.0241,-3.146094 -0.8075,-0.451913 -1.1616,-1.317959 -0.7864,-1.924546 0.832,-1.346649 9.0466,-1.47911 9.4999,-0.153192 0.3493,1.020505 4.7107,0.230496 4.7107,-0.853239 0,-0.357925 -1.3158,-1.427957 -2.9241,-2.377845 -4.8427,-2.8607108 -3.4009,-5.5151177 2.9953,-5.5151177 1.7801,0 3.2887,0.7254646 4.053,1.9491251 1.7085,2.7356466 2.7276,2.4649616 6.4226,-1.7054355 1.7808,-2.0100652 2.961,-3.1064676 2.6226,-2.4364548 -0.3383,0.6700118 -0.1511,1.2182021 0.4166,1.2182021 0.5676,0 1.067,-0.5481903 1.1093,-1.2182021 0.062,-0.9745631 0.175,-0.9745631 0.5685,0 0.2701,0.6700118 0.9192,1.2182021 1.4422,1.2182021 0.5229,0 0.6798,-0.4385529 0.3487,-0.9745621 -0.3621,-0.585391 0.8799,-0.9685982 3.1099,-0.9596419 2.7554,0.011113 3.3352,0.2583566 2.2501,0.9596419 -1.1121,0.7187698 -0.7177,0.9482881 1.6501,0.9596419 1.9836,0.00973 3.6017,0.7140136 4.4623,1.9424402 1.2095,1.7267784 1.6972,1.8028919 4.6843,0.7309221 1.8339,-0.6581317 3.6726,-1.7227541 4.0865,-2.3658385 0.4135,-0.6430854 2.0579,-1.0039367 3.6547,-0.80189 1.5963,0.2020466 2.9024,-0.039279 2.9024,-0.5362437 C 3150.7615,0.4066169 3153.419,0 3156.6663,0 c 4.4647,0 5.7266,0.2971542 5.1732,1.2182041 -0.5737,0.9550128 -0.4211,0.9670578 0.7061,0.055746 0.9309,-0.7527029 1.942,-0.8438438 2.8671,-0.2585612 0.7861,0.4971441 1.8677,0.9038882 2.4036,0.9038882 0.5359,0 0.317,-0.4251145 -0.4871,-0.9447118 -1.03,-0.6657343 0.3368,-0.9491274 4.6291,-0.9596429 l 6.0909,-0.014907 0,12.6825396 c 0,8.395934 -0.4117,13.379895 -1.2182,14.745775 -0.9762,1.653582 -0.9743,2.151477 0.01,2.507696 0.9623,0.348223 1.2191,9.312287 1.1864,41.393079 -0.044,43.086585 -0.1016,43.669325 -4.3511,43.669325 -0.8739,0 -1.3256,0.42616 -1.0039,0.94704 0.3222,0.52086 -0.156,2.07832 -1.0618,3.461 -1.1618,1.77311 -1.3425,2.81884 -0.6127,3.54848 1.3879,1.38776 3.1536,0.17453 3.1536,-2.16666 0,-2.27241 0.6281,-2.37725 2.5757,-0.42976 0.8037,0.80398 0.9917,1.46183 0.4174,1.46183 -0.5742,0 -1.0439,0.65784 -1.0439,1.46185 0,0.80402 0.4383,1.46185 0.9743,1.46185 0.536,0 0.9745,0.46441 0.9745,1.03207 0,0.56765 -0.4586,0.74859 -1.0192,0.40212 -0.6662,-0.41176 -0.9192,0.88642 -0.731,3.74713 0.1587,2.40744 0.6172,4.17408 1.0196,3.92591 0.4018,-0.24818 0.7306,1.54815 0.7306,3.99182 0,2.63545 -0.445,4.44308 -1.0939,4.44308 -0.8048,0 -0.8028,0.35027 0.01,1.32705 1.4471,1.74348 1.5423,223.40033 0.096,224.29388 -0.5274,0.32596 -0.9587,1.46972 -0.9587,2.54176 0,1.07199 0.4384,1.67806 0.9744,1.34683 0.6476,-0.40034 0.9745,39.94692 0.9745,120.30091 l 0,120.90338 -1589.0242,0 -1589.02455223,0 0,-129.61686 z m 1579.8402,-79.41266 c 4.515,-5.35229 8.9408,-10.61492 9.8349,-11.69474 0.8936,-1.07986 4.7228,-5.69103 8.5088,-10.24712 3.7861,-4.5561 6.8922,-8.83197 6.9025,-9.50199 0.033,-2.2116 -4.0269,-1.2672 -6.6565,1.54819 -1.4208,1.52151 -6.1914,7.99013 -10.6005,14.37479 -4.4094,6.38461 -10.2158,14.67829 -12.9025,18.43037 -2.6873,3.75204 -5.379,7.69902 -5.9816,8.77102 -1.0958,1.94915 -1.0958,1.94915 0.7944,0 1.0398,-1.072 5.5848,-6.32823 10.1005,-11.68052 z m 1305.8396,-18.04363 c 0,-0.536 -0.4125,-0.97455 -0.9169,-0.97455 -0.5042,0 -1.1881,0.43855 -1.5194,0.97455 -0.3311,0.53604 0.081,0.97459 0.9172,0.97459 0.8357,0 1.5191,-0.43855 1.5191,-0.97459 z M 1425.785,378.02595 c 0,-1.01466 -0.3846,-1.84486 -0.8554,-1.84486 -1.3811,0 -3.2638,2.75208 -2.6081,3.813 0.9396,1.52054 3.4635,0.0865 3.4635,-1.96814 z m 203.6152,-8.91042 c 0.038,-0.40202 -0.3233,-0.73092 -0.802,-0.73092 -1.2224,0 -2.1924,2.88443 -1.4011,4.16516 0.5898,0.95418 1.9973,-1.24016 2.2031,-3.43424 z m 976.8109,-13.40026 c 0.5752,0 0.2523,-0.87708 -0.7181,-1.94912 -2.3807,-2.63059 -3.4109,-2.45192 -3.4109,0.59153 0,1.91639 0.3788,2.39533 1.5419,1.94916 0.8475,-0.32536 2.0117,-0.59157 2.5871,-0.59157 z m -1018.2541,-8.50544 0.092,-3.14537 -2.3129,2.31313 c -2.4004,2.40069 -2.0611,4.79666 0.6056,4.27521 0.9784,-0.19133 1.5554,-1.42079 1.6147,-3.44297 z m 70.7485,1.74105 c 0,-0.50438 -0.4384,-1.1881 -0.9743,-1.5194 -0.5359,-0.33124 -0.975,0.0814 -0.975,0.91704 0,0.83569 0.4391,1.51942 0.975,1.51942 0.5359,0 0.9743,-0.41272 0.9743,-0.91706 z m 946.6493,-2.49396 c 0,-0.53599 -0.7365,-1.11633 -1.6366,-1.28966 -0.9968,-0.19201 -1.6361,0.3118 -1.6361,1.28966 0,0.97788 0.6393,1.48168 1.6361,1.28967 0.9001,-0.17329 1.6366,-0.75364 1.6366,-1.28967 z M 90.248595,344.28449 c -0.323848,-0.32385 -0.554231,0.25177 -0.511839,1.2791 0.04677,1.13529 0.27765,1.36626 0.588733,0.58878 0.281552,-0.70349 0.246953,-1.54409 -0.077,-1.86788 z m 1576.117805,1.36158 c 0.7974,-0.96121 0.7226,-1.78295 -0.2886,-3.16582 -1.5892,-2.1739 -2.0945,-1.87465 -3.0131,1.78591 -0.5071,2.02109 -0.317,2.67804 0.7761,2.67804 0.7962,0 1.9332,-0.58415 2.5256,-1.29813 z m -94.0699,-5.43022 c 3.1142,-4.33486 3.5396,-5.94095 1.5733,-5.94095 -0.3841,0 -0.9278,0.87713 -1.2083,1.94911 -0.6043,2.31029 -3.3356,2.52411 -6.2416,0.4886 -1.6003,-1.12067 -2.1866,-1.17739 -2.5196,-0.24364 -0.6773,1.89757 2.9581,8.32957 4.8105,8.51118 0.083,0.008 1.6971,-2.13573 3.5857,-4.7643 z m -17.6742,-1.26302 c -0.6254,-0.62537 -1.4607,-0.8135 -1.8559,-0.41805 -0.3952,0.39539 -0.086,1.10975 0.6865,1.58753 1.82,1.12482 2.6417,0.30299 1.1694,-1.16948 z m 64.703,-2.67769 c -0.2234,-0.83211 -0.6842,-3.15752 -1.0233,-5.16755 -0.4704,-2.78943 -1.0745,-3.65465 -2.5521,-3.65465 -2.1531,0 -3.8658,-3.072 -2.0497,-3.67737 0.6325,-0.21078 1.1502,-0.79843 1.1502,-1.3058 0,-0.50739 -1.3157,0.0503 -2.924,1.23904 -1.6079,1.18887 -2.9237,2.63142 -2.9237,3.20572 0,0.57429 -0.8938,1.60253 -1.9869,2.28502 -3.2565,2.03392 -1.2145,3.41418 4.0238,2.71932 l 4.7103,-0.62484 0.6705,5.05321 c 0.6044,4.55657 0.8003,4.87574 1.9912,3.24706 0.7264,-0.99342 1.1376,-2.48701 0.9137,-3.31916 z m 33.9567,3.87124 c 3.5189,-1.33793 3.1421,-3.13497 -0.5803,-2.76592 -2.0451,0.20276 -3.1624,0.87862 -3.3249,2.01091 -0.28,1.95368 0.4047,2.08603 3.9052,0.75501 z m -57.9231,-7.91953 c 0,-0.41834 -0.4578,-1.04352 -1.0172,-1.38931 -1.2649,-0.78172 -3.8557,1.26664 -3.8557,3.0485 0,1.05607 0.49,1.09855 2.4364,0.21155 1.3401,-0.61057 2.4365,-1.45238 2.4365,-1.87074 z m 53.0409,1.54111 c 1.6747,-1.26709 1.733,-1.68689 0.543,-3.91042 -1.6855,-3.14981 -5.1989,-2.93495 -5.6639,0.34634 -0.6791,4.79374 1.4953,6.30709 5.1209,3.56408 z m -113.69,-3.39128 c 0.6695,-1.07206 2.0611,-1.94917 3.0925,-1.94917 1.9541,0 3.5602,-3.14743 2.4896,-4.87955 -0.7609,-1.23118 -6.3301,1.85564 -6.3301,3.50853 0,0.62281 -0.653,1.67431 -1.4514,2.33671 -0.7981,0.66237 -1.2107,1.59319 -0.9172,2.06845 0.8399,1.3588 1.799,1.02486 3.1166,-1.08497 z m 95.7333,-1.90237 c 0,-1.79546 -2.5098,-3.48407 -3.2653,-2.19697 -0.2221,0.37856 -0.021,1.70328 0.4481,2.9437 0.9501,2.51615 2.8172,2.02131 2.8172,-0.74673 z m -77.9933,0.96586 c 0.7885,-0.49866 1.1074,-1.23332 0.7078,-1.63254 -0.3991,-0.39928 -1.4669,0.0155 -2.3734,0.92156 -1.7613,1.76141 -0.7069,2.21145 1.6656,0.71098 z m 14.9322,-7.06938 c 2.3768,-3.77987 2.0571,-4.39596 -0.8653,-1.66601 -2.6296,2.45675 -5.2675,6.82524 -5.2675,8.72369 0,1.18478 3.4368,-2.7705 6.1328,-7.05768 z m 27.9769,1.12641 c 0,-0.56765 -0.4386,-0.76105 -0.9745,-0.42976 -0.5359,0.33125 -0.9743,0.79571 -0.9743,1.03207 0,0.23637 0.4384,0.42977 0.9743,0.42977 0.5359,0 0.9745,-0.46443 0.9745,-1.03208 z m 1276.6773,-4.28125 c 0,-1.08648 -1.9635,-2.48319 -3.491,-2.48319 -0.8632,0 -0.3527,2.58858 0.7231,3.66443 1.3145,1.31455 2.7679,0.69431 2.7679,-1.18124 z m -1203.4381,-3.70139 c 0.081,-1.20599 0.05,-3.42538 -0.071,-4.93191 -0.1195,-1.50657 0.2745,-3.33136 0.8752,-4.05513 0.7521,-0.90669 0.7739,-1.51241 0.071,-1.94755 -0.5621,-0.34734 -1.0219,-1.48274 -1.0219,-2.52315 0,-1.36801 -0.6745,-1.89163 -2.4365,-1.89163 -1.9573,0 -2.4364,0.48528 -2.4364,2.46701 0,3.04087 -2.7378,4.33624 -4.3903,2.07688 -1.8507,-2.53088 -2.4621,-1.90163 -0.9616,0.98999 0.7449,1.4356 1.1142,2.99816 0.8211,3.47239 -0.6834,1.10631 2.4842,4.63764 4.1606,4.63764 0.7021,0 1.7458,0.87711 2.3195,1.94912 1.3875,2.59229 2.8884,2.47318 3.0706,-0.24366 z m 1145.9385,-0.16391 c 0,-0.7602 0.2812,-2.11444 0.6246,-3.00945 0.4931,-1.2842 0.1331,-1.55787 -1.7055,-1.29792 -3.1812,0.44976 -4.0401,5.68948 -0.9325,5.68948 1.1075,0 2.0134,-0.62195 2.0134,-1.38211 z m -40.9464,-0.32336 c -0.035,-1.73255 -1.7022,-3.35664 -2.3571,-2.29679 -0.3664,0.59322 -0.3954,1.51716 -0.065,2.05315 0.7027,1.13674 2.4433,1.31191 2.4215,0.24364 z m -14.6545,-3.89824 c 0.6892,-1.47402 1.6402,-3.44156 2.114,-4.37231 1.2803,-2.51671 1.125,-2.62363 -2.0629,-1.42041 -2.5387,0.95816 -2.9236,1.58912 -2.9236,4.78817 0,4.34622 1.1262,4.74009 2.8725,1.00455 z m 21.4914,1.80974 c 0,-0.47866 -0.6579,-1.12274 -1.462,-1.43127 -0.8902,-0.34169 -1.4616,-0.002 -1.4616,0.8703 0,0.78719 0.6579,1.43128 1.4616,1.43128 0.8041,0 1.462,-0.39165 1.462,-0.87031 z m 100.3798,-2.05337 c 0,-1.94818 -3.6486,-6.42181 -4.5235,-5.54667 -0.7582,0.75813 2.3875,7.49579 3.4994,7.49579 0.5632,0 1.0241,-0.87712 1.0241,-1.94912 z m -1240.7967,-0.47093 c 0.2475,-0.24784 -0.7344,-2.00418 -2.1829,-3.90297 -1.7478,-2.2915 -2.4277,-4.09986 -2.0222,-5.37789 1.0319,-3.25053 -0.5753,-4.26602 -2.0999,-1.32706 -1.1574,2.23114 -1.3222,7.0608 -0.4071,11.93159 0.087,0.46562 6.1106,-0.72214 6.7121,-1.32367 z m -59.2698,-3.42734 c 0,-0.53601 -0.4644,-0.97457 -1.0319,-0.97457 -0.5677,0 -0.7613,0.43856 -0.4296,0.97457 0.331,0.53599 0.7954,0.97455 1.0319,0.97455 0.2366,0 0.4296,-0.43856 0.4296,-0.97455 z m 29.62,-2.51612 c 0.9741,-2.53854 0.6871,-3.33125 -1.2064,-3.33125 -2.0324,0 -5.374,3.22326 -4.3765,4.22099 1.2425,1.24237 4.9942,0.6445 5.5829,-0.88974 z m -20.3049,-3.42303 c 0.3625,-0.58646 1.6757,-0.87201 2.9182,-0.63449 3.2264,0.61673 5.0384,-0.66213 3.5242,-2.48691 -1.5381,-1.85297 -0.6386,-4.00004 2.3436,-5.5961 2.6046,-1.39414 3.9033,-0.69764 4.4628,2.39385 0.1861,1.02759 0.8866,2.05091 1.5568,2.27398 1.455,0.48444 1.7469,-7.11138 0.3076,-8.00092 -1.064,-0.65761 -0.1496,-7.68275 1.0621,-8.16101 0.4526,-0.17868 0.8229,-0.93126 0.8229,-1.67244 0,-2.52726 3.2706,-8.21442 5.0486,-8.77871 0.9752,-0.30957 1.7732,-0.9856 1.7732,-1.50229 0,-1.80347 -3.1612,-2.13281 -5.756,-0.59976 -1.5298,0.9035 -3.1454,1.21757 -3.8918,0.75634 -0.7019,-0.43377 -2.5016,-0.32605 -3.9996,0.2393 -2.1734,0.82045 -3.2405,0.68902 -5.2856,-0.65088 -3.0161,-1.97622 -5.7569,-1.0608 -2.9558,0.9873 0.9875,0.72218 2.5891,1.31306 3.5584,1.31306 0.9696,0 1.7628,0.38742 1.7628,0.8609 0,0.47352 0.9217,1.10179 2.0474,1.39626 1.1877,0.3106 1.7649,0.9919 1.3752,1.62282 -0.4765,0.7704 -1.0356,0.78599 -1.9178,0.0536 -0.9021,-0.74838 -1.584,-0.62683 -2.4691,0.43997 -0.6728,0.81063 -2.2661,1.47386 -3.54,1.47386 -2.6472,0 -2.9856,1.1561 -0.8555,2.92367 0.8041,0.66727 1.462,2.25594 1.462,3.53032 0,1.66738 0.5464,2.31708 1.9488,2.31708 2.0954,0 2.7674,2.82398 0.7309,3.07212 -6.3903,0.7787 -7.5512,1.62566 -7.5674,5.52098 -0.01,1.97391 -0.4183,4.22582 -0.9106,5.00423 -0.9522,1.50575 -0.4963,2.97024 0.9256,2.97024 0.4725,0 1.156,-0.47986 1.5181,-1.06635 z m 30.8371,-3.02684 c -0.9098,-0.90959 -1.1693,-0.6497 -1.1693,1.16947 0,1.81922 0.2595,2.07906 1.1693,1.16949 0.9093,-0.90958 0.9093,-1.42935 0,-2.33896 z m 1148.3843,-1.2979 c -1.0404,-0.787 -2.5755,-1.41691 -3.4108,-1.39989 -1.2145,0.0248 -1.1397,0.31795 0.3724,1.46187 1.0409,0.78697 2.5755,1.41692 3.4113,1.39987 1.2146,-0.0248 1.1397,-0.31794 -0.3729,-1.46185 z m -1199.6098,-0.22759 c 0.9449,-0.61005 4.5165,-7.90828 3.9582,-8.08744 -1.8404,-0.59042 -6.6862,-0.47101 -7.0856,0.17459 -1.0603,1.71589 -3.3423,0.8237 -3.403,-1.33056 -0.062,-2.18474 -0.065,-2.18422 -0.9952,0.14124 -1.2579,3.14452 -0.2262,5.94978 2.1884,5.94978 1.1549,0 2.1861,0.80901 2.4845,1.94912 0.547,2.0922 1.1091,2.32932 2.8527,1.20327 z m 53.4668,-1.20327 c 0.3316,-0.536 0.1639,-0.97456 -0.372,-0.97456 -0.5359,0 -1.2457,0.43856 -1.5771,0.97456 -0.331,0.53601 -0.1634,0.97456 0.3725,0.97456 0.5359,0 1.2456,-0.43855 1.5766,-0.97456 z m 40.4443,-0.5448 c 0,-0.23636 -0.4382,-0.42976 -0.9742,-0.42976 -0.536,0 -0.975,0.46443 -0.975,1.03208 0,0.56765 0.439,0.76104 0.975,0.42976 0.536,-0.33129 0.9742,-0.7957 0.9742,-1.03208 z m 1093.6421,-3.0446 c -0.7035,-0.28155 -1.5442,-0.24692 -1.8678,0.077 -0.3237,0.32386 0.252,0.55419 1.2791,0.51188 1.1353,-0.0468 1.3664,-0.27772 0.5887,-0.58878 z m -1117.275,-2.82659 c -0.9291,-0.92873 -2.791,0.57555 -2.0987,1.69544 0.4111,0.66561 0.9568,0.64879 1.6562,-0.0511 0.5739,-0.57379 0.7728,-1.31375 0.4425,-1.64434 z m 1106.9638,0.002 c -0.3257,-0.84789 -0.5914,-1.7137 -0.5914,-1.92411 0,-0.43582 -5.47,-3.35628 -6.2864,-3.35628 -0.295,0 -0.5357,1.28515 -0.5357,2.8559 0,2.18685 0.5135,2.95486 2.1925,3.27827 4.7312,0.91116 5.8294,0.73155 5.221,-0.85378 z m 139.4469,-2.01039 c 0.3827,-0.99647 -0.089,-2.0898 -1.2489,-2.89041 -3.6017,-2.48837 -4.4269,-3.51563 -3.9091,-4.86485 0.3402,-0.88735 -0.6965,-1.87093 -2.9768,-2.82371 -1.9248,-0.80416 -3.6849,-1.46209 -3.9118,-1.46209 -0.5952,0 0.7597,7.02292 1.7114,8.8728 0.8428,1.63741 6.3253,4.71072 8.4713,4.74888 0.6868,0.0121 1.5259,-0.69906 1.8639,-1.58062 z m -136.1404,-5.31068 c 0,-0.58619 -0.9193,-1.30627 -2.043,-1.60014 -1.6802,-0.43929 -1.9406,-1.04848 -1.4655,-3.42452 0.5444,-2.72253 0.4296,-2.85296 -1.9784,-2.24861 -1.9763,0.49614 -2.4351,0.32587 -2.0214,-0.75102 0.6669,-1.73798 -1.0859,-3.57925 -3.4068,-3.57925 -2.5933,0 -2.3024,4.99912 0.4385,7.54095 1.9509,1.80913 7.7954,4.83671 9.746,5.04889 0.4019,0.0438 0.7306,-0.40014 0.7306,-0.9863 z m -1089.8047,-3.75905 c 4.2966,-5.17529 4.4181,-8.12052 0.1593,-3.86178 -1.4011,1.40094 -2.7468,1.85461 -4.3258,1.45829 -2.3388,-0.58703 -4.3892,1.0936 -2.7093,2.22082 0.5101,0.34211 1.2101,1.38947 1.5564,2.32745 0.9117,2.47159 1.7764,2.12301 5.3194,-2.14478 z m -113.78,0.92658 c 0,-0.53599 -0.6838,-0.97455 -1.5196,-0.97455 -0.8354,0 -1.2483,0.43856 -0.9169,0.97455 0.3312,0.53604 1.015,0.97456 1.5193,0.97456 0.5047,0 0.9172,-0.43852 0.9172,-0.97456 z m 102.3291,-1.51936 c 0,-0.23636 -0.4385,-0.42976 -0.9744,-0.42976 -0.5364,0 -0.9749,0.46441 -0.9749,1.03207 0,0.56766 0.4385,0.76105 0.9749,0.42976 0.5359,-0.33125 0.9744,-0.7957 0.9744,-1.03207 z m 29.2023,-2.3148 c 1.4165,-2.64626 1.2966,-2.8757 -1.1839,-2.26849 -3.443,0.84292 -5.0026,2.34125 -3.4568,3.32167 2.0505,1.3006 3.5651,0.95685 4.6407,-1.05318 z m 1218.2379,-1.134 c 0,-0.48356 -0.3837,-0.87921 -0.853,-0.87921 -0.4688,0 -2.2229,-0.2741 -3.898,-0.6091 -3.209,-0.6418 -4.2059,1.00794 -1.964,3.24992 1.2146,1.21458 6.715,-0.22839 6.715,-1.76161 z M 1578.219,268.18 c -0.5248,-3.28251 -0.2878,-3.9243 2.003,-5.42527 2.1848,-1.43138 2.4,-1.94089 1.3547,-3.20055 -2.0255,-2.44045 -5.5786,-3.38196 -7.9656,-2.11066 -3.4555,1.84038 -5.858,5.68836 -3.5511,5.68836 1.697,0 6.7423,4.14914 6.1706,5.07447 -0.7369,1.19193 0.325,3.6966 1.5671,3.6966 0.6324,0 0.7918,-1.40745 0.4213,-3.72295 z m 1172.9714,1.229 c 0,-0.23636 -0.6838,-0.42976 -1.5197,-0.42976 -0.8352,0 -1.2439,0.44572 -0.9068,0.99046 0.5562,0.90007 2.4265,0.46791 2.4265,-0.5607 z m 142.2863,0.48728 c 0,-0.56762 -0.439,-0.76101 -0.975,-0.42977 -0.5359,0.3313 -0.9743,0.79572 -0.9743,1.03207 0,0.23641 0.4384,0.42978 0.9743,0.42978 0.536,0 0.975,-0.46442 0.975,-1.03208 z m -150.0826,-6.13975 c 0,-3.37125 -1.6892,-4.51232 -4.9798,-3.36505 -3.5651,1.24269 -3.5205,1.77409 0.363,4.32619 3.5943,2.36205 4.6168,2.14929 4.6168,-0.96114 z m 78.9022,-8.69004 c 1.5202,-3.43494 0.2665,-5.11746 -3.1703,-4.25484 -1.9142,0.48041 -2.2841,1.07213 -1.9067,3.04724 0.3443,1.80079 0.051,2.45105 -1.1069,2.45105 -0.8836,0 -1.5758,0.79231 -1.5758,1.80372 0,2.94302 6.1825,0.51507 7.7597,-3.04717 z m -112.0374,2.16049 c 0,-0.50439 -0.6578,-0.91704 -1.4621,-0.91704 -1.5072,0 -1.9362,1.14993 -0.8388,2.24747 0.7787,0.77863 2.3009,-0.10152 2.3009,-1.33043 z m 95.9941,1.03207 c -0.331,-0.53599 -0.7959,-0.97456 -1.0319,-0.97456 -0.2365,0 -0.4301,0.43857 -0.4301,0.97456 0,0.536 0.4649,0.97456 1.0325,0.97456 0.5677,0 0.7606,-0.43856 0.4295,-0.97456 z m 20.9532,-1.03207 c 0,-1.10366 -0.4387,-1.73562 -0.9746,-1.40432 -0.5362,0.33124 -0.9745,1.23428 -0.9745,2.00664 0,0.77238 0.4383,1.40431 0.9745,1.40431 0.5359,0 0.9746,-0.90298 0.9746,-2.00663 z m -88.1147,-4.88415 c 1.2424,-1.03106 1.9136,-1.04034 3.5019,-0.0487 2.3183,1.44797 2.9904,1.10946 1.7575,-0.88527 -0.6325,-1.02337 -2.6952,-1.43364 -7.2073,-1.43364 -6.1537,0 -9.2188,1.24609 -7.9832,3.24537 0.8249,1.33517 8.0321,0.69813 9.9311,-0.87781 z m 21.8444,0.55615 c 0,-0.80401 -0.4384,-1.46188 -0.9748,-1.46188 -0.536,0 -0.9743,0.65787 -0.9743,1.46188 0,0.80398 0.4383,1.46185 0.9743,1.46185 0.5364,0 0.9748,-0.65787 0.9748,-1.46185 z m 123.7695,0 c 0,-0.80401 -0.6579,-1.46188 -1.4619,-1.46188 -0.8038,0 -1.4617,0.65787 -1.4617,1.46188 0,0.80398 0.6579,1.46185 1.4617,1.46185 0.804,0 1.4619,-0.65787 1.4619,-1.46185 z m -1331.7495,-0.50319 c -0.3369,-0.54475 -1.0207,-0.73815 -1.5197,-0.42976 -1.3517,0.8354 -1.0996,1.42022 0.6121,1.42022 0.836,0 1.244,-0.4457 0.9076,-0.99046 z m 1283.0211,0.0159 c 0,-0.53603 -0.7671,-0.96787 -1.7054,-0.95966 -1.457,0.0127 -1.4926,0.15231 -0.2433,0.95966 1.8391,1.18858 1.9487,1.18858 1.9487,0 z m -51.9192,-3.16734 c -0.034,-1.20601 0.1224,-2.79576 0.3471,-3.53277 0.224,-0.73702 -0.083,-1.52242 -0.6862,-1.74537 -0.6017,-0.22289 -1.3108,0.42321 -1.5759,1.43589 -0.2901,1.11078 -1.6927,2.08347 -3.5349,2.4519 -5.313,1.06264 -3.373,3.01886 3.4215,3.45042 1.5729,0.0999 2.0746,-0.4098 2.0284,-2.06007 z m 68.9745,0.24363 c -0.3316,-0.536 -1.0153,-0.97456 -1.5196,-0.97456 -0.5044,0 -0.9167,0.43856 -0.9167,0.97456 0,0.53599 0.6836,0.97456 1.5189,0.97456 0.8359,0 1.2484,-0.43857 0.9174,-0.97456 z m -1278.1391,-2.00662 c 0,-0.50439 -0.644,-0.91704 -1.4314,-0.91704 -0.8691,0 -1.2119,0.57168 -0.8721,1.45623 0.5752,1.49916 2.3035,1.09457 2.3035,-0.53919 z m 55.1604,0.87426 c 0.801,-1.29647 -3.2367,-4.96484 -4.8742,-4.42823 -0.5888,0.19296 -1.2095,1.52301 -1.3792,2.95573 -0.2741,2.3144 0.019,2.60486 2.6227,2.60486 1.6117,0 3.2454,-0.50955 3.6307,-1.13236 z m 1091.8997,-4.22772 c 0,-1.88624 -1.9129,-2.8622 -3.1621,-1.61315 -0.7412,0.74131 -0.6846,1.47523 0.1952,2.5357 1.3738,1.65544 2.9669,1.16012 2.9669,-0.92255 z m -1167.0875,-0.37773 c -1.4311,-1.3373 -5.3114,-2.29592 -5.3114,-1.31223 0,1.48814 1.1927,2.17726 3.7684,2.17726 1.4835,0 2.0995,-0.3454 1.543,-0.86503 z m 1239.372,-7.6624 c -4.8699,-4.48365 -6.3391,-5.09738 -5.8321,-2.4364 0.179,0.93799 1.2574,1.83907 2.3966,2.00232 1.3843,0.19835 2.2545,1.21055 2.6224,3.04985 0.3026,1.51415 1.3298,3.53202 2.2816,4.4841 1.6584,1.65843 1.7583,1.63263 2.3804,-0.61345 0.5364,-1.93665 -0.1328,-3.06509 -3.8489,-6.48642 z m -1139.5973,1.70541 c 1.6997,0 3.0907,-0.43857 3.0907,-0.97456 0,-0.536 -1.2061,-0.98128 -2.6803,-0.9895 -1.4741,-0.008 -3.3263,-0.4236 -4.116,-0.92312 -1.7398,-1.10035 -2.9134,0.40639 -2.9343,3.76915 -0.014,2.20909 0.087,2.2511 1.7672,0.73093 0.9799,-0.88712 3.1726,-1.6129 4.8727,-1.6129 z m -84.6834,-1.09292 c -1.1704,-2.18691 -3.1916,-1.98712 -3.647,0.36059 -0.1657,0.85424 0.4866,1.72014 1.4617,1.94052 2.6486,0.59856 3.3447,-0.13452 2.1853,-2.30111 z m -10.8235,-3.89653 c 1.5271,-3.08612 1.7412,-4.40814 0.9247,-5.71494 -0.9718,-1.55677 -1.2817,-1.57386 -3.6709,-0.20261 -1.9944,1.14461 -2.5835,2.20422 -2.5,4.49677 0.2342,6.41895 2.4734,7.0254 5.2462,1.42078 z m -10.4493,-1.95434 c -0.2109,-0.737 -0.3257,-2.32676 -0.2547,-3.53277 0.071,-1.20599 -0.4262,-2.19274 -1.1043,-2.19274 -0.8535,0 -1.1171,1.21498 -0.8572,3.94386 0.2314,2.42391 0.8047,3.78548 1.4877,3.53282 0.6114,-0.22614 0.9389,-1.01415 0.7285,-1.75117 z m 113.2841,-1.85363 c 0.4544,-0.41213 -0.9711,-2.60112 -3.1673,-4.8645 -2.1967,-2.26338 -3.994,-3.64971 -3.994,-3.08069 0,0.56901 0.439,1.30562 0.9749,1.63687 1.6974,1.04917 1.0525,4.13776 -0.9749,4.66792 -2.4036,0.62858 -2.547,2.35067 -0.2433,2.91956 2.0305,0.50142 6.2435,-0.22633 7.4046,-1.27916 z m 8.4318,1.00091 c 0,-0.536 -0.6318,-0.97456 -1.4044,-0.97456 -0.772,0 -1.6753,0.43856 -2.0063,0.97456 -0.3315,0.53599 0.3005,0.97454 1.4041,0.97454 1.1036,0 2.0066,-0.43855 2.0066,-0.97454 z M 2695.64,223.1747 c 0,-0.536 -0.6833,-0.97456 -1.519,-0.97456 -0.836,0 -1.2484,0.43856 -0.9173,0.97456 0.3314,0.53604 1.0153,0.9746 1.5195,0.9746 0.5042,0 0.9168,-0.43856 0.9168,-0.9746 z m -1035.4323,-2.85884 c -0.3537,-0.57168 -1.1092,-1.0394 -1.6792,-1.0394 -0.6462,0 -0.5723,0.55919 0.1967,1.48542 1.3366,1.61056 2.5312,1.2511 1.4825,-0.44602 z m -21.5849,-3.55552 c 0.3251,-0.84784 0.5915,-2.34173 0.5915,-3.31973 0,-1.25446 0.5345,-1.63841 1.8148,-1.3036 1.1251,0.29427 2.0566,-0.15529 2.4509,-1.18326 0.4994,-1.30179 0.2141,-1.54741 -1.3299,-1.1437 -1.0811,0.28274 -2.2937,-0.003 -2.6945,-0.634 -0.4009,-0.63146 -1.9369,-1.67877 -3.4141,-2.32733 l -2.6855,-1.17924 1.4674,3.51155 c 0.8071,1.93133 1.4674,4.77363 1.4674,6.3162 0,3.02556 1.3706,3.76807 2.332,1.26311 z m -8.1797,-11.15834 c 0,-1.16672 -2.7485,-2.4182 -3.5505,-1.61648 -0.8536,0.85342 0.5942,2.62164 2.1463,2.62164 0.7723,0 1.4042,-0.45232 1.4042,-1.00516 z m 1108.0777,-0.94397 c 0,-0.53603 -0.4645,-0.97458 -1.032,-0.97458 -0.5676,0 -0.7611,0.43855 -0.4296,0.97458 0.331,0.53601 0.7959,0.97456 1.0318,0.97456 0.2367,0 0.4298,-0.43855 0.4298,-0.97456 z m 34.11,-0.058 c 1.2503,-0.85755 1.1445,-1.22505 -0.731,-2.54036 -1.2061,-0.84578 -2.1926,-2.36142 -2.1926,-3.36803 0,-1.00667 -0.6283,-1.83025 -1.3963,-1.83025 -0.768,0 -1.6885,-0.92125 -2.0461,-2.04724 -0.4482,-1.41273 -0.9627,-1.73421 -1.6598,-1.03722 -0.6969,0.69699 -0.5157,1.5041 0.5842,2.60414 2.1177,2.11789 2.0109,2.76571 -0.3548,2.14706 -3.1937,-0.83518 -2.5841,3.73982 0.7304,5.48592 3.2958,1.73585 5.1634,1.89072 7.066,0.58598 z m -21.9907,-3.73828 c 0.6519,-1.05466 -2.181,-2.28536 -3.4521,-1.49979 -0.4962,0.30678 -0.6501,0.96603 -0.3416,1.46501 0.7141,1.15519 3.0876,1.17697 3.7937,0.0349 z m 23.6686,-12.26382 c 1.8243,-0.52367 1.9891,-0.90423 1.0454,-2.41512 -1.0785,-1.72707 -1.2221,-1.71816 -3.8707,0.24027 -3.0865,2.28191 -3.6333,3.99384 -1.0457,3.27208 0.9383,-0.26159 2.6801,-0.75534 3.871,-1.09723 z m -6.1985,-5.86769 c 0.3088,-0.80403 1.2326,-1.46185 2.0535,-1.46185 2.0455,0 1.8873,-1.88808 -0.2132,-2.53811 -0.9377,-0.29034 -2.4671,-0.93438 -3.3975,-1.43126 -2.3565,-1.25809 -2.4941,-1.18525 -2.433,1.28935 0.03,1.206 -0.2832,2.96022 -0.6947,3.89822 -0.6011,1.36915 -0.2685,1.70548 1.6874,1.70548 1.3402,0 2.6892,-0.65781 2.9975,-1.46183 z m -25.6911,-2.49392 c 0,-0.56765 -0.4384,-0.76106 -0.9743,-0.42975 -0.5359,0.33127 -0.9749,0.7957 -0.9749,1.03206 0,0.23637 0.439,0.42976 0.9749,0.42976 0.5359,0 0.9743,-0.46442 0.9743,-1.03207 z m 15.8272,-6.25423 c 0.5364,-2.80629 0.1077,-3.43387 -2.3458,-3.43387 -0.9824,0 -1.7866,-0.42759 -1.7866,-0.95019 0,-0.88954 -5.7178,-0.30459 -6.822,0.69795 -0.2677,0.2433 1.031,1.71524 2.8868,3.271 4.2514,3.56359 7.4343,3.7274 8.0676,0.41511 z m -15.8272,-12.74973 c 0,-1.63429 -0.8762,-1.75868 -2.9235,-0.41484 -1.2722,0.83512 -1.2783,1.07771 -0.047,1.86987 1.6983,1.09237 2.97,0.46939 2.97,-1.45503 z m 66.7265,-6.52081 c -0.7606,-3.57804 -3.0376,-6.57827 -4.9929,-6.57827 -1.442,0 -1.4727,0.0766 -1.852,4.62915 -0.2103,2.52931 0.1003,3.16737 1.5432,3.16737 0.9936,0 2.0781,0.4385 2.4091,0.97455 0.3311,0.53601 1.2692,0.97455 2.0844,0.97455 1.1601,0 1.3354,-0.68754 0.8082,-3.16735 z m 168.3545,0.065 c -1.4857,-1.48555 -2.3907,-0.58065 -1.5668,1.56658 0.4532,1.18117 0.9429,1.36381 1.6798,0.62676 0.737,-0.73705 0.7039,-1.37608 -0.113,-2.19334 z m -235.6589,-27.93678 c 0.2816,-0.45523 -0.581,-1.7777 -1.9165,-2.93879 -2.0524,-1.78489 -2.5164,-1.88094 -2.9994,-0.62171 -1.0421,2.71628 3.4336,5.95837 4.9159,3.5605 z m 13.5228,-8.94403 c -0.3535,-1.35347 0.1475,-2.14221 1.7342,-2.72926 l 2.2324,-0.82569 -2.2916,-0.59917 c -1.5481,-0.40491 -2.6997,-0.0614 -3.5518,1.05959 -0.7869,1.03547 -1.2721,1.20103 -1.2915,0.44061 -0.044,-1.72762 -2.9546,-1.52135 -2.9546,0.20936 0,0.78514 0.8774,1.89696 1.9493,2.4707 1.0719,0.57371 1.9492,1.73922 1.9492,2.59 0,1.21373 0.293,1.30356 1.3609,0.41716 0.7487,-0.62132 1.1376,-1.98632 0.8635,-3.0333 z m 36.7578,-25.312531 c 0,-0.536006 -0.7676,-0.96785 -1.7052,-0.959646 -1.4577,0.01281 -1.4932,0.15229 -0.2439,0.959646 1.8392,1.18858 1.9491,1.18858 1.9491,0 z m 66.7599,-23.39308 c 0.3327,-0.537981 1.6739,-0.709719 2.9811,-0.381641 1.7236,0.432618 2.3766,0.197057 2.3766,-0.857371 0,-0.799638 -1.0963,-1.663472 -2.4365,-1.919624 -1.3396,-0.256165 -2.4363,-0.02672 -2.4363,0.50987 0,0.536584 -0.7671,1.558206 -1.7054,2.270262 -0.9413,0.714776 -1.1857,1.308527 -0.5447,1.325639 0.6384,0.01707 1.4328,-0.409168 1.7652,-0.947135 z m -22.9047,-1.223848 c 0,-0.675081 -0.8769,-1.775175 -1.9487,-2.444662 -2.1923,-1.3689 -2.4088,-0.956866 -0.9405,1.787025 1.1365,2.123787 2.8892,2.522725 2.8892,0.657637 z m 181.5512,-5.802117 4.1034,-2.156726 -3.4112,-0.574273 c -3.8683,-0.651262 -5.8473,0.383756 -5.8473,3.057924 0,2.301206 0.1765,2.29001 5.1551,-0.326925 z m 81.5808,-17.52944 c 0,-2.425578 -0.2596,-2.858722 -1.1693,-1.949125 -0.6433,0.643211 -1.8076,1.169478 -2.5877,1.169478 -1.1698,0 -1.1357,-0.311843 0.1951,-1.782234 2.2127,-2.445051 2.0623,-2.83704 -1.3805,-3.593172 -3.5998,-0.790661 -3.4861,-0.886835 -4.3376,3.66992 -0.647,3.464356 -0.55,3.654611 1.8623,3.654611 1.3999,0 2.545,0.438551 2.545,0.974563 0,0.536008 1.0963,0.974562 2.4364,0.974562 2.0913,0 2.4363,-0.441809 2.4363,-3.118603 z m -60.3059,-8.22945 c 1.1765,-1.41759 1.0925,-1.52713 -0.727,-0.949643 -1.5473,0.491083 -2.4588,0.03896 -3.6803,-1.825032 -1.32,-2.014784 -1.9695,-2.29261 -3.4754,-1.486766 -1.0184,0.545072 -2.8515,0.991051 -4.0736,0.991051 -1.9391,0 -2.0404,0.175931 -0.7951,1.380489 1.1423,1.104803 5.5783,2.495231 10.8099,3.387952 0.3361,0.05739 1.2099,-0.616726 1.9415,-1.498051 z M 1999.8026,403.46884 c 0,-0.53599 0.6579,-0.97455 1.4616,-0.97455 0.8042,0 1.462,0.43856 1.462,0.97455 0,0.536 -0.6578,0.97456 -1.462,0.97456 -0.8037,0 -1.4616,-0.43856 -1.4616,-0.97456 z M 379.69323,348.31813 c -0.71448,-1.862 0.16195,-3.57669 1.42809,-2.79412 1.15956,0.71661 1.19035,4.34393 0.037,4.34393 -0.4787,0 -1.13794,-0.69744 -1.46497,-1.54981 z M 61.720221,346.65406 c -0.445567,-0.75596 -1.7968,-1.89242 -3.002821,-2.52556 -2.49644,-1.31049 -2.911409,-3.03164 -0.730923,-3.03164 0.804016,0 1.461846,0.38369 1.461846,0.85274 0,0.46898 1.348697,1.12247 2.997072,1.45213 2.115581,0.42311 2.903708,1.08009 2.680049,2.23384 -0.418674,2.15835 -2.386512,2.74697 -3.405223,1.01849 z m -40.715669,-5.474 c -0.313805,-0.50768 -0.155148,-1.17981 0.3526,-1.4936 0.507746,-0.3138 1.1799,-0.15515 1.493613,0.35258 0.313809,0.50774 0.155151,1.17987 -0.352595,1.49366 -0.507648,0.31378 -1.179808,0.1551 -1.493618,-0.35264 z m 1396.984048,-4.3973 c 0,-1.88623 0.4999,-2.50786 2.0168,-2.50786 1.532,0 1.942,0.52493 1.7057,2.18278 -0.4624,3.23925 -3.7225,3.52394 -3.7225,0.32508 z m 335.9259,-1.18196 c -0.9098,-0.9095 0.1892,-2.30045 1.8177,-2.30045 0.7722,0 1.4041,0.65782 1.4041,1.46184 0,1.46791 -2.0572,2.00337 -3.2218,0.83861 z M 24.798915,334.18997 c -1.004384,-1.62498 1.25446,-3.48845 2.598866,-2.14404 1.12455,1.12458 0.420721,3.20353 -1.084592,3.20353 -0.472759,0 -1.15417,-0.47675 -1.514274,-1.05949 z m 21.005532,-15.50808 c 0,-0.53601 0.43855,-0.97457 0.974561,-0.97457 0.536007,0 0.974563,0.43856 0.974563,0.97457 0,0.53604 -0.438556,0.97459 -0.974563,0.97459 -0.536011,0 -0.974561,-0.43855 -0.974561,-0.97459 z M 1701.5862,251.43706 c 0,-0.536 0.8774,-0.97456 1.9493,-0.97456 1.0718,0 1.9492,0.43856 1.9492,0.97456 0,0.53605 -0.8774,0.97459 -1.9492,0.97459 -1.0719,0 -1.9493,-0.43854 -1.9493,-0.97459 z m -22.5418,-0.45188 c -1.168,-1.16793 0.4891,-7.4698 2.2055,-8.38851 2.0447,-1.09412 3.7908,-0.46424 3.7292,1.34509 -0.05,1.44421 -5.301,7.67707 -5.9347,7.04342 z m -101.4277,-30.6812 c -0.4465,-3.04209 0.5393,-4.08867 1.4982,-1.59034 0.2924,0.76246 1.5452,1.5299 2.7841,1.70547 3.2947,0.46696 2.7503,2.21996 -0.7962,2.56495 -2.7387,0.26633 -3.0935,-0.007 -3.4861,-2.68008 z m 2.1494,-4.47273 c 0,-2.72492 3.0695,-6.30037 5.4086,-6.30037 2.9611,0 7.2604,1.65868 7.2604,2.80116 0,1.34488 -7.4998,4.99535 -10.2628,4.99535 -1.5138,0 -2.4062,-0.55495 -2.4062,-1.49614 z m -22.4152,-0.45299 c 0,-0.53603 0.6838,-0.97455 1.5195,-0.97455 0.8358,0 1.2483,0.43852 0.9169,0.97455 -0.331,0.53601 -1.0149,0.97458 -1.5191,0.97458 -0.5045,0 -0.9173,-0.43857 -0.9173,-0.97458 z m 11.2492,-15.52565 c -0.7209,-1.16616 1.1125,-2.32164 2.4105,-1.51936 1.09,0.67359 0.3745,2.42657 -0.9901,2.42657 -0.4731,0 -1.1118,-0.40824 -1.4204,-0.90721 z m 1141.1835,-1.99632 c -0.3241,-0.52495 -0.097,-1.8738 0.5039,-2.99747 0.9463,-1.76843 0.8413,-2.00036 -0.7802,-1.7256 -1.0307,0.17457 -1.8311,-0.12116 -1.7791,-0.65719 0.052,-0.536 0.4692,-0.84953 0.9275,-0.69671 0.4583,0.1528 1.438,-0.2238 2.1769,-0.83687 1.0628,-0.88213 1.5363,-0.60566 2.2706,1.32547 0.5102,1.34206 1.5041,2.63407 2.2088,2.87112 1.0471,0.35215 1.0368,0.72743 -0.057,2.05131 -1.4738,1.78586 -4.5483,2.16001 -5.472,0.66594 z m -1049.1288,-8.79122 c 0,-0.53601 0.4383,-0.97456 0.9742,-0.97456 0.5361,0 0.975,0.43855 0.975,0.97456 0,0.536 -0.4389,0.97457 -0.975,0.97457 -0.5359,0 -0.9742,-0.43857 -0.9742,-0.97457 z m -282.6233,-14.54028 c 0,-3.87281 0.5811,-8.17195 1.3015,-9.62855 0.7159,-1.44739 1.8305,-5.09454 2.4771,-8.10472 1.9232,-8.95319 1.6293,-8.8007 17.5029,-9.09043 10.3809,-0.1895 14.0432,0.0568 14.5661,0.97962 0.3843,0.67802 2.0141,1.38042 3.6224,1.56092 2.7023,0.30335 2.8993,0.58637 2.6045,3.73917 -0.1751,1.87606 -0.9427,4.38232 -1.7054,5.56945 -0.7627,1.18718 -1.3867,3.18261 -1.3867,4.43427 0,1.25169 -0.5362,2.8121 -1.1917,3.46763 -0.6558,0.65552 -1.0815,2.60708 -0.9462,4.33682 0.1664,2.12768 -0.5024,4.06667 -2.0679,5.99466 l -2.3134,2.84972 -16.2317,0.44415 -16.2315,0.4442 0,-6.99691 z m 1324.9178,-19.56944 c -0.8905,-1.44128 0.3446,-2.92367 2.4368,-2.92367 2.3851,0 3.5534,1.9263 1.8303,3.01774 -1.7947,1.13647 -3.5303,1.09825 -4.2671,-0.094 z M 2836.9519,54.088139 c -0.9639,-1.160983 -0.9657,-1.760509 -0.01,-2.912958 1.5791,-1.902831 2.9325,-0.981723 2.9325,1.995907 0,2.703309 -1.1435,3.061995 -2.9235,0.917051 z m 76.0159,-8.283778 c 0,-0.536013 0.6579,-0.974564 1.4616,-0.974564 0.804,0 1.4619,0.438551 1.4619,0.974564 0,0.536006 -0.6579,0.974563 -1.4619,0.974563 -0.8037,0 -1.4616,-0.438557 -1.4616,-0.974563 z m 32.1603,-11.207473 c 0,-0.804016 0.6578,-1.461846 1.4619,-1.461846 0.8042,0 1.4621,0.65783 1.4621,1.461846 0,0.804015 -0.6579,1.461847 -1.4621,1.461847 -0.8041,0 -1.4619,-0.657832 -1.4619,-1.461847 z m 7.1722,0.0059 c 0.3434,-0.89502 0.6246,-1.810719 0.6246,-2.034878 0,-0.224166 0.909,-0.40757 2.0203,-0.40757 2.8706,0 2.0283,3.317575 -0.9493,3.74036 -1.8293,0.259732 -2.1878,-0.01483 -1.6956,-1.297912 z m 13.2938,0.05145 c 0,-0.236384 0.4384,-0.70081 0.9745,-1.032084 0.5363,-0.331274 0.9746,-0.137879 0.9746,0.429763 0,0.567643 -0.4383,1.032084 -0.9746,1.032084 -0.5361,0 -0.9745,-0.193395 -0.9745,-0.429763 z"
     id="path3052"
     style="fill:#000000"
     inkscape:connector-curvature="0" />
</svg>
