<?xml version="1.0" encoding="UTF-8" standalone="no"?>
<!-- Created with Inkscape (http://www.inkscape.org/) -->

<svg
   xmlns:dc="http://purl.org/dc/elements/1.1/"
   xmlns:cc="http://creativecommons.org/ns#"
   xmlns:rdf="http://www.w3.org/1999/02/22-rdf-syntax-ns#"
   xmlns:svg="http://www.w3.org/2000/svg"
   xmlns="http://www.w3.org/2000/svg"
   version="1.1"
   width="3261"
   height="629"
   id="svg3032">
  <metadata
     id="metadata3038">
    <rdf:RDF>
      <cc:Work
         rdf:about="">
        <dc:format>image/svg+xml</dc:format>
        <dc:type
           rdf:resource="http://purl.org/dc/dcmitype/StillImage" />
        <dc:title></dc:title>
      </cc:Work>
    </rdf:RDF>
  </metadata>
  <defs
     id="defs3036" />
  <path
     d="m 3.53128,540.60653 c 0,-105.72516 0.2564,-133.00313 1.25,-133.0153 0.7741,-0.009 0.8693,-0.29501 0.25,-0.75 -1.3777,-1.01218 -1.7212,-3.23469 -0.5,-3.23469 1.4392,0 1.2343,-2.73828 -0.25,-3.34054 -0.9412,-0.3819 -0.8794,-0.77303 0.25,-1.58333 1.3333,-0.95656 1.3333,-1.18554 0,-2.06082 -0.9169,-0.60192 -1.0344,-0.99064 -0.3022,-1 0.7372,-0.009 1.3139,-2.03368 1.5,-5.26531 0.1772,-3.07806 0.7159,-5.04315 1.3022,-4.75 0.55,0.275 0.8883,2.07214 0.7517,3.99365 -0.4294,6.04137 4.4608,13.14482 6.0281,8.75635 0.2455,-0.6875 0.8285,-0.89203 1.2955,-0.45452 0.4669,0.43751 0.2724,1.71883 -0.4324,2.84738 -1.2745,2.04077 -0.6662,4.18157 0.6615,2.32818 0.3826,-0.53407 1.5956,-1.48073 2.6956,-2.10368 1.1,-0.62295 1.8678,-1.86045 1.7062,-2.75 -0.3783,-2.08207 3.0927,-2.16704 4.7938,-0.11736 1.3064,1.57415 3.7553,1.91487 6.4182,0.89301 2.0066,-0.77001 2.0621,-2.39301 0.082,-2.39301 -2.0388,0 -1.9072,-2.90648 0.1676,-3.7027 1.1451,-0.43939 2.6336,0.47451 4.75,2.91637 3.9168,4.51892 7.968,5.43023 9.4715,2.13054 1.1186,-2.4552 3.5214,-3.10705 4.6603,-1.26429 0.3671,0.59395 -0.3389,1.7848 -1.5689,2.64633 l -2.2364,1.56642 2.3458,1.25544 c 2.7182,1.45473 8.6797,0.81274 10.9889,-1.1834 2.0381,-1.76184 3.3773,-1.72502 4.9212,0.13529 1.6935,2.04055 6.275,1.89404 7.8177,-0.25 0.6925,-0.9625 1.7261,-2.425 2.2969,-3.25 0.7748,-1.11997 1.1655,-1.18533 1.5422,-0.25799 0.3795,0.93413 1.0119,0.97051 2.5511,0.14676 1.5654,-0.83779 2.2481,-0.77715 2.904,0.25798 0.5979,0.94362 0.8621,0.52082 0.8728,-1.39675 0.016,-2.96207 1.66,-3.80194 2.192,-1.12017 0.4086,2.05949 6.7135,2.71468 8.8233,0.9169 2.731,-2.327 7.0709,-2.79253 9.0804,-0.97402 2.1898,1.98176 4.8989,1.22273 5.6312,-1.57776 0.6232,-2.38332 2.8299,-2.63232 3.6806,-0.41531 0.4447,1.15876 1.3719,1.41145 3.4802,0.94839 2.0925,-0.4596 3.0359,-0.20933 3.4694,0.92036 0.7675,1.99989 2.6582,2.01431 2.6582,0.0203 0,-1.0692 0.9808,-1.51922 3.25,-1.49122 1.7875,0.0221 4.9151,-0.23546 6.9502,-0.57226 2.8371,-0.46954 4.3877,-0.1228 6.6479,1.48664 3.0737,2.18869 8.0683,2.07631 11.0138,-0.24783 0.749,-0.59102 2.8874,-0.94314 4.7519,-0.7825 2.3592,0.20325 3.5741,-0.18741 3.9951,-1.28472 0.696,-1.81369 3.4839,-2.08396 5.0758,-0.49206 1.0393,1.03921 5.2076,1.27341 17.4296,0.9793 3.0878,-0.0743 7.5878,0.30859 10,0.85087 3.3521,0.75361 4.8749,0.66566 6.4612,-0.37317 2.4336,-1.59365 18.1079,-1.25838 19.7895,0.42329 0.5693,0.56925 3.6511,1.03499 6.8486,1.03499 3.1975,0 6.7324,0.5625 7.8555,1.25 1.7333,1.06111 2.1992,0.97284 3.0832,-0.58412 1.0234,-1.80273 2.1769,-1.80999 8.0977,-0.051 1.1463,0.34054 1.75,-0.0238 1.75,-1.05597 0,-1.26094 0.3559,-1.35359 1.781,-0.46361 1.3343,0.83327 3.0274,0.75656 6.75,-0.30582 2.777,-0.79251 6.2924,-1.12856 7.969,-0.76177 1.65,0.36097 4.2364,0.44638 5.7475,0.1898 1.5112,-0.25659 3.404,0.0782 4.2062,0.74408 0.8023,0.66582 1.8869,0.94599 2.4101,0.62258 1.7437,-1.07761 14.0981,-1.45492 14.7194,-0.44953 0.334,0.54035 1.8019,0.7279 3.262,0.41679 1.5057,-0.32081 3.8947,0.0867 5.5191,0.94145 3.7968,1.99776 9.5197,1.97302 10.2939,-0.0445 0.4274,-1.11381 1.3792,-1.37945 3.3734,-0.94145 1.5521,0.3409 3.0667,0.14303 3.4322,-0.44839 0.3599,-0.5822 2.546,-1.05855 4.8581,-1.05855 3.3779,0 4.3978,-0.43571 5.191,-2.21749 1.5702,-3.5273 7.7419,-4.31467 14.5098,-1.85112 3.3883,1.23335 7.5022,1.92492 10.6446,1.78944 3.5833,-0.15449 5.6794,0.27354 6.9774,1.42478 1.41,1.25063 3.1023,1.52138 7.0507,1.12802 4.7083,-0.46907 5.2239,-0.76394 5.5,-3.14561 0.2663,-2.29716 0.8011,-2.65539 4.2485,-2.84544 2.1692,-0.11958 4.4729,-0.42041 5.1195,-0.66851 2.4823,-0.95257 7.3093,3.19043 7.9987,6.86533 0.3752,1.99984 1.5216,4.03022 2.6022,4.6085 1.0623,0.56854 2.3509,2.13687 2.8635,3.48519 0.5126,1.34832 2.0894,2.97879 3.5038,3.62326 2.2648,1.03191 2.85,0.87168 4.9032,-1.34253 1.2822,-1.38287 3.8465,-3.08043 5.6983,-3.77236 1.8518,-0.69194 5.4653,-2.17693 8.03,-3.29999 5.3871,-2.35897 9.5134,-1.83022 10.6976,1.3708 1.1669,3.15456 7.4691,3.24225 12.0008,0.16697 4.0451,-2.74507 8.5279,-2.44318 11.2988,0.76093 0.9132,1.05591 1.9164,1.91983 2.2294,1.91983 0.313,0 2.3879,-1.97308 4.6107,-4.38462 3.782,-4.10293 4.3776,-4.38494 9.2706,-4.38981 2.876,-0.003 6.4442,0.62022 7.9294,1.38462 1.4852,0.76439 5.0532,1.38981 7.929,1.38981 5.1923,0 8.9649,0.88315 16.0777,3.76374 3.1134,1.26088 4.3946,1.29897 8,0.23785 2.3611,-0.69491 5.8679,-1.32797 7.7929,-1.4068 1.925,-0.0788 5.075,-1.14322 7,-2.36532 1.925,-1.2221 4.9921,-2.22368 6.8158,-2.22573 1.8236,-0.002 4.1888,-0.471 5.2559,-1.0421 1.3606,-0.72817 3.0818,-0.69633 5.7617,0.10659 3.0942,0.92704 5.3295,0.81466 11.7441,-0.59044 4.3574,-0.95447 8.3725,-2.08218 8.9225,-2.50602 0.55,-0.42384 5.8523,-1.02343 11.7828,-1.33242 5.9305,-0.30899 11.3305,-0.91675 12,-1.35058 1.1157,-0.723 3.3091,-0.93759 15.3681,-1.50347 5.0064,-0.23493 7.7096,1.64231 6.9163,4.80309 -0.4923,1.96161 -0.079,2.31831 3.3608,2.89945 2.3406,0.39544 4.7892,0.19871 6.072,-0.48784 1.2383,-0.66272 3.7247,-0.88442 5.8644,-0.52292 2.043,0.34518 5.7218,0.12439 8.1751,-0.49062 17.812,-4.4653 22.0473,-5.16809 33.4605,-5.55232 6.05,-0.20368 12.6437,0.0709 14.6526,0.61007 2.3729,0.63693 4.5494,0.6394 6.2126,0.007 1.723,-0.65512 3.5991,-0.61111 5.7382,0.13461 2.5562,0.89109 4.1281,0.76637 8.0314,-0.63724 4.0896,-1.47061 7.0173,-1.65275 18.6092,-1.15773 7.5658,0.3231 14.881,0.54996 16.256,0.50413 8.8357,-0.29447 41.3592,0.87023 43.0376,1.54122 0.8457,0.33808 3.0957,0.80187 5,1.03063 5.1886,0.62331 11.1384,2.10038 14.0887,3.4976 2.2047,1.04415 3.0366,0.97491 5.1829,-0.43144 1.8049,-1.18259 3.091,-1.40029 4.3738,-0.74032 0.9993,0.51419 4.4608,1.19447 7.6922,1.51174 3.2313,0.31726 8.7455,1.79677 12.2537,3.28779 6.0507,2.57157 6.4759,2.62286 8.2719,0.99754 2.1626,-1.95713 7.8376,-1.62465 14.5992,0.85532 5.4542,2.00044 7.7864,1.90407 10.7729,-0.44513 3.0026,-2.36184 7.97,-2.61718 9.7271,-0.5 1.4284,1.72105 14.9119,2.15271 17.8656,0.57193 1.976,-1.05751 21.1559,0.33712 25.1265,1.82703 1.3794,0.51757 5.2079,1.67392 8.5079,2.56967 3.3,0.89575 7.2375,2.05675 8.75,2.58 7.8298,2.70872 9.4597,3.33592 11.8597,4.56367 1.4353,0.73425 2.8569,1.08785 3.1589,0.78577 0.5432,-0.54314 3.4081,-0.54616 19.4793,-0.0205 6.9307,0.22668 8.6265,0.62556 10.6195,2.4979 1.7212,1.61696 3.0634,2.05456 4.8931,1.59533 1.4563,-0.3655 2.8142,-0.15898 3.2146,0.48889 0.3813,0.61694 1.5798,0.84032 2.6634,0.49641 1.1255,-0.35722 3.8713,0.2684 6.4049,1.45933 2.4392,1.14653 4.8524,2.08461 5.3628,2.08461 0.5104,0 2.9413,0.86301 5.4021,1.9178 l 4.47402,1.9178 2.1022,-2.4178 c 1.1563,-1.32979 3.0211,-2.4178 4.1441,-2.4178 2.8238,0 6.9693,2.88873 6.9816,4.86501 0.017,2.71117 6.8067,4.92821 12.7557,4.16502 2.8292,-0.36295 5.7268,-0.33597 6.4391,0.06 3.6343,2.02027 34.2098,2.82876 37.6359,0.99518 1.1951,-0.63963 5.1075,-0.73508 10.5545,-0.25749 4.7605,0.41739 9.2065,0.40881 9.8801,-0.0191 2.02,-1.28335 10.1873,-0.90943 14.6682,0.67154 2.4583,0.86734 6.0957,1.28784 8.7856,1.01566 2.8791,-0.29133 6.3713,0.16801 9.3673,1.2321 4.5842,1.62817 4.8614,1.62006 6.8738,-0.2011 2.0416,-1.84764 2.2302,-1.84975 7.151,-0.0802 4.2491,1.52794 5.6755,1.63127 8.9551,0.64866 2.5533,-0.76496 6.9988,-0.93492 12.867,-0.49192 6.232,0.47045 9.8721,0.3015 11.9377,-0.55408 2.0552,-0.85129 3.5243,-0.92165 4.7635,-0.22814 1.408,0.78792 2.5025,0.37886 5.1084,-1.90915 1.8241,-1.60156 4.5383,-2.96777 6.0317,-3.03602 14.0539,-0.64236 16.7638,-0.50216 17.8067,0.92121 0.9455,1.29058 2.39,1.32629 10.8046,0.26714 8.8467,-1.11354 9.9535,-1.06522 12.4057,0.54151 2.1548,1.41192 5.2883,1.81981 15.6953,2.04307 14.1041,0.30257 24.6124,1.07224 26.965,1.97502 1.2477,0.47877 1.4572,-0.6936 1.3006,-7.27656 -0.2007,-8.43675 0.7067,-12.69322 2.5722,-12.06501 0.755,0.25428 1.1972,3.3935 1.2563,8.91994 0.05,4.69017 0.3735,9.26337 0.7186,10.16268 0.8911,2.32221 4.6902,2.12582 4.6902,-0.24246 0,-2.56779 1.8358,-3.88452 7.9457,-5.69895 4.309,-1.27965 5.4743,-1.3199 6.783,-0.23429 1.0223,0.84796 3.5508,1.1845 7.1609,0.95312 4.3159,-0.27662 6.0831,-0.89985 7.7978,-2.75 2.321,-2.50438 4.7637,-3.0895 5.8126,-1.39232 1.5092,2.44186 2.4998,0.55738 2.4969,-4.75 0,-3.1625 0.504,-12.88709 1.1237,-21.61021 0.9014,-12.68845 0.8681,-16.6441 -0.1669,-19.78003 -0.9877,-2.99285 -1.017,-4.1965 -0.1237,-5.08979 0.6435,-0.64348 1.17,-2.37487 1.17,-3.84753 0,-2.72423 2.2514,-5.50312 3.7221,-4.59417 0.4454,0.27525 0.9315,13.15347 1.0802,28.61825 0.2692,27.99335 1.0253,34.85207 3.9477,35.81029 0.7781,0.25513 1.25,-0.54308 1.25,-2.11446 0,-1.38837 0.5278,-2.85053 1.1729,-3.24923 2.3662,-1.46239 9.5981,-2.41733 20.5566,-2.71442 6.1763,-0.16744 11.4199,-0.50115 11.6526,-0.74157 0.7181,-0.74201 1.5914,-29.94202 1.8609,-62.22298 0.2775,-33.23987 0.3657,-32.66237 -4.993,-32.69884 -2.6415,-0.018 -2.9525,-2.18829 -0.5937,-4.14287 1.4928,-1.23689 1.3693,-1.42226 -1.25,-1.87681 -2.4052,-0.41741 -2.9596,-1.0536 -3.2152,-3.68956 -0.2995,-3.08957 2.6404,-14.25422 4.8318,-18.3488 1.0163,-1.89899 1.748,-1.98399 12.2789,-1.42643 13.8635,0.73401 14.047,0.79179 13.4325,4.23068 -1.0027,5.61131 -5.901,17.79602 -7.8053,19.41618 -1.181,1.00476 -1.5623,1.93092 -0.9505,2.30902 1.8692,1.1552 1.0579,2.47124 -2.4189,3.92395 -2.6799,1.11972 -3.5801,2.18161 -4.0719,4.80341 -0.7843,4.18034 -0.2113,89.397 0.6065,90.21403 0.3268,0.32649 3.9268,0.80905 8,1.07236 9.2182,0.5959 14.8145,1.40524 17.4058,2.51725 1.9336,0.82977 7.3381,1.80786 12.5,2.26222 2.191,0.19286 2.4735,-0.14335 2.2857,-2.72044 -0.2243,-3.07586 1.1593,-5.5595 3.097,-5.5595 0.6257,0 2.376,1.14822 3.8895,2.5516 3.3372,3.09438 4.7278,2.46725 4.7278,-2.13206 0,-2.72439 0.5338,-3.70563 2.5042,-4.60343 2.4721,-1.12632 2.503,-1.29014 2.4016,-12.72856 -0.056,-6.37315 -0.5678,-12.83653 -1.1362,-14.36307 -0.8022,-2.15463 -0.698,-3.16129 0.4658,-4.5 1.2499,-1.43784 1.6052,-8.0407 2.1376,-39.72448 0.3511,-20.9 0.9255,-50.0375 1.2763,-64.75 0.6246,-26.1942 0.5967,-26.75 -1.3391,-26.75 -2.9452,0 -3.4899,-1.0768 -1.8279,-3.61337 1.4614,-2.23038 1.4099,-2.27877 -2.7465,-2.57982 -3.9716,-0.28767 -4.2358,-0.49393 -4.2358,-3.30681 l 0,-3 12.6258,-0.27895 c 11.661,-0.25763 12.6635,-0.13476 13.1192,1.60797 0.854,3.26548 -1.0401,5.24743 -4.7744,4.99594 -1.87,-0.12594 -3.752,0.12314 -4.1824,0.55351 -0.6299,0.62988 -1.1217,10.19526 -1.4716,28.62153 -0.016,0.825 0.2328,25.29208 0.5522,54.37129 0.5262,47.90723 0.7381,52.98641 2.2574,54.09736 1.1788,0.86196 1.3348,1.4374 0.5253,1.93772 -1.8046,1.11532 -1.35,2.59363 0.7976,2.59363 1.9215,0 7.0509,5.65837 7.0509,7.77797 0,0.59905 -1.2375,1.23158 -2.75,1.40561 -2.4118,0.2775 -2.7076,0.68541 -2.4053,3.31642 0.1896,1.65 0.7521,3.15 1.25,3.33333 0.4979,0.18334 0.9053,0.94428 0.9053,1.69099 0,2.5912 2.1767,2.6809 4.8313,0.19908 3.6129,-3.37782 8.8454,-5.91187 11.4273,-5.53408 3.2591,0.47689 4.4607,6.33502 1.9938,9.72039 -2.6519,3.63931 -3.3489,5.91264 -2.0574,6.71078 1.2155,0.75127 6.3174,-4.73963 7.853,-8.45177 1.236,-2.98817 3.4219,-2.29225 3.5525,1.13099 0.055,1.44925 0.6489,3.29593 1.3194,4.10373 0.8917,1.07442 0.9318,2.00515 0.1495,3.4669 -1.4642,2.73595 -1.3897,2.94507 1.1806,3.31011 1.4768,0.20974 2.25,1.00682 2.25,2.31955 0,1.51274 -0.8333,2.12181 -3.4205,2.5 -3.87,0.5657 -4.8755,2.09446 -2.6128,3.97236 0.8433,0.69989 1.5333,2.12857 1.5333,3.17484 0,1.10326 1.0384,2.29709 2.4721,2.84219 1.3597,0.51694 3.9014,2.30581 5.6483,3.97525 3.5583,3.40048 4.5712,3.62983 7.4071,1.67724 1.0849,-0.74696 3.6357,-1.66279 5.6685,-2.03518 3.0953,-0.56702 3.873,-0.34629 4.7852,1.35812 0.599,1.11935 1.9733,2.03518 3.054,2.03518 1.0806,0 2.0211,0.45 2.0898,1 0.069,0.55 0.1813,1.44133 0.25,1.98074 0.3104,2.43562 5.0752,4.36295 10.1994,4.12558 5.7806,-0.26777 13.0326,2.64804 14.1489,5.68886 0.3442,0.93765 1.2448,2.07727 2.0013,2.53248 0.7564,0.45522 2.6111,2.53349 4.1214,4.61839 5.1031,7.04462 21.3135,23.72959 20.2346,20.82689 -1.3614,-3.6626 -22.0734,-36.42618 -27.7262,-43.85918 -5.2733,-6.93389 -6.4318,-7.67466 -12.1044,-7.73969 -4.8863,-0.056 -5.431,1.29451 -2.2654,5.61642 2.2805,3.11346 1.7539,7.20951 -0.9269,7.20951 -1.862,0 -5.3927,-3.4603 -6.3773,-6.25 -0.3397,-0.9625 -1.4316,-1.75 -2.4265,-1.75 -2.5973,0 -6.2593,-2.82229 -5.6665,-4.36715 0.277,-0.72183 -0.1919,-1.88962 -1.0419,-2.59508 -2.1681,-1.79938 -1.924,-6.38527 0.4545,-8.53777 1.3379,-1.21083 2,-3.07997 2,-5.64651 0,-2.75354 0.5646,-4.18913 2,-5.08556 1.1834,-0.73905 2,-2.33203 2,-3.90149 0,-3.53386 2.294,-4.22879 6.3813,-1.9331 3.284,1.84449 3.4088,1.84411 6.2349,-0.019 1.5861,-1.04564 4.1055,-1.90414 5.5986,-1.90776 3.1482,-0.008 5.3707,-3.02113 3.562,-4.82977 -0.8394,-0.83942 -0.6874,-1.61809 0.5916,-3.03145 1.6427,-1.81517 1.5824,-2.04073 -1.3236,-4.94671 -1.6746,-1.67465 -3.0448,-3.32739 -3.0448,-3.67276 0,-1.33257 7.339,-3.61037 9.8536,-3.05828 3.1705,0.69608 13.2303,-2.51767 14.2174,-4.54193 0.3823,-0.78413 1.0853,-2.72908 1.5621,-4.32211 0.4768,-1.59302 1.7669,-3.39302 2.8669,-4 1.1,-0.60697 2.3599,-1.66608 2.7997,-2.35358 1.1121,-1.73839 3.6429,-1.56327 4.3585,0.30161 0.4376,1.14031 1.3753,1.38032 3.5375,0.90541 2.3429,-0.51458 3.0403,-0.27045 3.4245,1.19873 0.5194,1.98589 5.108,4.63024 6.5203,3.75744 1.6875,-1.04294 0.8258,-5.19213 -1.3905,-6.6951 -2.2498,-1.52574 -2.2495,-1.52632 3.8981,-7.37198 6.1193,-5.81877 6.138,-5.85379 4,-7.48934 l -2.1481,-1.64323 2.75,-2.55902 c 1.5125,-1.40746 2.75,-2.95447 2.75,-3.43779 0,-0.86828 -2.8523,-2.50878 -6.25,-3.59467 -2.6269,-0.83954 -2.1565,-4.47972 0.75,-5.80401 1.375,-0.6265 2.5,-1.98268 2.5,-3.01375 0,-1.54689 -0.34,-1.69273 -1.9443,-0.83411 -1.0694,0.57231 -2.2209,1.48815 -2.559,2.03519 -0.9642,1.56009 -4.4967,1.16308 -4.4967,-0.50538 0,-1.63304 -3.5234,-2.08013 -4.4593,-0.56584 -0.6776,1.09635 -7.5859,0.23157 -9.0407,-1.13172 -0.6559,-0.61467 -0.3979,-1.38192 0.75,-2.23 0.9625,-0.71111 1.75,-2.00426 1.75,-2.87367 0,-2.2266 1.8932,-3.1407 2.6141,-1.26215 0.8667,2.25859 2.3859,1.92096 2.3859,-0.53024 0,-1.25262 0.8034,-2.30371 2,-2.61663 1.2943,-0.33846 2,-1.36402 2,-2.90638 0,-2.55192 1.8476,-3.13576 3.7868,-1.19661 0.9156,0.91567 1.7037,0.71136 3.45,-0.89445 1.2447,-1.14467 4.1757,-2.39326 6.5132,-2.77466 3.5994,-0.5873 4.25,-1.05364 4.25,-3.04653 0,-1.2942 -0.45,-2.6312 -1,-2.97112 -0.55,-0.33992 -1,-1.75861 -1,-3.15264 0,-1.6936 -0.6636,-2.70814 -2,-3.05761 -2.1102,-0.55183 -2.6891,-2.74582 -1,-3.78975 0.55,-0.33992 1,-1.38323 1,-2.31847 0,-0.93524 0.9,-2.2625 2,-2.94946 2.0994,-1.31109 2.817,-6.60909 1.0437,-7.70508 -0.526,-0.32507 -0.7161,-1.21712 -0.4225,-1.98232 0.2985,-0.77771 -0.3823,-1.88164 -1.5436,-2.50316 -3.9044,-2.08954 -1.3816,-6.04151 3.8567,-6.04151 1.2064,0 2.0657,-0.65009 2.0657,-1.56286 0,-0.96589 0.7054,-1.44335 1.8467,-1.25 1.0157,0.17207 1.9962,-0.13714 2.1789,-0.68714 0.1827,-0.55 -0.5358,-1.16092 -1.5967,-1.35761 -1.0609,-0.19668 -2.532,-0.84801 -3.2692,-1.44739 -1.1004,-0.89473 -1.0215,-1.32291 0.4411,-2.39239 2.3707,-1.73348 6.8611,-1.65585 8.3553,0.14444 0.6605,0.79588 1.067,2.48338 0.9033,3.75 -0.1637,1.26662 0.095,2.93372 0.5742,3.70465 0.5855,0.94123 0.2786,1.8356 -0.9343,2.72249 -1.5941,1.16558 -1.6205,1.39205 -0.2255,1.92737 2.8308,1.0863 6.1896,0.0374 6.5692,-2.05156 0.1999,-1.1 1.1045,-2.85324 2.0102,-3.8961 1.2258,-1.41135 1.3272,-2.00788 0.3968,-2.33333 -0.6875,-0.24048 -1.25,-1.08084 -1.25,-1.86747 0,-0.78663 -0.5455,-2.30367 -1.2121,-3.37119 -1.8427,-2.95052 -0.3826,-3.42444 4.6403,-1.50619 4.7739,1.82319 7.5718,1.02942 7.5718,-2.14816 0,-0.75766 0.525,-1.37756 1.1667,-1.37756 0.6416,0 0.8657,0.30098 0.4978,0.66885 -0.3679,0.36787 0.069,1.48442 0.9713,2.48124 1.1799,1.30373 1.3453,2.16848 0.5894,3.08115 -0.6799,0.82093 -0.752,2.8571 -0.2044,5.76876 0.4655,2.475 0.6024,5.5125 0.3043,6.75 -0.298,1.2375 -0.261,3.36937 0.082,4.73748 0.4901,1.95269 1.2121,2.45167 3.3584,2.3209 1.5038,-0.0916 3.4845,-0.79715 4.4016,-1.56784 1.8879,-1.58636 5.9821,-1.32937 6.5548,0.41143 0.2085,0.63359 -1.1063,2.58981 -2.9216,4.34716 l -3.3007,3.19519 3.7631,-0.64492 c 2.7875,-0.47774 3.9052,-0.27431 4.3116,0.78476 0.596,1.55309 -3.5865,6.66584 -5.4529,6.66584 -0.6319,0 -1.9303,0.44981 -2.8854,0.99957 -0.955,0.54976 -3.0712,1.4756 -4.7025,2.05741 -2.3527,0.83906 -2.6629,1.24964 -1.5,1.98512 1.983,1.25418 5.6985,1.19992 6.4987,-0.0949 0.3579,-0.57903 1.1719,-0.86275 1.809,-0.63048 0.6371,0.23226 1.9175,-0.23807 2.8454,-1.04518 2.1095,-1.83506 4.0962,-0.73928 3.2863,1.81261 -0.4144,1.30571 -0.1311,1.91584 0.8898,1.91584 0.8238,0 1.6416,-1.0125 1.8173,-2.25 0.1758,-1.2375 0.9946,-2.25 1.8196,-2.25 1.0753,0 1.5,1.09734 1.5,3.87606 0,6.37572 6.4671,8.87546 7.9258,3.06358 0.4418,-1.76042 2.365,-3.23792 7.0902,-5.44714 3.5662,-1.66732 6.484,-3.32479 6.484,-3.68326 0,-0.35847 -0.7518,-1.48245 -1.6706,-2.49773 -1.573,-1.73812 -1.5145,-2.00884 1,-4.63346 1.4688,-1.53312 2.6706,-3.81445 2.6706,-5.06963 0,-1.605 0.8689,-2.61011 2.9283,-3.38746 2.4288,-0.91679 2.6756,-1.29009 1.4468,-2.18861 -1.2956,-0.94735 -1.3066,-1.93344 -0.088,-7.85823 1.2726,-6.18836 1.2477,-6.85282 -0.2876,-7.67449 -2.5267,-1.35227 -2.0944,-8.37885 0.5417,-8.80393 1.0774,-0.17374 3.6465,-0.96021 5.709,-1.7477 3.8927,-1.4863 4.8409,-0.68176 2.25,1.90914 -0.825,0.825 -1.5,2.06059 -1.5,2.74575 0,1.82739 4.3858,-2.59007 7.5648,-7.6194 1.505,-2.38094 3.6467,-4.56704 4.7593,-4.858 4.0963,-1.0712 5.1392,1.86765 1.195,3.36725 -4.3341,1.64782 -2.0275,3.56574 4.5061,3.74684 l 5.9748,0.1656 0,-3.05958 c 0,-2.50668 -0.3162,-2.9365 -1.75,-2.3785 -2.9285,1.13975 -3.399,1.08994 -4.4119,-0.4671 -0.6703,-1.03045 -0.4732,-2.69132 0.6298,-5.30574 1.2385,-2.93577 2.0242,-3.67286 3.4369,-3.22447 1.3652,0.43328 2.1505,-0.189 3.0846,-2.44426 1.3484,-3.25525 4.392,-4.07992 5.3965,-1.46218 0.7242,1.88718 -1.9189,7.32023 -3.9382,8.09509 -1.8506,0.71014 -1.8506,2.31207 0,3.73132 2.1502,1.6491 2.2865,15.04888 0.2012,19.79186 -0.8902,2.02489 -2.0754,3.96395 -2.6337,4.30902 -0.5584,0.34506 -1.0152,1.55594 -1.0152,2.69082 0,1.61281 0.2931,1.8202 1.342,0.94966 0.7381,-0.61257 1.6381,-0.81767 2,-0.45578 0.3619,0.3619 0.658,-0.092 0.658,-1.00867 0,-2.39478 4.0595,-2.15518 4.6956,0.27714 0.2795,1.06909 1.4703,2.08159 2.6461,2.25 2.5046,0.35872 3.6202,3.80619 1.2316,3.80619 -0.8653,0 -1.5733,0.675 -1.5733,1.5 0,1.75077 1.1557,1.94429 2.6554,0.44464 1.4093,-1.40936 5.7795,-0.2265 7.926,2.1453 2.452,2.70947 3.2367,2.39636 3.9846,-1.58994 0.7071,-3.76954 1.9563,-4.301 4.9551,-2.10821 1.5506,1.13384 1.674,1.66819 0.6656,2.88321 -0.9999,1.20484 -0.9446,1.60393 0.2878,2.07683 0.839,0.32197 1.5255,1.32331 1.5255,2.22519 0,1.24977 -0.5946,1.49055 -2.5,1.01234 -1.7619,-0.44221 -2.5,-0.2201 -2.5,0.7523 0,1.31308 -7.0366,2.90197 -12.75,2.87897 -1.2375,-0.005 -2.25,0.39334 -2.25,0.88516 0,0.49181 0.3843,0.89421 0.854,0.89421 0.4697,0 2.0678,1.125 3.5515,2.5 1.4836,1.375 3.2969,2.5 4.0294,2.5 1.329,0 2.8012,4.80904 1.9124,6.24701 -0.2578,0.41712 -1.2289,0.37056 -2.158,-0.10345 -5.0997,-2.60175 -11.0997,-1.7715 -6.1893,0.85644 1.2045,0.64465 2,2.09382 2,3.64359 0,2.22819 0.327,2.49115 2.4387,1.96115 1.3459,-0.33779 2.7391,-0.126 3.1091,0.47262 0.3687,0.59658 1.692,0.82828 2.9407,0.51488 1.4238,-0.35734 3.1649,0.1339 4.6695,1.31743 1.9872,1.56311 2.6949,1.67106 4.1206,0.62854 0.9468,-0.69228 1.7214,-1.80458 1.7214,-2.47178 0,-0.66719 0.7875,-1.04086 1.75,-0.83036 0.9625,0.21049 1.6554,0.86476 1.5398,1.45392 -0.2748,1.40022 5.4709,0.94934 6.9669,-0.54672 1.4099,-1.40984 4.4099,-1.49181 5.2433,-0.14327 0.3399,0.55 1.4915,1 2.559,1 2.2018,0 2.5551,1.97741 0.691,3.86732 -1.002,1.01585 -0.8531,1.56392 0.75,2.76209 1.1,0.82213 3.201,1.74078 4.6689,2.04146 3.4591,0.70856 4.35,4.17309 2.2211,8.63749 -1.5068,3.15978 -1.5017,3.59149 0.07,5.99081 1.118,1.70632 2.7731,2.69025 4.8669,2.89323 1.745,0.16918 3.1727,0.7576 3.1727,1.3076 0,1.39771 -4.5087,1.89127 -5.7685,0.63147 -0.7172,-0.71715 -1.6669,-0.70122 -3.0735,0.0516 -1.1195,0.59918 -5.6631,1.15183 -10.0968,1.22813 -4.4337,0.0763 -8.9609,0.65818 -10.0606,1.29309 -1.5888,0.91733 -2.3536,0.83378 -3.7245,-0.40691 -1.5858,-1.43505 -1.8086,-1.34192 -2.7568,1.15198 -1.3707,3.60525 -3.1161,2.82644 -4.5,-2.00806 -0.8817,-3.0798 -1.5536,-3.86584 -3.0738,-3.59623 -3.6463,0.64666 -6.1832,4.15498 -3.0045,4.15498 3.8658,0 2.1982,5.55047 -1.9829,6.59986 -1.3662,0.34291 -3.0849,0.12481 -3.8193,-0.48466 -1.0119,-0.83979 -1.7744,-0.6229 -3.1486,0.89565 -1.7848,1.97217 -1.7629,1.99368 1.3915,1.36282 2.5278,-0.50557 3.7238,-0.15342 5.6616,1.66699 3.0179,2.8352 3.2573,5.95934 0.4567,5.95934 -1.1,0 -2,0.45857 -2,1.01905 0,0.61968 1.0777,0.73671 2.75,0.29862 1.5125,-0.39624 3.875,-0.74231 5.25,-0.76905 2.4152,-0.047 2.4967,0.16331 2.4033,6.20138 -0.053,3.4375 0.065,6.25 0.2635,6.25 0.1982,0 1.2361,-0.54694 2.3066,-1.21543 1.5334,-0.95767 2.6895,-0.94666 5.451,0.0519 2.0491,0.74096 4.9739,0.99179 7.0416,0.60389 3.2661,-0.61272 3.6367,-0.42587 4.8422,2.44124 0.9537,2.26828 1.6034,2.80675 2.4115,1.99868 1.4231,-1.42309 3.2803,-0.27732 3.2803,2.02371 0,0.9823 0.8051,2.51464 1.7892,3.40521 1.6776,1.51817 2.0613,1.27823 6.1494,-3.84501 2.3982,-3.00533 4.8806,-5.46423 5.5166,-5.46423 0.6359,0 2.6788,1.12334 4.5398,2.4963 2.9881,2.20458 3.6244,2.3374 5.4443,1.13652 1.2329,-0.81354 2.1925,-2.69884 2.3887,-4.69312 0.3457,-3.51195 2.4957,-5.85472 5.422,-5.9079 1.1557,-0.021 1.7522,0.73232 1.7566,2.2182 0,1.2375 0.7967,3.44808 1.7625,4.9124 1.1782,1.78646 1.7365,4.51962 1.6968,8.30736 -0.055,5.24206 0.09,5.60746 2.0339,5.11964 2.6989,-0.67737 7.7545,0.67365 8.2663,2.20897 0.2181,0.65413 -0.7651,1.63096 -2.1848,2.17073 -3.0387,1.15528 -2.9756,0.84302 -1.0846,5.36878 1.2153,2.90865 2.0144,3.57178 4.25,3.5271 1.5143,-0.0303 3.6533,0.10024 4.7533,0.29 1.2962,0.22361 1.896,-0.14304 1.7043,-1.04193 -0.3709,-1.74019 3.3876,-5.83078 7.1606,-7.79316 3.3613,-1.74828 4.8057,-0.81553 5.2497,3.39014 0.6723,6.36824 1.6898,10.87354 2.7538,12.19359 0.6223,0.772 0.9907,2.2345 0.8187,3.25 -0.2149,1.26828 0.2947,1.84638 1.6276,1.84638 1.0672,0 2.4615,0.62793 3.0985,1.39539 0.6369,0.76747 2.7012,1.6849 4.5873,2.03874 3.8723,0.72643 5.2594,2.20597 3.6124,3.853 -1.2789,1.27889 -1.5149,5.71287 -0.304,5.71287 0.4448,0 1.6823,-0.66069 2.75,-1.4682 1.0676,-0.8075 2.77,-1.4825 3.783,-1.5 1.5881,-0.0274 1.7948,0.64232 1.5,4.86007 -0.2583,3.6953 0.1101,5.39211 1.5061,6.93699 2.2989,2.54421 1.4056,4.17114 -2.2904,4.17114 -1.9776,0 -2.9802,0.59597 -3.3442,1.98796 -0.2859,1.09338 -1.8009,2.5142 -3.3666,3.15739 -2.2201,0.91197 -2.4615,1.261 -1.0968,1.58536 0.9625,0.22877 1.75,1.2348 1.75,2.23563 0,1.00082 0.7118,2.09283 1.5818,2.42667 2.2788,0.87446 2.4182,0.80309 2.4182,-1.23802 0,-1.97916 2.9399,-5.15499 4.772,-5.15499 0.613,0 1.7026,-0.82346 2.4213,-1.82992 0.7187,-1.00645 2.5678,-2.64865 4.1091,-3.64933 2.7511,-1.78615 2.8598,-1.77697 5.9425,0.50223 2.0516,1.51679 3.2757,1.91523 3.531,1.14933 0.8035,-2.41048 4.3125,-1.21705 5.3739,1.82769 0.8989,2.57854 1.5479,3 4.6193,3 2.0001,0 4.4246,0.77048 5.5066,1.75 1.1121,1.00665 3.5993,1.77656 5.8556,1.81253 5.4314,0.0866 7.4703,2.2731 6.0143,6.44978 -0.7387,2.11901 -0.7838,3.79528 -0.1346,5.00831 0.9282,1.73432 1.5007,1.67576 11.7324,-1.20025 5.9161,-1.66294 12.1066,-3.26459 13.7566,-3.55921 1.65,-0.29463 3.8876,-1.14892 4.9725,-1.89842 2.524,-1.74375 4.4658,-1.7264 6.4488,0.0576 1.614,1.45216 16.5935,7.15136 25.5787,9.73185 4.8691,1.39839 5.0079,1.54357 5.3029,5.54688 0.2527,3.43047 -0.2245,4.7115 -2.8831,7.73948 -1.7523,1.9957 -2.9028,3.9118 -2.5566,4.2579 0.3461,0.3461 3.8935,0.9329 7.883,1.3038 3.9896,0.371 8.3788,1.1356 9.7538,1.6992 1.5824,0.6485 4.8858,0.7181 9,0.1897 7.6253,-0.9795 28.9414,0.5404 37,2.6382 3.025,0.7875 7.1282,1.1667 9.1181,0.8428 2.2701,-0.3696 4.5057,-0.072 6,0.7973 1.3101,0.7626 4.8569,1.3743 7.8819,1.3595 l 5.5,-0.027 -0.3474,-7.6308 c -0.3685,-8.09452 0.9382,-10.95871 2.9676,-6.50475 0.6208,1.36245 1.7022,2.25715 2.4031,1.98825 0.7009,-0.269 1.5715,-0.01 1.9346,0.5791 1.3465,2.1787 2.6926,1.03 2.0771,-1.7725 -0.4302,-1.9588 -0.137,-3.24477 0.9447,-4.14248 2.0724,-1.71995 2.8149,-0.80575 2.9698,3.65685 0.1442,4.15193 2.1617,5.66933 2.8372,2.13393 l 0.4409,-2.30762 0.1362,2.25002 c 0.1277,2.1095 0.5799,2.25 7.2446,2.25 7.095,0 7.1072,0 6.4769,2.516 -0.517,2.0601 -0.1743,2.6898 1.8916,3.4752 1.3877,0.5276 2.5231,1.5956 2.5231,2.3733 0,0.7776 0.865,2.4763 1.9223,3.7747 l 1.9223,2.3608 1.0048,-2.6233 c 1.3071,-3.4127 4.9845,-4.2847 10.9365,-2.5932 2.8536,0.8109 8.6608,1.2481 14.7141,1.1078 34.5248,-0.8001 39.7203,-0.6045 42.7126,1.6077 2.5038,1.8512 3.2518,1.9625 6.1483,0.9151 4.2079,-1.5216 11.6812,-0.4554 14.9764,2.1366 3.54,2.7846 8.5079,2.4433 12.2468,-0.8414 1.6963,-1.4901 3.3542,-3.4566 3.6844,-4.37 0.4455,-1.2328 1.7763,-1.6428 5.1658,-1.5916 3.9386,0.059 4.5678,0.3564 4.581,2.1607 0.028,3.7543 1.4024,4.9708 3.8812,3.4338 1.5006,-0.9305 2.3852,-1.0135 2.884,-0.2705 0.3957,0.5895 3.6445,1.1722 7.2195,1.2949 3.575,0.1227 10.55,0.3526 15.5,0.5109 5.983,0.1913 9.9922,0.835 11.9598,1.9203 2.6046,1.4366 3.154,1.4567 4.5787,0.1673 1.9608,-1.7744 4.148,-1.8786 5.7528,-0.2738 0.8839,0.8838 2.4193,0.9262 5.95,0.1642 4.1744,-0.901 9.5502,-1.0651 16.9373,-0.5171 1.1982,0.089 2.8982,0.8813 3.7779,1.7609 1.2404,1.2404 1.9143,1.3378 3.0032,0.4342 0.9972,-0.8277 2.4272,-0.8826 4.9366,-0.1898 4.1411,1.1434 10.5669,0.5655 15.8739,-1.4277 4.7612,-1.7882 8.1923,-1.7969 11.015,-0.028 2.9831,1.8694 28.9028,3.7574 30.4427,2.2175 0.1662,-0.1662 0.393,-2.5079 0.504,-5.2038 0.1641,-3.9829 0.7893,-5.5107 3.336,-8.1516 5.1839,-5.3755 10.7555,-4.018 9.7192,2.368 -0.5021,3.0943 -0.3341,3.382 1.9751,3.382 2.832,0 4.0176,2.037 3.1643,5.4368 -0.5034,2.0056 -0.1148,2.3534 3.2509,2.9096 2.1024,0.3474 8.6443,0.6365 14.5374,0.6426 9.8681,0.01 10.8037,-0.155 11.839,-2.0895 0.9287,-1.7353 1.6735,-1.9753 4.2851,-1.3809 1.7386,0.3957 6.5361,0.8324 10.6611,0.9706 13.1696,0.4409 17.3747,1.7153 19.7354,5.9807 0.961,1.7363 2.0191,1.9403 8.9274,1.7206 4.3105,-0.1371 8.4552,0.1623 9.2106,0.6654 0.8325,0.5544 2.7087,0.546 4.7635,-0.021 1.8645,-0.5148 3.9444,-0.5934 4.622,-0.1746 0.6776,0.4188 3.034,0.8639 5.2365,0.9892 2.2026,0.1252 5.3546,0.4438 7.0046,0.708 1.65,0.2642 3.3375,0.5169 3.75,0.5616 0.4125,0.045 1.65,0.9812 2.75,2.0812 2,2 2,2 4,0 1.5643,-1.5643 3.3615,-2.0069 8.25,-2.0318 7.5724,-0.039 9.8707,-1.5133 11.2967,-7.2489 1.0696,-4.3019 2.8971,-5.5372 6.2617,-4.2324 1.5358,0.5956 1.5092,0.7902 -0.2888,2.1133 -1.9458,1.4318 -1.9342,1.4961 0.6638,3.6785 1.4543,1.2217 2.9273,3.1989 3.2732,4.3938 0.5632,1.9452 1.4285,2.2068 8.269,2.5 7.8469,0.3364 9.1104,-0.129 11.2614,-4.1482 0.6449,-1.205 2.5851,-2.0201 5.7435,-2.4128 11.2997,-1.405 15.8336,-1.6494 16.7951,-0.9052 0.564,0.4365 1.7179,3.4937 2.5642,6.7937 1.4795,5.769 1.6518,5.9866 4.4745,5.6503 1.6146,-0.1923 6.5357,-0.5099 10.9357,-0.7057 4.4,-0.1958 8.3072,-0.376 8.6826,-0.4003 0.3754,-0.024 0.9466,-0.876 1.2692,-1.8925 0.8438,-2.6584 5.0575,-4.2539 9.4005,-3.5594 2.6747,0.4277 4.098,0.1725 4.9827,-0.8936 1.5644,-1.8849 4.8944,-1.073 6.2893,1.5335 0.762,1.4237 1.3664,1.677 2.1447,0.8987 0.7783,-0.7783 0.6113,-1.6058 -0.5926,-2.9361 -2.0857,-2.3046 -2.1287,-3.8424 -0.1387,-4.956 1.2891,-0.7215 1.1679,-1.0304 -0.75,-1.9112 -4.4811,-2.0578 -9.4871,-3.3286 -13.3587,-3.3911 -3.2519,-0.053 -3.5564,-0.2136 -1.7669,-0.9352 1.1891,-0.4795 2.4532,-1.7893 2.8091,-2.9105 0.3558,-1.1213 1.7451,-2.9024 3.0871,-3.9581 2.0576,-1.6185 2.1885,-2.016 0.8349,-2.5354 -1.1426,-0.4385 -1.4252,-1.3339 -0.9802,-3.1067 0.5116,-2.0383 0.2583,-2.4907 -1.3939,-2.4907 -2.9041,0 -2.5045,-2.8649 0.5622,-4.0309 3.2675,-1.24229 2.71,-3.02421 -1.3767,-4.40019 -4.4696,-1.50491 -4.3664,-2.91083 0.2954,-4.02417 2.2,-0.52541 4.3053,-1.39982 4.6784,-1.94315 0.4377,-0.63738 1.6173,-0.56004 3.3249,0.21799 2.9346,1.33707 4.9071,0.69241 4.1242,-1.34783 -0.2798,-0.72928 0,-2.66434 0.6138,-4.30014 0.8989,-2.38133 1.8837,-3.09587 4.9407,-3.5847 3.7602,-0.60129 5.0142,-1.99833 2.568,-2.8611 -0.9445,-0.33312 -0.8317,-1.16955 0.4613,-3.42206 1.2993,-2.26347 1.4317,-3.26076 0.55,-4.14246 -0.8817,-0.88169 -0.8562,-1.46221 0.106,-2.41127 1.0156,-1.00169 1.5369,-0.88491 2.6245,0.58787 0.7465,1.01082 2.1787,1.67553 3.1827,1.47712 1.5423,-0.30477 1.8255,-1.36551 1.8255,-6.83786 l 0,-6.47713 3,0.15204 c 1.65,0.0836 4.9629,0.48714 7.362,0.89669 l 4.362,0.74465 -0.5022,3.74375 -0.5021,3.74376 2.8917,-1.64045 c 1.5905,-0.90224 2.7143,-2.11401 2.4974,-2.69281 -0.5742,-1.53228 2.1059,-7.44763 3.3743,-7.44763 0.5938,0 1.3448,0.691 1.6689,1.53556 0.8418,2.19367 13.1036,10.73353 14.3264,9.97779 0.5619,-0.34726 1.0216,-1.22473 1.0216,-1.94992 0,-0.7252 0.6824,-1.88491 1.5165,-2.57713 0.8341,-0.69222 1.3966,-2.43482 1.25,-3.87244 -0.2325,-2.28041 0.1045,-2.61386 2.6419,-2.61386 4.2862,0 4.2794,-2.18579 -0.012,-3.97904 -5.2354,-2.1875 -6.6536,-3.50556 -5.3987,-5.01762 0.7039,-0.84815 2.2877,-0.99982 5.0898,-0.48743 4.2127,0.77034 4.068,0.87222 5.5262,-3.89266 0.2317,-0.75721 -0.092,-1.99471 -0.7184,-2.75 -0.7922,-0.95454 -0.8237,-1.75438 -0.1032,-2.62325 1.104,-1.33147 2.1628,-46.58348 1.2332,-52.70787 -0.4033,-2.65712 -1.1037,-3.59291 -3.0248,-4.041 -1.5806,-0.36867 -2.6175,-1.39549 -2.8196,-2.79212 -0.1993,-1.37792 -1.0236,-2.20901 -2.1909,-2.20901 -1.0293,0 -2.1103,-0.38646 -2.4022,-0.85879 -0.7535,-1.2192 2.2352,-20.36366 3.3536,-21.4821 1.174,-1.17401 20.2451,-0.85175 21.4719,0.36283 0.5474,0.5419 -0.099,1.28828 -1.6133,1.86418 -3.5524,1.35064 -4.0173,4.32252 -1.2125,7.75167 2.6387,3.22603 2.9995,4.98048 1.163,5.65388 -1,0.36666 -1,0.72333 0,1.78333 1.7218,1.82509 1.5718,4.925 -0.2382,4.925 -0.9411,0 -1.4006,0.81363 -1.25,2.21295 0.1863,1.73094 -0.3936,2.32993 -2.6624,2.75 -3.7226,0.68925 -4.1221,2.01525 -3.9913,13.24973 0.1098,9.42829 2.1165,16.78732 4.5777,16.78732 0.6374,0 2.8537,-0.7875 4.925,-1.75 2.6606,-1.23638 3.8574,-2.48235 4.0776,-4.24525 0.2332,-1.86747 1.0664,-2.64562 3.3116,-3.09291 2.897,-0.57713 2.6245,-0.97636 -1.5,-2.19748 -0.825,-0.24426 -2.3227,-0.0203 -3.3281,0.49777 -1.0055,0.51803 -2.5354,0.67048 -3.3998,0.33878 -2.6017,-0.99837 2.3794,-5.55091 6.0735,-5.55091 1.6483,0 3.7863,-0.71441 4.7512,-1.58757 2.5036,-2.26572 15.1719,-1.00582 14.6743,1.45941 -0.2501,1.23928 -1.4563,1.61315 -5.0499,1.56532 -3.9152,-0.0521 -4.7212,0.24665 -4.7212,1.75 0,1.99541 1.1764,2.16159 8.3459,1.17891 4.2514,-0.58273 4.577,-0.82503 4.0311,-3 -0.529,-2.108 -0.2548,-2.36607 2.5146,-2.36607 2.1558,0 3.1084,0.48036 3.1084,1.56739 0,1.11359 0.5805,1.38315 2.0049,0.93105 1.3325,-0.42292 2.2069,-0.11014 2.607,0.93261 0.3311,0.86292 1.3932,1.56895 2.3602,1.56895 0.967,0 3.004,0.97993 4.5266,2.17762 2.5571,2.01146 2.862,2.04961 3.9951,0.5 0.6747,-0.92269 1.6496,-1.67762 2.1664,-1.67762 0.5169,0 1.4893,-0.54951 2.1609,-1.22114 0.6717,-0.67163 2.2159,-1.23413 3.4316,-1.25 1.4248,-0.0186 2.6961,-1.03854 3.577,-2.86982 0.9594,-1.99447 1.9141,-2.69781 3.2039,-2.36051 1.0476,0.27397 2.0778,-0.14633 2.3969,-0.97799 0.361,-0.94073 1.2713,-1.23256 2.5646,-0.8221 1.1518,0.36556 2.0049,0.18213 2.0049,-0.43105 0,-0.58707 0.6269,-1.06739 1.393,-1.06739 0.7662,0 1.652,-0.675 1.9686,-1.5 0.3166,-0.825 1.5056,-1.5 2.6422,-1.5 1.1366,0 3.2001,-0.74275 4.5856,-1.65055 2.411,-1.5797 2.5432,-1.55824 3.0815,0.5 0.7281,2.78446 2.7994,2.74155 4.8006,-0.0994 1.1787,-1.67341 1.7881,-1.92458 2.378,-0.98013 0.4362,0.69843 1.886,1.14843 3.2218,1 1.5689,-0.17433 2.4764,0.26114 2.5634,1.23013 0.074,0.825 0.1865,1.88925 0.25,2.36501 0.063,0.47576 1.2245,0.13826 2.5801,-0.75 1.3557,-0.88826 3.1333,-1.61501 3.9503,-1.61501 0.817,0 1.8454,-0.62484 2.2852,-1.38853 0.4398,-0.76369 1.6624,-1.55119 2.7168,-1.75 2.3643,-0.44578 3.3488,-2.86147 1.1662,-2.86147 -0.8708,0 -1.5833,-0.50248 -1.5833,-1.11663 0,-0.61415 0.8326,-0.8989 1.8503,-0.63277 1.0176,0.26612 2.9094,-0.31506 4.2039,-1.29151 l 2.3537,-1.77538 -4.9539,-0.7386 c -2.7247,-0.40623 -5.9665,-1.39932 -7.204,-2.20687 -2.0106,-1.31206 -2.25,-1.29645 -2.25,0.14675 0,0.88853 -0.8097,1.61501 -1.8,1.61501 -0.99,0 -2.2881,0.4881 -2.8847,1.08466 -1.7891,1.78918 -5.8153,0.69206 -5.8153,-1.58466 0,-1.68047 0.7691,-2.04911 4.8142,-2.30741 3.1804,-0.20309 4.6793,-0.71215 4.4167,-1.5 -0.6446,-1.93364 -6.9965,-1.53088 -9.4069,0.59646 -2.0875,1.84246 -4.9725,1.56922 -3.7813,-0.35815 0.3164,-0.51199 -0.1,-0.9309 -0.9247,-0.9309 -0.825,0 -1.7781,0.45 -2.118,1 -1.0707,1.73249 -4.3381,1.08544 -4.9967,-0.9895 -0.3629,-1.14362 0.039,-2.94632 0.9448,-4.2399 1.5067,-2.15109 1.4145,-2.38623 -2.09,-5.32843 -3.0461,-2.55735 -3.556,-3.51739 -3.0144,-5.6753 0.3958,-1.57733 1.8398,-3.12143 3.677,-3.93206 2.5739,-1.13572 2.9372,-1.73623 2.4356,-4.02616 -0.3242,-1.48024 -0.091,-3.62199 0.5174,-4.75945 0.9482,-1.77185 0.7617,-2.1993 -1.3021,-2.98397 -1.3249,-0.50373 -3.2655,-2.00476 -4.3123,-3.33562 -1.4567,-1.85185 -2.2771,-2.18407 -3.4954,-1.41554 -4.2588,2.68637 -6.5394,-3.40461 -3.4297,-9.15978 0.7888,-1.45986 1.6974,-3.89179 2.0191,-5.40429 0.6024,-2.83254 3.7445,-3.85694 5.1006,-1.66287 0.4785,0.77426 0.9991,0.75634 1.809,-0.0623 0.8511,-0.8603 0.6969,-1.39777 -0.6129,-2.13682 -0.9625,-0.54308 -1.75,-1.64005 -1.75,-2.43772 0,-1.91199 2.9008,-1.87237 3.6384,0.0497 0.8617,2.24564 2.1438,1.80762 2.1953,-0.75 0.1327,-6.59605 2.2,-9.51906 8.6113,-12.17604 2.1698,-0.89919 4.6448,-2.25752 5.5,-3.01852 8.5705,-7.62615 9.793,-9.55544 6.055,-9.55544 -1.3333,0 -2,-0.66667 -2,-2 0,-2.41594 2.1843,-2.58055 5.4912,-0.4138 2.6767,1.75382 4.4911,1.19648 4.5421,-1.39522 0.038,-1.95228 3.3123,-6.19098 4.7818,-6.19098 1.1078,0 0.8724,11.13155 -0.3119,14.75 -0.4051,1.2375 -1.359,2.25 -2.1198,2.25 -0.7609,0 -1.3834,0.45 -1.3834,1 0,2.30389 4.0327,0.83746 5.5,-2 0.8532,-1.65 1.3032,-3 1,-3 -0.9791,0 2.4187,-5.8092 5.0728,-8.67306 2.5496,-2.75109 2.555,-2.7907 0.5022,-3.70669 -1.1413,-0.50923 -2.075,-1.53211 -2.075,-2.27306 0,-1.87576 6.4182,-1.75316 8,0.15281 1.6077,1.93715 3.105,1.93715 2.3616,0 -0.3166,-0.825 -0.2484,-2.2875 0.1514,-3.25 2.5072,-6.0353 -0.81,-12.80581 -5.4325,-11.0881 -3.2087,1.19233 -4.6257,-0.27473 -3.071,-3.17967 1.0317,-1.92774 0.8538,-2.57348 -1.3034,-4.73064 -1.374,-1.37399 -2.9949,-2.19112 -3.6021,-1.81586 -1.6991,1.05012 -1.3143,2.27602 0.896,2.85402 1.1,0.28766 2,1.02926 2,1.64802 0,1.78383 -2.9322,2.43459 -5.3175,1.18013 -1.2004,-0.63132 -3.9825,-1.02861 -6.1825,-0.88288 -3.6928,0.24463 -4.0242,0.0547 -4.3152,-2.47234 -0.2211,-1.92033 0.4504,-3.44688 2.25,-5.11468 3.1967,-2.96255 3.1959,-3.45773 -0.01,-4.67566 -3.4872,-1.32585 -2.911,-4.58185 0.7437,-4.20246 1.5074,0.15648 2.8246,-0.3157 3.1346,-1.12373 0.2942,-0.76649 2.2583,-1.71187 4.3647,-2.10086 2.1064,-0.38899 4.7298,-1.51521 5.8298,-2.50272 1.1,-0.98751 3.6717,-2.0935 5.7149,-2.45775 2.0432,-0.36426 3.9744,-1.08214 4.2916,-1.59531 1.0487,-1.69687 -2.6218,-5.98951 -5.1215,-5.98951 -1.3118,0 -2.385,-0.45 -2.385,-1 0,-0.55 -1.35,-1 -3,-1 -2.62,0 -2.9927,-0.3483 -2.9424,-2.75 0.032,-1.5125 0.3692,-4.49128 0.75,-6.61951 0.5899,-3.29661 1.2088,-4.03689 4.1802,-5 2.1726,-0.70418 3.6273,-1.88469 3.8576,-3.13049 0.5609,-3.03337 2.1392,-4.5 4.8428,-4.5 3.1606,0 6.3118,-1.7038 6.3118,-3.41274 0,-0.7383 0.67,-1.89846 1.489,-2.57812 0.8189,-0.67967 1.2616,-1.60367 0.9837,-2.05335 -0.7459,-1.2069 1.001,-1.99679 4.7281,-2.13791 3.2326,-0.1224 3.3022,-0.22147 3.4478,-4.90441 0.169,-5.43498 3.2727,-10.00988 5.5667,-8.20546 2.327,1.83043 7.1896,2.20713 9.2258,0.71472 1.0702,-0.78255 2.6097,-1.42278 3.4238,-1.42278 0.8141,0 2.2937,-0.73626 3.288,-1.63612 1.6739,-1.51483 1.8544,-1.51483 2.4357,0 0.886,2.30886 1.9112,2.03484 3.2319,-0.86388 1.0442,-2.29169 0.9375,-2.5 -1.2804,-2.5 -3.7823,0 -3.7392,-1.36976 0.1587,-5.04631 l 3.5989,-3.39467 1.4744,2.22049 c 0.8109,1.22127 2.248,2.22049 3.1936,2.22049 1.3999,0 1.6987,-0.88227 1.6085,-4.75 -0.061,-2.6125 -0.4409,-5.27189 -0.8444,-5.90976 -0.4036,-0.63787 -0.4461,-1.98787 -0.095,-3 0.6849,-1.97162 6.976,-8.34024 8.2388,-8.34024 0.4181,0 1.8109,1.86939 3.095,4.15421 2.1193,3.77077 2.4532,3.99228 3.6176,2.39986 1.719,-2.3509 3.7346,-0.95997 2.9779,2.05502 -0.4818,1.91941 -0.2089,2.39091 1.3838,2.39091 1.0911,0 2.4655,0.9 3.0542,2 0.5887,1.1 1.6572,2 2.3745,2 0.7173,0 4.1254,-2.8125 7.5736,-6.25 8.778,-8.75092 10.0519,-10.26068 10.0519,-11.9128 0,-2.50538 7.8825,-5.2259 15.3099,-5.28396 5.8088,-0.0454 7.1208,0.27753 8.9243,2.19676 1.163,1.2375 3.161,2.25 4.4401,2.25 1.2791,0 3.1726,0.84688 4.2077,1.88196 1.1378,1.13782 2.387,1.56981 3.1593,1.09252 0.7025,-0.43419 1.8864,-0.55573 2.6308,-0.27009 1.812,0.69536 4.4196,-1.57624 4.0911,-3.56407 -0.2656,-1.60765 0.054,-1.7125 6.0542,-1.98801 2.8375,-0.13028 3.2253,-0.44235 2.681,-2.15724 -0.7924,-2.49666 1.861,-3.771649 4.0567,-1.94933 1.1586,0.96156 1.8105,0.9887 2.6873,0.11187 2.5414,-2.541369 11.1559,-0.0462 10.2143,2.95847 -0.4052,1.29303 0.048,1.51608 2.2684,1.11581 3.8501,-0.69413 5.2749,-2.05037 5.2749,-5.021009 0,-1.39932 -0.2842,-2.26005 -0.6315,-1.91273 -1.2627,1.26273 -4.3685,-1.42725 -4.3685,-3.78365 0,-3.96253 2.7394,-4.63336 7.9378,-1.94382 10.6072,5.48794 13.8679,6.60366 15.9862,5.47001 2.4742,-1.32415 5.4162,0.21585 6.9834,3.655409 0.5773,1.26714 1.5205,2.3039 2.0959,2.3039 1.4719,0 2.9939,-4.454419 3.012,-8.815099 0.01,-2.0267 0.3459,-4.18439 0.75,-4.79486 1.1692,-1.76645 12.8852,-4.32102 16.8595,-3.67608 3.2996,0.53545 3.5493,0.40999 2.9489,-1.48161 -0.5446,-1.71611 -0.3097,-1.97608 1.3852,-1.53285 1.1549,0.302 2.0411,0.0489 2.0411,-0.58287 4e-4,-0.61415 0.6754,-1.11663 1.5004,-1.11663 0.825,0 1.5,0.675 1.5,1.5 0,1.12896 1.2103,1.5 4.893,1.5 3.4269,0 5.0655,-0.44947 5.4686,-1.5 0.682,-1.77728 4.747,-1.99139 6.4012,-0.33717 0.8838,0.88379 1.4058,0.52383 2.1753,-1.5 0.6282,-1.65227 1.7674,-2.66283 3.002,-2.66283 1.0942,0 2.4858,-0.92735 3.0924,-2.06077 1.3186,-2.46376 3.426,-2.05917 3.571,0.68557 0.1865,3.53018 2.3572,6.3752 4.8643,6.3752 1.5196,0 2.63,0.7327 3.0325,2.00106 0.3493,1.10058 1.5047,2.46641 2.5674,3.03518 2.4988,1.33733 2.4679,3.60676 -0.068,4.96376 -3.0527,1.63377 -2.3849,3.18319 1.25,2.9003 1.7875,-0.13911 4.2172,0.0674 5.3994,0.45885 1.6,0.52981 2.9663,-0.0343 5.3444,-2.20633 2.0302,-1.85431 2.7901,-3.16838 2.0843,-3.60457 -0.6109,-0.37755 -0.8631,-1.08705 -0.5605,-1.57668 0.3026,-0.48962 -0.011,-1.78947 -0.6978,-2.88855 -1.0691,-1.7119 -0.9057,-2.36273 1.1404,-4.54068 1.3139,-1.39829 2.9155,-2.54234 3.5594,-2.54234 1.4604,0 4.4807,-3.25491 4.4807,-4.82875 0,-0.64419 -0.8734,-1.17125 -1.941,-1.17125 -2.7381,0 -3.6723,-2.02685 -1.2288,-2.66585 1.1173,-0.29218 2.2735,-1.16189 2.5692,-1.9327 0.8664,-2.25775 3.57,-1.61218 4.6006,1.09855 1.2062,3.17265 2.341,3.15319 4.8873,-0.0838 1.3223,-1.68101 2.4832,-2.3012 3.3226,-1.77496 0.7095,0.44487 2.0776,0.67931 3.0401,0.52096 1.3834,-0.22759 1.75,0.43298 1.75,3.15364 0,2.91385 0.4806,3.64059 3.1341,4.73972 2.79,1.15568 3.284,1.09313 4.5,-0.56981 1.9258,-2.63367 1.7229,-3.39949 -1.1943,-4.50861 -3.1993,-1.21639 -2.2766,-2.97711 1.5602,-2.97711 2.9427,0 5.3068,2.0644 3.1771,2.77431 -1.6928,0.56427 -1.4518,2.22569 0.3229,2.22569 1.9408,0 1.9449,1.89203 0.01,2.63617 -3.6187,1.38863 0.2281,2.27665 7.2929,1.68354 5.2452,-0.44036 8.0961,-1.15257 8.9389,-2.23314 1.1033,-1.41452 1.4503,-1.31547 3.2,0.91343 1.9151,2.43963 1.9969,2.4532 3.3866,0.56195 1.4021,-1.90817 1.4442,-1.90589 2.7268,0.14802 1.0227,1.63757 1.6654,1.85964 2.9892,1.03288 1.3141,-0.82063 2.4552,-0.46688 5.1676,1.60198 4.2033,3.20602 5.8847,3.31603 8.3873,0.54876 1.0478,-1.15853 3.5925,-2.96768 5.655,-4.02033 4.0485,-2.06628 4.9267,-4.75279 1.8192,-5.56543 -1.062,-0.2777 -2.1729,-1.13557 -2.4686,-1.90638 -0.3001,-0.7708 -1.2313,-1.40146 -2.0735,-1.40146 -0.8423,0 -1.5314,-0.675 -1.5314,-1.5 0,-1.85405 1.6218,-1.96095 2.7003,-0.17798 0.5335,0.8819 1.632,1.07799 3.2997,0.58903 l 2.5,-0.73299 -2.3398,-0.72914 c -1.8012,-0.56131 -2.2348,-1.27813 -1.8838,-3.11425 0.2809,-1.46969 -0.1223,-2.70869 -1.0506,-3.22821 -0.8287,-0.46371 -1.1919,-1.35236 -0.8072,-1.97478 0.854,-1.3818 9.2827,-1.51772 9.7481,-0.15719 0.3582,1.04714 4.8333,0.23651 4.8333,-0.87551 0,-0.36727 -1.35,-1.46523 -3,-2.43991 -4.9692,-2.93538 -3.49,-5.65907 3.0733,-5.65907 1.8267,0 3.3746,0.7444 4.1588,2 1.753,2.80705 2.799,2.5293 6.5904,-1.74995 1.8273,-2.06253 3.0383,-3.18755 2.6909,-2.50005 -0.3473,0.6875 -0.1549,1.25 0.4276,1.25 0.5824,0 1.0945,-0.5625 1.1379,-1.25 0.063,-1 0.1799,-1 0.5834,0 0.2774,0.6875 0.9434,1.25 1.4801,1.25 0.5366,0 0.6975,-0.45 0.3576,-1 -0.3712,-0.60067 0.903,-0.99388 3.191,-0.98469 2.8275,0.0114 3.4225,0.2651 2.309,0.98469 -1.1413,0.73753 -0.7363,0.97304 1.6933,0.98469 2.0351,0.01 3.6957,0.73265 4.5786,1.99314 1.2411,1.77185 1.7416,1.84995 4.8067,0.75 1.8818,-0.67531 3.7686,-1.76772 4.193,-2.42759 0.4243,-0.65987 2.1118,-1.03014 3.75,-0.82282 1.6381,0.20732 2.9784,-0.0403 2.9784,-0.55024 0,-0.50995 2.7266,-0.92718 6.059,-0.92718 4.5811,0 5.8759,0.30491 5.3081,1.25 -0.5888,0.97994 -0.4322,0.9923 0.7245,0.0572 0.9554,-0.77235 1.9924,-0.86587 2.9419,-0.26531 0.8066,0.51012 1.9165,0.92748 2.4665,0.92748 0.55,0 0.325,-0.43621 -0.5,-0.96937 -1.057,-0.68311 0.3457,-0.9739 4.75,-0.98469 l 6.25,-0.0153 0,13.01357 c 0,8.61508 -0.4225,13.72913 -1.25,15.13066 -1.0018,1.69674 -0.9998,2.20763 0.01,2.57315 0.9872,0.35731 1.2509,9.55535 1.2173,42.473489 -0.045,44.21122 -0.1045,44.80914 -4.4649,44.80914 -0.8967,0 -1.3602,0.43729 -1.0299,0.97175 0.3304,0.53447 -0.16,2.13258 -1.0896,3.55135 -1.1921,1.8194 -1.3774,2.89242 -0.6287,3.64111 1.424,1.42396 3.2358,0.17909 3.2358,-2.22323 0,-2.33172 0.6446,-2.43927 2.6429,-0.44098 0.825,0.825 1.0178,1.5 0.4285,1.5 -0.5893,0 -1.0714,0.675 -1.0714,1.5 0,0.825 0.45,1.5 1,1.5 0.55,0 1,0.47656 1,1.05902 0,0.58246 -0.4707,0.76813 -1.0459,0.4126 -0.6836,-0.42248 -0.9434,0.90958 -0.75,3.84497 0.1627,2.47026 0.6334,4.28303 1.0459,4.02838 0.4125,-0.25465 0.75,1.58855 0.75,4.09601 0,2.70424 -0.4567,4.55902 -1.1224,4.55902 -0.8262,0 -0.8242,0.35942 0.01,1.3617 1.4847,1.78898 1.5823,229.23135 0.099,230.14824 -0.5411,0.33445 -0.9839,1.50809 -0.9839,2.60809 0,1.1 0.45,1.72189 1,1.38197 0.6646,-0.41075 1,40.98962 1,123.44095 l 0,124.0591 -1630.5,0 -1630.50002,0 0,-133 z M 1624.6072,459.12112 c 4.6332,-5.49198 9.1744,-10.89198 10.0916,-12 0.9172,-1.10802 4.8462,-5.83958 8.731,-10.51458 3.8848,-4.675 7.0719,-9.0625 7.0824,-9.75 0.034,-2.26932 -4.1316,-1.30029 -6.8298,1.58859 -1.4582,1.56122 -6.353,8.19872 -10.8774,14.75 -4.5244,6.55127 -10.4821,15.06141 -13.2393,18.91141 -2.7572,3.85 -5.5191,7.89999 -6.1375,8.99999 -1.1244,2 -1.1244,2 0.8152,0 1.0669,-1.1 5.7305,-6.49343 10.3638,-11.98541 z m 1339.924,-18.51458 c 0,-0.55 -0.4234,-1 -0.941,-1 -0.5175,0 -1.2191,0.45 -1.559,1 -0.3399,0.55 0.084,1 0.941,1 0.8574,0 1.559,-0.45 1.559,-1 z m -1498,-8.10699 c 0,-1.04115 -0.3949,-1.89301 -0.8776,-1.89301 -1.4174,0 -3.3493,2.82392 -2.6765,3.91252 0.9643,1.56024 3.5541,0.0887 3.5541,-2.01951 z m 208.9297,-9.14301 c 0.039,-0.4125 -0.3316,-0.75 -0.8227,-0.75 -1.2543,0 -2.2499,2.95971 -1.4377,4.27387 0.6051,0.9791 2.0494,-1.27252 2.2604,-3.52387 z m 1002.3071,-13.75 c 0.5902,0 0.2587,-0.9 -0.7368,-2 -2.4428,-2.69926 -3.5,-2.51592 -3.5,0.60699 0,1.96639 0.3887,2.45784 1.5818,2 0.87,-0.33385 2.0647,-0.60699 2.655,-0.60699 z m -1044.8319,-8.72746 0.095,-3.22745 -2.3733,2.37347 c -2.4632,2.46339 -2.115,4.92189 0.6214,4.38681 1.004,-0.19633 1.5956,-1.45787 1.6568,-3.53283 z m 72.5951,1.78648 c 0,-0.51754 -0.45,-1.2191 -1,-1.55902 -0.55,-0.33992 -1,0.0835 -1,0.94098 0,0.85746 0.45,1.55902 1,1.55902 0.55,0 1,-0.42344 1,-0.94098 z m 971.3578,-2.55902 c 0,-0.55 -0.7555,-1.1455 -1.6789,-1.32332 -1.023,-0.19702 -1.6789,0.31993 -1.6789,1.32332 0,1.00339 0.6559,1.52034 1.6789,1.32332 0.9234,-0.17782 1.6789,-0.77332 1.6789,-1.32332 z M 96.13548,397.87737 c -0.3323,-0.33229 -0.5687,0.25834 -0.5252,1.3125 0.048,1.16495 0.2849,1.4019 0.6041,0.60417 0.2889,-0.72188 0.2534,-1.58438 -0.079,-1.91667 z m 1617.25632,1.39713 c 0.8186,-0.98629 0.7418,-1.82949 -0.2958,-3.24843 -1.6311,-2.23068 -2.1492,-1.92361 -3.0919,1.83252 -0.5205,2.07384 -0.3252,2.74795 0.7962,2.74795 0.8173,0 1.9835,-0.59942 2.5915,-1.33204 z m -96.5251,-5.57194 c 3.1956,-4.44803 3.6321,-6.09602 1.6145,-6.09602 -0.3942,0 -0.9521,0.9 -1.2397,2 -0.62,2.37056 -3.423,2.58997 -6.4049,0.50135 -1.6418,-1.14996 -2.2433,-1.20813 -2.5853,-0.25 -0.695,1.94709 3.0353,8.54699 4.9361,8.73334 0.086,0.008 1.7416,-2.19148 3.6793,-4.88867 z m -18.1355,-1.29602 c -0.6417,-0.64167 -1.4986,-0.8347 -1.9044,-0.42896 -0.4057,0.40574 -0.089,1.13877 0.7044,1.62896 1.8676,1.15423 2.7109,0.31091 1.2,-1.2 z m 66.392,-2.74754 c -0.2295,-0.85385 -0.702,-3.23996 -1.05,-5.30246 -0.4829,-2.86221 -1.1028,-3.75 -2.6187,-3.75 -2.2097,0 -3.9667,-3.15219 -2.1032,-3.77336 0.6489,-0.21632 1.1799,-0.81928 1.1799,-1.33991 0,-0.52063 -1.35,0.0515 -3,1.27139 -1.65,1.2199 -3,2.70012 -3,3.28939 0,0.58927 -0.9175,1.64436 -2.0388,2.34465 -3.3418,2.087 -1.2462,3.50331 4.1286,2.79032 l 4.8335,-0.64119 0.6879,5.18515 c 0.6202,4.67548 0.821,5.00297 2.043,3.33181 0.7453,-1.01934 1.1674,-2.55194 0.9378,-3.40579 z m 34.8429,3.97229 c 3.6109,-1.37287 3.2241,-3.2168 -0.5955,-2.83811 -2.0983,0.20804 -3.2449,0.90152 -3.4115,2.06336 -0.2875,2.00467 0.4149,2.14047 4.007,0.77475 z m -59.4349,-8.12625 c 0,-0.42926 -0.4697,-1.07076 -1.0438,-1.42557 -1.2979,-0.80215 -3.9562,1.29971 -3.9562,3.12808 0,1.08361 0.5024,1.12722 2.5,0.21704 1.375,-0.6265 2.5,-1.49029 2.5,-1.91955 z m 54.4252,1.58134 c 1.7185,-1.30019 1.7784,-1.73095 0.5573,-4.0125 -1.7297,-3.23201 -5.3346,-3.01157 -5.8116,0.35539 -0.6969,4.91887 1.5341,6.47169 5.2543,3.65711 z m -116.6573,-3.47984 c 0.687,-1.1 2.1149,-2 3.1732,-2 2.0052,0 3.6531,-3.22962 2.5546,-5.00693 -0.7807,-1.26331 -6.4957,1.90406 -6.4957,3.60009 0,0.63907 -0.67,1.71804 -1.489,2.3977 -0.8189,0.67967 -1.2424,1.63477 -0.941,2.12245 0.8617,1.39425 1.8459,1.05162 3.1979,-1.11331 z m 98.2321,-1.95203 c 0,-1.8423 -2.5753,-3.575 -3.3506,-2.2543 -0.228,0.38848 -0.021,1.74774 0.4596,3.02057 0.9752,2.58183 2.891,2.07403 2.891,-0.76627 z m -80.029,0.99109 c 0.8091,-0.51167 1.1359,-1.2655 0.7262,-1.67516 -0.4096,-0.40967 -1.5055,0.0159 -2.4353,0.94562 -1.8074,1.80739 -0.7254,2.26921 1.7091,0.72954 z m 15.3219,-7.25388 c 2.4389,-3.87854 2.1105,-4.51071 -0.8879,-1.70949 -2.6984,2.52087 -5.405,7.00338 -5.405,8.95138 0,1.21568 3.5266,-2.8428 6.2929,-7.24189 z m 28.7071,1.1558 c 0,-0.58246 -0.45,-0.7809 -1,-0.44098 -0.55,0.33992 -1,0.81648 -1,1.05902 0,0.24254 0.45,0.44098 1,0.44098 0.55,0 1,-0.47656 1,-1.05902 z m 1310,-4.39301 c 0,-1.11481 -2.0146,-2.54797 -3.5818,-2.54797 -0.8861,0 -0.3621,2.65612 0.7419,3.76008 1.3488,1.34883 2.8399,0.71242 2.8399,-1.21211 z M 1715.682,368.35654 c 0.083,-1.2375 0.051,-3.5148 -0.072,-5.06067 -0.1226,-1.54587 0.2814,-3.4183 0.8978,-4.16097 0.7721,-0.93032 0.7945,-1.55187 0.072,-1.99835 -0.5767,-0.35642 -1.0486,-1.52149 -1.0486,-2.58903 0,-1.40371 -0.692,-1.94098 -2.5,-1.94098 -2.0083,0 -2.5,0.49791 -2.5,2.53138 0,3.12024 -2.8097,4.4494 -4.5049,2.1311 -1.8989,-2.59697 -2.5263,-1.95126 -0.987,1.01582 0.7643,1.47306 1.1435,3.07642 0.8428,3.56301 -0.7016,1.13519 2.549,4.75869 4.2689,4.75869 0.7204,0 1.7915,0.9 2.3802,2 1.4236,2.65995 2.964,2.53773 3.1508,-0.25 z m 1175.8492,-0.16821 c 0,-0.78002 0.2883,-2.16962 0.6408,-3.088 0.5056,-1.31772 0.1366,-1.59852 -1.75,-1.33179 -3.2642,0.46148 -4.1458,5.838 -0.9572,5.838 1.1365,0 2.0664,-0.6382 2.0664,-1.41821 z m -42.0153,-0.33179 c -0.036,-1.77777 -1.7466,-3.44427 -2.4187,-2.35676 -0.3762,0.60872 -0.4059,1.55676 -0.066,2.10676 0.7209,1.16642 2.5071,1.34614 2.4847,0.25 z m -15.037,-4 c 0.7071,-1.5125 1.6831,-3.53139 2.169,-4.48643 1.3136,-2.58239 1.1543,-2.69212 -2.1167,-1.45747 -2.6047,0.98315 -3,1.6306 -3,4.91314 0,4.45966 1.1557,4.8638 2.9477,1.03076 z m 22.0523,1.85699 c 0,-0.49116 -0.675,-1.15203 -1.5,-1.46862 -0.9137,-0.35062 -1.5,-0.002 -1.5,0.89301 0,0.80774 0.675,1.46862 1.5,1.46862 0.825,0 1.5,-0.40186 1.5,-0.89301 z m 103,-2.10699 c 0,-1.99899 -3.7439,-6.5894 -4.6419,-5.69142 -0.7779,0.7779 2.4498,7.69142 3.5909,7.69142 0.578,0 1.051,-0.9 1.051,-2 z m -1273.1835,-0.4832 c 0.2543,-0.2543 -0.7535,-2.05649 -2.2396,-4.00485 -1.7934,-2.3513 -2.4911,-4.20687 -2.0749,-5.51827 1.0586,-3.33538 -0.5903,-4.37734 -2.1549,-1.36167 -1.1877,2.28936 -1.3567,7.24509 -0.4176,12.24299 0.09,0.4778 6.2698,-0.74096 6.887,-1.3582 z m -60.8165,-3.5168 c 0,-0.55 -0.4766,-1 -1.059,-1 -0.5825,0 -0.7809,0.45 -0.441,1 0.3399,0.55 0.8165,1 1.059,1 0.2426,0 0.441,-0.45 0.441,-1 z m 30.393,-2.58179 c 0.9996,-2.60482 0.705,-3.41821 -1.238,-3.41821 -2.0852,0 -5.5143,3.3074 -4.4905,4.33115 1.2748,1.27483 5.1244,0.66134 5.7285,-0.91294 z m -20.8348,-3.51238 c 0.3719,-0.60179 1.7194,-0.89476 2.9944,-0.65103 3.3104,0.63282 5.1698,-0.67943 3.6158,-2.55184 -1.5779,-1.90134 -0.6553,-4.10443 2.4048,-5.74216 2.673,-1.43054 4.0055,-0.71588 4.5797,2.45633 0.1909,1.05443 0.9096,2.10443 1.5971,2.33334 1.4929,0.49707 1.7927,-7.29701 0.3158,-8.20978 -1.0917,-0.67474 -0.1538,-7.88326 1.0897,-8.37402 0.4645,-0.18334 0.8445,-0.95557 0.8445,-1.71608 0,-2.59321 3.356,-8.42882 5.1804,-9.00784 1.0008,-0.31764 1.8196,-1.01132 1.8196,-1.54152 0,-1.85052 -3.2437,-2.18848 -5.9067,-0.61542 -1.5694,0.92709 -3.2274,1.24934 -3.9931,0.77611 -0.7202,-0.44508 -2.5669,-0.33458 -4.1039,0.24556 -2.2302,0.84183 -3.3253,0.70698 -5.4236,-0.6679 -3.0948,-2.02779 -5.9071,-1.08847 -3.0331,1.01306 1.0135,0.74105 2.6567,1.34736 3.6515,1.34736 0.9949,0 1.8089,0.39752 1.8089,0.88337 0,0.48585 0.9453,1.13056 2.1006,1.43269 1.2187,0.3187 1.8111,1.01781 1.411,1.66519 -0.4886,0.79049 -1.0624,0.80652 -1.9679,0.055 -0.9253,-0.7679 -1.625,-0.64322 -2.5335,0.45144 -0.6903,0.83178 -2.325,1.51233 -3.6326,1.51233 -2.716,0 -3.063,1.18629 -0.8776,3 0.825,0.68469 1.5,2.31479 1.5,3.62244 0,1.71089 0.5608,2.37756 2,2.37756 2.1501,0 2.8395,2.8977 0.75,3.15231 -6.5574,0.79904 -7.7487,1.66811 -7.7653,5.66508 -0.01,2.02543 -0.4287,4.33612 -0.934,5.13486 -0.9774,1.54504 -0.5094,3.04775 0.9493,3.04775 0.4851,0 1.1863,-0.49238 1.5582,-1.09417 z m 31.6418,-3.10583 c -0.9333,-0.93333 -1.2,-0.66667 -1.2,1.2 0,1.86667 0.2667,2.13333 1.2,1.2 0.9333,-0.93333 0.9333,-1.46667 0,-2.4 z m 1178.3589,-1.3318 c -1.0677,-0.80751 -2.6427,-1.45389 -3.5,-1.4364 -1.2463,0.0254 -1.1696,0.32623 0.3822,1.5 1.0677,0.80751 2.6427,1.45389 3.5,1.4364 1.2463,-0.0254 1.1696,-0.32623 -0.3822,-1.5 z m -1230.9213,-0.23351 c 0.9693,-0.62598 4.6343,-8.1147 4.0614,-8.29853 -1.8884,-0.60585 -6.8608,-0.48333 -7.2703,0.17914 -1.0881,1.7607 -3.4298,0.84518 -3.4921,-1.3653 -0.063,-2.24177 -0.067,-2.24124 -1.0214,0.14493 -1.2906,3.22658 -0.2318,6.10507 2.2458,6.10507 1.1852,0 2.2433,0.83012 2.5493,2 0.5614,2.14681 1.1382,2.39012 2.9273,1.23469 z m 54.8624,-1.23469 c 0.3399,-0.55 0.168,-1 -0.382,-1 -0.55,0 -1.2781,0.45 -1.618,1 -0.3399,0.55 -0.168,1 0.382,1 0.55,0 1.2781,-0.45 1.618,-1 z m 41.5,-0.55902 c 0,-0.24254 -0.45,-0.44098 -1,-0.44098 -0.55,0 -1,0.47656 -1,1.05902 0,0.58246 0.45,0.7809 1,0.44098 0.55,-0.33992 1,-0.81648 1,-1.05902 z m 1122.1875,-3.12409 c -0.7219,-0.28887 -1.5844,-0.25335 -1.9167,0.0789 -0.3323,0.33229 0.2584,0.56864 1.3125,0.52522 1.165,-0.048 1.4019,-0.28494 0.6042,-0.60416 z m -1146.4376,-2.90036 c -0.953,-0.95296 -2.8635,0.5906 -2.1533,1.7397 0.4221,0.683 0.9814,0.66575 1.6996,-0.0524 0.5888,-0.58876 0.7929,-1.34803 0.4537,-1.68727 z m 1135.8571,0.002 c -0.3339,-0.86998 -0.607,-1.75842 -0.607,-1.97432 0,-0.44719 -5.6128,-3.44389 -6.4503,-3.44389 -0.3024,0 -0.5497,1.3187 -0.5497,2.93045 0,2.24391 0.5271,3.03198 2.25,3.36382 4.8542,0.93496 5.9812,0.75065 5.357,-0.87606 z m 143.0869,-2.06282 c 0.3923,-1.02252 -0.092,-2.14439 -1.2814,-2.96589 -3.6958,-2.55331 -4.5429,-3.60739 -4.0116,-4.99183 0.3494,-0.91048 -0.7146,-1.91973 -3.0545,-2.89741 -1.9749,-0.82514 -3.7811,-1.50026 -4.0138,-1.50026 -0.6107,0 0.7795,7.20625 1.7563,9.1044 0.8646,1.68018 6.4901,4.83369 8.6925,4.87283 0.7047,0.0125 1.5654,-0.7173 1.9125,-1.62184 z m -139.6939,-5.44933 c 0,-0.60149 -0.9435,-1.34034 -2.0966,-1.6419 -1.7237,-0.45074 -1.9911,-1.07583 -1.5035,-3.51391 0.5587,-2.79357 0.4409,-2.92744 -2.0299,-2.3073 -2.0284,0.50909 -2.4987,0.3344 -2.0746,-0.77062 0.6843,-1.78332 -1.1138,-3.67265 -3.4954,-3.67265 -2.661,0 -2.3627,5.12957 0.45,7.73777 2.0019,1.85633 7.9985,4.96296 10,5.18066 0.4125,0.0449 0.75,-0.41056 0.75,-1.01205 z m -1118.25,-3.85715 c 4.4087,-5.3104 4.5333,-8.3325 0.1633,-3.96257 -1.4374,1.43748 -2.8184,1.903 -4.4387,1.49633 -2.3999,-0.60234 -4.5035,1.12214 -2.7798,2.27881 0.5231,0.35101 1.2416,1.4257 1.5968,2.3882 0.9357,2.53608 1.8228,2.17839 5.4584,-2.20077 z m -116.75,0.95077 c 0,-0.55 -0.7016,-1 -1.559,-1 -0.8575,0 -1.2809,0.45 -0.941,1 0.3399,0.55 1.0415,1 1.559,1 0.5176,0 0.941,-0.45 0.941,-1 z m 105,-1.55902 c 0,-0.24254 -0.45,-0.44098 -1,-0.44098 -0.55,0 -1,0.47656 -1,1.05902 0,0.58246 0.45,0.7809 1,0.44098 0.55,-0.33992 1,-0.81648 1,-1.05902 z m 29.9648,-2.37524 c 1.4532,-2.71532 1.3303,-2.95075 -1.2148,-2.32769 -3.5331,0.86492 -5.1332,2.40236 -3.5473,3.40837 2.1038,1.33458 3.6583,0.98183 4.7621,-1.08068 z m 1250.0352,-1.16357 c 0,-0.49619 -0.3938,-0.90217 -0.875,-0.90217 -0.4812,0 -2.2812,-0.28125 -4,-0.625 -3.2927,-0.65855 -4.3157,1.03426 -2.0153,3.33473 1.2463,1.24629 6.8903,-0.23432 6.8903,-1.80756 z M 1622.944,319.78644 c -0.5386,-3.36821 -0.2955,-4.02672 2.0551,-5.5669 2.2416,-1.46873 2.4628,-1.99152 1.3901,-3.28408 -2.0783,-2.50416 -5.7242,-3.47022 -8.1735,-2.16572 -3.5456,1.88842 -6.0107,5.8368 -3.644,5.8368 1.7414,0 6.9184,4.25744 6.3316,5.20691 -0.7559,1.22308 0.3338,3.79309 1.6083,3.79309 0.6489,0 0.8123,-1.44419 0.4324,-3.8201 z m 1203.5872,1.26108 c 0,-0.24254 -0.7016,-0.44098 -1.559,-0.44098 -0.8575,0 -1.2764,0.45734 -0.9309,1.01631 0.5708,0.92358 2.4899,0.48015 2.4899,-0.57533 z m 146,0.5 c 0,-0.58246 -0.45,-0.7809 -1,-0.44098 -0.55,0.33992 -1,0.81648 -1,1.05902 0,0.24254 0.45,0.44098 1,0.44098 0.55,0 1,-0.47656 1,-1.05902 z m -154,-6.3 c 0,-3.45924 -1.7327,-4.63012 -5.1097,-3.45288 -3.6578,1.2751 -3.612,1.82041 0.3728,4.43907 3.6882,2.42373 4.7369,2.20539 4.7369,-0.98619 z m 80.9618,-8.91686 c 1.5602,-3.52461 0.2739,-5.25107 -3.2528,-4.36594 -1.9641,0.49296 -2.344,1.10014 -1.9566,3.12679 0.3532,1.84779 0.052,2.51503 -1.1358,2.51503 -0.9065,0 -1.6166,0.81299 -1.6166,1.85079 0,3.01983 6.3439,0.52853 7.9618,-3.12667 z m -114.9618,2.21686 c 0,-0.51754 -0.675,-0.94098 -1.5,-0.94098 -1.5464,0 -1.9867,1.17996 -0.8605,2.30615 0.7989,0.79893 2.3605,-0.10419 2.3605,-1.36517 z m 98.5,1.05902 c -0.3399,-0.55 -0.8165,-1 -1.059,-1 -0.2426,0 -0.441,0.45 -0.441,1 0,0.55 0.4766,1 1.059,1 0.5825,0 0.7809,-0.45 0.441,-1 z m 21.5,-1.05902 c 0,-1.13246 -0.45,-1.7809 -1,-1.44098 -0.55,0.33992 -1,1.26648 -1,2.05902 0,0.79254 0.45,1.44098 1,1.44098 0.55,0 1,-0.92656 1,-2.05902 z m -90.4149,-5.01163 c 1.2748,-1.05794 1.964,-1.06751 3.5935,-0.0499 2.379,1.48573 3.0685,1.13843 1.8035,-0.90841 -0.649,-1.05009 -2.7653,-1.47104 -7.3956,-1.47104 -6.3143,0 -9.4594,1.2786 -8.1915,3.33009 0.8467,1.37 8.2417,0.71633 10.1901,-0.90074 z m 22.4149,0.57065 c 0,-0.825 -0.45,-1.5 -1,-1.5 -0.55,0 -1,0.675 -1,1.5 0,0.825 0.45,1.5 1,1.5 0.55,0 1,-0.675 1,-1.5 z m 127,0 c 0,-0.825 -0.675,-1.5 -1.5,-1.5 -0.825,0 -1.5,0.675 -1.5,1.5 0,0.825 0.675,1.5 1.5,1.5 0.825,0 1.5,-0.675 1.5,-1.5 z m -1366.5101,-0.51631 c -0.3454,-0.55897 -1.047,-0.75742 -1.559,-0.44098 -1.387,0.85723 -1.1284,1.45729 0.6281,1.45729 0.8575,0 1.2764,-0.45734 0.9309,-1.01631 z m 1316.5101,0.0163 c 0,-0.55 -0.7875,-0.99311 -1.75,-0.98469 -1.4955,0.0131 -1.5319,0.15626 -0.25,0.98469 1.8872,1.21961 2,1.21961 2,0 z m -53.2745,-3.25 c -0.035,-1.2375 0.1255,-2.86875 0.3558,-3.625 0.2303,-0.75625 -0.086,-1.56215 -0.704,-1.79089 -0.6174,-0.22874 -1.345,0.43426 -1.6167,1.47334 -0.298,1.13976 -1.737,2.13784 -3.6273,2.51589 -5.4519,1.09038 -3.4614,3.09766 3.5109,3.54048 1.6138,0.10249 2.1287,-0.42046 2.0813,-2.11382 z m 70.7745,0.25 c -0.3399,-0.55 -1.0415,-1 -1.559,-1 -0.5176,0 -0.941,0.45 -0.941,1 0,0.55 0.7016,1 1.559,1 0.8575,0 1.2809,-0.45 0.941,-1 z m -1311.5,-2.05902 c 0,-0.51754 -0.6609,-0.94098 -1.4686,-0.94098 -0.8921,0 -1.2435,0.5866 -0.8952,1.49426 0.5903,1.53826 2.3638,1.12315 2.3638,-0.55328 z m 56.6001,0.89707 c 0.8222,-1.3303 -3.3211,-5.09443 -5.0015,-4.5438 -0.6042,0.19799 -1.241,1.56278 -1.415,3.03287 -0.2812,2.37481 0.019,2.67288 2.691,2.67288 1.654,0 3.3305,-0.52288 3.7255,-1.16195 z m 1120.3999,-4.33805 c 0,-1.93545 -1.9631,-2.93689 -3.2448,-1.65525 -0.7606,0.76065 -0.7026,1.51372 0.2005,2.60186 1.4097,1.69865 3.0443,1.1904 3.0443,-0.94661 z m -1197.55,-0.38761 c -1.4687,-1.3722 -5.45,-2.35581 -5.45,-1.34644 0,1.52695 1.2238,2.23405 3.8667,2.23405 1.5219,0 2.154,-0.35438 1.5833,-0.88761 z m 1271.7209,-7.86239 c -4.997,-4.60066 -6.5044,-5.23042 -5.984,-2.5 0.1834,0.9625 1.2901,1.88707 2.4592,2.0546 1.4202,0.20351 2.3133,1.24216 2.6907,3.12947 0.3107,1.55367 1.3643,3.62418 2.3413,4.60113 1.7017,1.7017 1.8042,1.67527 2.4426,-0.62946 0.5504,-1.98722 -0.1367,-3.1451 -3.9498,-6.65574 z m -1169.3422,1.75 c 1.7442,0 3.1713,-0.45 3.1713,-1 0,-0.55 -1.2375,-1.00689 -2.75,-1.01531 -1.5125,-0.008 -3.4131,-0.43467 -4.2236,-0.94722 -1.7854,-1.12907 -2.9891,0.41702 -3.0111,3.86752 -0.014,2.26674 0.09,2.30985 1.8134,0.75 1.0058,-0.91025 3.2558,-1.65499 5,-1.65499 z m -86.8937,-1.12145 c -1.201,-2.244 -3.2747,-2.03896 -3.7421,0.37 -0.17,0.87655 0.4993,1.76504 1.5,1.9912 2.7177,0.61415 3.4319,-0.13804 2.2421,-2.3612 z m -11.1058,-3.99821 c 1.5668,-3.1667 1.7863,-4.5232 0.9488,-5.86413 -0.9975,-1.59739 -1.3151,-1.61492 -3.7667,-0.20789 -2.0465,1.1745 -2.6509,2.26176 -2.5652,4.61413 0.2401,6.5865 2.5378,7.20879 5.3831,1.45789 z m -10.7224,-2.00534 c -0.2162,-0.75625 -0.3338,-2.3875 -0.2612,-3.625 0.073,-1.2375 -0.4374,-2.25 -1.1332,-2.25 -0.8755,0 -1.1464,1.24671 -0.8793,4.04683 0.2372,2.48716 0.8255,3.88426 1.5264,3.625 0.6273,-0.23201 0.9636,-1.04058 0.7473,-1.79683 z m 116.2411,-1.90205 c 0.4664,-0.42285 -0.9961,-2.66901 -3.25,-4.99147 -2.2538,-2.32245 -4.0979,-3.74494 -4.0979,-3.16108 0,0.58386 0.45,1.33968 1,1.6796 1.7419,1.07655 1.0802,4.24575 -1,4.78975 -2.4664,0.64498 -2.6139,2.41202 -0.25,2.99574 2.0837,0.51455 6.4064,-0.2322 7.5979,-1.31254 z m 8.6521,1.02705 c 0,-0.55 -0.6484,-1 -1.441,-1 -0.7925,0 -1.7191,0.45 -2.059,1 -0.3399,0.55 0.3085,1 1.441,1 1.1324,0 2.059,-0.45 2.059,-1 z m 1052,-7 c 0,-0.55 -0.7016,-1 -1.559,-1 -0.8575,0 -1.2809,0.45 -0.941,1 0.3399,0.55 1.0415,1 1.559,1 0.5176,0 0.941,-0.45 0.941,-1 z m -1062.4589,-2.93347 c -0.3625,-0.58659 -1.1377,-1.06653 -1.7226,-1.06653 -0.6631,0 -0.5872,0.57378 0.2016,1.52417 1.3715,1.6526 2.5973,1.2838 1.521,-0.45764 z m -22.1481,-3.64832 c 0.3339,-0.86998 0.607,-2.40285 0.607,-3.40638 0,-1.28722 0.5484,-1.68118 1.8621,-1.33764 1.1546,0.30195 2.1101,-0.15933 2.5149,-1.21414 0.5125,-1.33577 0.2195,-1.5878 -1.3645,-1.17357 -1.1095,0.29013 -2.3537,-0.003 -2.7649,-0.65054 -0.4112,-0.64793 -1.9876,-1.72256 -3.5031,-2.38807 l -2.7555,-1.21001 1.5055,3.60319 c 0.828,1.98176 1.5055,4.89824 1.5055,6.48107 0,3.10455 1.4067,3.86643 2.393,1.29609 z m -8.393,-11.44959 c 0,-1.19717 -2.8206,-2.48133 -3.6433,-1.65869 -0.8757,0.87571 0.6097,2.69007 2.2023,2.69007 0.7926,0 1.441,-0.46412 1.441,-1.03138 z m 1137,-0.96862 c 0,-0.55 -0.4766,-1 -1.059,-1 -0.5825,0 -0.7809,0.45 -0.441,1 0.3399,0.55 0.8165,1 1.059,1 0.2426,0 0.441,-0.45 0.441,-1 z m 35,-0.0594 c 1.283,-0.87993 1.1745,-1.25702 -0.75,-2.60666 -1.2375,-0.86785 -2.25,-2.42303 -2.25,-3.45594 0,-1.03292 -0.6447,-1.87803 -1.4326,-1.87803 -0.7879,0 -1.7327,-0.9453 -2.0993,-2.10066 -0.4601,-1.4496 -0.988,-1.77946 -1.7032,-1.06429 -0.7151,0.71517 -0.5294,1.54334 0.5994,2.67209 2.1732,2.17318 2.0632,2.83793 -0.3643,2.20311 -3.277,-0.85696 -2.6515,3.83743 0.75,5.62911 3.3816,1.78115 5.2979,1.94008 7.25,0.60127 z m -22.5648,-3.83585 c 0.6689,-1.08219 -2.2375,-2.34501 -3.5418,-1.53893 -0.5093,0.31479 -0.6671,0.99125 -0.3507,1.50325 0.7326,1.18535 3.1682,1.20768 3.8925,0.0357 z m 24.2867,-12.58392 c 1.8719,-0.53733 2.0409,-0.9278 1.0727,-2.47816 -1.1067,-1.77214 -1.2539,-1.76301 -3.972,0.24655 -3.167,2.34146 -3.7282,4.09807 -1.0726,3.35748 0.9625,-0.26842 2.7499,-0.77506 3.9719,-1.12587 z m -6.3603,-6.02083 c 0.3166,-0.825 1.2648,-1.5 2.107,-1.5 2.0992,0 1.9365,-1.93738 -0.2186,-2.60438 -0.9625,-0.29789 -2.5314,-0.95877 -3.4864,-1.46862 -2.4181,-1.2909 -2.5592,-1.21616 -2.4966,1.323 0.031,1.2375 -0.2902,3.0375 -0.7127,4 -0.6168,1.40486 -0.2752,1.75 1.7317,1.75 1.375,0 2.759,-0.675 3.0756,-1.5 z m -26.3616,-2.55902 c 0,-0.58246 -0.45,-0.7809 -1,-0.44098 -0.55,0.33992 -1,0.81648 -1,1.05902 0,0.24254 0.45,0.44098 1,0.44098 0.55,0 1,-0.47656 1,-1.05902 z m 16.2403,-6.41748 c 0.5504,-2.87955 0.1105,-3.5235 -2.407,-3.5235 -1.0083,0 -1.8333,-0.43875 -1.8333,-0.975 0,-0.91275 -5.8668,-0.3125 -7,0.71619 -0.275,0.24965 1.058,1.76001 2.9622,3.35636 4.3619,3.65661 7.6283,3.82469 8.2781,0.42595 z m -16.2403,-13.08252 c 0,-1.67695 -0.8995,-1.80458 -3,-0.42567 -1.3054,0.85694 -1.3116,1.10586 -0.048,1.91871 1.7428,1.12088 3.0477,0.48161 3.0477,-1.49304 z m 68.4682,-6.69098 c -0.7804,-3.67147 -3.1169,-6.75 -5.1232,-6.75 -1.48,0 -1.5115,0.0785 -1.9004,4.75 -0.2161,2.59531 0.1029,3.25 1.5834,3.25 1.0197,0 2.1321,0.45 2.472,1 0.3399,0.55 1.3022,1 2.1385,1 1.1904,0 1.3705,-0.70549 0.8297,-3.25 z m 172.7485,0.0667 c -1.5244,-1.52437 -2.4529,-0.59584 -1.6075,1.60742 0.4651,1.21205 0.9673,1.39942 1.7236,0.64313 0.7563,-0.75629 0.7224,-1.41198 -0.1161,-2.25055 z m -241.8098,-28.66598 c 0.2887,-0.46713 -0.5962,-1.8241 -1.9664,-3.0155 -2.1064,-1.83148 -2.582,-1.93005 -3.0778,-0.63795 -1.0695,2.78717 3.5235,6.11389 5.0442,3.65345 z m 13.8758,-9.17749 c -0.3631,-1.38879 0.1511,-2.19812 1.7795,-2.80051 l 2.2903,-0.84723 -2.351,-0.61481 c -1.5887,-0.41545 -2.7705,-0.0629 -3.6445,1.08727 -0.8073,1.06246 -1.3053,1.23235 -1.3252,0.45209 -0.045,-1.77269 -3.0318,-1.56107 -3.0318,0.21482 0,0.80565 0.9,1.94648 2,2.53518 1.1,0.5887 2,1.78463 2,2.65763 0,1.24538 0.3009,1.33757 1.3968,0.42805 0.7682,-0.63757 1.1669,-2.03819 0.8859,-3.11249 z m 37.7173,-25.97322 c 0,-0.55 -0.7875,-0.99311 -1.75,-0.98469 -1.4955,0.0131 -1.5319,0.15626 -0.25,0.98469 1.8872,1.21961 2,1.21961 2,0 z m 68.5023,-24.00367 c 0.3411,-0.55202 1.7177,-0.72824 3.059,-0.3916 1.7687,0.44391 2.4387,0.2022 2.4387,-0.87975 0,-0.82051 -1.125,-1.70689 -2.5,-1.96973 -1.375,-0.26285 -2.5,-0.0274 -2.5,0.52318 0,0.55059 -0.7875,1.59888 -1.75,2.32952 -0.9662,0.73343 -1.2166,1.34268 -0.559,1.36024 0.655,0.0175 1.4701,-0.41985 1.8113,-0.97186 z m -23.5023,-1.25579 c 0,-0.6927 -0.9,-1.82151 -2,-2.50847 -2.2492,-1.40463 -2.4716,-0.98184 -0.9648,1.83367 1.1663,2.17922 2.9648,2.58857 2.9648,0.6748 z m 186.2898,-5.95356 4.2102,-2.21302 -3.5,-0.58926 c -3.9692,-0.66826 -6,0.39377 -6,3.13774 0,2.36127 0.1813,2.34978 5.2898,-0.33546 z m 83.7102,-17.986979 c 0,-2.48889 -0.2667,-2.93334 -1.2,-2 -0.66,0.66 -1.8547,1.2 -2.655,1.2 -1.2004,0 -1.1654,-0.31998 0.2,-1.82875 2.2705,-2.50887 2.116,-2.91109 -1.4165,-3.68696 -3.6938,-0.8113 -3.5772,-0.90998 -4.4506,3.76571 -0.664,3.55478 -0.5645,3.75 1.9108,3.75 1.4362,0 2.6113,0.45 2.6113,1 0,0.55 1.125,1 2.5,1 2.1458,0 2.5,-0.45334 2.5,-3.2 z m -61.8803,-8.44425 c 1.2072,-1.45459 1.1212,-1.56699 -0.7458,-0.97443 -1.5876,0.5039 -2.523,0.04 -3.7763,-1.87267 -1.3546,-2.06737 -2.021,-2.35245 -3.566,-1.52557 -1.0451,0.5593 -2.9261,1.01692 -4.1801,1.01692 -1.9895,0 -2.0935,0.18052 -0.8158,1.41652 1.1719,1.13364 5.724,2.56036 11.0919,3.47638 0.3451,0.0589 1.2416,-0.63282 1.9921,-1.53715 z M 2055.5312,458.60654 c 0,-0.55 0.675,-1 1.5,-1 0.825,0 1.5,0.45 1.5,1 0,0.55 -0.675,1 -1.5,1 -0.825,0 -1.5,-0.45 -1.5,-1 z M 393.13498,402.0163 c -0.7331,-1.91057 0.1662,-3.67003 1.4654,-2.86705 1.1898,0.73531 1.2214,4.45729 0.038,4.45729 -0.4912,0 -1.1676,-0.71561 -1.5032,-1.59024 z m -326.2725,-1.7075 c -0.4572,-0.77566 -1.8437,-1.94182 -3.0812,-2.59146 -2.5616,-1.34473 -2.9874,-3.1108 -0.75,-3.1108 0.825,0 1.5,0.39375 1.5,0.875 0,0.48125 1.3839,1.15177 3.0753,1.49005 2.1708,0.43417 2.9795,1.10826 2.75,2.29213 -0.4296,2.21473 -2.4488,2.81868 -3.4941,1.04508 z m -41.7784,-5.61685 c -0.322,-0.52097 -0.1592,-1.21065 0.3618,-1.53262 0.521,-0.32198 1.2107,-0.15917 1.5326,0.3618 0.322,0.52097 0.1592,1.21065 -0.3618,1.53262 -0.5209,0.32198 -1.2106,0.15917 -1.5326,-0.3618 z m 1433.44712,-4.51209 c 0,-1.93548 0.513,-2.57332 2.0696,-2.57332 1.5718,0 1.9927,0.53864 1.75,2.23978 -0.4742,3.32375 -3.8196,3.61588 -3.8196,0.33354 z m 344.6939,-1.2128 c -0.9333,-0.93324 0.1945,-2.36052 1.8651,-2.36052 0.7926,0 1.441,0.675 1.441,1.5 0,1.50623 -2.111,2.05568 -3.3061,0.86052 z M 28.97748,387.51941 c -1.0306,-1.66742 1.2872,-3.57951 2.6667,-2.2 1.1539,1.15392 0.4317,3.28713 -1.1129,3.28713 -0.4851,0 -1.1843,-0.48921 -1.5538,-1.08713 z m 21.5538,-15.91287 c 0,-0.55 0.45,-1 1,-1 0.55,0 1,0.45 1,1 0,0.55 -0.45,1 -1,1 -0.55,0 -1,-0.45 -1,-1 z m 1698.99992,-69 c 0,-0.55 0.9,-1 2,-1 1.1,0 2,0.45 2,1 0,0.55 -0.9,1 -2,1 -1.1,0 -2,-0.45 -2,-1 z m -23.1304,-0.46371 c -1.1984,-1.19841 0.502,-7.66477 2.2634,-8.60746 2.0978,-1.12269 3.8897,-0.47633 3.8264,1.38019 -0.051,1.48193 -5.4395,7.8775 -6.0898,7.22727 z m -104.0749,-31.48199 c -0.4582,-3.1215 0.5534,-4.19541 1.5372,-1.63186 0.3002,0.78234 1.5858,1.56984 2.857,1.75 3.3805,0.47912 2.8218,2.27789 -0.8174,2.63186 -2.8099,0.2733 -3.1742,-0.007 -3.5768,-2.75 z m 2.2053,-4.58948 c 0,-2.79606 3.1496,-6.46482 5.5499,-6.46482 3.0386,0 7.4501,1.70197 7.4501,2.87428 0,1.37999 -7.6956,5.12572 -10.5308,5.12572 -1.5533,0 -2.4692,-0.56943 -2.4692,-1.53518 z m -23,-0.46482 c 0,-0.55 0.7016,-1 1.559,-1 0.8575,0 1.2809,0.45 0.941,1 -0.3399,0.55 -1.0415,1 -1.559,1 -0.5176,0 -0.941,-0.45 -0.941,-1 z m 11.5427,-15.9309 c -0.7395,-1.1966 1.1416,-2.38223 2.4736,-1.55902 1.1184,0.69118 0.3842,2.48992 -1.0163,2.48992 -0.4851,0 -1.1409,-0.41891 -1.4573,-0.9309 z m 1170.9701,-2.04843 c -0.3329,-0.53864 -0.1004,-1.92269 0.5166,-3.07568 0.9712,-1.81459 0.8636,-2.05258 -0.8004,-1.77067 -1.0574,0.17912 -1.8789,-0.12432 -1.8257,-0.67432 0.053,-0.55 0.4816,-0.87171 0.952,-0.71491 0.4704,0.15679 1.4754,-0.22962 2.2334,-0.85869 1.0907,-0.90519 1.5767,-0.62148 2.3301,1.36004 0.5236,1.37709 1.5435,2.70282 2.2666,2.94606 1.0741,0.36135 1.0635,0.74642 -0.058,2.10488 -1.5127,1.83247 -4.6673,2.21637 -5.6148,0.68329 z m -1076.5128,-9.02067 c 0,-0.55 0.45,-1 1,-1 0.55,0 1,0.45 1,1 0,0.55 -0.45,1 -1,1 -0.55,0 -1,-0.45 -1,-1 z m -290,-14.91979 c 0,-3.97388 0.5963,-8.38523 1.3354,-9.87987 0.7345,-1.48519 1.8783,-5.2275 2.5417,-8.31625 1.9734,-9.18693 1.672,-9.03043 17.96,-9.32774 10.6518,-0.19444 14.4097,0.0583 14.9462,1.00519 0.3942,0.69572 2.0667,1.41648 3.7167,1.6017 2.773,0.31127 2.9752,0.60164 2.6728,3.83676 -0.18,1.925 -0.9675,4.49667 -1.75,5.71482 -0.7825,1.21815 -1.4228,3.26565 -1.4228,4.55 0,1.28435 -0.5503,2.88551 -1.2229,3.55813 -0.6727,0.67262 -1.1096,2.67512 -0.971,4.45 0.1706,2.18324 -0.5157,4.17286 -2.1217,6.15114 l -2.3738,2.92409 -16.6553,0.45578 -16.6553,0.45578 0,-7.17953 z m 1359.5,-20.08021 c -0.914,-1.47893 0.3535,-3 2.5,-3 2.4474,0 3.6463,1.97656 1.8781,3.09649 -1.8411,1.16617 -3.622,1.12692 -4.3781,-0.0965 z m 137.5,-103.5 c -0.9887,-1.191289 -0.9906,-1.806459 -0.01,-2.988989 1.6204,-1.9525 3.0091,-1.00735 3.0091,2.048 0,2.773869 -1.1734,3.141919 -3,0.940989 z m 78,-8.499999 c 0,-0.55 0.675,-1 1.5,-1 0.825,0 1.5,0.45 1.5,1 0,0.55 -0.675,1 -1.5,1 -0.825,0 -1.5,-0.45 -1.5,-1 z m 33,-11.5 c 0,-0.825 0.675,-1.5 1.5,-1.5 0.825,0 1.5,0.675 1.5,1.5 0,0.825 -0.675,1.5 -1.5,1.5 -0.825,0 -1.5,-0.675 -1.5,-1.5 z m 7.3592,0.006 c 0.3525,-0.91838 0.6408,-1.85798 0.6408,-2.08799 0,-0.23002 0.933,-0.41821 2.0733,-0.41821 2.9453,0 2.0812,3.40417 -0.9743,3.83799 -1.877,0.26651 -2.245,-0.0152 -1.7398,-1.33179 z m 13.6408,0.0528 c 0,-0.24255 0.45,-0.7191 1,-1.05902 0.55,-0.33992 1,-0.14148 1,0.44098 0,0.58246 -0.45,1.05902 -1,1.05902 -0.55,0 -1,-0.19844 -1,-0.44098 z"
     id="path3052"
     style="fill:#000000" />
</svg>
