<?xml version="1.0" encoding="UTF-8" standalone="no"?>
<!-- Created with Inkscape (http://www.inkscape.org/) -->

<svg
   xmlns:dc="http://purl.org/dc/elements/1.1/"
   xmlns:cc="http://creativecommons.org/ns#"
   xmlns:rdf="http://www.w3.org/1999/02/22-rdf-syntax-ns#"
   xmlns:svg="http://www.w3.org/2000/svg"
   xmlns="http://www.w3.org/2000/svg"
   version="1.1"
   width="960"
   height="152.00002"
   id="svg3144">
  <defs
     id="defs3146" />
  <metadata
     id="metadata3149">
    <rdf:RDF>
      <cc:Work
         rdf:about="">
        <dc:format>image/svg+xml</dc:format>
        <dc:type
           rdf:resource="http://purl.org/dc/dcmitype/StillImage" />
        <dc:title></dc:title>
      </cc:Work>
    </rdf:RDF>
  </metadata>
  <path
     d="M 0,125.02211 0,98.04477 1.80475,97.7062 c 1.2875,-0.24153 1.9302,-0.14054 2.24235,0.35234 0.31599,0.49895 0.4397,0.51726 0.44524,0.0659 0.005,-0.34375 0.23265,-0.625 0.50766,-0.625 0.27499,0 0.5,0.3375 0.5,0.75 0,1.03173 1.34109,0.9453 1.93964,-0.125 0.3785,-0.67678 1.26195,-0.90453 3.89985,-1.00533 1.87581,-0.0717 4.3105,-0.33023 5.41051,-0.57457 10.6591,-2.36765 11.4502,-2.49911 12.05009,-2.00244 0.34195,0.28313 1.15315,0.15458 2.1441,-0.33977 0.87675,-0.43737 1.93805,-0.6632 2.3585,-0.50185 0.42045,0.16134 1.7057,-0.13542 2.85605,-0.65947 2.51665,-1.14646 6.111296,-1.30076 20.341256,-0.87312 10.7866,0.32416 11.5517,0.3953 16.09345,1.4963 3.04525,0.73821 7.90655,4.24251 7.90655,5.69947 0,1.71415 3.1043,3.65473 6.25,3.90704 0.825,0.0662 2.2875,0.33036 3.25,0.58708 1.09095,0.29098 2.1572,0.28869 2.8312,-0.006 0.83785,-0.36643 1.3311,-0.24003 2.19155,0.56163 0.71801,0.6689 1.5728,0.96302 2.41886,0.83228 6.766254,-1.04563 9.943894,-1.32387 12.001804,-1.05088 1.77199,0.23507 2.5753,0.13465 2.9981,-0.37477 0.3176,-0.38274 1.6172,-0.98697 2.8879,-1.34275 2.07025,-0.57963 2.37625,-0.55681 2.9439,0.2195 0.55,0.75217 0.91975,0.79318 2.80509,0.31116 1.1944,-0.30536 2.73411,-0.76559 3.42161,-1.02273 0.6875,-0.25713 5.1875,-1.15836 10,-2.00272 10.20364,-1.79026 12.1318,-2.18186 14.5,-2.94496 1.97105,-0.63511 14.6348,-3.05047 17.84469,-3.40351 2.67606,-0.29433 12.20801,1.76123 13.15531,2.83693 0.51045,0.57964 4.07039,1.59888 6.32147,1.8099 1.27888,0.11988 2.57347,0.41834 2.87688,0.66324 0.49871,0.40255 1.7967,0.57465 4.50636,0.5975 0.52509,0.005 1.37735,0.23424 1.8939,0.51069 0.51656,0.27646 2.67443,0.83094 4.79529,1.23219 2.12085,0.40125 5.4311,1.48487 7.3561,2.40804 3.03657,1.45626 3.97448,1.67046 7.08348,1.61775 1.97092,-0.0334 3.73294,-0.21027 3.9156,-0.39301 0.51805,-0.51829 3.91839,0.0476 4.35752,0.72524 0.254,0.39192 0.52628,0.42984 0.7684,0.10702 0.20625,-0.275 2.175,-0.48731 4.375,-0.4718 2.2,0.0155 4.5625,-0.13589 5.25,-0.33643 0.6875,-0.20055 2.09375,-0.50469 3.125,-0.67586 1.12034,-0.18596 1.875,-0.59155 1.875,-1.0077 0,-0.40693 0.46769,-0.67123 1.125,-0.63575 2.63119,0.14202 4.35559,-0.17448 5.12106,-0.93995 0.69953,-0.69953 0.9944,-0.7228 2.04362,-0.16127 1.06172,0.56821 1.57711,0.51105 3.84323,-0.42623 1.4394,-0.59534 3.82953,-1.21655 5.3114,-1.38047 1.48187,-0.16393 3.16729,-0.47301 3.74538,-0.68686 0.5781,-0.21385 1.67772,-0.20911 2.44362,0.0106 0.76589,0.21966 1.89296,0.28185 2.50461,0.13822 0.61164,-0.14364 1.68984,-0.31599 2.39599,-0.383 0.70616,-0.067 1.5187,-0.26695 1.80564,-0.44429 0.91709,-0.56679 4.24144,-0.90397 10.77468,-1.09285 3.50033,-0.10119 6.57853,-0.31643 6.84045,-0.47831 0.26192,-0.16187 0.63003,-0.0455 0.81803,0.25874 0.20588,0.33312 0.99948,0.42968 1.99556,0.24282 0.90956,-0.17064 1.79095,-0.0882 1.95865,0.1831 0.18119,0.29318 0.75489,0.3253 1.41399,0.0792 0.61,-0.22779 1.60737,-0.22649 2.21639,0.003 0.62046,0.2337 1.22849,0.22097 1.38295,-0.029 0.15162,-0.24531 1.84421,-0.45098 3.76132,-0.45704 4.12,-0.013 6.99843,-0.48349 6.99843,-1.14388 0,-0.26062 0.21864,-0.33873 0.48587,-0.17357 0.26724,0.16516 1.01032,-0.0433 1.6513,-0.46332 1.69639,-1.11152 12.37903,-1.7351 30.36283,-1.77238 8.3875,-0.0174 18.76621,-0.12258 23.0638,-0.23377 4.29758,-0.11119 9.10222,-0.0273 10.67695,0.18638 1.57474,0.2137 3.79553,0.21805 4.93509,0.01 1.13956,-0.20838 2.37814,-0.20751 2.7524,0.002 0.37426,0.20945 1.70229,0.18992 2.95118,-0.0434 1.36164,-0.25438 2.49806,-0.23554 2.83857,0.0471 0.31233,0.25921 1.45979,0.35556 2.54993,0.21411 1.09015,-0.14144 2.43208,-0.24259 2.98208,-0.22478 6.00726,0.19453 6.62257,0.14378 7.82725,-0.64555 1.09721,-0.71892 2.46362,-0.82337 9.23031,-0.70553 7.79959,0.13583 7.98291,0.11459 10.19244,-1.1812 1.2375,-0.72573 3.15,-1.60464 4.25,-1.95311 1.1,-0.34848 2.7875,-1.14273 3.75,-1.76499 0.9625,-0.62227 2.5375,-1.25595 3.5,-1.40819 3.6546,-0.57802 4.76154,-1.00182 5.68584,-2.17688 0.7394,-0.94 1.04785,-1.06205 1.37595,-0.54446 0.31654,0.49936 0.42483,0.50996 0.43056,0.0421 0.004,-0.34375 0.35843,-0.625 0.78716,-0.625 0.42873,0 0.63019,0.24161 0.44768,0.53691 -0.20053,0.32447 0.0486,0.29932 0.62971,-0.0636 0.80321,-0.50162 1.30581,-0.38317 3.05232,0.71936 1.14993,0.72591 2.09078,1.54202 2.09078,1.81357 0,0.27156 0.3375,0.49373 0.75,0.49373 0.4125,0 0.75154,0.16875 0.75342,0.375 0.002,0.20625 0.8392,0.9375 1.86072,1.625 2.28339,1.53677 3.63586,2.8387 3.63586,3.5 0,0.275 0.29828,0.5 0.66284,0.5 0.91236,0 2.83716,2.13129 2.83716,3.14154 0,0.45489 0.28125,0.72052 0.625,0.59029 0.34375,-0.13023 1.07381,0.43484 1.62237,1.25572 1.10111,1.64775 1.50797,1.83309 8.00263,3.64537 4.4217,1.23384 7.26653,2.16032 8.75,2.84962 0.4125,0.19167 2.2125,0.396 4,0.45408 1.7875,0.0581 5.05,0.31453 7.25,0.5699 5.07735,0.58938 20.36425,0.25372 23,-0.50501 1.1,-0.31665 3.2375,-0.79436 4.75,-1.06158 1.5125,-0.26721 3.16815,-0.71766 3.6792,-1.00098 0.5111,-0.28333 2.9861,-0.93344 5.5,-1.44468 4.54845,-0.92499 8.28375,-2.05169 9.939,-2.99794 0.47755,-0.27298 1.21995,-0.49633 1.64985,-0.49633 0.4299,0 1.43265,-0.33667 2.2284,-0.74816 0.79575,-0.4115 1.56545,-0.55615 1.7105,-0.32147 0.14505,0.23469 1.4516,0.57252 2.9034,0.75074 4.47305,0.54911 7.95495,1.25185 8.56095,1.72782 0.31825,0.25 1.5052,0.59567 2.63755,0.76814 1.13235,0.17248 2.70735,0.65181 3.5,1.06518 0.79265,0.41338 1.81885,0.75298 2.28045,0.75467 0.4616,0.001 1.2341,0.39683 1.7167,0.87808 1.6931,1.68845 23.9724,0.70369 27.0559,-1.19589 1.44905,-0.8927 6.41715,-2.17911 8.41565,-2.17911 0.93875,0 1.93485,-0.40598 2.48345,-1.01216 0.5038,-0.55669 1.15745,-0.93075 1.4525,-0.83124 0.2951,0.0995 1.2746,-0.23251 2.1767,-0.73783 0.9021,-0.50532 2.2031,-0.91877 2.89105,-0.91877 0.688,0 2.0755,-0.34455 3.0834,-0.76567 1.00785,-0.42112 2.1373,-0.64869 2.5099,-0.50573 0.37255,0.14297 0.5557,0.063 0.4069,-0.17767 -0.36025,-0.58291 0.65355,-1.33781 2.3364,-1.73971 0.7523,-0.17967 4.1273,-0.33317 7.5,-0.3411 3.37271,-0.008 7.00835,-0.24687 8.07925,-0.53096 1.4551,-0.38601 3.03445,-0.32613 6.25,0.23697 2.3666,0.41443 5.82385,0.89998 7.6828,1.07901 3.14395,0.30278 3.48696,0.23543 4.91335,-0.96482 0.8434,-0.70967 1.9356,-1.29032 2.42705,-1.29032 0.4915,0 3.00551,-0.80876 5.58665,-1.79726 2.58121,-0.98849 6.04305,-2.12365 7.69306,-2.52258 1.64999,-0.39893 4.0125,-1.19276 5.25,-1.76406 1.2375,-0.5713 2.3625,-1.04097 2.5,-1.0437 0.8313,-0.0165 4.26635,-1.49432 4.55354,-1.95903 0.426,-0.68933 2.96191,-1.58529 8.2957,-2.93098 2.2546,-0.56882 5.1796,-1.61331 6.5,-2.32109 4.24625,-2.27614 8.78416,-3.76609 13.65076,-4.48205 9.3234,-1.37162 11.29205,-1.81833 14.5,-3.29021 5.12279,-2.35047 5.56099,-2.48264 8.99999,-2.71452 1.7875,-0.12052 3.73235,-0.30235 4.32185,-0.40407 1.44975,-0.25016 4.5921,1.96271 4.97965,3.50667 0.54095,2.15534 3.6507,2.87168 4.36665,1.00588 0.1433,-0.37342 1.41705,-1.06308 2.8306,-1.53258 3.03125,-1.00682 6.386,-0.69341 8.8667,0.82835 0.8885,0.54505 2.351,0.97306 3.25,0.95114 5.3152,-0.12958 9.1237,-0.50765 10.38765,-1.03118 1.1785,-0.48816 1.9039,-0.4439 3.96945,0.24216 1.3901,0.46171 2.52745,1.05004 2.52745,1.30739 0,0.25734 0.84375,0.83968 1.875,1.29407 1.03125,0.45439 2.7898,1.23825 3.90785,1.74191 1.1181,0.50366 2.39855,0.91574 2.8455,0.91574 0.44695,0 0.9517,0.225 1.12165,0.5 0.50365,0.8149 2.25,0.57934 2.25,-0.30349 0,-0.52726 0.2719,-0.69916 0.7909,-0.5 0.435,0.16692 0.885,0.30349 1,0.30349 0.115,0 0.2091,0.31633 0.2091,0.70296 0,1.11834 2.4298,-0.23663 2.6055,-1.45296 0.084,-0.58075 0.5935,-1.06401 1.21545,-1.15269 0.7862,-0.11209 1.00335,-0.41122 0.8167,-1.125 -0.3137,-1.19957 0.6896,-1.28364 1.92935,-0.16167 1.10895,1.00357 2.30225,0.59831 2.9048,-0.98647 0.2543,-0.66879 1.13765,-1.43879 1.9925,-1.7368 1.14215,-0.39816 1.5357,-0.84457 1.5357,-1.74202 0,-1.0194 0.19515,-1.16937 1.2574,-0.96631 0.69155,0.1322 1.37985,0.4385 1.5295,0.68066 0.4473,0.72377 1.2131,0.49872 1.2131,-0.35651 0,-0.43824 0.45,-0.91448 1,-1.05831 0.55,-0.14383 1,-0.54157 1,-0.88386 0,-0.39422 0.4582,-0.53476 1.25,-0.38339 0.6875,0.13142 1.25,0.0159 1.25,-0.25684 0,-0.27268 0.69295,-0.63438 1.5399,-0.80377 0.84695,-0.16939 2.30765,-0.67229 3.24595,-1.11755 0.93835,-0.44526 2.0511,-0.67716 2.4728,-0.51533 0.45555,0.17481 1.18555,-0.18739 1.79855,-0.89243 0.5675,-0.65267 2.0754,-1.47885 3.35085,-1.83596 1.2755,-0.35712 2.8129,-1.18215 3.41645,-1.83341 0.6036,-0.65126 1.39625,-1.13412 1.76145,-1.07304 1.20055,0.20081 3.32215,-0.97213 3.65495,-2.02066 0.17955,-0.56575 0.7338,-1.02864 1.23155,-1.02864 0.4978,0 1.1852,-0.3375 1.52755,-0.75 0.34235,-0.4125 1.2262,-0.75 1.9641,-0.75 0.7379,0 2.10405,-0.5625 3.0359,-1.25 0.93185,-0.6875 2.1855,-1.25 2.7859,-1.25 0.6004,0 1.37175,-0.3375 1.7141,-0.75 0.34235,-0.4125 0.9065,-0.75 1.2537,-0.75 0.3472,0 0.9761,-0.52625 1.39755,-1.16945 0.59175,-0.90312 1.1042,-1.11986 2.2501,-0.95168 1.758,0.25802 3.59865,-0.60239 3.59865,-1.68217 0,-1.11002 1.39895,-2.34246 2.27665,-2.00566 0.4182,0.16048 1.1264,-0.15032 1.59825,-0.70144 0.46605,-0.54428 1.3913,-0.9896 2.0561,-0.9896 0.6648,0 1.49045,-0.38525 1.83475,-0.85612 0.5139,-0.70276 0.76255,-0.74283 1.3881,-0.22368 0.6385,0.5299 0.82495,0.44577 1.1499,-0.51887 0.21335,-0.63323 0.33065,-1.54508 0.26065,-2.02633 -0.13395,-0.92113 0.67305,-1.2043 1.1648,-0.40869 0.43465,0.70334 3.3248,0.47476 3.61675,-0.28604 0.3987,-1.03897 3.30775,-3.98586 4.27905,-4.33466 0.48125,-0.17282 0.875,-0.63149 0.875,-1.01925 0,-0.78876 1.82305,-1.62483 4.59035,-2.10519 1.0122,-0.17571 1.9547,-0.61738 2.09445,-0.9815 0.14955,-0.38973 0.67795,-0.55119 1.2846,-0.39254 0.56685,0.14823 1.0306,0.0442 1.0306,-0.23131 0,-0.82957 2.42665,-2.15544 4.63495,-2.53242 1.632,-0.27861 2.13515,-0.60959 2.3573,-1.55067 0.28235,-1.19595 1.25465,-1.52773 4.478,-1.52804 0.67115,-7e-5 1.79615,-0.52058 2.5,-1.15669 2.08435,-1.88373 7.46358,-4.382 10.99123,-5.10465 3.6232,-0.74222 6.5541,-1.73169 7.60545,-2.56758 1.5979,-1.2704 3.24405,-1.78589 6.32125,-1.9795 1.79895,-0.11319 3.56275,-0.44803 3.91945,-0.74408 0.35675,-0.29605 0.9086,-0.37758 1.2264,-0.18117 0.3178,0.1964 0.7214,0.15952 0.8969,-0.082 0.60345,-0.83031 2.5575,-1.68906 3.84335,-1.68906 1.4577,0 6.22924,-1.42257 6.95075,-2.07227 C 935.98629,4.19248 937.25598,4 938.54654,4 c 1.692,0 2.43235,-0.22366 2.6542,-0.80187 0.1714,-0.44658 0.62978,-0.6783 1.03458,-0.52296 0.3998,0.15341 2.3428,-0.058 4.3178,-0.4698 1.975,-0.41181 4.8368,-0.80516 6.3596,-0.87412 1.6158,-0.0732 2.8524,-0.37644 2.9697,-0.72832 C 955.99362,0.26919 956.95772,0 958.04172,0 l 1.9583,0 0,76 0,76.00001 -480.00001,0 -480.00001,0 0,-26.97735 z m 467.25001,-23.02265 c 0.16996,-0.275 -0.0418,-0.5 -0.47049,-0.5 -0.42873,0 -0.77951,0.225 -0.77951,0.5 0,0.275 0.21172,0.5 0.47049,0.5 0.25877,0 0.60955,-0.225 0.77951,-0.5 z m 247.25,-26.55963 c 0,-0.254 0.5625,-0.7181 1.25,-1.03135 1.5026,-0.68463 1.6311,-1.40902 0.25,-1.40902 -0.55,0 -1,0.225 -1,0.5 0,0.28571 -1.5,0.5 -3.5,0.5 -2.02725,0 -3.5,0.21288 -3.5,0.50591 0,0.31019 -0.7737,0.38218 -2,0.18609 -2.1196,-0.33894 -2.9007,0.49607 -0.875,0.93541 0.61875,0.1342 1.51875,0.4095 2,0.61178 0.6229,0.26184 0.875,0.13631 0.875,-0.4357 0,-0.44192 0.3375,-0.80349 0.75,-0.80349 0.4125,0 0.75,0.17164 0.75,0.38143 0,0.20979 0.50625,0.61435 1.125,0.89902 1.20755,0.55555 3.875,-0.0227 3.875,-0.84008 z m 8,-2.44037 c 0,-0.275 -0.225,-0.5 -0.5,-0.5 -0.275,0 -0.5,0.225 -0.5,0.5 0,0.275 0.225,0.5 0.5,0.5 0.275,0 0.5,-0.225 0.5,-0.5 z m -5.5,-2.5 c 0.5707,-0.36881 0.36855,-0.48652 -0.8455,-0.49235 -0.8775,-0.004 -1.73455,0.21735 -1.9045,0.49235 -0.39605,0.64084 1.75835,0.64084 2.75,0 z"
     id="path3105"
     style="fill:#050505" />
</svg>
