<?xml version="1.0" encoding="UTF-8" standalone="no"?>
<!-- Created with Inkscape (http://www.inkscape.org/) -->

<svg
   xmlns:dc="http://purl.org/dc/elements/1.1/"
   xmlns:cc="http://creativecommons.org/ns#"
   xmlns:rdf="http://www.w3.org/1999/02/22-rdf-syntax-ns#"
   xmlns:svg="http://www.w3.org/2000/svg"
   xmlns="http://www.w3.org/2000/svg"
   xmlns:sodipodi="http://sodipodi.sourceforge.net/DTD/sodipodi-0.dtd"
   xmlns:inkscape="http://www.inkscape.org/namespaces/inkscape"
   version="1.1"
   width="2725.9102"
   height="613"
   id="svg2995"
   inkscape:version="0.48.4 r9939"
   sodipodi:docname="yr_harhabait.svg">
  <sodipodi:namedview
     pagecolor="#ffffff"
     bordercolor="#666666"
     borderopacity="1"
     objecttolerance="10"
     gridtolerance="10"
     guidetolerance="10"
     inkscape:pageopacity="0"
     inkscape:pageshadow="2"
     inkscape:window-width="1366"
     inkscape:window-height="706"
     id="namedview3053"
     showgrid="false"
     fit-margin-top="0"
     fit-margin-left="0"
     fit-margin-right="0"
     fit-margin-bottom="0"
     inkscape:zoom="0.1425711"
     inkscape:cx="1003.0094"
     inkscape:cy="160.74996"
     inkscape:window-x="-8"
     inkscape:window-y="-8"
     inkscape:window-maximized="1"
     inkscape:current-layer="svg2995" />
  <metadata
     id="metadata3001">
    <rdf:RDF>
      <cc:Work
         rdf:about="">
        <dc:format>image/svg+xml</dc:format>
        <dc:type
           rdf:resource="http://purl.org/dc/dcmitype/StillImage" />
        <dc:title />
      </cc:Work>
    </rdf:RDF>
  </metadata>
  <defs
     id="defs2999" />
  <path
     style="fill:#000000"
     d="m 1992.6003,2.7e-5 1.0864,5.08247 c 0.5976,2.80298 1.8783,13.48831 2.8321,23.74405 l 1.7458,18.66158 -2.3665,2.59943 -2.4055,2.63823 2.6382,1.86228 2.6383,1.82348 0.9311,6.82835 c 0.5179,3.76492 1.1109,8.36629 1.3191,10.203738 0.2082,1.837448 0.8429,4.882107 1.3967,6.750759 l 1.0088,3.37538 -5.8972,-5.703228 c -8.8495,-8.607409 -16.6247,-15.356459 -17.7693,-15.363799 l -1.0087,0 0,2.05627 0,2.01747 1.2026,0 c 0.6603,0 6.0572,4.75876 12.0274,10.552907 l 10.8633,10.514114 2.289,4.461709 2.2502,4.461709 1.4355,7.759494 c 0.798,4.27929 1.7214,9.01919 2.0174,10.51411 0.2961,1.49493 1.0797,6.0927 1.746,10.20374 0.6664,4.11103 1.7794,9.28046 2.483,11.52285 l 1.2804,4.07373 -1.3967,2.25025 -1.358,2.25026 2.0951,2.09506 2.1338,2.13386 0.7759,24.17082 c 0.4406,13.30655 0.874,26.27465 0.9312,28.82652 0.057,2.55187 0.4241,5.14877 0.8148,5.78082 l 0.6983,1.16393 -2.7547,3.53057 -2.7934,3.53057 2.0175,1.97867 1.9787,2.01747 0,4.30652 c -0.013,2.37585 -0.6127,9.81084 -1.3191,16.52772 l -1.2804,12.2212 -2.0949,1.5131 -2.0952,1.5519 0,1.93987 c 0,1.07616 0.7197,2.66003 1.5908,3.53057 l 1.5907,1.5907 -1.5907,12.88076 c -0.8705,7.08364 -1.5908,15.07066 -1.5908,17.73045 l 0,4.81088 -1.1251,0 c -0.6171,0 -2.3801,-1.34441 -3.9184,-3.0262 l -2.7935,-3.065 -1.3967,-8.84582 c -0.7676,-4.8585 -2.3811,-13.11899 -3.6082,-18.35121 -1.227,-5.23223 -2.5815,-11.66135 -2.9875,-14.27747 -0.4059,-2.61611 -1.512,-6.56464 -2.483,-8.80702 -0.971,-2.24239 -2.2028,-6.22971 -2.7157,-8.84583 -1.3184,-6.72134 -6.0976,-20.52421 -8.3415,-24.09322 -1.0408,-1.6555 -1.8623,-3.60474 -1.8623,-4.34532 0,-0.74055 -1.5137,-3.52152 -3.3366,-6.2076 -1.8228,-2.68607 -4.0257,-7.16593 -4.9272,-9.93215 -0.9017,-2.76621 -2.103,-5.3295 -2.6382,-5.70323 -0.5351,-0.37373 -3.2573,-4.86278 -6.0524,-9.97094 l -5.0826,-9.2726 0.6595,-3.53057 0.6985,-3.53057 -1.7071,-1.70709 -1.7071,-1.70709 -1.4744,1.47431 -1.4742,1.4355 -0.8924,-3.56936 -0.9311,-3.60817 -1.8623,0 -1.901,0 0,1.31912 c 0,0.72223 2.4417,5.1123 5.4316,9.73816 l 5.4317,8.38025 0,3.02621 0,3.0262 2.0175,1.70709 c 1.1166,0.92656 3.8829,4.87946 6.1298,8.80702 l 4.0738,7.13874 0,3.37538 0,3.33658 2.7158,2.48304 c 1.495,1.35289 2.7547,3.13885 2.7547,3.95734 0.01,0.81847 1.498,4.52655 3.3365,8.26386 l 3.3367,6.78956 0.078,2.9874 0.039,2.98741 1.3579,0.81474 1.3579,0.85355 0,3.72455 0,3.72456 1.358,1.35791 c 0.741,0.74089 1.9193,4.07754 2.6383,7.41032 6.669,30.91322 8.1377,38.4968 7.6043,39.03026 -0.3398,0.3398 -0.991,-0.94482 -1.4745,-2.87102 -0.4834,-1.9262 -1.7663,-4.23663 -2.8321,-5.12126 l -1.9399,-1.5907 -0.8148,0.81475 -0.8147,0.81475 2.4054,5.16006 c 1.3393,2.82971 3.5754,6.68692 4.9661,8.57424 l 2.5607,3.41418 0.6983,10.78569 c 0.3854,5.92642 0.9249,11.01234 1.2027,11.29007 0.2777,0.27771 -0.028,2.29996 -0.6595,4.5005 l -1.1251,3.99614 1.2415,-0.77595 1.2803,-0.77595 0,1.20272 c 0,0.67147 -2.0756,3.11902 -4.617,5.43165 l -4.6168,4.19013 -0.7371,-0.69836 -0.6985,-0.73715 0.6596,2.59943 0.6984,2.63823 -2.3666,1.93987 -2.3667,1.93987 1.6295,-3.0262 1.6295,-3.0262 -2.4442,0.89234 -2.4056,0.89234 2.0564,-2.52183 2.0174,-2.48304 -2.0174,0.69835 -2.0564,0.73716 -2.2889,-1.20273 -2.289,-1.16392 -0.6597,1.08633 -0.6983,1.08633 -3.8022,-0.23279 c -2.105,-0.12589 -4.2347,-0.29163 -4.6945,-0.38797 -0.9205,-0.19301 -8.0483,-16.99489 -10.5917,-24.94677 l -1.5906,-5.00488 -1.2415,-18.07962 c -0.6856,-9.93975 -1.2932,-18.27542 -1.3193,-18.50639 -0.026,-0.23099 -0.585,-0.0953 -1.2415,0.31038 l -1.1638,0.73715 0.5431,18.54519 0.5433,18.54519 2.1338,6.98355 c 1.1774,3.83238 3.2748,10.58405 4.6945,15.01462 l 2.5994,8.03107 -2.2503,2.48304 -2.2502,2.48304 1.5907,0 1.5519,0 0,2.05626 c 0,1.13133 0.6635,3.12465 1.4742,4.42292 l 1.4744,2.36664 5.7808,-0.46557 5.7808,-0.46557 2.2891,2.25026 2.2502,2.25025 0.1164,-1.08633 c 0.3133,-2.58205 2.3201,6.08439 2.4443,10.55291 l 0.1551,4.84968 -0.9698,0.96994 c -0.5264,0.52641 -1.0485,3.52454 -1.1641,6.67317 -0.1154,3.14861 -0.4444,9.08009 -0.7371,13.19114 l -0.5431,7.48791 -1.7847,1.39671 -1.746,1.3967 1.358,3.60817 1.358,3.56937 -2.0952,1.74588 -2.0562,1.70709 0.6208,4.15133 c 0.3606,2.28392 1.1294,5.53454 1.6683,7.21633 l 0.9699,3.065 -2.0562,0 -2.0563,0 -0.8149,2.17266 -0.8534,2.13386 1.0086,1.59069 c 0.5434,0.86688 1.0244,2.20116 1.0864,2.94861 0.063,0.74746 0.6331,2.42746 1.2415,3.76336 l 1.0863,2.44424 -2.0175,2.32784 -2.0174,2.32785 0.5044,5.43165 c 0.2916,2.98985 0.5988,6.84881 0.6596,8.57424 l 0.1164,3.14259 -2.0564,2.28905 c -1.1202,1.26442 -2.2577,3.47368 -2.5217,4.88849 l -0.4656,2.56063 -2.7158,1.5131 c -1.495,0.82757 -2.9657,1.61589 -3.259,1.78468 -0.2934,0.1688 0.2195,1.19758 1.1252,2.28905 l 1.6293,2.01747 -1.6293,3.0262 c -0.8985,1.67855 -2.4524,6.46846 -3.4531,10.63051 l -1.8234,7.56551 4.6168,4.07373 4.6557,4.07374 0.4267,2.13386 0.4269,2.09506 -3.4918,4.15133 -3.4918,4.15133 -3.5306,-7.6819 c -1.9335,-4.23451 -4.2204,-10.33954 -5.0824,-13.54032 l -1.5519,-5.81962 0.8535,-3.95734 0.8924,-3.95734 -2.677,0 -2.6771,0 -1.5519,-6.1688 -1.5519,-6.20759 0.8148,-1.31912 0.8148,-1.28031 -2.7934,-4.50051 -2.7547,-4.50051 -2.1339,-9.195 -2.1338,-9.195 1.513,-1.86227 1.5519,-1.86228 -0.8923,-1.39671 c -0.4821,-0.78021 -1.6331,-1.43551 -2.5606,-1.43551 l -1.6684,0 -1.6293,-7.87588 c -0.8971,-4.34289 -1.6296,-10.17408 -1.6296,-12.95836 l 0,-5.08247 -1.9011,-2.9874 -1.901,-3.02621 -0.9311,-7.79829 -0.8924,-7.83708 -2.0951,0 -2.095,0 0.7759,-2.01747 0.776,-2.05627 -1.6295,-0.11639 -1.6683,-0.0776 1.7846,-0.73715 1.7459,-0.69835 -2.1726,-1.5907 -2.1727,-1.5907 -0.3879,-2.63822 -0.388,-2.59943 -1.3967,-0.46557 -1.4356,-0.46557 -0.7371,2.79342 -0.6983,2.79341 0.6595,4.38412 0.6984,4.42291 1.2027,0.42677 c 3.0771,1.12838 7.8221,15.71563 12.1824,37.59475 0.8938,4.48477 2.453,10.48815 3.4918,13.30753 2.0631,5.5991 4.6123,15.84788 5.3928,21.64899 0.2725,2.02418 1.7458,5.98378 3.2589,8.80702 l 2.7547,5.12127 0,3.60816 0,3.60817 3.5307,7.6819 3.5305,7.68189 -1.7071,2.01747 -1.6683,2.05627 2.7546,2.9874 c 2.8765,3.14709 6.1849,9.22613 7.6432,13.96709 l 0.8534,2.75462 -3.065,0.27158 -3.0262,0.27159 -3.841,-1.5519 -3.802,-1.5131 1.2803,-1.28032 1.2802,-1.28032 -0.6982,-2.71582 -0.6985,-2.67702 -3.259,0.77594 -3.259,0.81475 -2.6769,-1.4355 -2.677,-1.43551 -0.1165,-2.32785 -0.1164,-2.32785 -0.6595,1.70709 -0.6984,1.70709 -1.8234,0 -1.8235,0 1.2415,-4.42291 c 0.6953,-2.42432 1.2803,-4.52614 1.2803,-4.69449 0,-0.16834 -0.9761,0.0452 -2.1727,0.50436 l -2.1727,0.85355 -1.0474,-1.66829 -1.0475,-1.70709 -4.9273,1.39671 -4.9661,1.35791 -2.1727,-2.94861 -2.1726,-2.94861 -0.6595,1.70709 c -0.3586,0.93433 -1.2161,1.66829 -1.9012,1.66829 l -1.2415,0 0,-4.73329 0,-4.77209 -1.4356,0 -1.4741,0 0.2715,3.065 c 0.1378,1.68179 0.1608,3.83776 0.078,4.77209 l -0.1552,1.66829 -3.2977,0 -3.3367,0 -0.8147,1.35791 c -0.462,0.74746 -1.4915,1.35791 -2.2503,1.35791 l -1.3578,0 0.3491,-6.47917 0.3491,-6.47918 -1.513,-2.67703 -1.5131,-2.67702 -0.8924,0.93114 -0.9311,0.89234 1.3967,4.5393 1.3967,4.50051 0,5.78082 c 0,3.1767 -0.2452,5.78083 -0.5432,5.78083 -0.2982,0 -1.2468,-2.60413 -2.1338,-5.78083 l -1.6296,-5.78082 0.2717,-4.34532 0.2328,-4.30652 -1.9787,-1.12512 -1.94,-1.08633 -4.1901,-12.26 c -2.305,-6.72716 -4.2036,-13.11748 -4.1901,-14.23867 0.018,-2.6504 -5.8128,-14.82957 -7.1387,-14.89823 l -1.0475,-0.0776 0,2.09506 c 0,1.15097 1.2087,4.45507 2.6771,7.33272 l 2.6769,5.23766 0.5043,4.5781 c 0.2803,2.51123 1.4565,6.37066 2.5995,8.61304 1.8693,3.66687 9.2338,25.29509 9.2338,27.11943 0,0.40789 -1.0397,0.73715 -2.289,0.73715 l -2.2503,0 -2.4831,2.25025 -2.4441,2.21146 -1.5131,-3.91855 -1.5519,-3.91854 -0.194,-5.78082 -0.1941,-5.74203 -0.9311,-0.0388 -0.9312,0 0.2329,-6.0524 0.2716,-6.05241 -2.5607,-0.65955 -2.5217,-0.65956 0.5819,-4.15133 0.6207,-4.15133 -1.2804,0 -1.2802,0 0.6595,-3.45297 0.6596,-3.41418 -1.3191,-0.81475 c -0.732,-0.45234 -2.4269,-3.36013 -3.7633,-6.44038 l -2.4443,-5.58683 -0.9311,-7.02234 -0.9312,-6.98355 2.3666,-1.31911 2.3667,-1.31912 -0.8923,-2.28905 -0.8536,-2.28905 3.5693,-3.33658 3.6082,-3.29778 -1.5907,0 -1.5519,0 0,-2.71583 0,-2.75462 -5.0824,-0.0388 -5.0824,-0.0776 4.7331,-2.40544 4.7722,-2.40545 -0.388,-1.70708 -0.388,-1.74589 2.7935,-0.73715 2.7934,-0.69836 -2.4055,-1.82348 -2.4054,-1.86228 1.7071,-0.0388 1.6683,-0.0388 0,-2.09506 0,-2.13386 -1.3579,0.85354 c -1.8341,1.13353 -1.7036,0.28996 0.6207,-4.19013 l 1.9788,-3.80215 -0.6985,-1.08633 -0.6983,-1.12512 1.7846,-0.0388 1.7848,0 -1.9787,-1.24152 -1.9787,-1.28032 -1.1638,0.73715 -1.1252,0.69836 1.3967,1.70709 1.4355,1.70709 -0.8924,0.89234 c -0.4919,0.49181 -2.0438,0.89234 -3.4141,0.89234 l -2.4831,0 0.039,-1.00873 c 0.024,-0.56061 0.9589,-2.23485 2.0563,-3.68576 1.0974,-1.45092 1.9786,-3.18798 1.9786,-3.87975 l 0,-1.24152 -2.6382,0.69835 -2.677,0.65956 -0.5043,-1.5131 -0.5044,-1.5519 -3.8798,0.34918 -3.9186,0.31038 -1.2026,1.70709 -1.2027,1.66829 0.6208,-2.94861 0.6594,-2.94861 -3.4529,-0.85354 -3.4141,-0.85355 1.5519,-1.55189 1.5519,-1.5519 0,-5.85842 0,-5.85842 1.5906,0 1.5906,0 -0.8923,0.89234 -0.8922,0.89235 2.289,1.70708 2.3278,1.66829 2.2503,-4.96607 c 2.5626,-5.68338 2.2961,-6.80377 -0.9699,-4.11253 l -2.3279,1.90107 0.8535,-4.07373 0.8536,-4.07374 -0.7759,1.82349 -0.8148,1.86227 -1.164,-1.86227 -1.1639,-1.82349 -0.039,1.6683 0,1.70708 -1.3579,0 -1.3578,0 0.3491,-1.70708 c 0.1869,-0.93433 0.9207,-2.12788 1.6683,-2.67703 l 1.3579,-1.00873 -2.3667,0 -2.3666,-0.0388 0,-3.1038 0,-3.065 -2.7547,-2.36664 -2.7157,-2.32785 -3.1815,0 -3.1813,0 -2.3667,2.63823 -2.3667,2.59943 -2.1338,-0.81475 -2.1727,-0.81475 0.9312,2.36665 0.8923,2.36664 -1.5131,2.83222 -1.513,2.83221 -1.2804,-2.25025 -1.2415,-2.25025 -3.259,0 -3.259,0 -0.8148,1.31911 -0.8147,1.35791 1.5519,2.90981 1.5519,2.90981 -1.4354,-0.89234 -1.3967,-0.89234 -1.5132,2.83221 -1.5132,2.83222 -2.9873,-0.42677 -2.9873,-0.38798 0.1939,2.36665 0.1939,2.36664 -1.2027,0 c -0.6644,0 -1.2026,0.68274 -1.2026,1.47431 l 0,1.4355 1.3578,-0.85354 1.3579,-0.85354 0,1.12512 c 0,0.60912 -1.8313,1.91724 -4.0737,2.90981 l -4.0737,1.78469 0,2.01746 0,2.01747 -1.2027,-0.73715 -1.2028,-0.77595 -0.6983,3.56937 -0.6596,3.53057 2.5219,0.65956 2.4831,0.65955 -2.0952,2.09507 -2.0562,2.09506 1.5906,1.00873 1.6296,1.00874 -0.582,1.74588 -0.582,1.78469 2.3667,2.36664 2.3667,2.36665 -0.6985,2.63823 -0.6982,2.63822 3.5305,0.89235 3.5694,0.89234 -2.4055,3.25898 c -1.3284,1.79821 -3.8624,3.95237 -5.6256,4.77209 l -3.2202,1.47431 0.6983,2.71582 0.6984,2.67702 -1.2415,0 c -0.6775,0 -1.2028,-0.61044 -1.2028,-1.35791 l 0,-1.35791 -1.3967,0 -1.4355,0 0.3104,4.42291 0.3104,4.42291 -2.3666,4.7333 -2.3278,4.69449 2.289,1.66829 c 1.257,0.91928 2.9349,1.97798 3.7634,2.32785 l 1.513,0.62076 -3.647,3.33658 c -2.0051,1.84044 -4.4469,3.67789 -5.4316,4.07373 l -1.7847,0.73716 2.0563,1.59069 2.0175,1.5519 -2.9486,-0.62076 -2.9875,-0.65955 -0.7759,2.05626 -0.776,2.01747 2.0564,-0.77595 2.0562,-0.81475 0,3.22019 0,3.22019 1.8235,0.69836 1.8623,0.69835 1.513,5.89722 1.5131,5.89721 -1.8234,1.35791 c -0.9928,0.75034 -2.2476,2.78045 -2.7935,4.50051 l -0.97,3.14259 -1.5906,-0.54316 -1.5906,-0.50437 -0.4269,-5.08247 -0.4268,-5.08246 1.7848,-2.17266 1.7846,-2.17266 -3.7246,0.93114 -3.7633,0.93114 0,-2.05627 0,-2.09506 -1.358,0 -1.3578,0 -0.039,1.70709 c -0.025,0.93433 -1.1963,3.0903 -2.5993,4.77209 l -2.5219,3.065 -5.2376,0.0388 -5.1989,0.0388 2.5606,1.93988 c 1.414,1.07046 3.1821,2.15993 3.9187,2.40544 l 1.3189,0.42677 -5.4703,5.54804 -5.4704,5.50924 -8.4191,-0.46557 c -4.6197,-0.26164 -8.9907,-0.85724 -9.7381,-1.31911 l -1.358,-0.85355 -1.901,2.71582 -1.8623,2.67703 -2.7934,0.73715 -2.7547,0.73715 0,-0.81474 c 0,-0.44244 1.3307,-2.23522 2.9486,-3.95735 l 2.9486,-3.10379 -2.483,-2.75462 -2.4443,-2.71583 -3.8021,0 -3.8022,0 -1.0475,-1.70708 -1.0475,-1.70709 -0.1552,-10.28133 -0.1551,-10.28133 -1.0089,-1.6295 -0.9699,-1.59069 -0.3104,-10.7081 -0.3103,-10.7469 -1.5519,-1.82348 c -0.841,-1.01326 -1.6259,-2.47274 -1.7847,-3.22019 -0.1587,-0.74746 -0.6308,-2.15785 -1.0088,-3.1426 l -0.6595,-1.78468 1.6683,-3.1426 1.7071,-3.18139 -2.871,-2.87101 -2.8711,-2.87101 0,-3.29779 0,-3.33658 1.3579,-0.81475 1.358,-0.85354 0,-2.56063 0,-2.52184 -2.7159,-0.85354 -2.7158,-0.89235 -0.2716,-5.00487 c -0.1393,-2.7526 -0.3603,-7.12205 -0.5043,-9.73816 l -0.2717,-4.77209 1.9012,-2.17266 1.9398,-2.17266 -0.8535,-2.25025 -0.8923,-2.25026 -1.7848,0 -1.8234,0 -0.9312,-6.32398 -0.97,-6.32399 1.2804,-2.17266 1.2804,-2.13386 -0.5044,-2.40544 -0.5045,-2.36665 -1.8234,0 -1.8234,0 -2.3278,-10.51411 c -1.2653,-5.79282 -2.8246,-11.93975 -3.4919,-13.65671 -0.6674,-1.71696 -1.2027,-4.87032 -1.2027,-6.98355 0,-2.11323 -0.8758,-6.29515 -1.9399,-9.31139 l -1.9398,-5.50924 0.7759,-0.77595 0.8148,-0.81474 -2.0563,-2.36665 c -1.118,-1.31263 -2.7804,-4.52263 -3.7246,-7.13873 -0.944,-2.61612 -2.8232,-6.88928 -4.1512,-9.50539 -1.3282,-2.61611 -4.0532,-9.98031 -6.0913,-16.33373 -2.0383,-6.35341 -4.8685,-14.00345 -6.2465,-16.99329 -1.3775,-2.98985 -5.2164,-12.85397 -8.5741,-21.92057 l -6.13,-16.48893 0.6983,-2.67702 0.6984,-2.67703 -2.4831,-0.69835 -2.483,-0.65956 -7.8758,-19.98069 -7.876,-20.0195 0.8147,-2.48304 0.776,-2.52183 -2.8709,-0.93114 -2.9099,-0.93114 -2.1339,-4.96608 c -1.1654,-2.73095 -2.2688,-6.79742 -2.4442,-9.03981 -0.3456,-4.41855 -5.6288,-19.59063 -7.5654,-21.68778 l -1.2028,-1.28032 -1.358,1.35791 -1.3579,1.35792 2.7546,5.35405 2.7547,5.39284 -0.8147,4.96608 -0.8148,4.92728 1.5519,0.96994 c 1.7893,1.10583 14.3717,27.24668 18.972,39.41822 1.6949,4.48477 4.1589,10.58927 5.4704,13.57912 1.3114,2.98984 2.8221,6.97717 3.3754,8.84582 0.5531,1.86865 2.7457,7.07688 4.8497,11.56165 2.104,4.48476 4.2322,9.97882 4.7333,12.2212 0.5012,2.24238 2.1164,6.70188 3.5693,9.93215 4.673,10.38893 10.6462,26.03323 11.9496,31.23196 0.6969,2.78001 3.4719,10.35934 6.1688,16.8769 l 4.8886,11.87203 2.2114,10.55291 c 1.1979,5.81554 2.1056,12.35966 2.0174,14.54905 l -0.1939,3.99614 1.5519,1.86228 1.5131,1.82348 1.1251,6.40158 c 0.6065,3.52052 2.0117,10.62943 3.1426,15.79057 l 2.0562,9.38899 -0.776,3.22019 -0.8147,3.18139 1.5132,1.82348 1.513,1.82348 0.8536,10.20374 0.8535,10.20373 -1.6295,1.00874 -1.6683,1.00873 2.8711,3.0262 2.8322,3.065 2.0562,9.85456 c 1.1336,5.43535 2.1584,10.30498 2.2504,10.7857 0.092,0.48071 -0.3004,1.88441 -0.8537,3.14259 l -1.0086,2.28905 3.5305,5.16007 3.4918,5.16006 0,3.1038 0,3.10379 -1.6295,2.63823 -1.6295,2.59943 2.2502,2.52184 2.2503,2.48303 1.5131,9.73817 1.5131,9.77696 -0.4656,3.76336 -0.4656,3.80215 -7.6043,-11.60045 c -4.1963,-6.39505 -8.9787,-14.29881 -10.6305,-17.53645 l -3.0262,-5.89722 0.6208,-3.22019 0.6208,-3.25898 -1.164,-0.73716 c -0.6471,-0.40001 -1.1639,-1.85553 -1.1639,-3.25898 l 0,-2.56064 4.3842,-0.42677 4.4228,-0.42677 0,-3.37538 0,-3.41418 -6.0912,-1.12512 c -3.3636,-0.62048 -7.5636,-1.39789 -9.3114,-1.74589 l -3.1814,-0.62076 1.8235,-2.21145 1.8235,-2.21146 -1.7071,-0.58196 -1.7071,-0.54317 -0.078,-16.56652 -0.078,-16.52772 -1.125,-6.0912 c -5.5147,-29.72096 -20.0362,-56.131 -46.4795,-84.46209 -17.5565,-18.8097 -47.458,-38.70299 -72.2408,-48.03127 -5.0751,-1.9102 -10.5782,-4.31285 -12.2212,-5.35405 l -2.9874,-1.90107 -5.5094,-0.85355 -5.5479,-0.89234 -2.3667,-3.99614 c -1.2994,-2.19964 -2.9418,-4.03494 -3.6469,-4.03494 -0.7053,0 -1.2804,-0.61044 -1.2804,-1.35791 l 0,-1.35791 2.0564,0 c 1.1211,0 2.0174,-0.23057 2.0174,-0.54316 0,-0.31261 0.3997,-1.5335 0.8535,-2.71583 l 0.8148,-2.17265 -2.0564,0 -2.0562,0 0.776,-3.065 c 0.4266,-1.68179 1.627,-4.38427 2.677,-6.01361 l 1.9011,-2.94861 -2.289,-3.49177 -2.2891,-3.49177 0.7372,-4.42292 0.7371,-4.42291 -1.0475,-2.71582 -1.0476,-2.71582 2.7547,-3.72456 2.7934,-3.76335 -1.2803,-3.56937 -1.2804,-3.60817 -2.4053,-1.4743 -2.3668,-1.5131 -2.3667,1.4743 -2.3665,1.5131 -0.4656,4.38412 -0.4268,4.34532 2.2891,3.49177 2.2502,3.45297 -1.4356,3.22019 -1.4741,3.22019 0.8147,2.13386 0.8535,2.17266 -1.7847,5.35405 -1.7458,5.35405 1.7846,3.37538 1.8235,3.37538 -1.4355,3.1426 -1.4744,3.14259 1.358,2.40544 1.3191,2.40545 -1.6682,3.99614 -1.6684,4.03493 -2.4443,1.31912 c -1.3432,0.71889 -3.874,1.31911 -5.6255,1.31911 l -3.1814,0 -2.7935,1.93987 c -1.5469,1.08353 -7.5201,3.84649 -13.2687,6.13 -19.7503,7.84568 -30.5572,13.95465 -48.458,27.39102 l -10.2038,7.6819 -10.3977,10.7081 c -13.6764,14.07669 -19.2943,21.08603 -28.0506,35.03411 l -7.2551,11.56165 -4.0349,9.89335 c -2.2228,5.45057 -5.3461,14.49114 -6.9447,20.09709 l -2.9099,10.20374 -0.078,22.69652 -0.078,22.73531 -6.7896,1.5131 c -3.7373,0.84261 -7.8823,1.83883 -9.2337,2.21146 l -2.4443,0.69835 0.388,3.60817 0.4267,3.60816 3.0651,0.46557 3.065,0.42677 0,1.5907 c 0.051,4.06975 0.086,56.17932 0.039,57.76943 l -0.039,1.78468 -2.0174,-1.97867 -1.9788,-2.01746 -4.9273,1.08632 c -2.6961,0.60805 -5.264,1.50079 -5.7032,1.93988 l -0.7759,0.77595 0.8148,0.85354 c 0.4601,0.46038 2.8867,1.29599 5.3539,1.86228 l 4.4618,1.00873 -16.7218,0.0388 -16.7605,0.0388 0.776,-0.73715 c 0.7297,-0.72966 11.1614,-2.95058 16.0622,-3.41418 l 2.3666,-0.23278 0,-1.78469 0,-1.82348 -5.7807,0.15519 c -3.1768,0.0814 -10.8408,0.0904 -17.0709,0 l -11.3289,-0.19399 -1.8623,1.5519 -1.8235,1.5131 -3.841,-0.42677 -3.802,-0.42677 -1.358,-3.065 -1.3191,-3.065 -2.2115,0 c -1.2063,0 -4.9728,1.4861 -8.3803,3.29778 l -6.2076,3.29779 -0.7759,-0.81475 -0.8147,-0.81474 0,1.5131 0,1.5131 -2.9486,-0.58196 -2.9874,-0.54317 -0.97,-1.5907 -0.97,-1.62949 -4.2676,-0.46557 -4.2678,-0.46557 -0.7371,1.90108 -0.6984,1.90107 -5.0048,1.00874 -5.0049,0.96993 1.7071,0.62076 1.6682,0.62076 -0.078,3.60817 -0.1164,3.64696 -0.7372,-1.86228 c -0.4082,-1.02776 -1.9767,-3.10186 -3.4529,-4.5781 l -2.677,-2.67702 1.513,-1.47431 c 0.8223,-0.82221 1.4743,-2.00145 1.4743,-2.59943 l 0,-1.08633 -6.0911,0 -6.1301,0 0,3.18139 0,3.1814 -9.8545,0.42677 c -5.4191,0.22711 -13.5173,0.46979 -18.002,0.54316 l -8.1475,0.15519 0.4268,-5.16006 0.4655,-5.12127 -1.7459,0.38798 -1.707,0.34918 -0.5432,-2.48304 c -0.515,-2.36887 -4.9415,-7.6819 -6.4016,-7.6819 -0.3737,0 -0.6983,0.8838 -0.6983,1.97867 l 0,1.97867 -2.7547,1.47431 -2.7158,1.4743 -1.2415,-3.1038 -1.2027,-3.14259 -1.6295,4.42291 -1.5907,4.42291 -1.2803,0 c -0.6978,0 -1.6261,-0.93508 -2.0563,-2.05627 l -0.776,-2.01746 -2.4442,0 -2.4442,0 -0.6208,1.70708 -0.582,1.66829 -2.7934,-2.44424 -2.7546,-2.48303 -2.1339,3.0262 -2.095,3.0262 -1.9787,-1.62949 c -1.081,-0.89715 -2.3321,-3.12808 -2.7934,-4.96608 l -0.8536,-3.33658 -2.483,0 -2.483,0 -1.8235,5.78082 c -1.0168,3.17671 -2.6784,7.7903 -3.6858,10.28133 l -1.8234,4.53931 -1.8623,-1.5519 -1.8623,-1.5131 -0.8536,1.3967 -0.8923,1.43551 -15.3638,-0.15519 -15.4026,-0.11639 -2.7934,1.5131 c -3.9556,2.11696 -4.3453,1.90478 -4.3453,-2.05627 l 0,-3.49177 -10.3589,0.46557 -10.359,0.46557 -1.1251,-2.05627 c -0.6323,-1.12119 -2.5007,-5.23203 -4.1125,-9.1562 -1.6118,-3.92417 -3.344,-7.13873 -3.8798,-7.13873 -0.5357,0 -1.7594,2.37838 -2.7158,5.27645 l -1.7459,5.23766 -3.9961,-0.19399 -3.9574,-0.19398 -0.9699,-1.43551 c -0.5239,-0.78676 -1.9685,-1.78928 -3.2202,-2.25025 l -2.289,-0.85355 -2.2891,3.64697 c -1.2744,2.0104 -3.9079,5.35479 -5.8196,7.41031 l -3.453,3.72456 -2.9098,0 c -1.6042,0 -3.3304,-0.38178 -3.8021,-0.85355 l -0.8536,-0.85354 -11.2513,-0.0388 -11.2512,-0.0776 -2.9098,0.96993 -2.9098,0.93114 -0.6984,2.67703 -0.6984,2.67702 -3.1813,0.1164 c -1.75186,0.0589 -10.35619,0.20795 -19.08844,0.31038 l -15.86816,0.15519 -2.98741,-2.63823 c -1.64342,-1.46953 -6.52365,-7.33524 -10.82449,-13.03595 l -7.79829,-10.39772 0.85354,-1.39671 0.89234,-1.43551 4.73329,-0.54316 4.77209,-0.58196 -5.12126,-0.23279 -5.08247,-0.19399 0,-1.35791 0,-1.35791 1.70709,-0.11639 1.66829,-0.11639 -1.66829,-0.69836 -1.70709,-0.65956 0,-11.56164 0,-11.52285 2.21145,-2.21145 2.25026,-2.25026 4.5781,0.38798 4.5393,0.38797 0,-1.4355 0,-1.47431 -6.82835,0 -6.82836,0 0.89235,-11.21247 c 0.89174,-11.13321 1.69149,-14.16906 2.87101,-10.86329 0.8365,2.34435 4.35361,5.78082 5.93601,5.78082 l 1.31911,0 1.5519,-3.41417 1.5519,-3.41418 -1.74588,-3.25899 -1.78469,-3.29778 -2.87101,-0.93114 c -1.58918,-0.51753 -3.35795,-0.89557 -3.91854,-0.81475 l -1.00874,0.15519 0,-3.29778 0,-3.33658 -1.35791,-0.81475 -1.35791,-0.85355 0,-3.87974 0,-3.87975 1.70709,-0.58196 1.66829,-0.58196 -1.47431,-1.90108 -1.4743,-1.93987 0.31038,-13.57912 c 0.16969,-7.4746 0.38152,-15.00605 0.46557,-16.72171 l 0.15519,-3.10379 4.50051,0.85354 4.5005,0.81475 1.39671,-1.78469 1.35791,-1.78468 -0.65955,-27.89538 -0.69836,-27.85658 -1.04753,5.47044 -1.04753,5.43165 -0.11639,17.65285 -0.1164,17.65284 -2.01747,-2.63822 -1.97867,-2.63823 -0.15519,1.97867 c -0.0885,1.07719 -0.0584,2.76508 0.0776,3.76335 l 0.23278,1.82348 -2.44424,-0.50436 -2.48303,-0.46557 -0.15519,-16.9545 c -0.10278,-9.32845 -0.26513,-23.83176 -0.34918,-32.24069 l -0.15519,-15.28621 -1.35791,0 -1.35791,0 0,3.87975 0,3.91854 -4.26773,0.85355 c -2.3358,0.46717 -5.99852,0.85354 -8.14746,0.85354 l -3.91855,0 -0.19399,-1.70709 c -0.117,-0.93433 -0.35351,-3.21382 -0.50436,-5.08247 -1.23034,-15.24101 -3.87344,-37.65519 -4.81089,-40.58215 l -1.16392,-3.60816 0.58196,13.57911 c 0.32526,7.4746 1.0153,19.28341 1.5131,26.22709 l 0.89234,12.64798 2.52184,1.31911 2.52183,1.35791 6.82836,-0.89234 6.78955,-0.89234 0,2.87101 0,2.90981 -2.75462,0 -2.79341,0 -0.77595,2.05627 -0.77595,2.05626 1.04753,5.08247 1.00873,5.08247 0.89235,-3.41418 0.85354,-3.37538 1.16392,1.90108 c 1.65593,2.67933 2.20256,7.00723 2.83222,22.89051 l 0.54316,13.92829 -1.97867,0 -1.97867,0 -0.0388,-3.065 c -0.0114,-1.68179 -0.53963,-3.86516 -1.16392,-4.84969 l -1.12513,-1.78468 -0.89234,8.45785 c -0.48546,4.64462 -0.85354,13.21831 -0.85354,19.08835 l 0,10.66931 -2.05627,0 c -1.12119,0 -2.01747,0.26937 -2.01747,0.58196 0,0.3126 -0.43037,1.64366 -0.93114,2.94861 l -0.89234,2.36664 1.5907,-0.96993 1.59069,-1.00874 0,2.13386 0,2.13386 -1.4743,0 -1.43551,0 0.62076,15.28621 c 0.34076,8.40893 0.93431,17.40337 1.31912,20.01949 1.66722,11.33487 2.42179,15.39447 3.0262,16.37253 l 0.65956,1.04753 2.79342,-0.73715 2.79341,-0.69835 0,6.63436 c 0.0131,3.64844 0.29129,12.3789 0.58196,19.43753 l 0.50437,12.84197 -1.35791,1.62949 -1.35791,1.66829 1.4743,0.50437 1.47431,0.46557 0.81474,7.79829 0.81475,7.79829 -2.17266,0 -2.13386,0 -0.89234,1.43551 -0.89234,1.4743 2.44424,1.78468 2.48304,1.82349 -0.34918,8.57424 -0.34918,8.57424 -1.62949,1.04753 c -0.90833,0.5772 -2.11643,1.07515 -2.67703,1.08633 l -1.00873,0.0388 0,-4.19012 0,-4.15133 -1.35791,0.85354 -1.35791,0.85355 0,2.63823 0,2.59943 -1.35792,0 -1.35791,0 0,-3.87975 0,-3.91855 -1.82348,-1.5131 -1.82348,-1.5131 -0.89234,0.89234 -0.93114,0.89235 0,-10.59171 0,-10.59171 1.93987,1.59069 1.90108,1.5907 0.93114,-1.5131 0.96994,-1.5131 -2.90981,-0.73715 -2.90981,-0.77595 0.38797,-15.13102 0.38797,-15.09221 2.05627,-0.0388 c 1.12119,-0.0153 3.40068,-0.52947 5.08247,-1.12513 l 3.065,-1.08632 0,-3.29779 0,-3.29778 -4.77209,0 -4.77209,0 0,3.41417 0,3.37538 -4.07373,0 -4.07374,0 0,-1.74588 0,-1.74589 -4.15133,-2.44424 -4.19012,-2.48304 -0.81475,0.81475 -0.81475,0.85354 3.87975,4.03494 3.87975,4.07373 3.14259,0 3.1426,0 0,12.88076 0,12.88076 -2.01747,-0.81474 -2.05627,-0.77595 0.0776,1.16392 c 0.0265,0.64058 0.91044,2.70945 1.97867,4.5781 l 1.93987,3.37538 0.0388,10.43652 c 0.0265,5.73168 -0.32225,11.38806 -0.77595,12.57038 l -0.81475,2.13386 -5.27645,0 -5.31526,0 0,-1.5131 0,-1.5131 -1.82348,1.5131 -1.82348,1.5131 -0.93114,-0.96994 -0.96993,-0.93113 -5.39285,0.38797 -5.35405,0.38797 -0.0388,-2.48303 c -0.0115,-1.36523 -0.65413,-3.41812 -1.43551,-4.53931 l -1.4355,-2.01747 0.93114,4.6169 0.93114,4.6169 -4.42291,-0.89234 c -2.4194,-0.48388 -5.84339,-0.89234 -7.60431,-0.89234 l -3.18139,0 0.11639,-12.64798 0.11639,-12.68677 -2.28905,-4.46171 -2.28905,-4.42291 -0.73715,0.77595 -0.77595,0.73715 1.62949,3.95734 1.6295,3.91855 0.23278,12.72557 0.27159,12.72557 -2.59943,0.50437 c -1.42338,0.28119 -6.96177,0.11577 -12.3376,-0.38798 l -9.77696,-0.93114 0.65956,-7.02234 0.65955,-7.02234 1.5131,-1.00874 c 0.83037,-0.54845 2.09355,-1.21593 2.83222,-1.4743 l 1.35791,-0.46557 -1.70709,-3.68576 -1.66829,-3.72456 -7.48791,0.54317 c -4.12245,0.30248 -7.73522,0.7884 -8.03108,1.08633 -0.8393,0.84511 3.78501,6.11272 6.78956,7.72069 l 2.71582,1.43551 0.31038,4.38411 c 0.18299,2.40149 -0.0222,5.50885 -0.46557,6.90595 l -0.81474,2.52184 -1.93988,0 -1.93987,0 0,-1.35791 0,-1.35791 -2.40544,0 -2.36665,-0.0388 2.05627,-1.31912 2.01746,-1.31911 -3.065,0 -3.0262,-0.0388 0.31038,1.6295 0.34918,1.62949 -2.56063,0.54317 -2.59943,0.54316 0.85354,-2.17266 0.81475,-2.17266 -1.12513,0 -1.12513,0 -0.23278,-10.24253 -0.23279,-10.28133 -2.25025,-4.65569 c -2.25061,-4.71959 -4.46171,-6.21286 -4.46171,-2.98741 0,0.95488 0.95256,3.10206 2.09507,4.73329 l 2.05626,2.94861 0.27158,7.87589 0.23279,7.83708 -3.99614,0.89235 -4.03494,0.85354 2.32785,0.15519 2.32785,0.15519 1.35791,2.56063 1.35791,2.52184 -0.85354,0.85354 -0.85355,0.85355 -8.30266,0 -8.30265,0 -3.1426,-2.17266 -3.14259,-2.21146 -3.29779,1.74589 -3.29778,1.78468 -1.97867,-2.63822 -1.97867,-2.59944 -0.31038,-10.20373 c -0.17469,-5.60595 -0.21737,-12.25532 -0.0776,-14.78183 l 0.27158,-4.6169 -2.17266,-4.5781 -2.17265,-4.57811 -1.20273,0 c -1.77945,0 -1.49431,1.75256 0.89235,5.16007 l 2.13386,3.0262 -0.42677,5.08247 -0.42678,5.08247 -9.85455,0.42677 -9.85456,0.38797 0,-6.0524 0,-6.05241 4.77209,-2.79341 4.77209,-2.83222 1.28031,-3.29778 1.24152,-3.25899 -0.69835,-2.52184 -0.65956,-2.52183 -3.065,-2.25026 -3.065,-2.28905 -5.35405,-0.31038 -5.31525,-0.27158 -4.11254,1.6295 c -2.24238,0.89689 -5.74277,3.19912 -7.79829,5.16006 l -3.72455,3.56937 0,3.76335 0,3.72456 3.065,2.17266 3.0262,2.13386 5.04367,0.81474 5.00487,0.81475 0.93114,4.15133 0.89234,4.15133 -2.44424,1.78468 -2.44424,1.82348 -2.79341,-0.0388 -2.83222,-0.0388 -6.51797,-6.2464 -6.55678,-6.24639 -0.54316,-23.23968 -0.50437,-23.27848 1.24152,2.01747 1.28032,2.01746 -1.00874,-5.43164 -0.96993,-5.43165 0,-33.28822 0,-33.28823 2.44424,-4.50051 2.44424,-4.46171 3.33658,-1.5131 3.33658,-1.5131 0,-3.18139 0,-3.18139 -2.48304,0 c -1.37035,0 -2.8865,-0.40347 -3.37538,-0.89235 l -0.89234,-0.89234 -10.04854,0.27158 -10.00975,0.31038 -0.19399,-7.41031 -0.15519,-7.41032 2.01747,-0.77595 2.01747,-0.81475 0,6.78956 0,6.75076 2.75462,0 2.71582,0 -0.54316,-4.5781 -0.58196,-4.5393 1.16392,-1.86228 1.16393,-1.86228 1.00873,1.00873 c 0.55282,0.55284 1.32374,3.58794 1.74589,6.75076 l 0.77595,5.74203 2.71582,0 2.67702,0 0.50437,-2.71582 0.54317,-2.71583 1.86227,-1.08633 1.90108,-1.08633 0,-4.69449 0,-4.69449 -1.31911,0 -1.31912,0 0.0388,-10.7081 0.0776,-10.70811 2.94861,-1.43551 2.94861,-1.4355 -2.71582,-0.0776 -2.71583,-0.11639 2.05627,-1.31912 c 1.12119,-0.72457 3.67005,-1.34674 5.66443,-1.35791 1.99439,-0.0114 4.59851,-0.39984 5.78082,-0.85354 l 2.13386,-0.81475 0,-2.56063 0,-2.59943 -4.07373,-0.15519 c -2.24238,-0.0934 -4.68419,-0.31751 -5.43165,-0.50437 -0.74747,-0.18687 -3.54736,-0.41101 -6.20759,-0.50437 l -4.81089,-0.19399 0.96994,-1.55189 0.96994,-1.5907 -2.59943,0.73715 c -4.73146,1.32931 -5.26653,1.38562 -12.10481,1.20272 l -6.78956,-0.19398 2.01747,-1.31912 2.05626,-1.31911 -1.4743,0 -1.5131,-0.0388 0.31038,-16.64412 c 0.16493,-9.15638 0.029,-15.58552 -0.31038,-14.27746 l -0.62076,2.40544 -1.35791,0 -1.35791,0 0.85354,-3.91854 0.85354,-3.91855 -1.82348,-0.65956 -1.78468,-0.69835 -0.31038,-3.91854 -0.31038,-3.87975 -2.01747,-1.5131 c -1.11951,-0.82988 -2.05626,-2.21309 -2.05626,-3.065 l 0,-1.5519 1.35791,0 1.35791,0 0,-3.29779 0,-3.33658 1.35791,-0.81475 c 1.94011,-1.19904 1.70097,-4.86274 -0.50437,-7.37151 l -1.90107,-2.17266 -0.77595,-6.47918 -0.73715,-6.47918 -3.80216,-6.94474 -3.80215,-6.98355 -5.81962,-4.22892 c -3.19538,-2.31757 -7.66502,-5.75216 -9.93215,-7.6431 l -4.11253,-3.45298 -0.27158,-7.75949 -0.27159,-7.79829 -1.62949,0.62076 -1.5907,0.62076 -0.65955,-1.6295 -0.65956,-1.62949 -0.27158,5.43164 c -0.1554,2.98985 -0.41678,7.20116 -0.54317,9.35019 l -0.23278,3.91855 -4.22893,3.56937 c -2.32581,1.962 -6.27159,4.78019 -8.76822,6.28519 l -4.53931,2.75462 -4.38411,6.59557 -4.42291,6.59557 0,5.81962 0,5.85841 -3.91855,3.95734 -3.91854,3.91855 1.82348,3.29778 1.82348,3.33659 0.0388,9.00101 0.0776,9.00101 -2.90981,0.77595 -2.87101,0.73715 0.89234,2.36665 c 0.49696,1.29503 1.16914,10.19896 1.5131,19.78671 l 0.62076,17.42006 -1.66829,0.23278 c -0.93069,0.11678 -3.21381,0.3102 -5.08247,0.42678 -1.86864,0.11654 -10.33825,1.36999 -18.77797,2.79341 l -15.325,2.59944 0.38797,2.75462 0.38798,2.75462 5.12126,0.42677 5.08247,0.42677 0,1.93987 0,1.97867 1.20272,0 1.24152,0 0.96994,12.3376 0.96994,12.33759 -1.51311,1.51311 -1.5131,1.5131 0,7.87588 0,7.91469 -2.01746,0 c -1.1212,0 -2.05627,0.34906 -2.05627,0.81474 0,1.60757 12.29285,18.08954 14.35506,19.24355 l 2.09507,1.16392 0.81474,40.69855 c 0.45709,22.37453 0.75764,42.20527 0.65956,44.07392 -0.0981,1.86865 -0.14644,8.11489 -0.11639,13.88949 l 0.0388,10.51412 -3.84094,-2.01747 -3.80216,-1.97867 -4.07373,0 -4.07373,0.0388 -5.62564,2.52183 -5.58683,2.56063 -2.21146,3.1426 -2.21145,3.18139 0,3.99614 0,4.03494 -2.05627,2.25025 -2.01747,2.25025 -8.49664,-4.15133 -8.49665,-4.15132 -8.92342,0.11639 -8.88462,0.11639 -6.67316,2.94861 -6.63437,2.94861 -8.61304,8.26386 -8.57424,8.22506 -11.87202,-0.31038 c -6.52744,-0.1685 -13.8657,-0.21038 -16.29494,-0.11639 l -4.38411,0.15519 0,6.13 0,6.0912 -1.08633,0 c -0.59798,0 -1.85766,-0.73255 -2.75462,-1.62949 l -1.6295,-1.6295 0,-2.32785 0,-2.32784 1.6295,-0.54317 1.59069,-0.54316 -0.89234,-2.36665 -0.93114,-2.36664 -1.59069,0.96993 -1.5907,0.96994 0.73715,-2.71582 0.69836,-2.75462 -2.52184,-3.25899 -2.52184,-3.25899 -1.35791,2.05627 -1.35791,2.01747 0,-5.27646 -0.0388,-5.31525 -2.63822,2.40544 -2.63823,2.36665 -4.15133,-1.82349 -4.11253,-1.82348 0.73715,-2.40544 0.77595,-2.36664 -3.53057,0 -3.49177,0 0.85354,-3.41418 0.81475,-3.37538 -1.47431,0 -1.5131,0 0,-2.13386 c 0,-1.15831 -0.95605,-3.96875 -2.13386,-6.24639 l -2.17266,-4.15133 -2.59943,0.69835 -2.59943,0.69835 -0.81474,-1.31911 -0.81475,-1.31911 -2.59943,2.32785 -2.59943,2.32784 0,3.1038 0,3.1038 -2.87101,2.05626 c -2.87207,2.01169 -5.10363,5.24551 -8.06988,11.71684 l -1.5519,3.37538 -1.16392,-3.0262 -1.20272,-3.065 -1.39671,0 -1.39671,0 0,1.31911 0,1.31911 -3.91854,2.01747 -3.91855,2.05627 -1.39671,3.99614 -1.3967,3.95734 -3.1814,0.96994 c -1.74525,0.51643 -12.05233,4.12934 -22.8905,8.06987 -10.83819,3.94053 -25.26699,9.14395 -32.08551,11.52285 l -12.41519,4.30652 -3.56937,-0.89234 -3.56936,-0.89235 0,-2.25025 -0.0388,-2.21146 -1.16393,1.82349 -1.16392,1.86227 -0.77595,-1.24151 -0.77595,-1.24152 1.28032,-5.35405 c 0.68374,-2.9486 1.22376,-5.8951 1.24152,-6.51798 l 0.0388,-1.12513 -1.70708,0.62076 -1.6683,0.62076 -2.32784,-2.01747 -2.32785,-2.01746 -2.01747,0.73715 -1.97867,0.77595 -0.96994,6.51797 -0.96993,6.55677 -1.82349,2.67703 -1.86227,2.67703 0,3.68575 0,3.72456 -1.35791,0.81475 -1.35792,0.85354 0,-4.15133 0,-4.15133 -1.35791,0 -1.35791,0 0,6.09121 c 0,3.36358 -0.21168,6.13 -0.46557,6.13 -0.25389,0 -6.47134,-3.05225 -13.8119,-6.78956 l -13.34633,-6.82835 -9.23379,0 -9.2726,0 -6.40158,-4.07374 -6.44038,-4.07373 -28.63253,-0.15519 c -15.73721,-0.10122 -38.39974,-0.58816 -50.35912,-1.04753 l -21.72658,-0.81475 -0.42677,-3.76336 -0.42677,-3.72455 -1.20272,0 -1.16393,0 -0.42677,3.72455 -0.42677,3.76336 -4.77209,-0.46557 -4.73329,-0.50437 -1.04753,-1.5519 -1.00874,-1.5519 -1.24152,1.90108 -1.20272,1.90108 -13.15234,-0.85355 -13.11355,-0.85354 -7.13873,5.04367 c -9.51561,6.72496 -28.011772,20.92293 -28.011772,21.4938 0,0.24918 1.506728,1.9723 3.37538,3.84095 l 3.414177,3.41417 0,5.31526 0,5.35405 -2.056265,1.66829 -2.017469,1.70709 0,2.01746 0,2.05627 -1.784683,-1.4743 -1.745886,-1.43551 -2.90981,0.19399 -2.909811,0.23278 -0.659557,2.56064 -0.698354,2.56063 -1.435506,-0.89234 -1.474304,-0.89234 0,-3.33659 0,-3.37538 -2.133861,-0.81474 -2.133861,-0.85355 1.784684,-1.12512 1.823481,-1.16393 -1.707089,0 -1.707088,-0.0388 0,-2.01746 0,-2.05627 -4.073734,0 -4.073735,0 -0.15519,1.70709 c -0.100381,0.93432 -0.06051,4.39644 0.116393,7.6819 l 0.31038,5.97481 -4.306519,-0.89234 -4.345317,-0.85355 -3.840949,-2.71582 -3.802152,-2.75462 -2.715823,0 -2.677025,0 -3.065,-2.48304 -3.065,-2.48304 1.862278,-1.62949 c 1.042066,-0.90307 3.103528,-2.4712 4.578102,-3.49177 l 2.677025,-1.86228 -1.901076,-3.56937 -1.901076,-3.53057 -2.483038,0.77595 -2.483038,0.81475 0.737152,-13.34633 c 0.41062,-7.34073 1.040126,-15.17482 1.396709,-17.38127 l 0.659557,-3.99614 3.026202,-3.25898 3.026203,-3.22019 -3.918544,-3.1814 -3.957342,-3.14259 0.892342,-11.63924 c 1.100427,-14.31614 3.247792,-24.81605 6.052405,-29.64127 l 2.13386,-3.64696 1.435507,0.81475 1.435506,0.81474 -1.008734,-1.12512 -1.008734,-1.08633 1.396708,-1.66829 1.357912,-1.6295 -1.862279,-1.5519 -1.862278,-1.5131 -5.276456,2.59943 c -2.914485,1.44031 -6.82198,3.28438 -8.690633,4.07374 l -3.414177,1.4355 2.715823,-0.31038 2.715823,-0.34917 0.387974,11.79443 0.387975,11.79443 -3.103797,0.46557 -3.065,0.42677 -0.46557,2.32785 -0.426772,2.28905 2.677025,3.80215 2.677025,3.80215 0.77595,11.56165 0.814747,11.56164 -0.853545,11.13488 -0.892341,11.13487 -2.832216,0.42677 -2.832215,0.38798 -0.426772,2.25025 -0.46557,2.28905 2.871013,0.89234 2.871013,0.93114 -0.426772,7.6819 -0.387975,7.7207 -4.539304,0.42677 c -2.500404,0.23953 -5.435705,0.10492 -6.517975,-0.31038 l -1.97867,-0.77595 1.513101,-2.83222 1.513101,-2.83221 -1.513101,-1.78468 -1.474304,-1.82349 -0.349177,-13.6567 c -0.183018,-7.51271 -0.696696,-14.00423 -1.125127,-14.43266 l -0.775949,-0.77595 -1.9010761,2.25025 -1.8622785,2.28905 -1.7846836,6.90595 -1.745886,6.94475 -0.8147469,23.43367 -0.8147468,23.47247 -1.163924,0 -1.1639241,0 0,58.50658 2725.9101,0 -0.1939,-90.78608 c -0.2724,-131.36626 -0.583,-240.22042 -0.6985,-241.90221 l -0.2326,-3.065 -1.9788,0 -1.9787,0 -0.8147,3.72456 c -0.4303,2.05552 -1.3976,6.20516 -2.1726,9.195 l -1.3968,5.43164 0.1165,7.21633 0.1552,7.21633 -1.1641,-0.69835 -1.125,-0.73716 -2.2114,4.6169 -2.1727,4.5781 -2.9098,0.89235 -2.8711,0.93113 -0.8148,-0.77595 -0.8147,-0.81474 1.3968,-3.065 1.3579,-3.065 -1.0476,-3.84095 -1.0476,-3.84095 1.8236,-8.84582 1.8623,-8.88462 -1.0476,-2.87102 -1.0864,-2.87101 -3.5305,5.39285 -3.5305,5.39285 -1.5907,6.78955 c -0.8869,3.73731 -1.9405,7.68584 -2.3279,8.80703 l -0.6983,2.05627 -0.5821,-2.36665 c -0.9716,-4.06205 -4.0351,-2.60952 -9.1949,4.38411 l -3.3366,4.5781 1.3579,1.6295 1.3579,1.66829 -4.3453,-0.23279 -4.3453,-0.23278 -0.582,-1.70709 -0.5431,-1.66829 -4.6557,0.85354 -4.6169,0.85355 0,-1.4743 0,-1.51311 -2.9099,0 -2.9097,0 -4.4229,5.08247 -4.423,5.08247 -2.5219,-2.25025 -2.5217,-2.21146 -6.7896,-2.01747 -6.7895,-1.97867 -7.7207,1.5131 c -4.2472,0.84913 -8.1544,1.9856 -8.6519,2.48304 l -0.8924,0.89234 -1.6682,-0.62076 -1.6295,-0.65955 -2.5218,2.79341 -2.483,2.75463 -3.2203,0 -3.2589,0 -0.776,-2.05627 -0.7759,-2.01747 -4.617,0 -4.6557,0 -5.5868,3.53057 -5.6256,3.53057 0.9311,-3.18139 c 0.5161,-1.75894 1.3342,-6.78975 1.7847,-11.17367 l 0.8148,-7.99228 -3.1038,1.66829 -3.1038,1.66829 0.8923,-3.53057 0.8535,-3.56937 -1.707,0.0388 c -2.5505,0.0308 -4.2054,1.56646 -6.4793,5.97481 l -2.0562,3.91855 -0.4656,-2.56064 c -0.2673,-1.42404 -1.1309,-3.39697 -1.901,-4.34531 l -1.3967,-1.70709 2.095,-2.36665 2.1339,-2.32785 0.3104,-4.07373 c 0.1775,-2.24238 0.2293,-5.23914 0.1164,-6.63437 l -0.194,-2.52183 -2.5994,0.65955 -2.5995,0.69836 -0.6595,-2.56063 -0.6985,-2.56064 -3.2201,0 -3.259,0 -6.0135,6.13 -5.975,6.09121 2.4831,0 2.483,0 -2.2114,3.37538 -2.2114,3.33658 0,2.48304 c 0,1.37173 -0.5279,3.09206 -1.2028,3.80215 -0.6748,0.71008 -1.5413,2.50122 -1.901,3.99614 l -0.6596,2.71582 -0.1552,-7.13873 -0.1552,-7.13874 -1.2026,0 -1.2415,0 -0.97,-7.13873 c -0.5276,-3.92417 -1.5298,-7.80626 -2.2116,-8.65184 l -1.2415,-1.5519 0.6985,-11.36766 c 0.3826,-6.25531 0.8907,-12.91318 1.0863,-14.78183 l 0.3491,-3.37538 -1.3579,-0.50437 -1.3579,-0.50437 -3.0262,5.23766 c -4.9083,8.57853 -7.1775,13.86192 -7.1775,16.64412 l 0,2.59943 -3.8797,4.15133 c -2.1281,2.27795 -4.9134,5.74565 -6.2076,7.72069 l -2.3667,3.60817 -2.2503,-1.97867 -2.2891,-1.97867 -1.901,0.69835 -1.9399,0.69835 0.8536,-2.25025 0.8924,-2.25025 -1.2415,-3.18139 -1.2028,-3.22019 1.1251,-1.20273 1.164,-1.20272 -0.7372,-3.72455 -0.7372,-3.72456 -2.0175,0 -2.0562,0 0.7372,-2.87101 0.776,-2.83222 -0.7372,-1.90108 -0.7373,-1.90107 -1.0086,0.62076 -1.0476,0.65956 1.0476,-5.08247 c 0.574,-2.78279 1.705,-7.20459 2.5218,-9.81576 0.817,-2.61119 1.4743,-5.57925 1.4743,-6.63437 l 0,-1.93987 -2.7158,2.48303 -2.7158,2.44425 0,1.82348 0,1.82348 -1.2416,0 c -0.6852,0 -1.4914,-0.7109 -1.7846,-1.5907 l -0.5043,-1.59069 -1.5908,0.96993 -1.5519,0.96994 -0.97,5.04367 -1.0086,5.04367 -0.8924,-3.41418 -0.8924,-3.37538 -1.7846,6.09121 c -0.9987,3.36357 -2.3957,6.90275 -3.1038,7.83708 l -1.3192,1.70709 1.7071,2.01747 1.7071,2.05627 -2.1338,0 -2.0951,0 -2.2114,-2.21146 c -3.1024,-3.10242 -3.8442,-1.61961 -1.4744,2.94861 l 2.0174,3.87975 -1.4741,1.74588 -1.4745,1.78469 3.5307,5.35405 3.5693,5.39284 -1.3579,0.81475 -1.319,0.81475 -0.078,-1.78469 -0.1164,-1.78468 -1.1639,2.75462 c -0.6425,1.49493 -1.227,4.67068 -1.2803,7.09994 l -0.078,4.42291 -1.7071,0.15519 c -0.9342,0.0862 -2.6033,0.24849 -3.7245,0.34918 l -2.0562,0.19398 -0.4269,3.72456 -0.4267,3.76336 4.3454,4.34531 4.3453,4.34532 0.1163,6.1688 0.078,6.16879 -0.9311,0.34918 c -0.5298,0.18686 -1.9205,0.34918 -3.0651,0.34918 l -2.0562,0 0.2715,-4.46171 0.3104,-4.46171 -1.0475,-1.66829 -1.0088,-1.70709 -1.4355,0.89234 -1.4743,0.93114 0.9312,10.8245 0.8923,10.86329 1.4355,2.67702 c 0.7813,1.46201 1.1096,2.96403 0.7371,3.33658 -0.3726,0.37258 -3.1444,-3.21899 -6.1687,-7.95348 -3.0242,-4.73449 -6.0771,-9.25399 -6.7508,-10.04854 -0.6736,-0.79454 -1.9186,-2.7882 -2.7934,-4.42291 l -1.5906,-2.94861 -2.134,0 -2.1339,0 0.97,2.36665 c 0.5301,1.30805 1.5898,4.19799 2.3667,6.44037 0.7768,2.24239 2.1785,5.00881 3.1038,6.13 0.9253,1.1212 2.6991,4.07384 3.9572,6.55678 l 2.2892,4.5005 -1.3968,1.66829 -1.3579,1.6683 0.2329,2.9874 0.1939,2.98741 1.0863,0 1.0864,0 0,2.09506 0,2.09506 -2.0951,0.77595 -2.0563,0.81475 0.2716,1.5131 c 0.1507,0.84929 -0.7588,3.9341 -2.0174,6.82835 -1.2588,2.89426 -2.2892,5.6219 -2.2892,6.09121 l 0,0.85354 -4.0736,0.15519 -4.0737,0.15519 0,-1.00873 0,-1.00874 -4.0738,-0.62076 -4.0738,-0.58196 0,1.16392 c 0,1.85457 -7.0496,11.94963 -8.3414,11.94963 -0.6481,0 -2.3848,1.22089 -3.8797,2.71582 l -2.7159,2.71582 0,1.97867 c 0,1.07708 -0.5614,2.29555 -1.2415,2.71582 l -1.2415,0.77595 -2.1339,-0.81474 -2.1338,-0.85355 2.0563,-3.95734 2.0562,-3.91854 -1.3967,-2.63823 c -1.9952,-3.72782 -2.1041,-3.52312 5.5481,-10.7081 l 6.9835,-6.55677 -1.0088,-3.065 -0.9699,-3.1038 -2.9099,1.00873 c -1.6097,0.54643 -5.0212,0.95156 -7.5654,0.89234 l -4.6168,-0.11639 -0.97,-1.5519 -0.9312,-1.5131 -4.6168,2.59943 -4.617,2.56063 -1.7071,-0.54316 -1.7071,-0.58196 0,-1.93988 0,-1.90107 -1.2802,0 c -0.7033,0 -1.6332,0.61045 -2.0952,1.35791 -0.462,0.74746 -1.4305,1.35791 -2.1338,1.35791 l -1.2804,0 0,-2.05626 0,-2.01747 -4.8883,0 -4.8886,0 -0.6595,2.59943 -0.6984,2.63823 -1.9399,0.73715 -1.9398,0.73715 1.4743,-2.75462 1.5131,-2.79342 -0.8924,-3.99614 -0.8924,-3.99614 -2.5993,0 -2.5994,0 0,-1.35791 0,-1.35791 -1.8236,0 -1.8235,0 -2.5218,2.79342 -2.5217,2.75462 -1.8236,-0.69836 -1.8623,-0.73715 -3.2589,2.13386 -3.259,2.13386 -2.677,-0.85354 -2.6771,-0.81475 -0.97,3.1038 c -0.5207,1.71302 -2.4088,5.09747 -4.2288,7.52671 l -3.3366,4.42291 -6.5569,0 -6.5567,0 -1.3579,1.70709 c -1.5214,1.90788 -2.837,8.4132 -3.4142,16.7993 l -0.3879,5.62564 -1.8235,2.17265 -1.7847,2.21146 0.7759,2.01747 0.776,2.05626 -0.776,0 c -0.4296,0 -3.0866,-1.80895 -5.8972,-4.03493 l -5.0824,-4.03494 -4.5393,-0.38797 -4.5394,-0.34918 -1.0475,6.01361 -1.0863,6.0524 2.0175,2.21146 c 2.6175,2.89246 2.5699,4.07373 -0.2328,4.07373 l -2.2891,0 -2.4831,2.25025 c -3.1095,2.8142 -3.0724,4.38536 0.1941,8.30266 l 2.5993,3.1038 3.8023,-0.93114 3.8409,-0.96994 -1.8623,2.28905 -1.8622,2.25026 2.871,0 2.871,0 0,1.08633 c 0,0.60689 -1.8782,2.51961 -4.1901,4.22892 l -4.1902,3.1038 -3.6082,-0.96994 c -1.9859,-0.53143 -6.0039,-1.04312 -8.9233,-1.16392 l -5.3153,-0.23279 -0.9312,-2.01747 c -0.5146,-1.10338 -1.6581,-3.37202 -2.5218,-5.04367 -0.8636,-1.67165 -1.5519,-4.29097 -1.5519,-5.81962 0,-1.52864 -1.3014,-6.56442 -2.8709,-11.21247 -1.5698,-4.64804 -3.6778,-12.44517 -4.6946,-17.30367 l -1.8623,-8.80702 -2.7545,-2.28905 -2.7934,-2.25026 0,-2.48303 0,-2.52184 -2.7935,-1.74589 -2.7934,-1.74588 0.4267,-2.94861 0.4267,-2.90981 -3.3753,-0.81475 -3.4142,-0.81474 1.7071,-1.04753 1.6683,-1.04754 0,-2.09506 0,-2.13386 -2.6383,0.69835 -2.5993,0.69836 -0.7371,-1.90108 -0.7372,-1.90107 -3.2978,0 -3.2589,0 -0.8537,3.41417 -0.8534,3.41418 -2.8712,0 -2.8321,0 0.6983,-3.76335 0.6984,-3.72456 -1.8236,-3.41418 -1.8622,-3.37538 -2.6383,-15.71297 -2.5993,-15.67418 0.4655,-5.54804 0.4656,-5.58683 -3.3366,-2.52184 c -1.8404,-1.38217 -3.3754,-3.1426 -3.3754,-3.91854 0,-0.77595 -1.7773,-5.03964 -3.9961,-9.50538 -2.219,-4.46575 -4.0889,-9.20606 -4.1125,-10.51412 l -0.039,-2.36664 -1.5131,0 -1.4743,0 0.8148,5.08247 c 0.4637,2.80297 1.0815,10.15637 1.3578,16.33373 l 0.5045,11.25127 -1.1252,0.65955 c -0.6112,0.37779 -1.996,2.51243 -3.1038,4.7333 l -2.0175,4.03493 1.3191,0.81475 1.358,0.85354 0.8147,-0.81474 0.8147,-0.81475 -1.6683,0 -1.6682,0 0.8923,-1.43551 0.8535,-1.4355 1.8236,1.5131 1.7845,1.4743 -1.0086,3.68576 -1.0476,3.64696 0.582,1.74589 0.6208,1.74589 -1.0476,2.32784 c -0.5665,1.28341 -1.1125,2.65247 -1.2415,3.02621 -0.1291,0.37372 -0.7324,1.76788 -1.3191,3.10379 l -1.0475,2.44424 2.1338,2.36665 2.1338,2.32785 -0.9699,1.35791 c -0.5228,0.7304 -1.8662,1.50296 -2.9873,1.74589 -1.1212,0.24292 -2.2595,1.05345 -2.5219,1.78468 -0.2625,0.7312 -2.0772,2.80154 -4.0349,4.6169 l -3.5306,3.29778 -1.2027,-2.13386 -1.2028,-2.13386 1.4744,-1.5131 c 0.825,-0.8249 1.513,-2.30759 1.513,-3.29779 l 0,-1.78468 -3.1813,-1.24152 -3.2203,-1.20272 -1.6682,-10.43652 -1.7071,-10.47531 1.513,-1.47431 c 0.8151,-0.81501 1.4745,-2.5051 1.4745,-3.76335 l 0,-2.28905 -3.0651,-0.85355 -3.0651,-0.81474 1.9012,-1.24152 1.8622,-1.20273 -0.8922,-3.53056 -0.8537,-3.53057 -1.5906,0.31038 -1.5519,0.34917 -1.2803,-6.0912 -1.2804,-6.05241 1.5908,-2.52183 1.5906,-2.52184 -1.6295,-1.93987 -1.5907,-1.93987 -2.5994,0 -2.5994,0 -0.7759,-2.05627 -0.776,-2.01747 -1.9011,0 -1.9011,0 0,1.47431 c 0,0.81642 1.2498,3.06361 2.7546,4.96607 l 2.7159,3.45298 2.0174,6.82835 c 1.1196,3.77018 2.0572,8.43909 2.0564,10.35893 0,1.91986 1.2815,8.87656 2.8709,15.44139 l 2.9098,11.91082 -2.2114,2.44424 c -2.642,2.91922 -2.8231,5.15561 -0.5044,6.0912 l 1.6682,0.69836 -2.3666,0.0776 -2.3665,0.1164 0,1.90107 0,1.90108 -2.0564,0.77595 -2.0563,0.81474 0.582,-3.37538 0.6208,-3.33658 -1.1251,-0.65955 -1.1252,-0.69836 -1.0087,5.08247 c -0.5597,2.79643 -1.0996,6.39766 -1.2028,7.99228 l -0.1939,2.87101 1.7458,-0.65956 1.746,-0.65955 0,1.5131 c 0,0.83758 -0.5426,2.58182 -1.2027,3.87974 -0.6604,1.29791 -1.9489,4.19799 -2.8711,6.44038 -0.9222,2.24239 -2.4729,5.61927 -3.4529,7.48792 l -1.7847,3.37538 -2.9486,0.46556 -2.9486,0.46557 0.8922,-4.5393 c 0.5025,-2.49078 1.244,-5.66022 1.6297,-7.02234 l 0.6982,-2.44424 2.0175,0.77595 2.0174,0.73715 -0.4655,-2.21146 -0.4268,-2.25025 -2.483,-0.38797 c -0.3049,-0.0446 -0.6258,-0.0811 -0.9311,-0.15519 l 2.6771,-2.79342 2.9486,-3.1038 0.5043,-6.75076 0.5043,-6.78956 -0.776,0 c -0.4264,0 -1.6064,1.09738 -2.5993,2.40545 l -1.7847,2.36664 -0.194,-4.07373 c -0.1168,-2.24238 -0.1468,-5.00881 -0.039,-6.13 l 0.194,-2.01747 -1.4355,2.36665 -1.4743,2.36664 -1.9788,0 -1.9786,0 -0.078,-9.1562 c -0.065,-5.04536 -0.062,-20.91248 0,-35.2281 l 0.078,-25.99431 4.2677,-10.00974 4.2678,-9.97095 1.9011,-8.84583 c 1.0394,-4.85849 2.2588,-13.72942 2.7157,-19.70911 l 0.8148,-10.86329 1.1639,-2.28905 1.2028,-2.28905 -1.0863,-0.69836 -1.0863,-0.65955 0.8922,-8.57424 c 0.8936,-8.7706 0.614,-10.63051 -1.4355,-10.63051 l -1.1638,0 -0.776,10.51411 c -0.433,5.79283 -1.4442,17.87832 -2.2504,26.84785 l -1.4741,16.33374 -1.2416,1.28031 -1.2803,1.28032 0,3.76335 0,3.80216 -2.1727,5.47044 -2.1727,5.43164 -1.2415,0 -1.2415,0 0.6208,-5.08246 0.6596,-5.08247 -1.5519,-19.9807 -1.5908,-19.98069 1.8623,-3.49178 1.8623,-3.49177 -2.3667,-1.74589 -2.4053,-1.74588 -0.3881,-7.41032 -0.3879,-7.41031 -1.5519,-3.80216 c -0.8388,-2.10417 -1.5131,-5.28526 -1.5131,-7.06113 l 0,-3.22019 -1.2028,-0.73716 -1.2027,-0.73715 -0.9311,-11.60044 -0.97,-11.56165 -1.1638,0 -1.1252,0 0.6983,14.62665 0.7373,14.58785 -1.358,3.41417 -1.358,3.37538 -0.8923,-4.07373 c -0.4979,-2.24238 -1.8317,-7.19094 -2.9486,-11.01848 -1.1166,-3.82755 -2.0808,-8.42532 -2.1726,-10.20374 -0.093,-1.77841 -0.6661,-3.91042 -1.2804,-4.73329 -0.6143,-0.82287 -1.5119,-4.27757 -1.9786,-7.6819 l -0.8536,-6.16879 2.2114,-3.1814 c 2.9167,-4.16413 2.7876,-4.99213 -0.8534,-5.50924 l -3.0651,-0.42677 -1.2415,-5.04367 -1.2415,-5.08247 2.5606,-2.87101 2.5994,-2.87101 -2.6382,-1.93988 -2.677,-1.93987 -1.6295,0.62076 -1.5907,0.62076 -0.8147,-3.33658 -0.8536,-3.29779 -1.3191,0 -1.358,0 0,1.78469 c 0,0.98079 1.2211,4.31619 2.716,7.41031 l 2.7545,5.62563 0,2.79342 0,2.79342 -1.3578,0 -1.3967,0 0,1.93987 0,1.97867 2.1338,1.20273 2.0951,1.16392 4.0349,18.93316 c 2.2207,10.41294 5.5177,24.42722 7.2939,31.15437 1.7763,6.72715 3.6131,14.37719 4.1125,16.99329 l 0.9312,4.77209 -4.1125,-4.50051 c -2.2443,-2.47469 -6.0693,-7.68292 -8.5355,-11.56164 -2.4663,-3.87874 -5.5961,-8.25812 -6.9448,-9.73816 -1.3487,-1.48006 -2.7943,-4.08417 -3.2201,-5.78083 l -0.776,-3.065 -1.8234,0 -1.8235,0 1.6295,3.72456 c 0.8981,2.05552 4.0711,7.40832 7.0611,11.91082 2.9898,4.50252 6.042,9.1812 6.7896,10.39772 0.7473,1.21653 3.6382,4.90712 6.4015,8.18627 l 5.0048,5.97481 1.358,8.76823 1.358,8.76822 0.077,15.28621 0.1164,15.2862 -1.1639,0 c -1.2354,0 -11.0961,-15.85719 -11.0961,-17.84684 l 0,-1.16392 -2.0562,0 -2.0175,0 0,1.08633 c 0,0.60112 1.6989,3.81568 3.8021,7.13873 2.1032,3.32305 5.5759,9.71511 7.7207,14.19988 l 3.9185,8.14747 0.582,16.7605 0.6208,16.72171 -1.6684,8.41905 c -2.3132,11.67033 -2.7683,13.15234 -4.0349,13.15234 -0.6101,0 -4.0834,-5.18786 -7.7206,-11.52284 l -6.6343,-11.52285 -1.7071,-0.0388 -1.7071,-0.0388 0,1.5519 c 0,1.2908 8.4308,18.72267 14.7042,30.45601 l 1.7459,3.29779 -2.0952,6.1688 c -1.1555,3.4033 -2.1201,7.25351 -2.1338,8.53544 l 0,2.32785 -1.2026,-1.90108 -1.2028,-1.90107 -0.6984,2.59943 -0.6596,2.56063 -0.9699,-3.065 c -1.1787,-3.66999 -1.7501,-3.75289 -5.0825,-0.73715 l -2.5605,2.32784 -1.3967,-1.97867 -1.3967,-1.97867 0.7371,3.25899 0.7371,3.25899 -1.3967,-1.39671 -1.3968,-1.39671 -1.2415,-18.50639 -1.2415,-18.4676 -2.0949,-9.89335 c -2.9048,-13.46836 -9.9642,-46.55611 -11.5229,-54.04488 -1.512,-7.26332 -4.6806,-19.80364 -6.0913,-24.09322 l -1.0086,-3.065 -1.9012,0 c -2.4508,0 -2.3696,0.68976 0.8536,9.1562 l 2.7158,7.13873 2.2115,11.87203 c 1.2129,6.54408 2.6738,14.67725 3.259,18.04082 1.1564,6.64685 3.4564,18.65759 4.8109,25.14076 0.4684,2.24238 1.0202,5.29463 1.2415,6.78956 0.2213,1.49492 1.0192,5.48225 1.7846,8.84582 l 1.3967,6.0912 -0.3879,15.63538 c -0.2254,8.59581 -0.7092,19.41324 -1.0476,24.05443 l -0.6207,8.45785 -1.5906,1.90108 -1.5908,1.93987 0.8535,2.21146 0.8536,2.25025 -1.7071,2.05627 -1.7071,2.05626 -0.3104,3.72456 -0.2715,3.72456 -3.5694,7.02234 c -1.955,3.85799 -4.1655,7.40515 -4.9273,7.87588 l -1.3967,0.85355 0,-2.83222 0,-2.79342 -1.1251,0 c -0.6231,0 -1.2136,-0.73396 -1.3192,-1.66829 -0.1062,-0.93433 -0.7453,-4.64799 -1.3967,-8.22506 l -1.1638,-6.51797 1.0474,-0.65956 1.0864,-0.65956 -2.0951,-5.00487 -2.0951,-5.04367 1.4744,-2.32785 1.4743,-2.36665 -1.3579,-0.81474 -1.3192,-0.85355 0,-5.78082 c 0,-3.18219 -0.6613,-9.41552 -1.4742,-13.8507 l -1.4744,-8.03107 -1.7459,-2.05627 c -2.2409,-2.64525 -4.8108,-10.40166 -4.8108,-14.47145 l 0,-3.1814 -2.8711,0 -2.9097,0 0.8923,3.02621 c 0.4753,1.68178 2.3612,10.45938 4.1901,19.47633 l 3.2978,16.37253 0.077,6.0524 c 0.029,3.31616 -0.017,10.58137 -0.077,16.17855 l -0.1164,10.20373 -1.5906,1.00873 -1.5908,1.00874 1.7847,0.0388 1.7458,0 -3.6468,3.64696 -3.6083,3.60816 2.0951,1.5519 2.0951,1.5131 -4.6557,0 -4.6557,0 0,-1.20272 0,-1.24152 -1.9786,0.77595 -1.9788,0.73715 -0.8535,-1.35791 -0.8536,-1.35791 -2.2891,0.73715 c -1.2707,0.40335 -4.8801,0.97683 -8.031,1.28032 l -5.742,0.58196 -0.8148,-1.31911 -0.8147,-1.31912 -1.901,0.69836 -1.9012,0.73715 0,-1.39671 0,-1.39671 -1.3191,0.81475 -1.3191,0.81475 -0.8535,-3.33659 -0.8147,-3.37538 0.9311,-3.14259 c 0.5252,-1.73573 2.5237,-4.83821 4.4228,-6.86715 l 3.4531,-3.68576 1.1251,0.73715 1.1638,0.69835 0,-1.55189 c 0,-0.85871 1.6714,-3.33399 3.7246,-5.50925 l 3.7246,-3.95734 1.6296,0 1.5906,0 0.9311,-4.26772 0.9312,-4.22892 -1.4743,-0.93114 -1.5131,-0.93114 -0.3492,-10.7857 -0.3492,-10.82449 -1.6294,-1.66829 -1.5908,-1.70709 -2.7934,0 -2.8323,0 0,1.62949 0,1.6295 -1.5519,-1.5519 -1.5906,-1.5907 -2.5606,1.35791 -2.5219,1.39671 0.3881,2.28905 0.3491,2.32785 -3.841,0.11639 -3.8798,0.15519 -1.1638,1.86228 c -0.6325,1.02309 -1.3627,1.55481 -1.6296,1.20272 -0.2668,-0.35208 -1.5542,-2.35947 -2.8709,-4.46171 l -2.4055,-3.80215 0.078,-15.20861 c 0.034,-8.36221 0.4235,-17.798 0.8923,-20.95063 l 0.8535,-5.74202 1.901,-1.5519 c 1.0399,-0.86308 1.9012,-2.38286 1.9012,-3.37538 l 0,-1.82348 -1.8235,-1.08633 -1.8235,-1.08633 1.6683,-15.325 1.6294,-15.325 2.2115,-2.44424 c 1.2115,-1.33871 2.2116,-3.15947 2.2116,-4.03494 l 0,-1.5907 -2.0564,0 -2.0563,0 0.7372,-11.87202 c 0.4003,-6.54029 1.0357,-15.13881 1.3967,-19.08836 l 0.6595,-7.17753 1.6296,-2.63822 1.6683,-2.63823 -2.2503,-1.74589 -2.2114,-1.70709 -1.5132,-24.94677 -1.5518,-24.94677 1.5518,-1.90108 1.5907,-1.86228 -0.8147,-2.05626 -0.776,-2.05627 -2.0174,0 -1.9788,0 -0.8922,-5.93601 c -0.4902,-3.26354 -0.6835,-8.30945 -0.4267,-11.21247 l 0.4655,-5.27645 -1.5131,0.27158 -1.5132,0.27158 -0.8147,-7.75949 -0.8147,-7.798294 -2.4055,-4.733291 -2.4054,-4.733291 -0.1164,-6.711962 -0.1165,-6.711962 -1.5906,-0.504367 -1.6295,-0.543165 0,-6.013611 0,-6.01361 1.3579,0 1.3579,0 0,-1.97867 0,-1.97867 -2.7547,-1.5131 -2.7934,-1.4743 0,-7.06114 c 0,-3.88063 -0.2202,-11.00967 -0.4655,-15.86817 l -0.4267,-8.84582 -1.2027,-2.71582 -1.1641,-2.71583 0,-9.85455 0,-9.85456 -3.6081,0 -3.6081,0 z m -463.591,155.810633 2.1727,2.17266 2.1726,2.17266 -0.8148,2.13386 -0.8534,2.13386 -1.4356,0 -1.4355,0 -0.776,-2.01747 -0.7759,-2.05627 0.8536,-2.25025 0.8923,-2.28905 z m 612.4956,22.26975 1.0863,9.1562 c 0.5991,5.03625 1.2348,11.59801 1.4356,14.58785 0.2006,2.98985 1.0512,15.11133 1.8623,26.92544 l 1.4743,21.455 -0.388,11.13487 -0.388,11.13488 -1.125,-5.66443 -1.1252,-5.66443 0.1163,-9.2726 c 0.1204,-9.28431 -1.2301,-24.79306 -3.8409,-43.95753 -0.7638,-5.60596 -1.4031,-14.28109 -1.4355,-19.28234 l -0.077,-9.07861 1.2026,-0.73715 1.2027,-0.73715 z m -1439.07568,17.34246 1.78469,0.69836 1.78468,0.73715 -2.59943,0.0776 -2.59943,0.11639 0.81475,-0.81474 0.81474,-0.81475 z m 20.79545,33.55981 0.65955,1.70709 0.69836,1.70709 -0.69836,1.70709 -0.65955,1.66829 0,-3.37538 0,-3.41418 z m 1747.47683,29.2145 0,1.4743 0,1.43551 1.3578,-0.85355 c 0.7474,-0.46195 1.358,-1.10589 1.358,-1.4355 0,-0.32963 -0.6105,-0.62076 -1.358,-0.62076 l -1.3578,0 z m 19.0107,4.11253 1.358,0 c 0.7473,0 1.3579,0.53817 1.3579,1.24152 0,0.70334 -0.6105,1.6719 -1.3579,2.13386 l -1.358,0.85354 0,-2.13386 0,-2.09506 z m 6.7897,6.63437 0,1.4355 0,1.43551 -1.358,0 c -0.7475,0 -1.358,-0.29115 -1.358,-0.62076 0,-0.32962 0.6105,-0.97355 1.358,-1.43551 l 1.358,-0.81474 z m -1763.53907,1.5131 3.1426,0 3.10379,0 -0.77594,2.01747 -0.77595,2.05627 -2.32785,0 -2.36665,0 0,-2.05627 0,-2.01747 z m 8.72943,0 1.00874,0 0.23278,4.73329 c 0.27967,5.46389 -0.21848,6.10367 -1.39671,1.70709 -1.11549,-4.16245 -1.06512,-6.44659 0.15519,-6.44038 z m -106.88702,5.08247 0.89234,0.93114 0.93114,0.93114 -2.01747,1.24152 c -1.09954,0.69537 -2.4898,1.26914 -3.1038,1.28031 l -1.12512,0.0388 2.21145,-2.21145 2.21146,-2.21146 z m 1856.26496,0.34918 1.3579,0 c 0.7475,0 1.3578,0.25234 1.3578,0.58196 0,0.32961 -0.6103,0.97355 -1.3578,1.43551 l -1.3579,0.85354 0,-1.43551 0,-1.4355 z m -1758.14617,2.75462 4.96608,2.79342 4.96608,2.79341 0.31038,4.81089 0.31038,4.77209 -1.5519,1.90107 -1.5907,1.90108 -2.21145,0 c -1.21654,-0.0114 -3.07643,-0.58534 -4.11254,-1.24152 l -1.86227,-1.16392 2.90981,-2.48304 2.90981,-2.48304 0,-3.1038 0,-3.10379 -3.41418,0 -3.41418,0 0,-1.82349 c 0,-0.99662 0.40825,-2.19292 0.89234,-2.67702 l 0.89234,-0.89234 z m -93.61829,1.39671 1.04754,1.66829 1.04753,1.62949 0.0388,6.47918 0,6.44038 -1.08632,0 c -0.59797,0 -1.90286,-0.77276 -2.90981,-1.70709 l -1.82349,-1.66829 0.85355,2.36664 0.81475,2.36665 -1.6683,0 -1.66829,0 -1.66829,-2.67703 c -0.92726,-1.48478 -1.70709,-3.34961 -1.70709,-4.15132 l 0,-1.47431 1.39671,0.85355 1.39671,0.85354 -0.38797,-1.78468 c -0.20539,-0.98988 -0.90472,-2.2205 -1.5907,-2.71583 l -1.24152,-0.89234 4.5781,-2.79342 4.5781,-2.79341 z m 1507.01006,0.58196 0.5433,3.76335 c 0.3112,2.05552 0.3112,5.39361 0,7.44912 l -0.5433,3.76335 0,-7.48791 0,-7.48791 z m -1510.73461,3.53057 c -0.39653,0.13535 -0.37851,1.00369 0.0388,2.59943 0.71873,2.74839 1.95356,3.40051 3.49178,1.86228 l 0.85354,-0.81475 -1.86228,-1.90108 c -1.29586,-1.29584 -2.1253,-1.88123 -2.52183,-1.74588 z m 1873.18071,13.30753 0,1.43551 0,1.4355 -1.358,0 c -0.7475,0 -1.358,-0.25235 -1.358,-0.58196 0,-0.32962 0.6105,-0.97355 1.358,-1.43551 l 1.358,-0.85354 z m -1791.20166,0.15519 1.39671,0 1.3967,0 1.5519,3.45297 1.5519,3.41418 -1.24152,1.16393 -1.24152,1.16392 -1.70708,-0.62076 -1.70709,-0.62076 0,-3.99614 0,-3.95734 z m 1288.23126,2.71582 0.7371,0 c 0.3975,0 1.6236,2.2199 2.7545,4.92728 l 2.0564,4.92728 0,3.56937 -0.039,3.56936 -1.4354,2.05627 -1.4744,2.01747 0.7371,-4.19013 0.6985,-4.22892 -1.0863,-1.24152 c -0.6163,-0.6696 -1.5581,-3.48221 -2.0563,-6.28519 l -0.8923,-5.12127 z m -8.0312,2.71583 0,1.4355 0,1.47431 1.358,-0.85355 c 0.7475,-0.46196 1.3579,-1.10588 1.3579,-1.43551 0,-0.32961 -0.6104,-0.62075 -1.3579,-0.62075 l -1.358,0 z m 212.7654,0 c 0.1941,0 1.6263,4.08577 3.1813,9.03981 l 2.8323,9.00101 0.8923,10.6693 0.8923,10.7081 -4.4617,0 -4.4229,0 1.8623,-2.25025 1.8623,-2.25025 -1.7071,-0.58197 -1.7071,-0.58196 0,-3.18139 0,-3.22019 1.358,-0.85354 1.3967,-0.81475 0,-3.33658 0,-3.29779 -1.1641,0 -1.1638,0 0,-9.50538 c 0,-5.23223 0.155,-9.54417 0.3492,-9.54417 z m -65.1022,2.52183 -0.039,14.39386 -0.077,14.35506 -1.0089,0 c -0.5608,0 -1.6975,-1.2532 -2.5218,-2.79341 l -1.5131,-2.79342 1.5131,-9.62177 c 0.8218,-5.29553 1.9635,-10.53347 2.5607,-11.60045 l 1.0863,-1.93987 z m 417.6935,8.18627 0,1.4743 0,1.43551 -1.3579,0 c -0.7475,0 -1.3579,-0.29115 -1.3579,-0.62076 0,-0.32961 0.6104,-0.97355 1.3579,-1.43551 l 1.3579,-0.85354 z m -58.7782,0.0388 2.2115,2.21146 c 1.2101,1.21018 2.2116,3.08352 2.2116,4.15133 l 0,1.93987 -2.716,0 -2.7157,0 0,-1.24152 c 0,-0.68515 0.734,-1.56075 1.6682,-1.93987 l 1.7071,-0.69835 -1.9786,-1.39671 -2.0174,-1.39671 0.8146,-0.81475 0.8147,-0.81475 z m 204.036,6.2464 1.6683,1.66829 1.7071,1.70709 -0.7759,0.73715 -0.7373,0.77595 -0.9311,-2.44424 -0.9311,-2.44424 z m -513.7561,3.37538 -1.3967,0.85354 -1.3967,0.89234 1.7847,1.08633 c 2.1808,1.34787 3.1881,0.66172 1.9398,-1.35791 l -0.9311,-1.4743 z m 293.1925,2.75462 c 0.2586,0 0.1198,0.89627 -0.3104,2.01746 -0.4304,1.1212 -1.4137,2.05627 -2.1726,2.05627 l -1.358,0 1.6684,-2.05627 c 0.9305,-1.12119 1.9139,-2.01746 2.1726,-2.01746 z m -14.3939,3.84095 1.7071,0.58196 1.7071,0.54316 -0.3491,1.24152 c -0.187,0.68518 -0.9596,1.45794 -1.7071,1.70709 l -1.358,0.46557 0,-2.28905 0,-2.25025 z m -470.2253,2.9486 -0.6595,0.89235 -0.6596,0.89234 1.513,1.86228 c 1.7476,2.1055 1.0959,3.48678 -0.9699,2.05626 -1.5882,-1.09993 -1.7046,-3.78256 -0.2327,-4.92728 l 1.0087,-0.77595 z m -23.0846,0.27159 0,1.31911 0,1.31911 3.0264,-0.85354 3.0649,-0.89234 -2.0175,1.4355 -2.0563,1.39671 -2.5605,-0.77595 -2.5219,-0.77595 0.9311,1.47431 c 1.3154,2.12842 0.034,1.88948 -1.8234,-0.34918 l -1.5519,-1.86228 2.7546,-0.73715 2.7545,-0.69835 z m -1040.50925,0.0776 c 0.32545,-0.23671 0.80316,1.03445 1.31911,3.87975 l 0.62076,3.49177 -1.20272,1.90108 -1.20272,1.93987 -0.0388,-6.01361 c -0.0111,-3.21245 0.17892,-4.96215 0.50437,-5.19886 z m 1041.67335,4.81089 1.7845,0.69835 1.7848,0.73715 -2.5994,0.0776 -2.5995,0.11639 0.8148,-0.81475 0.8148,-0.81474 z m 163.8805,0.96993 0.8147,4.96608 0.8147,4.92728 -2.0175,-0.77595 -2.0175,-0.77595 0.8148,1.31911 0.776,1.31912 -1.0475,1.74588 -1.0863,1.74589 -0.8924,-2.25025 c -0.4779,-1.245 -0.8536,-3.13007 -0.8536,-4.19013 l 0,-1.93987 1.0088,0.34917 c 0.5605,0.18686 1.1711,-0.26126 1.3579,-1.00873 l 0.3492,-1.35791 -1.5907,0 -1.5907,0 -0.5432,-1.70709 -0.582,-1.70709 2.1726,0 c 1.1836,0 2.5948,-0.1623 3.1427,-0.34918 l 0.97,-0.31038 z m -122.4061,2.01747 c 0.2938,0 0.8889,0.93508 1.3191,2.05627 l 0.776,2.01747 -1.3191,0 -1.2803,0 0,-2.01747 c 0,-1.12119 0.2106,-2.05627 0.5043,-2.05627 z m 133.7737,0 -0.2717,2.01747 c -0.1619,1.10311 -0.7215,2.42867 -1.2415,2.94861 l -0.9699,0.93114 0,-2.17266 c 0,-1.20164 0.5597,-2.5272 1.2416,-2.94861 l 1.2415,-0.77595 z m 313.7552,4.15133 c 0.4303,-0.0815 1.4472,0.45301 2.4441,1.28032 l 2.0564,1.70709 0,2.25025 0,2.25025 -2.716,2.32785 -2.7157,2.32785 -0.1552,-1.00874 c -0.2853,-2.08257 0.4322,-10.54553 0.9312,-11.05727 0.036,-0.0367 0.094,-0.066 0.1552,-0.0776 z m -1529.16355,0.0776 0.31038,6.0524 c 0.36162,7.27457 -0.53167,7.84311 -1.78468,1.16392 l -0.89235,-4.84968 1.20273,-1.16392 1.16392,-1.20272 z m 1211.56735,2.56063 1.2803,0 1.2416,0 1.5519,4.73329 1.5907,4.73329 -0.9311,3.1038 -0.8148,2.75462 c -1.0132,-0.26168 -1.9404,-0.66015 -2.289,-1.00874 l -0.8537,-0.85354 2.0175,-1.31911 1.9787,-1.31912 -2.3666,-1.39671 -2.4055,-1.39671 0,-3.99613 0,-4.03494 z m -300.3312,0.93114 0.8147,0.81474 0.8148,0.81475 -0.6983,1.78469 -0.7372,1.78468 -0.077,-2.59943 -0.1165,-2.59943 z m 281.3205,5.70323 1.2416,0.77595 1.2026,0.77594 -0.6983,2.71583 c -0.3937,1.50582 -1.3498,3.12347 -2.134,3.60816 l -1.4354,0.89234 0.8924,-2.36664 c 0.5007,-1.30494 0.9311,-3.27995 0.9311,-4.38412 l 0,-2.01746 z m 13.4627,4.38411 -0.776,1.97867 -0.7759,2.01747 1.7071,2.01747 1.6682,2.01747 -1.5519,0 -1.513,0 0,1.4355 0,1.43551 1.3578,-0.85355 1.358,-0.81474 0,2.79341 0,2.79342 -1.901,0 -1.9012,0 -0.4655,-6.78955 -0.4656,-6.78956 1.6295,-0.62076 1.6295,-0.62076 z m -120.6214,0.54316 0.6985,1.70709 0.6595,1.70709 -0.6595,1.66829 -0.6985,1.70709 0,-3.37538 0,-3.41418 z m -23.3172,0.50437 0,2.83222 0,2.79341 1.3191,0 1.3191,0 -0.8535,-2.25025 -0.8536,-2.21145 1.901,0.62075 1.94,0.65956 -0.2329,1.24152 c -0.1291,0.68518 -1.3499,1.85197 -2.7157,2.59943 -1.3659,0.74746 -2.9718,2.13067 -3.5693,3.065 -0.5978,0.93432 -1.7305,1.70709 -2.4831,1.70709 l -1.3579,0 2.0174,-2.87101 2.0175,-2.87102 -0.6595,-1.74588 -0.6985,-1.74589 1.4744,-0.89234 1.4355,-0.93114 z m -92.1052,2.94861 1.5519,3.37538 1.5519,3.33658 1.5519,0 1.5519,0.0388 0.7759,-2.01747 0.7371,-1.97867 -1.6293,-1.00873 c -0.9019,-0.56293 -2.6499,-1.20484 -3.8798,-1.39671 l -2.2115,-0.34918 z m -58.6618,1.31911 0.776,2.01747 0.7759,2.01747 1.2415,-0.73715 1.2416,-0.77595 -0.776,-1.28032 c -0.4301,-0.69581 -1.3376,-1.24152 -2.0175,-1.24152 l -1.2415,0 z m 381.806,0.65956 1.2802,2.01747 1.2803,1.97867 -1.6294,1.04753 c -3.5546,2.25973 -4.7313,0.73288 -2.2891,-2.9874 l 1.358,-2.05627 z m -100.5631,1.90108 0,1.4355 0,1.43551 -1.3579,0 c -0.7474,0 -1.358,-0.29114 -1.358,-0.62076 0,-0.32961 0.6106,-0.97355 1.358,-1.43551 l 1.3579,-0.81474 z m -212.0282,0.15519 c -0.7475,0 -1.3578,0.61045 -1.3578,1.35791 0,0.74747 0.6103,1.35791 1.3578,1.35791 0.7475,0 1.3579,-0.61044 1.3579,-1.35791 0,-0.74746 -0.6104,-1.35791 -1.3579,-1.35791 z m 208.9244,4.15132 -0.3881,3.45298 c -0.21,1.91384 -0.7316,3.83541 -1.1638,4.26772 l -0.7759,0.81475 0,-3.56937 0,-3.53057 1.1638,-0.73715 1.164,-0.69836 z m -1183.32285,6.47918 0,2.90981 0,2.87101 1.70709,1.93988 c 0.93432,1.06122 1.77916,1.95024 1.90107,1.97867 0.12192,0.0284 0.12192,-1.8995 0,-4.26772 l -0.23278,-4.30652 -1.66829,-0.54317 -1.70709,-0.58196 z m 928.19075,0.0776 -1.358,0.85354 c -0.7388,0.45666 -1.358,1.39171 -1.358,2.09506 0,1.95485 0.9977,1.53965 1.9012,-0.81474 l 0.8148,-2.13386 z m 367.8387,0.81474 3.2203,0 3.1812,0 4.035,6.82836 4.0349,6.78956 2.2891,8.14746 c 1.2553,4.48477 3.0318,9.97882 3.9574,12.22121 0.9256,2.24238 2.0107,5.67823 2.4054,7.6431 l 0.7372,3.56936 -1.7071,1.04754 c -0.9508,0.56473 -4.0476,1.12232 -6.906,1.20272 l -5.2376,0.11639 -0.6984,-1.78468 -0.6595,-1.78469 -1.358,0.85355 -1.3967,0.85354 0,-2.13386 c 0,-2.79283 -0.8718,-2.65154 -4.384,0.62076 -1.6046,1.49493 -3.6707,2.71582 -4.617,2.71582 l -1.7458,0 -0.97,-5.08247 c -0.5418,-2.80297 -0.9938,-7.07452 -1.0087,-9.46658 l -0.039,-4.34531 2.5218,-2.79342 c 1.3865,-1.53211 3.2754,-2.79342 4.1901,-2.79342 l 1.6684,0 1.7071,-4.15133 1.7071,-4.15133 -1.3193,-1.31911 -1.319,-1.31912 -2.2503,0.85355 -2.289,0.89234 0,2.52184 0,2.52183 -2.7546,1.47431 -2.7159,1.4743 -1.3579,-0.85355 -1.3191,-0.81474 0,-2.63823 0,-2.63823 1.358,0 1.3578,0 0,-2.13386 0,-2.13386 2.3667,0.77595 2.4053,0.73715 4.0738,-3.33658 4.0738,-3.37538 -3.1038,-0.85354 -3.1426,-0.89235 0.5044,-1.5131 0.5043,-1.5519 z m -94.9374,3.1814 -0.077,20.56265 -0.039,20.56266 -2.7545,1.47431 -2.716,1.4355 2.2504,1.28032 2.2501,1.24152 0,1.90107 c 0,1.03994 -0.6103,2.29267 -1.3578,2.75462 l -1.3579,0.81475 0,-2.09506 0,-2.13386 -2.0174,0 -2.0564,0 0,-1.93988 0,-1.90107 -1.6295,-0.54317 -1.6295,-0.54316 2.7935,-8.06987 c 1.5401,-4.43475 2.8478,-9.29078 2.9097,-10.7857 0.063,-1.49491 0.7257,-6.95097 1.4744,-12.10481 l 1.3579,-9.35019 1.2804,-1.28032 1.319,-1.28031 z m -10.6304,1.08633 0.7371,0.77594 0.7759,0.73716 -2.4442,0.93114 -2.4443,0.93114 1.7071,-1.6683 1.6684,-1.70708 z m -10.4366,0.42677 0.6983,0.73715 0.6984,0.69835 -2.5994,2.94861 -2.5995,2.94861 2.5607,-0.93114 2.5993,-0.93114 3.1038,2.05627 3.1427,2.01746 2.1338,-0.77594 2.0952,-0.81475 0,2.87101 0,2.83222 -1.5519,0 -1.5132,0 0.8147,5.23765 0.8537,5.19887 -2.0564,7.37151 c -1.1285,4.046 -2.2075,7.94318 -2.4054,8.69064 -0.1981,0.74745 -1.4675,3.06574 -2.8322,5.12126 l -2.483,3.72456 -1.4356,0 c -0.7778,0 -3.4084,1.54552 -5.8583,3.41418 l -4.4618,3.37538 -2.1339,0 -2.1338,0 0,1.35791 c 0,2.00968 -2.2217,1.65787 -4.6168,-0.73715 l -2.0952,-2.09507 -2.9098,1.5519 -2.871,1.5519 -1.358,-1.35791 -1.319,-1.31911 2.1338,-4.15133 2.1727,-4.15133 2.9097,-2.01747 2.8712,-2.05627 0.3878,-3.37538 0.3881,-3.37538 8.3803,-16.06215 c 4.628,-8.83881 9.0718,-16.85563 9.8544,-17.80804 l 1.4356,-1.74588 z m -125.4323,2.32785 0.8148,0.85354 c 0.4517,0.45159 0.5864,1.5776 0.2715,2.52184 l -0.5819,1.70708 -1.0863,-1.70708 -1.0475,-1.74589 0.8147,-0.81475 0.8147,-0.81474 z m 152.9009,5.58683 2.5219,2.79342 2.483,2.79342 -0.7759,1.28031 -0.8148,1.28032 2.7158,3.45297 2.7158,3.41418 -0.7759,2.01747 -0.776,2.01747 -3.9186,0.58196 -3.8797,0.58196 -0.4267,-2.13386 c -0.2383,-1.17105 -0.141,-5.70249 0.2327,-10.08734 l 0.6984,-7.99228 z m -53.6568,0.15519 3.996,1.97867 3.9961,1.97867 0.3881,-1.86228 0.4267,-1.86227 1.7071,1.08632 1.746,1.08633 -1.9788,4.77209 c -1.0951,2.62095 -2.9481,5.55164 -4.1125,6.51798 l -2.1338,1.74588 0,2.44424 0,2.44424 -5.5481,10.28133 c -3.0515,5.65738 -6.014,10.58149 -6.5956,10.94089 l -1.0474,0.65956 -0.8924,-0.85355 -0.8536,-0.89234 0,-11.94962 0,-11.94962 2.7158,-1.43551 2.7159,-1.4743 0,-2.56063 c 0,-1.40749 0.3626,-3.51646 0.8148,-4.6945 l 0.8146,-2.13386 1.2028,0.73715 1.2027,0.73716 -0.7371,-1.97867 -0.7759,-1.97868 1.4741,-0.89234 1.4745,-0.89234 z m 28.516,0.15519 c -0.7475,0 -1.3578,0.61044 -1.3578,1.35791 0,0.74746 0.6103,1.35791 1.3578,1.35791 0.7474,0 1.3579,-0.61045 1.3579,-1.35791 0,-0.74747 -0.6105,-1.35791 -1.3579,-1.35791 z m -125.8978,0.58196 5.6257,5.47045 5.6257,5.50924 -1.2415,1.62949 -1.2028,1.62949 2.9099,8.57424 2.8708,8.57424 -1.2415,3.37538 -1.2415,3.33659 1.1252,4.11253 1.0863,4.11253 -0.9311,12.10481 -0.97,12.14361 -1.5131,0.50436 -1.5519,0.50437 -0.6983,-2.44424 c -0.3841,-1.33862 -1.0892,-3.44402 -1.5906,-4.65569 l -0.9312,-2.17266 2.1727,-2.17266 2.1726,-2.17266 -2.0952,-4.11253 c -1.1594,-2.24236 -1.9401,-4.74725 -1.7458,-5.58684 l 0.3491,-1.5131 -2.7157,-1.59069 c -1.4949,-0.86477 -3.0234,-1.75118 -3.3754,-1.97867 -0.3522,-0.22751 0.078,-0.83048 0.9311,-1.35792 l 1.5519,-0.96993 0.9312,-3.72456 0.9311,-3.72456 -2.3278,0 -2.3279,0 0.7372,-1.97867 0.776,-2.01747 -1.2028,-0.73715 -1.2415,-0.77595 0.1939,-13.92829 0.1552,-13.96709 z m 74.2972,3.49177 1.2415,0 1.2415,0 0.6595,2.40545 c 0.3588,1.30805 1.0403,4.64613 1.5132,7.44911 l 0.8535,5.12127 -0.7759,0 c -0.9923,0 -2.7942,-4.89634 -3.8798,-10.55291 l -0.8535,-4.42292 z m -46.363,1.04754 2.4443,1.00873 c 1.3402,0.56796 7.3279,1.27014 13.3076,1.5519 5.9795,0.28175 13.9154,0.67658 17.6528,0.85354 l 6.7894,0.31038 1.0089,1.35791 1.0086,1.35792 0,6.32398 0.039,6.28519 -2.0564,0.77595 -2.0174,0.81475 0,2.05627 0,2.09506 1.4355,0 1.4743,0 -0.4268,1.24152 c -0.2492,0.68412 -4.0547,5.01879 -8.4577,9.62177 l -8.0311,8.34146 -1.9011,-1.90108 -1.94,-1.93987 -3.3364,0.62076 -3.2979,0.62076 0,1.74588 c 0,0.94254 -0.9871,2.5078 -2.1726,3.49177 l -2.1338,1.78469 0.6982,3.49177 0.6985,3.49177 -4.3066,8.06987 -4.3453,8.03108 -1.5906,0.50437 -1.5908,0.50436 -0.97,-6.28518 -0.9311,-6.2464 0.8148,-5.00487 0.8148,-5.04367 1.3967,-0.46557 1.3967,-0.42677 0,-1.93988 0,-1.93987 -2.2504,0 -2.2114,0 0.7372,-8.10867 0.7371,-8.10867 2.1727,-2.17266 c 2.8421,-2.84205 2.737,-4.32036 -0.4267,-6.01361 l -2.5995,-1.35791 0.6595,-3.1038 c 0.3688,-1.69158 1.295,-4.34766 2.0563,-5.93601 l 1.3967,-2.90981 -1.6295,-2.9874 -1.5906,-3.02621 0.7371,-0.69835 0.7371,-0.73715 z m -160.2723,0.11639 0,2.13386 0,2.13386 2.1726,0 2.1338,0 -0.543,-1.5907 c -0.296,-0.88761 -1.2464,-1.87679 -2.1339,-2.17265 l -1.6295,-0.50437 z m -933.62233,6.78956 1.70709,0.54316 1.66829,0.58196 0,3.84095 0,3.84095 -1.66829,0.58196 -1.70709,0.58197 0,-5.00488 0,-4.96607 z m 1292.22723,5.7032 c 0.7637,-0.0251 1.4988,0.61171 1.9788,1.86228 l 0.7372,1.90108 -1.8623,2.52183 -1.8235,2.48304 -0.9312,-2.36664 -0.9311,-2.36665 0.7759,-2.05627 c 0.4922,-1.28246 1.2927,-1.95361 2.0562,-1.97867 z m 83.8414,1.31912 2.0175,0 2.0563,0 2.289,2.63823 2.289,2.67702 -0.9699,0.58196 -0.9699,0.54317 -3.3754,-3.22019 -3.3366,-3.22019 z m -454.6675,2.71582 c 0.7476,0 1.3579,0.61046 1.3579,1.35791 0,0.74746 -0.6103,1.35791 -1.3579,1.35791 -0.7473,0 -1.3579,-0.61045 -1.3579,-1.35791 0,-0.74745 0.6104,-1.35791 1.3579,-1.35791 z m 222.9302,7.44911 2.7159,6.01361 2.7157,5.97481 -0.8147,2.56064 -0.8146,2.59943 1.4354,1.74588 1.4743,1.70709 -3.9186,6.2076 c -2.1563,3.40019 -4.611,6.59281 -5.4317,7.09993 l -1.4741,0.93114 0,-15.71297 0,-15.71298 2.0174,0 2.0562,0 0.039,-1.70709 0,-1.70709 z m -280.9712,6.40159 c 0.2462,0.0347 0.5962,0.15699 0.9699,0.38797 0.7475,0.46196 1.358,1.35529 1.358,1.97867 0,0.62339 -1.0073,1.51651 -2.2115,1.97867 l -2.1727,0.85355 0.8148,-2.17266 c 0.4568,-1.1908 0.8534,-2.43672 0.8534,-2.79342 0,-0.17836 0.1418,-0.26747 0.3881,-0.23278 z m 25.4123,1.08633 1.3579,0 c 0.7476,0 1.3579,0.5769 1.3579,1.28031 0,0.70335 -0.6103,1.67191 -1.3579,2.13386 l -1.3579,0.81475 0,-2.09506 0,-2.13386 z m 22.231,0 4.0737,0 4.0737,0 -0.8147,0.77595 -0.776,0.77594 3.259,7.37152 3.259,7.33273 -0.7759,1.93987 -0.7373,1.90107 1.4745,0.89235 c 0.7984,0.49344 1.4354,1.46549 1.4354,2.13386 l 0,1.20272 -6.13,2.71582 -6.13,2.71582 -0.8147,2.09507 -0.8148,2.13386 -1.7459,0 -1.7458,0 -0.776,2.01747 -0.7759,2.05626 -3.1814,0 -3.1427,0 -1.6294,-1.62949 -1.6296,-1.6295 0,-2.52183 0,-2.56063 1.4356,0.89234 1.4356,0.89234 3.2977,-0.81475 3.3366,-0.85354 0,-1.16393 0,-1.20272 -5.0437,0.69836 -5.0437,0.65955 1.7847,-2.17265 1.8235,-2.17266 -2.3278,-3.56937 -2.3667,-3.56937 1.8623,-1.20272 c 1.0132,-0.66004 3.2066,-1.5693 4.8884,-2.01747 3.6605,-0.97542 3.9241,-2.59021 0.6595,-3.87974 l -2.3665,-0.96994 5.3152,-4.6169 5.3541,-4.65569 z m -59.0498,0.34917 c -0.4624,0.0328 -1.0457,0.17295 -1.7071,0.42678 l -2.2114,0.85354 0.7372,1.24152 c 1.017,1.64583 2.9814,1.53444 4.0737,-0.23279 0.9342,-1.51181 0.4948,-2.38741 -0.8924,-2.28905 z m 283.687,0.15519 c 0.044,-0.0109 0.06,-0.0177 0.078,0 0.2839,0.28389 0.812,6.96429 1.1638,14.85943 l 0.6207,14.35507 -1.3578,0.85354 -1.3579,0.85355 -0.039,3.64696 c -0.012,2.01139 -0.4595,4.34082 -1.0088,5.16006 -0.5491,0.81923 -2.651,1.87633 -4.6557,2.36665 l -3.6469,0.89234 -0.8536,-2.75462 -0.8924,-2.71583 -1.2415,0.77595 -1.2802,0.77595 1.6294,-3.80215 c 0.8958,-2.10313 2.824,-5.22416 4.3065,-6.90595 l 2.7159,-3.0262 -2.1339,0 -2.1339,0 -1.0086,2.36665 -1.0476,2.36664 -1.0476,-4.07373 c -0.5859,-2.2424 -1.4683,-5.44632 -1.9786,-7.09994 l -0.9311,-2.98741 7.837,-8.22506 c 4.0404,-4.23606 7.6014,-7.51862 8.2638,-7.6819 z m -380.9911,7.6431 1.2028,0 c 0.6606,0 1.6034,1.0586 2.0951,2.36665 0.4917,1.30806 4.1795,7.8049 8.1862,14.43266 4.0068,6.62775 7.0911,12.16384 6.8672,12.2988 -0.224,0.13492 -2.2581,1.06067 -4.5005,2.05626 -2.2425,0.9956 -6.0228,2.26767 -8.4191,2.83222 l -4.3454,1.04753 -0.6982,-5.62563 c -0.3803,-3.09058 -0.6276,-10.95738 -0.5433,-17.49766 l 0.1552,-11.91083 z m 333.6582,3.41418 -0.039,12.91956 -0.039,12.88076 1.513,3.80215 1.513,3.80215 -2.9486,4.03494 c -1.6308,2.20585 -3.5624,3.99614 -4.2676,3.99614 l -1.2803,0 0.8922,-5.78083 c 0.4945,-3.17671 1.2126,-10.6972 1.5908,-16.7217 0.378,-6.02451 1.2478,-12.73947 1.9011,-14.93703 l 1.1638,-3.99614 z m -257.8867,12.2212 -0.039,2.13386 c -0.023,1.1835 0.394,2.56671 0.8924,3.065 1.658,1.65803 2.0451,-0.19933 0.582,-2.71582 l -1.4356,-2.48304 z m -944.75717,1.74589 -0.81475,0.81475 -0.81474,0.85354 2.59943,-0.11639 2.59943,-0.11639 -1.78469,-0.69836 -1.78468,-0.73715 z m -202.2124,1.86228 -0.77595,2.44424 -0.77595,2.44424 2.75462,0.73715 2.75462,0.69836 1.31911,-2.25026 c 1.51114,-2.58876 1.50198,-2.55823 1.82348,4.22893 l 0.27158,5.08247 -1.70708,0 -1.70709,0 0,-2.05627 0,-2.01747 -1.35791,0 -1.35792,0 0,2.01747 0,2.05627 -1.35791,0 -1.35791,0 0,-2.71583 0,-2.71582 -1.74588,0 -1.78469,0 0.0776,-3.60817 0.0388,-3.60816 2.44425,-0.34918 2.44424,-0.38797 z m 13.6955,2.52183 1.47431,0 -0.73716,2.71583 -0.69835,2.75462 4.42291,3.37538 c 2.43317,1.85588 5.27335,3.38425 6.32399,3.41417 l 1.90107,0.0776 -3.49177,1.90107 -3.53057,1.90108 -7.02234,0.93114 -7.02234,0.93114 0,-1.4743 c 0,-0.80138 1.29505,-2.34914 2.87101,-3.45298 l 2.87101,-2.01747 -0.89234,-1.4355 -0.93114,-1.47431 1.43551,0 1.43551,0 0,2.01747 0,2.05627 2.40544,-0.0388 2.36664,0 -1.35791,-1.00874 c -0.74866,-0.54914 -2.1989,-2.63264 -3.22019,-4.61689 l -1.86228,-3.60817 0.93114,-1.4743 c 0.50601,-0.81872 1.53733,-1.47431 2.32785,-1.47431 z m 1231.04367,0 0,1.35792 c 0,0.74745 -0.1623,1.27721 -0.3492,1.20272 -0.1867,-0.0745 -1.8558,-0.60429 -3.7246,-1.20272 l -3.3753,-1.08633 3.7246,-0.15519 3.7245,-0.1164 z m -6.712,3.1038 3.3755,0.62076 c 1.846,0.3529 3.3365,0.87732 3.3365,1.16392 0,1.05155 -5.2788,0.50528 -5.9748,-0.62075 l -0.7372,-1.16393 z m -1287.29996,0.65956 1.78468,0.58196 1.78469,0.58196 -3.22019,0.85355 -3.22019,0.85354 1.4355,-1.43551 1.43551,-1.4355 z m 1468.01876,3.0262 1.3578,0 c 1.7827,0 1.6547,0.88494 -0.5432,4.46171 l -1.8235,2.9874 0.1164,14.62665 0.1552,14.58785 -3.7245,1.28031 -3.7246,1.31912 0,1.43551 0,1.4355 -2.7158,0 -2.7158,0 0,-1.35791 0,-1.35791 -1.9399,0 -1.9399,0 -0.6207,2.36664 -0.6208,2.36665 -0.1552,-6.28519 -0.1939,-6.28519 2.0949,-5.85842 2.0564,-5.85842 4.8497,-4.84968 4.8884,-4.84968 2.5995,-5.08247 2.5995,-5.08247 z m -1421.57819,1.24152 0,2.75462 0,2.79342 1.43551,0 1.4355,0 -0.81474,1.35791 -0.85355,1.35791 -2.56063,0 -2.56063,0 -0.89235,-1.4743 -0.93113,-1.43551 2.87101,-2.67702 2.87101,-2.67703 z m 326.67468,1.4743 0.77595,0.0776 c 1.20507,0.12442 14.28598,17.44135 14.74304,19.51513 0.22742,1.0318 -0.1313,3.93711 -0.81475,6.44037 l -1.24151,4.53931 -1.43551,-4.77209 -1.43551,-4.73329 -0.11639,3.64696 -0.11639,3.64696 -1.28032,0.77595 -1.24152,0.81475 -0.85354,-1.39671 -0.89234,-1.39671 0.81474,-3.065 0.81475,-3.0262 -2.25025,3.065 -2.25026,3.0262 -1.82348,0 -1.86228,0 0.23279,-13.57911 0.23278,-13.57912 z m 904.52421,0.34918 3.4529,0.65956 3.4142,0.65955 0,1.04754 c 0,0.57314 -1.1483,1.33781 -2.5605,1.70709 l -2.5608,0.65955 -1.7071,-1.00873 -1.6682,-1.04753 0.8148,-1.35792 0.8147,-1.31911 z m 165.1608,1.62949 c 0.7815,0.12629 0.7922,2.73887 0.1164,8.14747 l -0.9698,7.52671 -1.0864,0 -1.1252,0 -0.6207,-5.08247 -0.6208,-5.12126 2.0175,-3.065 c 1.0669,-1.64835 1.8202,-2.48122 2.289,-2.40545 z m -1877.91387,0.0388 -0.54316,1.70709 -0.58196,1.70709 3.60816,0 3.64696,0 -0.58196,-1.70709 -0.54316,-1.70709 -2.52184,0 -2.48304,0 z m 762.87462,1.90108 -1.35791,0.81474 -1.35791,0.85355 0,2.71582 0,2.71582 1.35791,-0.81474 1.35791,-0.85355 0,-2.71582 0,-2.71582 z m -728.42246,0.15519 0,2.71582 0,2.71582 1.93987,0 c 1.07708,0 2.3962,-0.68206 2.90981,-1.5131 l 0.93114,-1.5131 -1.90108,-1.16392 c -1.03009,-0.65246 -2.31042,-1.23035 -2.87101,-1.24152 l -1.00873,0 z m 1685.86651,0.0776 4.0737,0.50437 c 5.1998,0.5998 8.807,2.09535 8.807,3.64696 0,1.65425 -2.2439,1.51077 -5.1601,-0.31038 l -2.4054,-1.5131 -5.3929,3.72456 -5.3928,3.68576 2.871,-0.85355 2.871,-0.89234 2.2115,0.85355 2.2501,0.85354 -0.737,1.16392 -0.6984,1.16393 -2.0951,-0.77595 -2.0563,-0.81475 -0.7371,2.79342 -0.7371,2.79342 -1.94,0.77595 -1.9397,0.73715 1.3578,-2.56063 1.3967,-2.52184 -1.8622,-1.5519 -1.8235,-1.5131 -2.4055,0.93114 -2.4053,0.89234 0.6595,-1.90107 0.6207,-1.90108 5.3152,-3.72456 5.3542,-3.68576 z m -929.85905,0.58196 0,6.82836 -0.0388,6.78956 0.58196,-3.065 c 0.32252,-1.67152 0.35117,-4.72377 0.0388,-6.78956 l -0.58197,-3.76336 z m 916.82305,1.39671 1.5519,1.5519 1.5907,1.5907 -0.9312,1.4743 c -1.0288,1.66473 -4.8431,2.03534 -4.8109,0.46557 0.012,-0.56059 0.6142,-1.95005 1.3192,-3.065 l 1.2803,-2.01747 z m -1230.84976,0.73716 c 0.68992,0 1.04754,0.42894 1.04754,1.28031 l 0,1.35791 -3.065,-0.0388 -3.065,0 2.05626,-1.31912 c 1.31742,-0.85137 2.33629,-1.28031 3.0262,-1.28031 z m 1355.97156,2.36664 2.1727,0.81475 c 1.1823,0.4537 2.4032,0.81474 2.7158,0.81474 0.3126,0 0.5819,0.93508 0.5819,2.05627 l 0,2.01747 -2.7546,0 -2.7158,0 0,-2.87101 0,-2.83222 z m -1077.67731,1.16393 -0.73716,0.73715 -0.69835,0.69835 1.00873,2.56063 1.00874,2.59943 0.50436,-2.48303 c 0.27503,-1.36657 0.12943,-2.85799 -0.31038,-3.29779 l -0.77594,-0.81474 z m 430.96241,0.46556 1.2026,0 0,2.05627 0,2.01747 -2.9097,0 -2.8712,0 1.7071,-2.01747 c 0.9307,-1.12119 2.2153,-2.05627 2.8712,-2.05627 z m 431.5053,1.31912 4.6557,6.47918 c 2.564,3.56497 4.5295,6.92731 4.3453,7.48791 l -0.3491,1.00873 2.7547,0 2.7545,0 0.8148,2.09506 0.8147,2.13387 -0.6983,0.69835 -0.7371,0.69835 -0.8148,-1.31911 c -0.4572,-0.7397 -2.6638,-1.76163 -4.8885,-2.25025 l -4.035,-0.89234 -2.6769,-3.41418 -2.6771,-3.37538 -2.9098,0.89234 -2.9098,0.93114 0.6983,2.59943 c 0.8919,3.41106 0.2768,3.26702 -5.2764,-1.16392 l -4.6557,-3.72456 0,-3.065 0,-3.065 1.4355,0 1.4355,0 -0.7372,-1.16393 -0.6983,-1.12512 7.1775,-0.23279 7.1775,-0.23278 z m -465.6471,1.20272 0,2.71582 c 0,1.49826 -0.5903,4.32909 -1.3192,6.2464 -0.7289,1.91731 -1.7876,3.43689 -2.3666,3.41417 -1.9519,-0.0766 -5.8196,-2.77173 -5.8196,-4.07373 l 0,-1.31912 2.1338,0 2.0951,0 -0.4268,-3.065 -0.4268,-3.0262 3.065,-0.46557 3.0651,-0.42677 z m 424.0175,0 0,3.87975 0,3.87974 -2.7159,0 -2.7158,0 0.4269,-3.45297 0.4655,-3.41418 2.289,-0.46557 2.2503,-0.42677 z m 358.605,0.19399 2.1338,0 c 1.1652,0 2.1338,0.29113 2.1338,0.62076 0,0.32961 -0.5844,0.92788 -1.2802,1.35791 l -1.2803,0.77595 -0.8537,-1.35791 -0.8534,-1.39671 z m -765.5129,0.69835 3.3366,0 3.3366,0 -0.3104,5.08247 -0.2716,5.08247 1.6296,0.15519 c 0.912,0.0765 -0.449,0.72271 -3.0651,1.4355 -2.6161,0.7128 -6.1553,1.63725 -7.8371,2.05627 l -3.0649,0.77595 0,-0.73715 c 0,-0.40749 0.8153,-1.57293 1.7845,-2.56063 0.9694,-0.98773 2.3636,-3.94066 3.1038,-6.55678 l 1.358,-4.73329 z m -387.50914,0.65956 c -0.32961,0 -0.62076,0.61044 -0.62076,1.35791 l 0,1.35791 1.43551,0 1.4355,0 -0.81474,-1.35791 c -0.46196,-0.74747 -1.10589,-1.35791 -1.43551,-1.35791 z m 806.32784,0.0388 0.6595,3.37538 0.6595,3.37538 -1.8622,0 -1.8623,0 0,-2.63823 0,-2.63823 1.2028,-0.73715 1.2027,-0.73715 z m 143.0074,2.67702 2.7159,0 2.7157,0 0,1.35791 0,1.35791 -2.6382,0 -2.6382,0 -0.8147,1.35792 -0.8535,1.35791 -2.6383,0 -2.6382,0 0,-1.35791 0,-1.35792 3.4142,0 3.3753,0 0,-1.35791 0,-1.35791 z m -732.2246,1.5519 1.6295,0.62076 1.6295,0.62076 -0.5431,4.50051 -0.5044,4.5005 -4.1513,0 -4.1514,0 2.2503,-1.62949 2.2114,-1.6295 0,-2.67702 c 0,-1.4748 0.368,-3.04496 0.8148,-3.49177 l 0.8147,-0.81475 z m 68.8655,0.89234 1.7847,0.69836 1.7847,0.73715 -2.5994,0.11639 -2.5995,0.0776 0.8148,-0.81475 0.8147,-0.81475 z m 493.3099,0 1.7846,0.69836 1.7847,0.73715 -2.5994,0.11639 -2.5994,0.0776 0.8146,-0.81475 0.8149,-0.81475 z m -614.0864,0.27158 1.2803,0 c 0.7034,0 1.6263,0.58451 2.0563,1.28032 l 0.776,1.24152 -1.3968,0.89234 -1.3967,0.85355 0.6984,1.16392 0.7371,1.20272 -1.3967,0.85355 -1.3579,0.85354 0,-4.19013 0,-4.15133 z m 100.5631,0 2.7158,0 2.7158,0 0,1.24152 c 0,0.68633 -0.361,2.23187 -0.8147,3.41418 l -0.8536,2.13386 -1.8623,0 -1.901,0 0,-3.37538 0,-3.41418 z m 51.5618,0 1.2415,0 1.2415,0 0.6208,4.07374 0.582,4.07373 -3.1814,0 c -3.616,0 -3.6005,0.018 -1.8235,-4.65569 l 1.3191,-3.49178 z m 636.7052,4.07374 c 0.3295,0 0.9735,0.61044 1.4356,1.35791 l 0.8534,1.35791 -1.4741,0 -1.4356,0 0,-1.35791 c 0,-0.74747 0.291,-1.35791 0.6207,-1.35791 z m -830.9641,0.93114 0.8147,0.81474 0.8148,0.81475 -0.6984,1.78469 -0.7371,1.78468 -0.078,-2.59943 -0.1164,-2.59943 z m 696.0653,0.42677 0.8924,0.0388 c 0.4906,0.0114 1.7503,0.54213 2.7934,1.20272 l 1.901,1.20272 -0.9311,2.36665 -0.8923,2.40544 -0.8535,-0.89234 -0.8536,-0.85355 -1.8623,1.5131 -1.8234,1.51311 0,-1.51311 0,-1.55189 1.5519,0 1.5131,0 -0.7371,-2.71583 -0.6985,-2.71582 z m -584.639,4.07373 1.3191,0 1.3191,0 -0.7759,2.05627 c -0.4303,1.12119 -1.0254,2.05627 -1.3191,2.05627 -0.2938,0 -0.5432,-0.93508 -0.5432,-2.05627 l 0,-2.05627 z m -199.7682,0.93114 0.81474,0.81475 0.81475,0.81475 -0.69836,1.78468 -0.69835,1.78468 -0.11639,-2.59943 -0.11639,-2.59943 z m 1022.2358,7.25513 2.289,0 0.8535,1.35791 0.8536,1.35791 -1.1252,-0.0388 c -0.6045,-0.0115 -1.9826,-0.59454 -3.1038,-1.31912 l -2.0562,-1.31911 2.2891,-0.0388 z m 49.8547,4.07373 1.4743,0 1.4356,0 0,1.35792 c 0,0.74746 -0.2912,1.35791 -0.6208,1.35791 -0.3295,0 -0.9737,-0.61045 -1.4356,-1.35791 l -0.8535,-1.35792 z m -3.9185,1.35792 1.319,0 1.3192,0 -0.7759,2.01746 c -0.4305,1.1212 -1.0254,2.05627 -1.3193,2.05627 -0.2935,0 -0.543,-0.93507 -0.543,-2.05627 l 0,-2.01746 z m -288.7696,0.0388 1.358,0 c 0.7472,0 2.2929,0.59454 3.4141,1.31912 l 2.0175,1.31911 -1.358,0 c -0.7475,0 -2.2929,-0.59454 -3.4142,-1.31911 l -2.0174,-1.31912 z m -1657.311518,18.97197 0,1.4355 0,1.43551 1.357911,-0.81475 c 0.747461,-0.46196 1.357911,-1.10589 1.357911,-1.43551 0,-0.32961 -0.61045,-0.62075 -1.357911,-0.62075 l -1.357911,0 z m 1.357911,9.50537 1.939873,0 c 1.077079,0 2.331461,0.61045 2.793418,1.35792 l 0.853544,1.35791 -2.793417,0 -2.793418,0 0,-1.35791 0,-1.35792 z"
     id="path3007"
     inkscape:connector-curvature="0" />
</svg>
