<?xml version="1.0" encoding="UTF-8" standalone="no"?>
<!-- Created with Inkscape (http://www.inkscape.org/) -->

<svg
   xmlns:dc="http://purl.org/dc/elements/1.1/"
   xmlns:cc="http://creativecommons.org/ns#"
   xmlns:rdf="http://www.w3.org/1999/02/22-rdf-syntax-ns#"
   xmlns:svg="http://www.w3.org/2000/svg"
   xmlns="http://www.w3.org/2000/svg"
   xmlns:sodipodi="http://sodipodi.sourceforge.net/DTD/sodipodi-0.dtd"
   xmlns:inkscape="http://www.inkscape.org/namespaces/inkscape"
   id="svg3134"
   version="1.1"
   inkscape:version="0.48.4 r9939"
   width="1536.4397"
   height="612.99951"
   sodipodi:docname="yr_migdaldavid.svg">
  <metadata
     id="metadata3140">
    <rdf:RDF>
      <cc:Work
         rdf:about="">
        <dc:format>image/svg+xml</dc:format>
        <dc:type
           rdf:resource="http://purl.org/dc/dcmitype/StillImage" />
        <dc:title />
      </cc:Work>
    </rdf:RDF>
  </metadata>
  <defs
     id="defs3138" />
  <sodipodi:namedview
     pagecolor="#ffffff"
     bordercolor="#666666"
     borderopacity="1"
     objecttolerance="10"
     gridtolerance="10"
     guidetolerance="10"
     inkscape:pageopacity="0"
     inkscape:pageshadow="2"
     inkscape:window-width="1366"
     inkscape:window-height="706"
     id="namedview3136"
     showgrid="false"
     fit-margin-top="0"
     fit-margin-left="0"
     fit-margin-right="0"
     fit-margin-bottom="0"
     inkscape:zoom="0.07926825"
     inkscape:cx="-1223.6898"
     inkscape:cy="2425.3888"
     inkscape:window-x="-8"
     inkscape:window-y="-8"
     inkscape:window-maximized="1"
     inkscape:current-layer="svg3134" />
  <path
     style="fill:#000000"
     d="m 0.00317232,473.72885 0,-139.2716 2.66151548,0.2531 c 1.4638336,0.1392 4.6736213,0.4401 7.1328616,0.6687 2.4592396,0.2286 5.4294916,0.5079 6.6005586,0.6206 1.171066,0.1127 5.099463,0.3938 8.729771,0.6246 6.167561,0.3922 6.656429,0.4861 7.452243,1.4317 0.824985,0.9802 0.983015,1.0028 5.037035,0.7217 2.919406,-0.2025 4.301009,-0.4748 4.567842,-0.9002 0.210366,-0.3355 0.392883,-6.0713 0.40553,-12.7464 0.01278,-6.6751 0.03066,-12.5677 0.04046,-13.0947 0.0094,-0.527 0.01363,-2.6349 0.0094,-4.6842 -0.0047,-2.0494 0.08951,-5.2592 0.208918,-7.1329 0.494062,-7.754 0.851855,-20.8959 0.579699,-21.2921 -0.160926,-0.2342 -0.318913,-8.8576 -0.351149,-19.1629 -0.04003,-12.8094 -0.21058,-19.1077 -0.539117,-19.9086 -0.637529,-1.5542 0.09914,-2.4482 2.017386,-2.4482 1.712441,0 1.834359,-0.4942 0.360135,-1.4601 -0.592985,-0.3886 -0.964916,-0.8897 -0.826518,-1.1136 0.473367,-0.766 1.994562,-0.4076 3.571584,0.8414 1.5605,1.236 1.613517,1.2453 5.218274,0.9168 2.002993,-0.1826 4.19557,-0.2751 4.872404,-0.2056 0.676877,0.069 3.626006,0.3514 6.553674,0.6265 2.927667,0.275 5.706289,0.7258 6.174716,1.0018 1.608321,0.9473 4.264003,1.505 8.091007,1.6988 2.10792,0.1069 4.886542,0.4057 6.174716,0.6641 1.288173,0.2584 4.258425,0.6162 6.600558,0.7952 2.342134,0.179 4.929127,0.6338 5.748874,1.0106 1.406345,0.6464 5.34594,0.9957 16.04881,1.423 2.02105,0.081 4.01204,0.411 4.7369,0.7859 0.68774,0.3556 2.66395,0.9539 4.39163,1.3295 8.50604,1.8491 10.63691,2.2497 13.48737,2.536 2.37113,0.2381 3.18351,0.4937 3.51039,1.1045 0.37108,0.6934 0.89908,0.7839 4.14332,0.7103 2.04494,-0.046 5.65591,0.1578 8.02441,0.4537 3.16452,0.3954 4.8431,0.4177 6.33083,0.084 2.13236,-0.4778 3.40299,-0.2849 4.51129,0.6849 0.55644,0.487 1.98259,0.5115 8.42669,0.1451 6.52923,-0.3712 8.14181,-0.3406 10.18918,0.1937 1.33774,0.349 3.13165,0.7453 3.9864,0.8804 0.85479,0.1351 1.76848,0.504 2.03046,0.8196 0.32964,0.3973 0.44117,3.7703 0.36218,10.9542 -0.11055,10.0514 -0.0878,10.3802 0.71733,10.3802 0.80778,0 0.82796,-0.3371 0.7077,-11.816 -0.10028,-9.5685 -0.0153,-11.8544 0.44603,-12.0172 1.03463,-0.3649 14.02917,-0.4981 14.24682,-0.1459 0.34446,0.5574 1.71976,0.3957 2.26961,-0.2668 0.38943,-0.4692 2.21089,-0.6681 7.82375,-0.8544 4.02387,-0.1336 9.88802,-0.3485 13.03142,-0.4777 4.97286,-0.2042 6.02392,-0.1264 8.09101,0.5995 1.30665,0.4589 3.32659,0.997 4.48876,1.1958 1.74497,0.2985 2.16409,0.5469 2.40614,1.426 0.16122,0.5855 0.31222,5.526 0.33556,10.9788 0.0366,8.5831 0.13205,9.9486 0.70984,10.1703 0.36707,0.1409 0.85134,0.072 1.07614,-0.1526 0.24112,-0.2411 0.41132,-5.2398 0.41499,-12.1876 0.006,-10.8807 0.0644,-11.8099 0.76886,-12.187 0.41941,-0.2244 6.30404,-0.5281 13.07689,-0.6748 15.06388,-0.3261 20.60137,-0.5539 25.30246,-1.0406 4.99526,-0.5171 15.3615,-0.5308 17.55991,-0.023 5.3416,1.2336 8.76827,1.6275 11.55949,1.3289 2.70973,-0.29 2.99794,-0.2408 3.83259,0.654 0.79764,0.8551 1.10335,0.922 2.63145,0.5762 1.95121,-0.4416 7.85811,0.4932 14.45305,2.2873 2.64691,0.7201 5.92351,1.1808 10.59147,1.489 5.01289,0.3311 6.94664,0.6164 7.48576,1.1043 0.47353,0.4285 1.559,0.6578 3.11422,0.6578 1.31305,0 2.92682,0.2194 3.58615,0.4876 1.76418,0.7176 4.86943,1.2213 10.14148,1.6451 4.23071,0.34 6.53549,0.6482 11.37302,1.5207 0.86829,0.1566 1.90403,0.6442 2.30168,1.0836 0.5946,0.6571 1.34034,0.7989 4.19847,0.7989 1.91152,0 4.52151,0.1934 5.80001,0.4298 1.27851,0.2363 3.0863,0.5052 4.01727,0.5976 0.93098,0.092 3.60898,0.4565 5.95111,0.8094 2.34213,0.3528 5.36285,0.6313 6.71272,0.619 1.70376,-0.016 2.69073,0.1916 3.22734,0.6773 0.4252,0.3847 0.96253,0.6995 1.1941,0.6995 0.23153,0 1.74157,-1.6419 3.3556,-3.6488 1.61398,-2.0069 3.39784,-3.9864 3.96412,-4.3989 0.87217,-0.6353 0.95623,-0.8869 0.54989,-1.6461 -0.26381,-0.493 -0.47962,-1.637 -0.47962,-2.5424 0,-0.9054 -0.21518,-1.8614 -0.47822,-2.1244 -0.35371,-0.3537 -0.24627,-0.8039 0.41264,-1.7293 0.86114,-1.2094 0.89124,-1.7322 0.90278,-15.6825 0.006,-7.9373 -0.18941,-21.4259 -0.43555,-29.9747 -0.42145,-14.6392 -0.49568,-15.5773 -1.27625,-16.1275 -1.16919,-0.8243 -1.15399,-3.6831 0.023,-4.313 0.78184,-0.4184 0.85168,-0.8916 0.85168,-5.7696 0,-3.49099 -0.18119,-5.60398 -0.52826,-6.15975 -0.42281,-0.677 -0.418,-1.02249 0.0243,-1.73037 0.4209,-0.67402 0.55355,-3.97894 0.55743,-13.88787 0.005,-12.5644 -0.0247,-13.035 -0.87579,-13.94098 -1.0451,-1.11242 -1.13785,-2.48142 -0.21982,-3.24334 0.58668,-0.48687 0.6288,-2.54122 0.37436,-18.25689 -0.21301,-13.15364 -0.42321,-17.87261 -0.81737,-18.34708 -0.90546,-1.09003 -1.16276,-4.07693 -0.40531,-4.70552 0.55129,-0.45757 0.64587,-1.6814 0.58055,-7.51382 -0.0662,-5.91585 0.0268,-7.08295 0.61606,-7.73415 0.45919,-0.50743 0.69404,-1.53674 0.69404,-3.04201 0,-1.4244 0.23877,-2.53891 0.6386,-2.98068 0.49368,-0.54551 0.70225,-2.4632 0.91913,-8.45114 0.27659,-7.63591 0.26701,-7.75992 -0.67879,-8.76665 -1.07338,-1.14258 -0.91628,-2.51916 0.3658,-3.20532 0.41869,-0.22408 2.84897,-0.6199 5.40066,-0.87962 7.53529,-0.76694 8.44241,-0.90862 9.06538,-1.41567 0.47877,-0.38965 0.54133,-1.56902 0.32381,-6.10403 -0.30865,-6.4358 -0.0964,-7.23225 3.29206,-12.3516 3.60787,-5.45087 10.71066,-14.39454 11.87492,-14.95252 1.54321,-0.73969 1.46617,-1.33297 -0.36265,-2.79221 -1.27702,-1.01891 -1.47989,-1.39991 -1.24717,-2.34213 0.15288,-0.61888 0.77606,-1.64891 1.38484,-2.28899 1.04183,-1.09531 1.06508,-1.2099 0.39548,-1.94981 -0.88358,-0.97632 -0.91641,-2.36087 -0.0726,-3.06116 0.96031,-0.79701 0.77145,-2.15702 -0.48116,-3.46449 -0.72585,-0.75757 -1.02241,-1.42304 -0.84279,-1.89108 0.25683,-0.66934 0.33339,-0.67121 1.04698,-0.0255 1.06831,0.96679 2.27787,0.87008 3.2697,-0.26142 L 455.44232,0 l 0.13946,1.21978 c 0.0981,0.85842 -0.18575,1.55927 -0.95814,2.36547 -1.32097,1.37875 -1.35759,1.79633 -0.24593,2.80239 1.01121,0.91513 1.09727,2.03403 0.21292,2.76797 -0.96304,0.79927 -0.77593,1.54769 0.63877,2.55506 0.93698,0.66721 1.27752,1.25274 1.27752,2.19662 0,0.89695 -0.38717,1.62668 -1.27752,2.40797 -1.6108,1.41346 -1.61548,2.13539 -0.0175,2.69247 0.6931,0.24163 1.39114,0.85199 1.55121,1.3564 0.29452,0.92795 1.9964,3.19126 4.07263,5.41625 2.50217,2.68136 6.61168,8.46485 8.15787,11.48084 l 1.63732,3.19382 0.0332,5.67916 c 0.0383,6.56538 -0.19699,6.23897 4.7697,6.61129 3.42377,0.25661 4.43783,0.86127 3.38872,2.02049 -1.21386,1.34132 -0.46255,1.93546 3.19974,2.53019 2.01807,0.32773 3.44174,0.76439 3.44174,1.05558 0,0.27313 -0.26538,1.05302 -0.58974,1.73309 -0.37922,0.79501 -0.68446,3.6117 -0.85488,7.88869 -0.22451,5.63262 -0.16672,6.73393 0.37682,7.18503 0.4103,0.34054 0.64196,1.27684 0.64196,2.59487 0,1.62625 -0.18,2.15842 -0.85168,2.51788 -0.79688,0.42648 -0.85169,0.89163 -0.85169,7.22616 l 0,6.77034 1.80983,1.21246 c 1.59253,1.06687 1.82559,1.42887 1.94108,3.01497 0.0941,1.29298 -0.11655,2.1505 -0.74523,3.0334 -0.48205,0.67701 -0.87647,1.81119 -0.87647,2.52043 0,0.92826 -0.24588,1.3676 -0.87766,1.56813 -1.23281,0.39126 -1.96624,2.11149 -1.26202,2.96003 0.29732,0.35826 0.78406,0.65137 1.08168,0.65137 0.77422,0 1.12865,1.20151 0.62956,2.13406 -0.28501,0.53256 -0.27833,1.48066 0.0204,2.87299 0.30371,1.41614 0.30788,2.44063 0.0132,3.21614 -0.54806,1.44152 -0.1898,2.38348 1.09198,2.87081 0.79092,0.30069 1.00653,0.69881 1.00653,1.85851 0,0.81174 -0.19163,1.59431 -0.42585,1.73905 -0.23421,0.14475 -0.42584,0.6707 -0.42584,1.16877 0,0.49807 -0.40587,1.33761 -0.90198,1.86566 -0.8674,0.92331 -0.88311,1.11975 -0.41059,5.12633 0.3629,3.07701 0.71,4.399 1.32782,5.05658 0.99127,1.05516 1.08121,2.6912 0.21121,3.84144 -0.34386,0.45463 -0.63131,1.72556 -0.63876,2.82423 -0.007,1.09868 -0.22071,2.12564 -0.47388,2.28214 -0.26934,0.16646 -0.34063,0.75114 -0.17178,1.40911 0.48388,1.88584 0.27415,8.47967 -0.29886,9.39728 -0.29115,0.46621 -0.91748,0.90351 -1.39178,0.97177 -1.13257,0.16297 -1.36772,1.46711 -0.32424,1.79829 0.67875,0.21543 0.80272,0.65818 0.7741,2.76483 -0.0234,1.72577 0.17817,2.75311 0.64622,3.29304 1.67134,1.92821 1.74161,3.95254 0.2518,7.25559 -0.23869,0.52923 -0.28255,1.63803 -0.10114,2.55513 0.1763,0.8911 0.2917,2.4274 0.25644,3.414 -0.0472,1.3217 0.17507,2.033 0.84445,2.7024 0.74088,0.7409 0.86305,1.2348 0.66214,2.6775 -1.14288,8.2075 -1.34907,20.6589 -0.45105,27.2362 0.16872,1.2358 0.0624,2.8377 -0.26845,4.0455 -0.33088,1.2078 -0.59048,5.1193 -0.65555,9.8777 -0.0593,4.3329 -0.16825,10.8568 -0.24217,14.4973 -0.11817,5.8202 -0.0409,6.7618 0.63863,7.7991 0.52588,0.8026 0.68702,1.5716 0.50395,2.4049 -0.30636,1.3949 0.3732,2.9785 1.27808,2.9785 0.33484,0 0.81391,0.3832 1.0646,0.8516 0.36951,0.6905 0.89163,0.8517 2.75784,0.8517 1.26612,0 2.43621,-0.2171 2.60024,-0.4825 0.31257,-0.5058 2.75507,-0.3703 9.33349,0.5177 1.87371,0.2529 4.21665,0.5129 5.20652,0.5777 0.98987,0.065 2.04383,0.3126 2.34213,0.5507 0.29831,0.238 1.11724,0.5369 1.81988,0.6642 0.70264,0.1272 2.04405,0.4604 2.9809,0.7405 0.93685,0.2801 3.81129,0.6612 6.38764,0.8471 2.57634,0.1858 6.60056,0.6322 8.94269,0.9918 2.34213,0.3597 5.74649,0.7557 7.56526,0.8799 1.81878,0.1243 3.68145,0.4264 4.13928,0.6714 0.45786,0.2451 2.17222,0.5081 3.80967,0.5846 1.64801,0.077 3.28133,0.3914 3.65837,0.7043 0.60627,0.5031 0.65022,1.809 0.40008,11.8828 -0.1746,7.0307 -0.49666,12.2047 -0.85032,13.6597 -0.55875,2.2987 -0.23217,5.1195 0.77379,6.6841 0.24256,0.3773 3.22555,0.4904 11.4949,0.4359 12.46683,-0.082 17.8531,0.5668 19.81913,2.3882 l 0.98664,0.914 0.76971,-1.0205 c 0.7666,-1.0163 0.78508,-1.0183 4.54936,-0.5054 4.02723,0.5487 7.77047,0.8741 12.93522,1.1244 6.34475,0.3075 12.3545,1.3206 13.68981,2.3079 1.42164,1.051 2.76849,0.9983 2.58001,-0.101 -0.15594,-0.9096 0.30163,-0.9424 0.94124,-0.068 0.49266,0.6738 2.66888,1.3838 5.35859,1.7483 11.10687,1.5054 10.73396,1.4839 11.6749,0.6719 0.64655,-0.5579 1.52319,-0.7494 3.22959,-0.7055 3.05018,0.079 7.5412,0.5873 9.15561,1.0371 0.70264,0.1958 3.67289,0.4736 6.60056,0.6175 6.30383,0.3096 8.09343,0.5388 10.62034,1.3604 1.03978,0.3381 2.95607,0.5936 4.25843,0.5679 2.70614,-0.053 7.28169,0.7022 7.88251,1.3017 0.64017,0.6388 1.73339,0.474 2.88985,-0.4357 1.06273,-0.8359 1.07036,-0.8359 1.84041,0.015 0.42529,0.47 1.00286,0.7663 1.28353,0.6586 0.28067,-0.1077 0.91556,0.088 1.41086,0.435 1.35724,0.9507 1.18895,2.9523 -0.37078,4.4093 l -1.27136,1.1876 0.92885,0.6167 c 0.89397,0.5936 0.93141,0.9106 0.99869,8.4582 0.0383,4.3129 0.21352,8.7464 0.38909,9.8524 0.40187,2.5315 1.74523,4.0297 3.90596,4.3562 0.90372,0.1365 2.88874,0.5227 4.41113,0.858 1.52238,0.3354 4.20064,0.7312 5.95161,0.8796 1.75103,0.1484 3.95476,0.5386 4.89719,0.8671 2.32506,0.8105 5.50747,0.7872 6.1984,-0.045 0.82881,-0.9988 4.22759,-0.406 5.23858,0.9135 0.89027,1.162 2.23022,1.3166 3.26834,0.3771 0.97578,-0.8831 3.18922,-0.3868 4.03554,0.9049 0.71938,1.0979 2.27507,1.3436 3.12518,0.4935 0.34429,-0.3444 1.63744,-0.4802 3.81129,-0.4004 2.68587,0.099 3.39745,0.2726 3.8744,0.947 0.70873,1.0021 2.06346,1.067 3.07973,0.1473 0.8614,-0.7796 2.98243,-0.505 3.81095,0.4933 0.67628,0.8149 2.07224,0.7744 3.0248,-0.088 0.70613,-0.6391 0.9283,-0.6424 2.58857,-0.039 1.07832,0.3921 3.26941,0.6673 5.39308,0.6776 1.96731,0.01 3.75896,0.1994 3.98146,0.4219 0.46494,0.4649 0.49296,1.7967 0.08,3.8071 -0.20645,1.0051 -0.094,1.6149 0.39795,2.1584 0.85632,0.9463 0.90474,6.2802 0.0614,6.7724 -0.62871,0.367 -1.15518,2.9904 -1.08862,5.4246 0.0255,0.9368 0.0158,11.5723 -0.0217,23.6342 -0.0583,18.7587 0.0251,22.1536 0.5783,23.4703 0.40101,0.9548 0.50466,1.7634 0.27296,2.1292 -0.57493,0.9078 -0.50454,1.0311 1.30534,2.2853 1.88691,1.3076 2.8037,1.1983 3.41406,-0.407 0.61253,-1.6111 1.4422,-1.3748 1.08292,0.3085 -0.1625,0.7612 -0.32798,2.1258 -0.36772,3.0326 -0.0626,1.4271 0.0993,1.7424 1.20522,2.3474 2.50528,1.3705 2.48373,1.3343 1.44825,2.4365 -0.52685,0.5608 -1.31462,1.0197 -1.75055,1.0197 -0.53588,0 -1.0635,0.632 -1.62911,1.9516 -1.091,2.5452 -1.05523,2.8956 0.21075,2.0661 1.17814,-0.772 3.24786,-0.5283 4.08549,0.481 0.75302,0.9073 0.92736,0.8065 2.69103,-1.5558 1.25487,-1.6809 1.55701,-2.41 1.34639,-3.2493 -0.23102,-0.9204 -0.14811,-1.0497 0.555,-0.8658 1.0735,0.2807 1.34293,0.089 3.42909,-2.4396 1.51575,-1.8373 1.75017,-2.3972 1.75017,-4.18 0,-1.1322 -0.18515,-2.4045 -0.4114,-2.8273 -0.32513,-0.6075 -0.0149,-1.2941 1.47908,-3.2723 1.03978,-1.3769 1.89563,-2.8389 1.90189,-3.2488 0.006,-0.4098 0.29878,-0.7452 0.6501,-0.7452 0.35132,0 0.63876,0.3449 0.63876,0.7665 0,1.1402 0.85654,1.7886 2.36283,1.7886 1.17038,0 1.69485,-0.4465 4.12641,-3.5132 1.5321,-1.9323 4.02949,-5.0488 5.54979,-6.9257 1.5203,-1.8768 2.83488,-3.7364 2.92128,-4.1324 0.0864,-0.3959 1.69013,-2.4901 3.56384,-4.6536 3.04801,-3.5196 3.42066,-4.1382 3.53892,-5.875 0.14129,-2.0746 0.19516,-5.6424 0.0984,-6.5189 -0.13499,-1.2232 0.69485,-3.5132 1.27314,-3.5132 0.88252,0 1.13279,1.8996 0.92583,7.0264 l -0.18052,4.4713 3.71488,3.7906 c 2.04315,2.0848 3.96408,4.3843 4.26869,5.1101 0.51569,1.2286 9.98115,12.901 10.96736,13.5244 0.56824,0.3592 3.33298,-0.056 4.03119,-0.6054 0.29277,-0.2304 0.53231,-0.7947 0.53231,-1.254 0,-1.2271 1.04067,-0.6864 1.19632,0.6216 0.0725,0.6088 0.86786,1.9432 1.76758,2.9654 1.76027,1.9997 1.70951,1.65 1.11158,7.6614 -0.15671,1.5751 -0.15309,1.5789 1.39689,1.4904 1.51093,-0.086 1.55445,-0.047 1.5694,1.4259 0.0132,1.3153 0.7118,2.324 5.30774,7.6652 10.82177,12.5764 12.12493,14.0285 12.58931,14.0285 0.51131,0 0.90113,-0.7357 2.79489,-5.2751 0.71593,-1.7161 1.22358,-3.7081 1.22358,-4.8013 0,-1.5646 0.16126,-1.9296 0.99221,-2.2455 1.37194,-0.5216 2.57805,-3.7611 2.21042,-5.937 -0.22246,-1.3167 -0.13444,-1.698 0.44309,-1.9197 1.23609,-0.4743 1.97208,0.5485 1.67215,2.3239 -0.33194,1.9646 1.03689,4.9261 2.54118,5.4981 1.10344,0.4195 1.29422,0.8672 1.72743,4.0527 0.28037,2.0615 3.25471,8.8829 4.10141,9.4062 0.87468,0.5406 1.37049,2.6394 1.39945,5.9241 l 0.0302,3.4068 2.76798,-0.1251 c 1.52239,-0.069 3.30458,-0.3356 3.96042,-0.5929 0.90151,-0.3535 1.4402,-0.3351 2.20782,0.076 0.7155,0.3829 2.33882,0.4845 5.49614,0.3441 3.48433,-0.155 4.52926,-0.073 4.69875,0.3688 0.11991,0.3124 0.60235,0.568 1.0721,0.568 0.51833,0 1.11387,0.5023 1.51476,1.2776 0.72568,1.4032 1.52639,1.6216 2.34214,0.6387 0.29157,-0.3513 0.99676,-0.6387 1.56705,-0.6387 0.95662,0 1.02684,-0.1403 0.90603,-1.8099 -0.13095,-1.8097 -0.13099,-1.8098 -1.72786,-1.6849 -1.20944,0.095 -1.59691,-0.034 -1.59691,-0.5323 0,-0.3982 0.37862,-0.6573 0.9604,-0.6573 0.73177,0 1.07585,-0.3688 1.44523,-1.549 0.46646,-1.4902 0.42069,-1.6186 -1.2085,-3.386 -1.79552,-1.9479 -2.00201,-3.2825 -0.54052,-3.4927 0.5504,-0.079 1.19457,0.3275 1.78641,1.1279 0.50905,0.6886 1.76115,1.8159 2.78241,2.5052 1.59303,1.0751 2.12516,1.2174 3.7452,1.0011 1.77146,-0.2364 1.90155,-0.3443 2.10127,-1.7425 0.16225,-1.1355 0.41571,-1.4904 1.06461,-1.4904 0.71537,0 0.85897,0.2991 0.89721,1.8686 0.0336,1.3851 0.28459,2.0488 0.97007,2.5659 0.59758,0.4507 0.88268,1.07 0.80616,1.7511 -0.0909,0.8094 0.0792,1.0537 0.7333,1.0537 0.65133,0 0.82435,-0.2451 0.73539,-1.0419 -0.064,-0.5731 -0.37866,-1.3396 -0.69932,-1.7034 -0.32066,-0.3638 -0.71393,-1.6415 -0.87387,-2.8393 -0.37904,-2.8385 0.4829,-3.3312 2.10579,-1.2035 1.35086,1.7711 1.82601,1.8408 2.00401,0.294 0.17213,-1.4959 1.5743,-1.7649 2.70232,-0.5184 0.80837,0.8932 0.80663,0.911 -0.1605,1.6405 -0.78479,0.592 -0.95074,1.0688 -0.84075,2.416 l 0.13704,1.6785 2.74051,-0.1536 c 2.66726,-0.1494 2.77219,-0.1153 3.92759,1.2776 l 1.18708,1.4311 0.0115,-1.1711 c 0.007,-0.7586 0.23933,-1.1711 0.65836,-1.1711 0.86284,0 0.42128,-1.824 -0.926,-3.8249 -1.50901,-2.2412 -1.17592,-3.9733 0.58967,-3.0665 0.41472,0.2129 1.84257,0.5094 3.17299,0.6587 2.27996,0.2558 2.42675,0.2163 2.55506,-0.687 0.18396,-1.2954 1.87379,-1.5532 2.25743,-0.3444 0.153,0.4821 0.53068,0.8765 0.83929,0.8765 0.63821,0 1.93656,1.8015 1.93656,2.687 0,0.6727 1.33391,1.9972 2.01143,1.9972 0.3124,0 0.32811,-0.4979 0.0503,-1.5969 -0.69961,-2.7683 -0.67355,-2.8744 0.70622,-2.8744 1.07623,0 1.27753,0.1665 1.27753,1.0567 0,1.6647 1.25402,1.5556 2.34132,-0.2037 0.91169,-1.4752 1.02994,-1.5282 3.13565,-1.4059 2.09093,0.1214 2.18295,0.1777 2.07062,1.2661 -0.1502,1.4554 0.58621,1.9149 1.59942,0.998 0.62914,-0.5694 0.97083,-0.6174 1.68284,-0.2363 0.92238,0.4936 0.92046,0.4956 1.55914,-1.6128 0.22455,-0.7413 1.45195,-0.4794 2.02612,0.4324 0.3442,0.5466 0.2782,0.914 -0.27374,1.5239 -0.40003,0.4421 -0.72733,1.4176 -0.72733,2.1679 0,0.7502 -0.28745,2.052 -0.63877,2.8928 -0.7112,1.7022 -0.8484,4.2259 -0.24984,4.5958 0.2139,0.1322 1.86506,0.3652 3.66919,0.5177 l 3.2803,0.2772 -0.30396,-2.6191 c -0.25517,-2.1985 -0.19385,-2.6614 0.38168,-2.8823 0.37717,-0.1447 0.97535,-0.023 1.32935,0.271 0.88248,0.7324 1.2398,0.2367 1.11929,-1.5527 -0.0839,-1.2461 0.0307,-1.4842 0.65592,-1.3638 0.41673,0.08 1.00367,0.6593 1.30436,1.2867 0.74458,1.5534 1.92996,1.8327 3.83267,0.9029 1.50058,-0.7334 1.58255,-0.8771 1.47473,-2.5863 -0.0901,-1.4278 0.0307,-1.8098 0.57216,-1.8098 0.37747,0 0.7813,0.363 0.89729,0.8067 0.2096,0.8014 3.5167,3.4517 4.30706,3.4517 0.22719,0 0.5194,-0.3353 0.64937,-0.7452 0.13001,-0.4099 0.51931,-1.2243 0.86518,-1.8098 0.34587,-0.5856 0.94158,-1.7833 1.32378,-2.6616 0.38219,-0.8783 0.97079,-1.5969 1.30797,-1.5969 0.60925,0 2.10532,2.9196 1.70252,3.3224 -0.11591,0.1159 0.28944,1.1297 0.90078,2.2529 0.61134,1.1232 0.9923,2.2925 0.84658,2.5984 -0.14568,0.3058 -0.42797,0.8436 -0.62727,1.1949 -1.05157,1.8537 -1.34643,2.6395 -1.34643,3.5887 0,1.7358 0.70541,1.6303 2.32651,-0.348 1.92153,-2.345 3.49463,-2.853 4.54067,-1.4662 1.08535,1.4389 1.46333,0.6358 0.47392,-1.0069 -0.91104,-1.5126 -0.84172,-2.471 0.17873,-2.471 0.42797,0 0.61015,-0.3823 0.55815,-1.1711 -0.21522,-3.2642 0.9013,-3.0327 2.56809,0.5323 0.71175,1.5224 1.56654,2.768 1.89947,2.768 0.85011,0 1.26935,0.8341 0.70366,1.3998 -0.59699,0.597 -0.61032,1.1553 -0.0277,1.1553 0.49053,0 2.49965,-2.1384 2.52116,-2.6833 0.007,-0.1876 -0.64328,-0.6155 -1.44599,-0.9509 -0.80272,-0.3354 -1.57984,-0.9891 -1.72697,-1.4526 -0.28156,-0.8872 0.39783,-2.5785 1.03578,-2.5785 0.41226,0 2.57648,3.6778 2.57648,4.3784 0,0.2411 0.49538,1.0879 1.10088,1.8818 0.88644,1.1622 1.00069,1.564 0.5866,2.063 -0.28284,0.3408 -0.80058,0.6196 -1.15054,0.6196 -0.42043,0 -0.56288,0.2807 -0.41988,0.8275 0.1286,0.4918 -0.11034,1.1232 -0.58911,1.5564 -0.96155,0.8703 -1.05524,1.8745 -0.17485,1.8745 0.34689,0 0.74872,-0.4703 0.89299,-1.0452 0.41894,-1.6691 4.17279,-2.5624 3.97315,-0.9454 -0.13678,1.108 0.074,2.6638 0.43909,3.2408 0.31308,0.4948 0.50961,0.5094 1.03055,0.077 0.5708,-0.4737 0.5501,-0.7519 -0.18248,-2.4609 -0.60781,-1.418 -0.73394,-2.2818 -0.47759,-3.2711 0.46566,-1.797 1.53217,-1.7569 1.70707,0.064 0.074,0.7747 0.405,1.512 0.7348,1.6385 0.8519,0.3269 1.9527,2.71 1.6673,3.6094 -0.1322,0.4165 0.07,1.2314 0.4502,1.811 0.3798,0.5796 0.7547,1.7441 0.8331,2.5877 0.1927,2.0734 0.8952,2.8422 2.2963,2.5129 0.6173,-0.1451 1.2758,-0.4021 1.4634,-0.5711 0.6245,-0.5629 0.2191,-4.4 -0.5646,-5.3444 -0.4424,-0.533 -0.2657,-0.626 1.1905,-0.626 1.1628,0 1.7922,-0.2144 1.9671,-0.6702 0.1415,-0.3686 0.5931,-0.6037 1.0037,-0.5225 0.5893,0.1166 0.7465,0.5854 0.7465,2.2263 0,1.2815 0.2041,2.1487 0.5323,2.2614 0.3692,0.1268 0.5323,-0.3541 0.5323,-1.5695 0,-1.9444 0.9039,-2.7074 1.9583,-1.6531 0.5887,0.5888 1.1467,3.0495 1.0896,4.8052 -0.015,0.4577 0.1384,1.0325 0.3407,1.2775 0.2023,0.2451 0.5024,1.1658 0.6669,2.0461 0.3341,1.7876 1.6603,3.7224 2.5515,3.7224 0.3796,0 0.6291,-0.6196 0.7143,-1.7742 0.1184,-1.6045 0.2735,-1.8222 1.6214,-2.2753 l 1.4905,-0.5011 -0.1355,-14.8648 c -0.2456,-26.9674 -0.3413,-29.2119 -1.277,-29.9635 -1.3965,-1.1216 -1.5752,-1.9462 -1.3555,-6.2539 l 0.2129,-4.1742 2.768,-0.4377 2.768,-0.4378 0.1213,-4.8908 c 0.067,-2.6899 0.3063,-5.0757 0.5323,-5.3017 0.5482,-0.5482 0.5221,-4.3648 -0.048,-7.0232 -0.4113,-1.9178 -0.3165,-2.6609 0.9134,-7.1538 0.7548,-2.7575 1.5505,-5.2421 1.7682,-5.5213 0.2177,-0.2793 1.0044,-0.5667 1.7481,-0.6388 1.3045,-0.1264 1.3513,-0.1989 1.3231,-2.0474 -0.016,-1.0539 -0.14,-2.9702 -0.2755,-4.2584 -0.1355,-1.2882 -0.049,-3.343 0.1921,-4.5663 0.3705,-1.8795 0.3256,-2.3966 -0.2902,-3.3363 -0.6854,-1.046 -0.6857,-1.1595 -0.01,-1.9106 0.4807,-0.5312 0.6328,-1.1563 0.4543,-1.8673 -0.209,-0.833 -0.04,-1.2184 0.7677,-1.7475 0.9516,-0.6235 1.0358,-0.9505 1.0358,-4.0208 0,-6.2797 2.4254,-11.4641 7.7744,-16.6186 4.1589,-4.0076 5.0533,-6.2141 3.712,-9.158 -0.4089,-0.8974 -0.3796,-1.3246 0.1547,-2.2557 0.9964,-1.7363 1.2649,-4.2181 0.5353,-4.9477 -0.7941,-0.7941 -0.7798,-0.9048 0.3056,-2.3729 0.751,-1.0158 1.0632,-1.1621 1.7244,-0.8082 1.3739,0.7353 1.7932,2.2104 1.0414,3.6642 -0.419,0.8104 -0.746,2.9989 -0.8993,6.0195 -0.3351,6.6013 -0.089,7.0788 5.3676,10.4088 3.1276,1.9088 7.327,11.0331 7.2278,15.7042 -0.043,1.9993 0.132,2.6322 1.0147,3.6812 0.5862,0.6967 1.0659,1.7234 1.0659,2.2816 0,0.5582 0.296,1.4374 0.6577,1.9539 0.5002,0.7141 0.5487,1.1428 0.2024,1.7899 -0.3182,0.5944 -0.3249,1.6557 -0.022,3.5207 0.6056,3.7315 0.5456,6.0632 -0.2021,7.8526 -0.8435,2.0188 -0.2611,2.8232 1.7681,2.4425 1.3703,-0.257 1.4706,-0.1863 2.2502,1.5887 0.4488,1.0218 1.3302,3.6532 1.9587,5.8478 0.9198,3.2119 1.0508,4.1917 0.6717,5.0237 -0.259,0.5685 -0.471,2.0527 -0.471,3.2983 0,1.6605 -0.2401,2.5699 -0.9002,3.4091 -0.9629,1.2241 -0.9187,1.3899 0.5677,2.1309 1.0637,0.5304 1.5629,2.3114 1.7615,6.2848 0.066,1.3304 0.3501,2.6952 0.6303,3.0328 0.2802,0.3376 1.3853,0.7125 2.4559,0.8332 1.0706,0.1207 2.1424,0.4152 2.3817,0.6546 0.2394,0.2393 0.4986,2.321 0.5761,4.6259 0.1354,4.03 0.098,4.2355 -0.9739,5.3578 -1.35,1.4134 -1.7145,3.7341 -1.3883,8.8403 0.1271,1.9908 0.1722,8.0271 0.1,13.414 -0.072,5.3869 -0.1208,10.0818 -0.108,10.4331 0.013,0.3514 0.093,3.1934 0.1774,6.3156 0.085,3.1248 0.3524,5.875 0.595,6.1176 0.2425,0.2424 0.8881,0.6635 1.4348,0.9356 0.8716,0.434 1.0043,0.8322 1.0775,3.235 0.046,1.507 -0.1282,2.9953 -0.3872,3.3072 -0.358,0.4314 -0.2593,0.7153 0.4123,1.1857 0.7026,0.4921 0.9444,1.2728 1.183,3.8199 0.3183,3.3964 0.4441,3.5984 2.5028,4.0195 1.1702,0.2393 1.3538,0.4879 1.6802,2.2741 0.3858,2.1117 0.8112,2.3776 2.1655,1.3532 1.033,-0.7813 2.3672,-0.8121 2.3672,-0.055 0,1.3712 2.9195,1.5978 18.95,1.4707 l 15.7561,-0.125 0,-17.6724 0,-17.6725 18.9035,-0.1089 c 13.3692,-0.077 19.0701,0.029 19.4728,0.3637 0.4064,0.3372 0.5703,1.7096 0.5728,4.7931 0,2.3764 0.1577,4.9913 0.3463,5.8111 l 0.3429,1.4904 2.7505,0 2.7505,0 0.213,-6.1747 0.2129,-6.1747 18.95,0 18.95,0 0,2.0594 c 0,1.8053 0.1421,2.134 1.1525,2.6653 1.2952,0.6811 1.7405,2.2159 1.5325,5.2826 l -0.13,1.9163 2.1292,0 2.1292,0 0,-5.9618 0,-5.9618 21.9309,0.019 c 15.1608,0.013 22.8182,0.1774 24.8053,0.5323 1.581,0.2824 4.0722,0.7068 5.536,0.9433 1.4638,0.2364 3.7155,0.6189 5.0037,0.8499 1.2881,0.231 3.396,0.5917 4.6842,0.8016 3.4189,0.557 8.1329,1.6522 8.4529,1.9639 0.1523,0.1483 0.4693,1.7421 0.7046,3.5417 l 0.4276,3.272 1.7739,-0.1398 c 2.2484,-0.1771 3.2853,0.3819 3.9804,2.1463 0.3034,0.7701 1.0023,2.3808 1.553,3.5794 0.5508,1.1985 0.9878,2.8274 0.9711,3.6196 -0.04,1.8935 0.443,4.2119 1.0981,5.2731 0.2892,0.4684 0.6368,1.87 0.7726,3.1146 0.1715,1.5733 0.6345,2.7902 1.5195,3.9936 0.9462,1.2866 1.2127,2.0313 1.0386,2.902 -0.1296,0.6479 -0.025,1.3008 0.2345,1.461 0.2578,0.1594 0.4748,0.6138 0.4823,1.0098 0.01,0.3961 0.3024,1.1024 0.6555,1.5697 0.5508,0.7289 0.6993,0.7591 1.0446,0.2129 0.2213,-0.3501 0.4054,-1.2481 0.409,-1.9955 0,-0.7473 0.2102,-1.4847 0.4592,-1.6386 0.8054,-0.4978 2.1024,1.1294 2.1024,2.6376 0,0.7835 0.1835,1.4245 0.4079,1.4245 0.2243,0 0.8991,0.8382 1.4995,1.8627 1.0206,1.7416 1.2637,1.8964 3.7406,2.3838 1.4569,0.2866 4.6626,0.6704 7.1238,0.8528 3.8153,0.2827 4.5894,0.2311 5.2526,-0.3502 0.4876,-0.4273 1.6139,-0.6946 3.018,-0.7161 1.4921,-0.023 2.7692,-0.3466 3.8244,-0.9691 1.8961,-1.1188 2.2976,-1.1477 3.3028,-0.238 0.7158,0.6478 0.7898,0.6403 1.0534,-0.1065 0.3335,-0.9445 1.848,-2.2706 2.6087,-2.2841 0.2928,-0.01 0.9131,0.3713 1.3785,0.8367 0.6933,0.6933 1.1356,0.7862 2.4486,0.5144 l 1.6024,-0.3318 0.1254,-3.5994 c 0.069,-1.9796 0.2605,-3.7304 0.4258,-3.8906 0.3139,-0.3042 9.7311,-0.8739 15.6716,-0.948 2.3203,-0.029 3.6892,-0.2435 4.1865,-0.6562 0.6277,-0.5208 0.8781,-0.5258 1.6626,-0.033 0.508,0.319 1.4973,0.6983 2.1986,0.843 0.806,0.1664 1.3319,0.5701 1.4298,1.0979 0.085,0.4591 0.3737,1.105 0.6413,1.4354 0.2675,0.3304 0.4865,1.6718 0.4865,2.9809 0,2.1376 0.087,2.3676 0.8517,2.2563 0.4684,-0.068 1.2349,-0.1639 1.7033,-0.2129 0.764,-0.08 0.8736,-0.4833 1.0646,-3.9159 l 0.213,-3.8269 1.7033,-0.2851 c 0.9369,-0.1569 6.3571,-0.3063 12.0449,-0.3322 10.2832,-0.047 12.0152,0.1581 12.0152,1.4204 0,0.3144 0.3015,0.8219 0.6699,1.1277 1.2345,1.0245 2.3808,3.7972 2.0994,5.0782 -0.2795,1.2725 0.1368,1.8562 0.9606,1.347 0.3084,-0.1906 0.5419,-1.905 0.6185,-4.5408 l 0.123,-4.2345 2.1292,-0.357 c 1.1711,-0.1964 7.399,-0.2558 13.8399,-0.1321 6.4408,0.1237 14.9934,0.2138 19.0057,0.2001 4.921,-0.017 7.3902,0.1294 7.5877,0.449 0.408,0.6601 3.2721,1.8078 3.9052,1.5648 0.287,-0.1101 0.5846,-0.6431 0.6613,-1.1844 0.1387,-0.9785 0.196,-0.9871 9.9339,-1.4949 11.7549,-0.6129 18.0228,-0.7104 20.799,-0.3234 1.3138,0.1831 2.2331,0.1162 2.5337,-0.1845 0.2943,-0.2942 2.4499,-0.4718 5.727,-0.4718 4.6111,0 5.3982,0.1058 6.423,0.8635 0.6423,0.4749 1.8756,0.9783 2.7407,1.1187 1.3952,0.2264 1.6182,0.1357 1.9753,-0.8036 0.4995,-1.3138 1.7881,-1.6045 7.1121,-1.6045 3.9781,0 3.9818,0 4.631,1.2564 0.3573,0.691 0.6497,2.2965 0.6497,3.5677 0,4.4929 1.7886,6.3823 5.987,6.3244 1.0209,-0.014 1.6936,0.2011 1.8426,0.5894 0.3613,0.9414 1.0904,0.7268 1.5389,-0.453 0.5651,-1.4863 2.5143,-1.4338 4.3501,0.117 0.7693,0.65 2.357,1.6199 3.528,2.1556 1.1711,0.5356 2.4167,1.1442 2.768,1.3524 0.3513,0.2082 1.4532,0.7883 2.4486,1.2892 l 1.8098,0.9106 0,56.3862 0,56.3861 -768.21986,0 -768.21984,0 0,-139.2717 z M 925.35889,446.07025 c 0,-0.2342 -0.19163,-0.4258 -0.42585,-0.4258 -0.23421,0 -0.42584,0.1916 -0.42584,0.4258 0,0.2343 0.19163,0.4259 0.42584,0.4259 0.23422,0 0.42585,-0.1916 0.42585,-0.4259 z m 83.45451,8.9229 c -0.3376,-0.6308 -0.3558,-1.0616 -0.057,-1.3599 0.7031,-0.7032 1.8473,-0.011 1.6948,1.0251 -0.1875,1.2746 -1.041,1.4491 -1.6374,0.3348 z m -9.145,-5.5161 c -0.34727,-0.5619 0.16191,-1.3593 0.6682,-1.0464 0.5172,0.3196 0.5139,1.4722 0,1.4722 -0.2204,0 -0.51921,-0.1916 -0.66396,-0.4258 z m -53.29538,-10.8596 c -0.59183,-0.437 -0.66602,-0.7033 -0.29954,-1.0753 0.65618,-0.6661 2.0265,-0.3565 2.19045,0.4949 0.18171,0.9435 -0.93498,1.2863 -1.89091,0.5804 z m -187.4387,-27.9187 c 0.10246,-0.3074 0.43781,-0.6428 0.74523,-0.7452 0.31938,-0.1065 0.47907,0.053 0.37261,0.3726 -0.10246,0.3074 -0.43781,0.6428 -0.74523,0.7452 -0.31938,0.1065 -0.47907,-0.053 -0.37261,-0.3726 z"
     id="path3144"
     inkscape:connector-curvature="0" />
</svg>
